  0
SECTION
  2
HEADER
  9
$ACADVER
  1
AC1009
  9
$INSBASE
 10
0.0
 20
0.0
 30
0.0
  9
$EXTMIN
 10
0.0
 20
0.0
 30
0.0
  9
$EXTMAX
 10
0.0
 20
0.0
 30
0.0
  0
ENDSEC
  0
SECTION
  2
TABLES
  0
TABLE
  2
VPORT
 70
1
  0
VPORT
  2
*ACTIVE
 70
0
 10
0.0
 20
0.0
 11
1.0
 21
1.0
 12
-5.0
 22
1.0
 13
0.0
 23
0.0
 14
0.1
 24
0.1
 15
0.1
 25
0.1
 16
0.0
 26
0.0
 36
1.0
 17
0.0
 27
0.0
 37
0.0
 40
10.0
 41
1.0
 42
50.0
 43
0.0
 44
0.0
 50
0.0
 51
0.0
 71
0
 72
100
 73
1
 74
1
 75
0
 76
0
 77
0
 78
0
  0
ENDTAB
  0
TABLE
  2
LTYPE
 70
8
  0
LTYPE
  2
CONTINUOUS
 70
0
  3
Solid line
 72
65
 73
0
 40
0.0
  0
LTYPE
  2
DOT
 70
0
  3
. . . . . . .
 72
65
 73
2
 40
0.25
 49
0.0
 49
-0.25
  0
LTYPE
  2
DASHED
 70
0
  3
__ __ __ __ __
 72
65
 73
2
 40
0.8
 49
0.5
 49
-0.3
  0
LTYPE
  2
DASHDOT
 70
0
  3
__ . __ . __ .
 72
65
 73
4
 40
1.0
 49
0.5
 49
-0.25
 49
0.0
 49
-0.25
  0
LTYPE
  2
DIVIDE
 70
0
  3
____ . . ____ . . 
 72
65
 73
6
 40
1.25
 49
0.5
 49
-0.25
 49
0.0
 49
-0.25
 49
0.0
 49
-0.25
  0
LTYPE
  2
BORDER
 70
0
  3
__ __ . __ __ . 
 72
65
 73
6
 40
1.75
 49
0.5
 49
-0.25
 49
0.5
 49
-0.25
 49
0.0
 49
-0.25
  0
LTYPE
  2
HIDDEN
 70
0
  3
__ __ __ __ __
 72
65
 73
2
 40
0.4
 49
0.25
 49
-0.25
  0
LTYPE
  2
CENTER
 70
0
  3
____ _ ____ _ __
 72
65
 73
4
 40
2.0
 49
1.25
 49
-0.25
 49
0.25
 49
-0.25
  0
ENDTAB
  0
TABLE
  2
LAYER
 70
1
  0
LAYER
  2
PYDXF
 70
64
 62
7
  6
continuous
  0
ENDTAB
  0
TABLE
  2
STYLE
 70
1
  0
STYLE
  2
STANDARD
 70
0
 40
0
 41
1.0
 50
0.0
 71
0
 42
1
 3
ARIAL.TTF
 4

  0
ENDTAB
  0
TABLE
  2
VIEW
 70
1
  0
VIEW
  2
BF_TOPVIEW
 70
0
 40
120.0
 10
0.0
 20
0.0
 41
200.0
 11
0.0
 21
0.0
 31
1.0
 12
0.0
 22
0.0
 32
0.0
 42
50.0
 43
0.0
 44
0.0
 50
0.0
 71
0
  0
ENDTAB
  0
ENDSEC
  0
SECTION
  2
BLOCKS
  0
ENDSEC
  0
SECTION
  2
ENTITIES
  0
POLYLINE
  8
0
 70
64
 66
1
 10
0.0
 20
0.0
 30
0.0
 71
400
 72
400
  0
VERTEX
  8
0
 10
98.77251434326172
 20
75.47563171386719
 30
4.410933017730713
 70
192
  0
VERTEX
  8
0
 10
111.67911529541016
 20
53.12063217163086
 30
4.410933017730713
 70
192
  0
VERTEX
  8
0
 10
11.785808563232422
 20
125.69783020019531
 30
4.410933017730713
 70
192
  0
VERTEX
  8
0
 10
-14.027591705322266
 20
125.69783020019531
 30
4.410933017730713
 70
192
  0
VERTEX
  8
0
 10
81.50001525878906
 20
94.65863037109375
 30
4.410933017730713
 70
192
  0
VERTEX
  8
0
 10
37.03500747680664
 20
120.33082580566406
 30
4.410933017730713
 70
192
  0
VERTEX
  8
0
 10
-113.92089080810547
 20
53.12063217163086
 30
4.410933017730713
 70
192
  0
VERTEX
  8
0
 10
-101.01428985595703
 20
75.47563171386719
 30
4.410933017730713
 70
192
  0
VERTEX
  8
0
 10
11.785808563232422
 20
-119.90017700195312
 30
4.410933017730713
 70
192
  0
VERTEX
  8
0
 10
37.03500747680664
 20
-114.53317260742188
 30
4.410933017730713
 70
192
  0
VERTEX
  8
0
 10
118.1891098022461
 20
33.084632873535156
 30
4.410933017730713
 70
192
  0
VERTEX
  8
0
 10
60.616607666015625
 20
109.83082580566406
 30
4.410933017730713
 70
192
  0
VERTEX
  8
0
 10
-86.91768646240234
 20
91.13153076171875
 30
4.410933017730713
 70
192
  0
VERTEX
  8
0
 10
-34.634193420410156
 20
121.31782531738281
 30
4.410933017730713
 70
192
  0
VERTEX
  8
0
 10
60.616607666015625
 20
-104.03317260742188
 30
4.410933017730713
 70
192
  0
VERTEX
  8
0
 10
81.50001525878906
 20
-88.86097717285156
 30
4.410933017730713
 70
192
  0
VERTEX
  8
0
 10
118.1891098022461
 20
-27.286970138549805
 30
4.410933017730713
 70
192
  0
VERTEX
  8
0
 10
111.67911529541016
 20
-47.32297134399414
 30
4.410933017730713
 70
192
  0
VERTEX
  8
0
 10
-101.01428985595703
 20
-69.67796325683594
 30
4.410933017730713
 70
192
  0
VERTEX
  8
0
 10
-113.92089080810547
 20
-47.32297134399414
 30
4.410933017730713
 70
192
  0
VERTEX
  8
0
 10
-121.50688934326172
 20
29.773130416870117
 30
4.410933017730713
 70
192
  0
VERTEX
  8
0
 10
98.77251434326172
 20
-69.67796325683594
 30
4.410933017730713
 70
192
  0
VERTEX
  8
0
 10
-14.027591705322266
 20
-119.90017700195312
 30
4.410933017730713
 70
192
  0
VERTEX
  8
0
 10
135.4040985107422
 20
2.8988304138183594
 30
4.410933017730713
 70
192
  0
VERTEX
  8
0
 10
141.4040985107422
 20
2.8988304138183594
 30
4.410933017730713
 70
192
  0
VERTEX
  8
0
 10
140.71810913085938
 20
-3.6295995712280273
 30
4.410933017730713
 70
192
  0
VERTEX
  8
0
 10
134.84910583496094
 20
-2.382129669189453
 30
4.410933017730713
 70
192
  0
VERTEX
  8
0
 10
138.68910217285156
 20
-9.872669219970703
 30
4.410933017730713
 70
192
  0
VERTEX
  8
0
 10
140.71810913085938
 20
9.427260398864746
 30
4.410933017730713
 70
192
  0
VERTEX
  8
0
 10
133.20809936523438
 20
-7.432270050048828
 30
4.410933017730713
 70
192
  0
VERTEX
  8
0
 10
135.4071044921875
 20
-15.557668685913086
 30
4.410933017730713
 70
192
  0
VERTEX
  8
0
 10
134.84910583496094
 20
8.179790496826172
 30
4.410933017730713
 70
192
  0
VERTEX
  8
0
 10
138.68910217285156
 20
15.670330047607422
 30
4.410933017730713
 70
192
  0
VERTEX
  8
0
 10
130.5531005859375
 20
-12.030869483947754
 30
4.410933017730713
 70
192
  0
VERTEX
  8
0
 10
131.01510620117188
 20
-20.435869216918945
 30
4.410933017730713
 70
192
  0
VERTEX
  8
0
 10
127.00011444091797
 20
-15.977069854736328
 30
4.410933017730713
 70
192
  0
VERTEX
  8
0
 10
125.70410919189453
 20
-24.294368743896484
 30
4.410933017730713
 70
192
  0
VERTEX
  8
0
 10
122.70410919189453
 20
-19.098169326782227
 30
4.410933017730713
 70
192
  0
VERTEX
  8
0
 10
119.70711517333984
 20
-26.96436882019043
 30
4.410933017730713
 70
192
  0
VERTEX
  8
0
 10
117.85311126708984
 20
-21.25796890258789
 30
4.410933017730713
 70
192
  0
VERTEX
  8
0
 10
113.57910919189453
 20
-22.166568756103516
 30
4.410933017730713
 70
192
  0
VERTEX
  8
0
 10
106.19811248779297
 20
-44.882568359375
 30
4.410933017730713
 70
192
  0
VERTEX
  8
0
 10
93.91841125488281
 20
-66.15127563476562
 30
4.410933017730713
 70
192
  0
VERTEX
  8
0
 10
77.48521423339844
 20
-84.40206909179688
 30
4.410933017730713
 70
192
  0
VERTEX
  8
0
 10
57.616607666015625
 20
-98.83717346191406
 30
4.410933017730713
 70
192
  0
VERTEX
  8
0
 10
35.180908203125
 20
-108.826171875
 30
4.410933017730713
 70
192
  0
VERTEX
  8
0
 10
11.158609390258789
 20
-113.93217468261719
 30
4.410933017730713
 70
192
  0
VERTEX
  8
0
 10
-13.400390625
 20
-113.93217468261719
 30
4.410933017730713
 70
192
  0
VERTEX
  8
0
 10
-34.634193420410156
 20
-115.52017211914062
 30
4.410933017730713
 70
192
  0
VERTEX
  8
0
 10
-36.763492584228516
 20
-108.96617126464844
 30
4.410933017730713
 70
192
  0
VERTEX
  8
0
 10
-39.68749237060547
 20
-112.21417236328125
 30
4.410933017730713
 70
192
  0
VERTEX
  8
0
 10
-35.672691345214844
 20
-116.67317199707031
 30
4.410933017730713
 70
192
  0
VERTEX
  8
0
 10
-40.98339080810547
 20
-120.53117370605469
 30
4.410933017730713
 70
192
  0
VERTEX
  8
0
 10
-43.98339080810547
 20
-115.33517456054688
 30
4.410933017730713
 70
192
  0
VERTEX
  8
0
 10
-46.98029327392578
 20
-123.201171875
 30
4.410933017730713
 70
192
  0
VERTEX
  8
0
 10
-48.83439254760742
 20
-117.49516296386719
 30
4.410933017730713
 70
192
  0
VERTEX
  8
0
 10
-53.40119171142578
 20
-124.566162109375
 30
4.410933017730713
 70
192
  0
VERTEX
  8
0
 10
-54.02839279174805
 20
-118.59916687011719
 30
4.410933017730713
 70
192
  0
VERTEX
  8
0
 10
-59.3383903503418
 20
-118.59916687011719
 30
4.410933017730713
 70
192
  0
VERTEX
  8
0
 10
-59.96559143066406
 20
-124.566162109375
 30
4.410933017730713
 70
192
  0
VERTEX
  8
0
 10
-64.53238677978516
 20
-117.49516296386719
 30
4.410933017730713
 70
192
  0
VERTEX
  8
0
 10
-66.38648986816406
 20
-123.201171875
 30
4.410933017730713
 70
192
  0
VERTEX
  8
0
 10
-69.38338470458984
 20
-115.33517456054688
 30
4.410933017730713
 70
192
  0
VERTEX
  8
0
 10
-72.38338470458984
 20
-120.53117370605469
 30
4.410933017730713
 70
192
  0
VERTEX
  8
0
 10
-73.67929077148438
 20
-112.21417236328125
 30
4.410933017730713
 70
192
  0
VERTEX
  8
0
 10
-77.69408416748047
 20
-116.67317199707031
 30
4.410933017730713
 70
192
  0
VERTEX
  8
0
 10
-77.23239135742188
 20
-108.26817321777344
 30
4.410933017730713
 70
192
  0
VERTEX
  8
0
 10
-82.08648681640625
 20
-111.795166015625
 30
4.410933017730713
 70
192
  0
VERTEX
  8
0
 10
-79.88748931884766
 20
-103.66917419433594
 30
4.410933017730713
 70
192
  0
VERTEX
  8
0
 10
-85.36869049072266
 20
-106.11016845703125
 30
4.410933017730713
 70
192
  0
VERTEX
  8
0
 10
-81.52828979492188
 20
-98.61917114257812
 30
4.410933017730713
 70
192
  0
VERTEX
  8
0
 10
133.20809936523438
 20
13.229930877685547
 30
4.410933017730713
 70
192
  0
VERTEX
  8
0
 10
135.4071044921875
 20
21.355329513549805
 30
4.410933017730713
 70
192
  0
VERTEX
  8
0
 10
130.5531005859375
 20
17.828529357910156
 30
4.410933017730713
 70
192
  0
VERTEX
  8
0
 10
131.01510620117188
 20
26.233530044555664
 30
4.410933017730713
 70
192
  0
VERTEX
  8
0
 10
127.00011444091797
 20
21.774730682373047
 30
4.410933017730713
 70
192
  0
VERTEX
  8
0
 10
125.70410919189453
 20
30.092029571533203
 30
4.410933017730713
 70
192
  0
VERTEX
  8
0
 10
122.70410919189453
 20
24.895830154418945
 30
4.410933017730713
 70
192
  0
VERTEX
  8
0
 10
119.70711517333984
 20
32.76203155517578
 30
4.410933017730713
 70
192
  0
VERTEX
  8
0
 10
117.85311126708984
 20
27.05562973022461
 30
4.410933017730713
 70
192
  0
VERTEX
  8
0
 10
113.57910919189453
 20
27.964229583740234
 30
4.410933017730713
 70
192
  0
VERTEX
  8
0
 10
106.19811248779297
 20
50.68022918701172
 30
4.410933017730713
 70
192
  0
VERTEX
  8
0
 10
93.91841125488281
 20
71.94892883300781
 30
4.410933017730713
 70
192
  0
VERTEX
  8
0
 10
77.48521423339844
 20
90.19973754882812
 30
4.410933017730713
 70
192
  0
VERTEX
  8
0
 10
57.616607666015625
 20
104.63482666015625
 30
4.410933017730713
 70
192
  0
VERTEX
  8
0
 10
35.180908203125
 20
114.62382507324219
 30
4.410933017730713
 70
192
  0
VERTEX
  8
0
 10
11.158609390258789
 20
119.72982788085938
 30
4.410933017730713
 70
192
  0
VERTEX
  8
0
 10
-13.400390625
 20
119.72982788085938
 30
4.410933017730713
 70
192
  0
VERTEX
  8
0
 10
-36.763492584228516
 20
114.76382446289062
 30
4.410933017730713
 70
192
  0
VERTEX
  8
0
 10
-39.68749237060547
 20
118.01182556152344
 30
4.410933017730713
 70
192
  0
VERTEX
  8
0
 10
-35.672691345214844
 20
122.4708251953125
 30
4.410933017730713
 70
192
  0
VERTEX
  8
0
 10
-40.98339080810547
 20
126.32882690429688
 30
4.410933017730713
 70
192
  0
VERTEX
  8
0
 10
-43.98339080810547
 20
121.13282775878906
 30
4.410933017730713
 70
192
  0
VERTEX
  8
0
 10
-46.98029327392578
 20
128.9988250732422
 30
4.410933017730713
 70
192
  0
VERTEX
  8
0
 10
-48.83439254760742
 20
123.29283142089844
 30
4.410933017730713
 70
192
  0
VERTEX
  8
0
 10
-53.40119171142578
 20
130.36383056640625
 30
4.410933017730713
 70
192
  0
VERTEX
  8
0
 10
-54.02839279174805
 20
124.39683532714844
 30
4.410933017730713
 70
192
  0
VERTEX
  8
0
 10
-59.3383903503418
 20
124.39683532714844
 30
4.410933017730713
 70
192
  0
VERTEX
  8
0
 10
-59.96559143066406
 20
130.36383056640625
 30
4.410933017730713
 70
192
  0
VERTEX
  8
0
 10
-64.53238677978516
 20
123.29283142089844
 30
4.410933017730713
 70
192
  0
VERTEX
  8
0
 10
-66.38648986816406
 20
128.9988250732422
 30
4.410933017730713
 70
192
  0
VERTEX
  8
0
 10
-69.38338470458984
 20
121.13282775878906
 30
4.410933017730713
 70
192
  0
VERTEX
  8
0
 10
-72.38338470458984
 20
126.32882690429688
 30
4.410933017730713
 70
192
  0
VERTEX
  8
0
 10
-73.67929077148438
 20
118.01182556152344
 30
4.410933017730713
 70
192
  0
VERTEX
  8
0
 10
-77.69408416748047
 20
122.4708251953125
 30
4.410933017730713
 70
192
  0
VERTEX
  8
0
 10
-77.23239135742188
 20
114.06582641601562
 30
4.410933017730713
 70
192
  0
VERTEX
  8
0
 10
-82.08648681640625
 20
117.59283447265625
 30
4.410933017730713
 70
192
  0
VERTEX
  8
0
 10
-79.88748931884766
 20
109.46682739257812
 30
4.410933017730713
 70
192
  0
VERTEX
  8
0
 10
-85.36869049072266
 20
111.9078369140625
 30
4.410933017730713
 70
192
  0
VERTEX
  8
0
 10
-81.52828979492188
 20
104.41682434082031
 30
4.410933017730713
 70
192
  0
VERTEX
  8
0
 10
-87.39718627929688
 20
105.66482543945312
 30
4.410933017730713
 70
192
  0
VERTEX
  8
0
 10
-82.08338928222656
 20
99.13592529296875
 30
4.410933017730713
 70
192
  0
VERTEX
  8
0
 10
-87.39718627929688
 20
-99.86717224121094
 30
4.410933017730713
 70
192
  0
VERTEX
  8
0
 10
-82.08338928222656
 20
-93.33827209472656
 30
4.410933017730713
 70
192
  0
VERTEX
  8
0
 10
-88.08338928222656
 20
-93.33827209472656
 30
4.410933017730713
 70
192
  0
VERTEX
  8
0
 10
-86.91768646240234
 20
-85.3338623046875
 30
4.410933017730713
 70
192
  0
VERTEX
  8
0
 10
-80.17798614501953
 20
-83.90127563476562
 30
4.410933017730713
 70
192
  0
VERTEX
  8
0
 10
-81.52828979492188
 20
-88.05726623535156
 30
4.410933017730713
 70
192
  0
VERTEX
  8
0
 10
-96.16018676757812
 20
-66.15127563476562
 30
4.410933017730713
 70
192
  0
VERTEX
  8
0
 10
-108.43988800048828
 20
-44.882568359375
 30
4.410933017730713
 70
192
  0
VERTEX
  8
0
 10
-121.50688934326172
 20
-23.9754695892334
 30
4.410933017730713
 70
192
  0
VERTEX
  8
0
 10
-116.02888488769531
 20
-21.525569915771484
 30
4.410933017730713
 70
192
  0
VERTEX
  8
0
 10
-117.09688568115234
 20
-12.030869483947754
 30
4.410933017730713
 70
192
  0
VERTEX
  8
0
 10
-117.03788757324219
 20
-11.928169250488281
 30
4.410933017730713
 70
192
  0
VERTEX
  8
0
 10
-120.64988708496094
 20
-15.977069854736328
 30
4.410933017730713
 70
192
  0
VERTEX
  8
0
 10
-124.94588470458984
 20
-19.098169326782227
 30
4.410933017730713
 70
192
  0
VERTEX
  8
0
 10
-121.94588470458984
 20
-24.294368743896484
 30
4.410933017730713
 70
192
  0
VERTEX
  8
0
 10
-127.94288635253906
 20
-26.96436882019043
 30
4.410933017730713
 70
192
  0
VERTEX
  8
0
 10
-129.79689025878906
 20
-21.25796890258789
 30
4.410933017730713
 70
192
  0
VERTEX
  8
0
 10
-134.3638916015625
 20
-28.32917022705078
 30
4.410933017730713
 70
192
  0
VERTEX
  8
0
 10
-134.9908905029297
 20
-22.362070083618164
 30
4.410933017730713
 70
192
  0
VERTEX
  8
0
 10
-140.30088806152344
 20
-22.362070083618164
 30
4.410933017730713
 70
192
  0
VERTEX
  8
0
 10
-140.9279022216797
 20
-28.32917022705078
 30
4.410933017730713
 70
192
  0
VERTEX
  8
0
 10
-145.49488830566406
 20
-21.25796890258789
 30
4.410933017730713
 70
192
  0
VERTEX
  8
0
 10
-147.34889221191406
 20
-26.96436882019043
 30
4.410933017730713
 70
192
  0
VERTEX
  8
0
 10
-150.3459014892578
 20
-19.098169326782227
 30
4.410933017730713
 70
192
  0
VERTEX
  8
0
 10
-153.3459014892578
 20
-24.294368743896484
 30
4.410933017730713
 70
192
  0
VERTEX
  8
0
 10
-154.6418914794922
 20
-15.977069854736328
 30
4.410933017730713
 70
192
  0
VERTEX
  8
0
 10
-158.65689086914062
 20
-20.435869216918945
 30
4.410933017730713
 70
192
  0
VERTEX
  8
0
 10
-158.1949005126953
 20
-12.030869483947754
 30
4.410933017730713
 70
192
  0
VERTEX
  8
0
 10
-163.04888916015625
 20
-15.557668685913086
 30
4.410933017730713
 70
192
  0
VERTEX
  8
0
 10
-160.8498992919922
 20
-7.432270050048828
 30
4.410933017730713
 70
192
  0
VERTEX
  8
0
 10
-166.33090209960938
 20
-9.872669219970703
 30
4.410933017730713
 70
192
  0
VERTEX
  8
0
 10
-162.4908905029297
 20
-2.382129669189453
 30
4.410933017730713
 70
192
  0
VERTEX
  8
0
 10
-87.39718627929688
 20
-86.80976867675781
 30
4.410933017730713
 70
192
  0
VERTEX
  8
0
 10
-88.08338928222656
 20
99.13592529296875
 30
4.410933017730713
 70
192
  0
VERTEX
  8
0
 10
-81.52828979492188
 20
93.85493469238281
 30
4.410933017730713
 70
192
  0
VERTEX
  8
0
 10
-87.39718627929688
 20
92.60743713378906
 30
4.410933017730713
 70
192
  0
VERTEX
  8
0
 10
-80.17798614501953
 20
89.69892883300781
 30
4.410933017730713
 70
192
  0
VERTEX
  8
0
 10
-96.16018676757812
 20
71.94892883300781
 30
4.410933017730713
 70
192
  0
VERTEX
  8
0
 10
-108.43988800048828
 20
50.68022918701172
 30
4.410933017730713
 70
192
  0
VERTEX
  8
0
 10
-116.02888488769531
 20
27.323230743408203
 30
4.410933017730713
 70
192
  0
VERTEX
  8
0
 10
-117.09688568115234
 20
17.828529357910156
 30
4.410933017730713
 70
192
  0
VERTEX
  8
0
 10
-117.03788757324219
 20
17.725830078125
 30
4.410933017730713
 70
192
  0
VERTEX
  8
0
 10
-120.64988708496094
 20
21.774730682373047
 30
4.410933017730713
 70
192
  0
VERTEX
  8
0
 10
-124.94588470458984
 20
24.895830154418945
 30
4.410933017730713
 70
192
  0
VERTEX
  8
0
 10
-121.94588470458984
 20
30.092029571533203
 30
4.410933017730713
 70
192
  0
VERTEX
  8
0
 10
-127.94288635253906
 20
32.76203155517578
 30
4.410933017730713
 70
192
  0
VERTEX
  8
0
 10
-129.79689025878906
 20
27.05562973022461
 30
4.410933017730713
 70
192
  0
VERTEX
  8
0
 10
-134.3638916015625
 20
34.1268310546875
 30
4.410933017730713
 70
192
  0
VERTEX
  8
0
 10
-134.9908905029297
 20
28.159730911254883
 30
4.410933017730713
 70
192
  0
VERTEX
  8
0
 10
-140.30088806152344
 20
28.159730911254883
 30
4.410933017730713
 70
192
  0
VERTEX
  8
0
 10
-140.9279022216797
 20
34.1268310546875
 30
4.410933017730713
 70
192
  0
VERTEX
  8
0
 10
-145.49488830566406
 20
27.05562973022461
 30
4.410933017730713
 70
192
  0
VERTEX
  8
0
 10
-147.34889221191406
 20
32.76203155517578
 30
4.410933017730713
 70
192
  0
VERTEX
  8
0
 10
-150.3459014892578
 20
24.895830154418945
 30
4.410933017730713
 70
192
  0
VERTEX
  8
0
 10
-153.3459014892578
 20
30.092029571533203
 30
4.410933017730713
 70
192
  0
VERTEX
  8
0
 10
-154.6418914794922
 20
21.774730682373047
 30
4.410933017730713
 70
192
  0
VERTEX
  8
0
 10
-158.65689086914062
 20
26.233530044555664
 30
4.410933017730713
 70
192
  0
VERTEX
  8
0
 10
-158.1949005126953
 20
17.828529357910156
 30
4.410933017730713
 70
192
  0
VERTEX
  8
0
 10
-163.04888916015625
 20
21.355329513549805
 30
4.410933017730713
 70
192
  0
VERTEX
  8
0
 10
-160.8498992919922
 20
13.229930877685547
 30
4.410933017730713
 70
192
  0
VERTEX
  8
0
 10
-166.33090209960938
 20
15.670330047607422
 30
4.410933017730713
 70
192
  0
VERTEX
  8
0
 10
-162.4908905029297
 20
8.179790496826172
 30
4.410933017730713
 70
192
  0
VERTEX
  8
0
 10
-168.35989379882812
 20
9.427260398864746
 30
4.410933017730713
 70
192
  0
VERTEX
  8
0
 10
-163.0458984375
 20
2.8988304138183594
 30
4.410933017730713
 70
192
  0
VERTEX
  8
0
 10
-168.35989379882812
 20
-3.6295995712280273
 30
4.410933017730713
 70
192
  0
VERTEX
  8
0
 10
-169.0458984375
 20
2.8988304138183594
 30
4.410933017730713
 70
192
  0
VERTEX
  8
0
 10
29.64160919189453
 20
-82.42626953125
 30
4.410933017730713
 70
192
  0
VERTEX
  8
0
 10
35.64160919189453
 20
-82.42626953125
 30
4.410933017730713
 70
192
  0
VERTEX
  8
0
 10
35.91481018066406
 20
-85.02517700195312
 30
4.410933017730713
 70
192
  0
VERTEX
  8
0
 10
36.72230911254883
 20
-87.51057434082031
 30
4.410933017730713
 70
192
  0
VERTEX
  8
0
 10
31.241008758544922
 20
-89.95097351074219
 30
4.410933017730713
 70
192
  0
VERTEX
  8
0
 10
31.366008758544922
 20
-90.16746520996094
 30
4.410933017730713
 70
192
  0
VERTEX
  8
0
 10
38.028907775878906
 20
-89.77366638183594
 30
4.410933017730713
 70
192
  0
VERTEX
  8
0
 10
31.25640869140625
 20
-96.74806213378906
 30
4.410933017730713
 70
192
  0
VERTEX
  8
0
 10
39.77750778198242
 20
-91.71566772460938
 30
4.410933017730713
 70
192
  0
VERTEX
  8
0
 10
40.83450698852539
 20
-92.48367309570312
 30
4.410933017730713
 70
192
  0
VERTEX
  8
0
 10
29.402307510375977
 20
-91.04176330566406
 30
4.410933017730713
 70
192
  0
VERTEX
  8
0
 10
9.831108093261719
 20
-101.30216979980469
 30
4.410933017730713
 70
192
  0
VERTEX
  8
0
 10
9.203908920288086
 20
-95.33506774902344
 30
4.410933017730713
 70
192
  0
VERTEX
  8
0
 10
-11.445690155029297
 20
-95.33506774902344
 30
4.410933017730713
 70
192
  0
VERTEX
  8
0
 10
-12.072891235351562
 20
-101.30216979980469
 30
4.410933017730713
 70
192
  0
VERTEX
  8
0
 10
-25.384891510009766
 20
-92.37217712402344
 30
4.410933017730713
 70
192
  0
VERTEX
  8
0
 10
-31.838491439819336
 20
-88.05726623535156
 30
4.410933017730713
 70
192
  0
VERTEX
  8
0
 10
-25.96959114074707
 20
-86.80976867675781
 30
4.410933017730713
 70
192
  0
VERTEX
  8
0
 10
-27.998090744018555
 20
-80.56666564941406
 30
4.410933017730713
 70
192
  0
VERTEX
  8
0
 10
-31.28339195251465
 20
-93.33827209472656
 30
4.410933017730713
 70
192
  0
VERTEX
  8
0
 10
-31.682392120361328
 20
-97.13417053222656
 30
4.410933017730713
 70
192
  0
VERTEX
  8
0
 10
94.59580993652344
 20
-39.71696853637695
 30
4.410933017730713
 70
192
  0
VERTEX
  8
0
 10
89.11460876464844
 20
-37.27656936645508
 30
4.410933017730713
 70
192
  0
VERTEX
  8
0
 10
93.5182113647461
 20
-23.723369598388672
 30
4.410933017730713
 70
192
  0
VERTEX
  8
0
 10
83.64391326904297
 20
-58.686370849609375
 30
4.410933017730713
 70
192
  0
VERTEX
  8
0
 10
78.78981018066406
 20
-55.15966796875
 30
4.410933017730713
 70
192
  0
VERTEX
  8
0
 10
68.98731231689453
 20
-74.96417236328125
 30
4.410933017730713
 70
192
  0
VERTEX
  8
0
 10
64.9725112915039
 20
-70.50526428222656
 30
4.410933017730713
 70
192
  0
VERTEX
  8
0
 10
63.2334098815918
 20
-71.76876831054688
 30
4.410933017730713
 70
192
  0
VERTEX
  8
0
 10
58.25430679321289
 20
-75.07896423339844
 30
4.410933017730713
 70
192
  0
VERTEX
  8
0
 10
63.1084098815918
 20
-71.55227661132812
 30
4.410933017730713
 70
192
  0
VERTEX
  8
0
 10
60.368408203125
 20
-79.82746887207031
 30
4.410933017730713
 70
192
  0
VERTEX
  8
0
 10
60.505008697509766
 20
-81.12687683105469
 30
4.410933017730713
 70
192
  0
VERTEX
  8
0
 10
59.560909271240234
 20
-77.34207153320312
 30
4.410933017730713
 70
192
  0
VERTEX
  8
0
 10
60.5205078125
 20
-68.67817687988281
 30
4.410933017730713
 70
192
  0
VERTEX
  8
0
 10
56.505706787109375
 20
-73.136962890625
 30
4.410933017730713
 70
192
  0
VERTEX
  8
0
 10
57.39160919189453
 20
-66.40487670898438
 30
4.410933017730713
 70
192
  0
VERTEX
  8
0
 10
54.39160919189453
 20
-71.60096740722656
 30
4.410933017730713
 70
192
  0
VERTEX
  8
0
 10
53.8584098815918
 20
-64.83177185058594
 30
4.410933017730713
 70
192
  0
VERTEX
  8
0
 10
52.00430679321289
 20
-70.53807067871094
 30
4.410933017730713
 70
192
  0
VERTEX
  8
0
 10
50.075408935546875
 20
-64.02766418457031
 30
4.410933017730713
 70
192
  0
VERTEX
  8
0
 10
49.44820785522461
 20
-69.99476623535156
 30
4.410933017730713
 70
192
  0
VERTEX
  8
0
 10
46.83500671386719
 20
-69.99476623535156
 30
4.410933017730713
 70
192
  0
VERTEX
  8
0
 10
46.20780944824219
 20
-64.02766418457031
 30
4.410933017730713
 70
192
  0
VERTEX
  8
0
 10
44.278907775878906
 20
-70.53807067871094
 30
4.410933017730713
 70
192
  0
VERTEX
  8
0
 10
42.424808502197266
 20
-64.83177185058594
 30
4.410933017730713
 70
192
  0
VERTEX
  8
0
 10
41.89160919189453
 20
-71.60096740722656
 30
4.410933017730713
 70
192
  0
VERTEX
  8
0
 10
38.89160919189453
 20
-66.40487670898438
 30
4.410933017730713
 70
192
  0
VERTEX
  8
0
 10
39.77750778198242
 20
-73.136962890625
 30
4.410933017730713
 70
192
  0
VERTEX
  8
0
 10
35.7627067565918
 20
-68.67817687988281
 30
4.410933017730713
 70
192
  0
VERTEX
  8
0
 10
38.028907775878906
 20
-75.07896423339844
 30
4.410933017730713
 70
192
  0
VERTEX
  8
0
 10
33.174808502197266
 20
-71.55227661132812
 30
4.410933017730713
 70
192
  0
VERTEX
  8
0
 10
36.72230911254883
 20
-77.34207153320312
 30
4.410933017730713
 70
192
  0
VERTEX
  8
0
 10
35.91481018066406
 20
-79.82746887207031
 30
4.410933017730713
 70
192
  0
VERTEX
  8
0
 10
100.7911148071289
 20
-20.65066909790039
 30
4.410933017730713
 70
192
  0
VERTEX
  8
0
 10
97.30411529541016
 20
-19.098169326782227
 30
4.410933017730713
 70
192
  0
VERTEX
  8
0
 10
93.00820922851562
 20
-15.977069854736328
 30
4.410933017730713
 70
192
  0
VERTEX
  8
0
 10
88.99341583251953
 20
-20.435869216918945
 30
4.410933017730713
 70
192
  0
VERTEX
  8
0
 10
89.45510864257812
 20
-12.030869483947754
 30
4.410933017730713
 70
192
  0
VERTEX
  8
0
 10
84.60101318359375
 20
-15.557668685913086
 30
4.410933017730713
 70
192
  0
VERTEX
  8
0
 10
86.80001068115234
 20
-7.432270050048828
 30
4.410933017730713
 70
192
  0
VERTEX
  8
0
 10
81.31880950927734
 20
-9.872669219970703
 30
4.410933017730713
 70
192
  0
VERTEX
  8
0
 10
85.15921020507812
 20
-2.382129669189453
 30
4.410933017730713
 70
192
  0
VERTEX
  8
0
 10
93.5182113647461
 20
29.52103042602539
 30
4.410933017730713
 70
192
  0
VERTEX
  8
0
 10
100.7911148071289
 20
26.44832992553711
 30
4.410933017730713
 70
192
  0
VERTEX
  8
0
 10
97.30411529541016
 20
24.895830154418945
 30
4.410933017730713
 70
192
  0
VERTEX
  8
0
 10
94.59580993652344
 20
45.51462936401367
 30
4.410933017730713
 70
192
  0
VERTEX
  8
0
 10
93.00820922851562
 20
21.774730682373047
 30
4.410933017730713
 70
192
  0
VERTEX
  8
0
 10
88.99341583251953
 20
26.233530044555664
 30
4.410933017730713
 70
192
  0
VERTEX
  8
0
 10
89.45510864257812
 20
17.828529357910156
 30
4.410933017730713
 70
192
  0
VERTEX
  8
0
 10
84.60101318359375
 20
21.355329513549805
 30
4.410933017730713
 70
192
  0
VERTEX
  8
0
 10
86.80001068115234
 20
13.229930877685547
 30
4.410933017730713
 70
192
  0
VERTEX
  8
0
 10
81.31880950927734
 20
15.670330047607422
 30
4.410933017730713
 70
192
  0
VERTEX
  8
0
 10
85.15921020507812
 20
8.179790496826172
 30
4.410933017730713
 70
192
  0
VERTEX
  8
0
 10
79.29031372070312
 20
9.427260398864746
 30
4.410933017730713
 70
192
  0
VERTEX
  8
0
 10
84.60411071777344
 20
2.8988304138183594
 30
4.410933017730713
 70
192
  0
VERTEX
  8
0
 10
79.29031372070312
 20
-3.6295995712280273
 30
4.410933017730713
 70
192
  0
VERTEX
  8
0
 10
78.60411071777344
 20
2.8988304138183594
 30
4.410933017730713
 70
192
  0
VERTEX
  8
0
 10
89.11460876464844
 20
43.0742301940918
 30
4.410933017730713
 70
192
  0
VERTEX
  8
0
 10
83.64391326904297
 20
64.4840316772461
 30
4.410933017730713
 70
192
  0
VERTEX
  8
0
 10
78.78981018066406
 20
60.95732879638672
 30
4.410933017730713
 70
192
  0
VERTEX
  8
0
 10
68.98731231689453
 20
80.76182556152344
 30
4.410933017730713
 70
192
  0
VERTEX
  8
0
 10
64.9725112915039
 20
76.30293273925781
 30
4.410933017730713
 70
192
  0
VERTEX
  8
0
 10
63.2334098815918
 20
77.56643676757812
 30
4.410933017730713
 70
192
  0
VERTEX
  8
0
 10
58.25430679321289
 20
80.87663269042969
 30
4.410933017730713
 70
192
  0
VERTEX
  8
0
 10
63.1084098815918
 20
77.34992980957031
 30
4.410933017730713
 70
192
  0
VERTEX
  8
0
 10
60.5205078125
 20
74.475830078125
 30
4.410933017730713
 70
192
  0
VERTEX
  8
0
 10
59.560909271240234
 20
83.13972473144531
 30
4.410933017730713
 70
192
  0
VERTEX
  8
0
 10
60.368408203125
 20
85.62513732910156
 30
4.410933017730713
 70
192
  0
VERTEX
  8
0
 10
60.505008697509766
 20
86.92453002929688
 30
4.410933017730713
 70
192
  0
VERTEX
  8
0
 10
56.505706787109375
 20
78.93463134765625
 30
4.410933017730713
 70
192
  0
VERTEX
  8
0
 10
57.39160919189453
 20
72.20252990722656
 30
4.410933017730713
 70
192
  0
VERTEX
  8
0
 10
54.39160919189453
 20
77.39863586425781
 30
4.410933017730713
 70
192
  0
VERTEX
  8
0
 10
53.8584098815918
 20
70.62942504882812
 30
4.410933017730713
 70
192
  0
VERTEX
  8
0
 10
52.00430679321289
 20
76.33572387695312
 30
4.410933017730713
 70
192
  0
VERTEX
  8
0
 10
50.075408935546875
 20
69.82533264160156
 30
4.410933017730713
 70
192
  0
VERTEX
  8
0
 10
49.44820785522461
 20
75.79243469238281
 30
4.410933017730713
 70
192
  0
VERTEX
  8
0
 10
46.83500671386719
 20
75.79243469238281
 30
4.410933017730713
 70
192
  0
VERTEX
  8
0
 10
46.20780944824219
 20
69.82533264160156
 30
4.410933017730713
 70
192
  0
VERTEX
  8
0
 10
44.278907775878906
 20
76.33572387695312
 30
4.410933017730713
 70
192
  0
VERTEX
  8
0
 10
42.424808502197266
 20
70.62942504882812
 30
4.410933017730713
 70
192
  0
VERTEX
  8
0
 10
41.89160919189453
 20
77.39863586425781
 30
4.410933017730713
 70
192
  0
VERTEX
  8
0
 10
38.89160919189453
 20
72.20252990722656
 30
4.410933017730713
 70
192
  0
VERTEX
  8
0
 10
39.77750778198242
 20
78.93463134765625
 30
4.410933017730713
 70
192
  0
VERTEX
  8
0
 10
35.7627067565918
 20
74.475830078125
 30
4.410933017730713
 70
192
  0
VERTEX
  8
0
 10
38.028907775878906
 20
80.87663269042969
 30
4.410933017730713
 70
192
  0
VERTEX
  8
0
 10
33.174808502197266
 20
77.34992980957031
 30
4.410933017730713
 70
192
  0
VERTEX
  8
0
 10
36.72230911254883
 20
83.13972473144531
 30
4.410933017730713
 70
192
  0
VERTEX
  8
0
 10
31.241008758544922
 20
80.69932556152344
 30
4.410933017730713
 70
192
  0
VERTEX
  8
0
 10
35.91481018066406
 20
85.62513732910156
 30
4.410933017730713
 70
192
  0
VERTEX
  8
0
 10
30.045907974243164
 20
84.37762451171875
 30
4.410933017730713
 70
192
  0
VERTEX
  8
0
 10
35.64160919189453
 20
88.22393798828125
 30
4.410933017730713
 70
192
  0
VERTEX
  8
0
 10
31.241008758544922
 20
95.74862670898438
 30
4.410933017730713
 70
192
  0
VERTEX
  8
0
 10
36.72230911254883
 20
93.3082275390625
 30
4.410933017730713
 70
192
  0
VERTEX
  8
0
 10
35.91481018066406
 20
90.82283020019531
 30
4.410933017730713
 70
192
  0
VERTEX
  8
0
 10
31.366008758544922
 20
95.96513366699219
 30
4.410933017730713
 70
192
  0
VERTEX
  8
0
 10
38.028907775878906
 20
95.57133483886719
 30
4.410933017730713
 70
192
  0
VERTEX
  8
0
 10
31.25640869140625
 20
102.54573059082031
 30
4.410933017730713
 70
192
  0
VERTEX
  8
0
 10
39.77750778198242
 20
97.51333618164062
 30
4.410933017730713
 70
192
  0
VERTEX
  8
0
 10
40.83450698852539
 20
98.28132629394531
 30
4.410933017730713
 70
192
  0
VERTEX
  8
0
 10
29.402307510375977
 20
96.83943176269531
 30
4.410933017730713
 70
192
  0
VERTEX
  8
0
 10
9.831108093261719
 20
107.09982299804688
 30
4.410933017730713
 70
192
  0
VERTEX
  8
0
 10
9.203908920288086
 20
101.13273620605469
 30
4.410933017730713
 70
192
  0
VERTEX
  8
0
 10
-11.445690155029297
 20
101.13273620605469
 30
4.410933017730713
 70
192
  0
VERTEX
  8
0
 10
-12.072891235351562
 20
107.09982299804688
 30
4.410933017730713
 70
192
  0
VERTEX
  8
0
 10
-25.384891510009766
 20
98.16983032226562
 30
4.410933017730713
 70
192
  0
VERTEX
  8
0
 10
-31.838491439819336
 20
93.85493469238281
 30
4.410933017730713
 70
192
  0
VERTEX
  8
0
 10
-25.96959114074707
 20
92.60743713378906
 30
4.410933017730713
 70
192
  0
VERTEX
  8
0
 10
-27.998090744018555
 20
86.36433410644531
 30
4.410933017730713
 70
192
  0
VERTEX
  8
0
 10
-33.47929000854492
 20
88.80482482910156
 30
4.410933017730713
 70
192
  0
VERTEX
  8
0
 10
-31.280292510986328
 20
80.67942810058594
 30
4.410933017730713
 70
192
  0
VERTEX
  8
0
 10
-31.682392120361328
 20
102.93182373046875
 30
4.410933017730713
 70
192
  0
VERTEX
  8
0
 10
-31.28339195251465
 20
99.13592529296875
 30
4.410933017730713
 70
192
  0
VERTEX
  8
0
 10
-36.13439178466797
 20
84.20613098144531
 30
4.410933017730713
 70
192
  0
VERTEX
  8
0
 10
-35.672691345214844
 20
75.80113220214844
 30
4.410933017730713
 70
192
  0
VERTEX
  8
0
 10
-39.68749237060547
 20
80.26002502441406
 30
4.410933017730713
 70
192
  0
VERTEX
  8
0
 10
-40.98339080810547
 20
71.94273376464844
 30
4.410933017730713
 70
192
  0
VERTEX
  8
0
 10
-43.98339080810547
 20
77.13882446289062
 30
4.410933017730713
 70
192
  0
VERTEX
  8
0
 10
-46.98029327392578
 20
69.27273559570312
 30
4.410933017730713
 70
192
  0
VERTEX
  8
0
 10
-48.83439254760742
 20
74.97903442382812
 30
4.410933017730713
 70
192
  0
VERTEX
  8
0
 10
-53.40119171142578
 20
67.90792846679688
 30
4.410933017730713
 70
192
  0
VERTEX
  8
0
 10
-54.02839279174805
 20
73.87503051757812
 30
4.410933017730713
 70
192
  0
VERTEX
  8
0
 10
-59.3383903503418
 20
73.87503051757812
 30
4.410933017730713
 70
192
  0
VERTEX
  8
0
 10
-59.96559143066406
 20
67.90792846679688
 30
4.410933017730713
 70
192
  0
VERTEX
  8
0
 10
-64.53238677978516
 20
74.97903442382812
 30
4.410933017730713
 70
192
  0
VERTEX
  8
0
 10
-66.38648986816406
 20
69.27273559570312
 30
4.410933017730713
 70
192
  0
VERTEX
  8
0
 10
-71.49598693847656
 20
71.54763793945312
 30
4.410933017730713
 70
192
  0
VERTEX
  8
0
 10
-69.38338470458984
 20
77.13882446289062
 30
4.410933017730713
 70
192
  0
VERTEX
  8
0
 10
-72.47119140625
 20
79.38232421875
 30
4.410933017730713
 70
192
  0
VERTEX
  8
0
 10
-85.88568878173828
 20
64.4840316772461
 30
4.410933017730713
 70
192
  0
VERTEX
  8
0
 10
-81.03158569335938
 20
60.95732879638672
 30
4.410933017730713
 70
192
  0
VERTEX
  8
0
 10
-91.35638427734375
 20
43.0742301940918
 30
4.410933017730713
 70
192
  0
VERTEX
  8
0
 10
-96.83758544921875
 20
45.51462936401367
 30
4.410933017730713
 70
192
  0
VERTEX
  8
0
 10
-97.73738861083984
 20
23.435331344604492
 30
4.410933017730713
 70
192
  0
VERTEX
  8
0
 10
-103.60588836669922
 20
24.682729721069336
 30
4.410933017730713
 70
192
  0
VERTEX
  8
0
 10
-97.96208953857422
 20
21.297531127929688
 30
4.410933017730713
 70
192
  0
VERTEX
  8
0
 10
-100.95248413085938
 20
15.330330848693848
 30
4.410933017730713
 70
192
  0
VERTEX
  8
0
 10
-98.33928680419922
 20
15.330330848693848
 30
4.410933017730713
 70
192
  0
VERTEX
  8
0
 10
-103.5088882446289
 20
14.787030220031738
 30
4.410933017730713
 70
192
  0
VERTEX
  8
0
 10
-104.70188903808594
 20
14.255630493164062
 30
4.410933017730713
 70
192
  0
VERTEX
  8
0
 10
29.64160919189453
 20
88.22393798828125
 30
4.410933017730713
 70
192
  0
VERTEX
  8
0
 10
30.045907974243164
 20
92.07032775878906
 30
4.410933017730713
 70
192
  0
VERTEX
  8
0
 10
30.045907974243164
 20
-86.27267456054688
 30
4.410933017730713
 70
192
  0
VERTEX
  8
0
 10
31.241008758544922
 20
-74.90167236328125
 30
4.410933017730713
 70
192
  0
VERTEX
  8
0
 10
30.045907974243164
 20
-78.57997131347656
 30
4.410933017730713
 70
192
  0
VERTEX
  8
0
 10
-33.47929000854492
 20
-83.00717163085938
 30
4.410933017730713
 70
192
  0
VERTEX
  8
0
 10
-31.280292510986328
 20
-74.88177490234375
 30
4.410933017730713
 70
192
  0
VERTEX
  8
0
 10
-36.13439178466797
 20
-78.40846252441406
 30
4.410933017730713
 70
192
  0
VERTEX
  8
0
 10
-35.672691345214844
 20
-70.00346374511719
 30
4.410933017730713
 70
192
  0
VERTEX
  8
0
 10
-39.68749237060547
 20
-74.46237182617188
 30
4.410933017730713
 70
192
  0
VERTEX
  8
0
 10
-40.98339080810547
 20
-66.14506530761719
 30
4.410933017730713
 70
192
  0
VERTEX
  8
0
 10
-43.98339080810547
 20
-71.34117126464844
 30
4.410933017730713
 70
192
  0
VERTEX
  8
0
 10
-46.98029327392578
 20
-63.47507095336914
 30
4.410933017730713
 70
192
  0
VERTEX
  8
0
 10
-48.83439254760742
 20
-69.18136596679688
 30
4.410933017730713
 70
192
  0
VERTEX
  8
0
 10
-53.40119171142578
 20
-62.11027145385742
 30
4.410933017730713
 70
192
  0
VERTEX
  8
0
 10
-54.02839279174805
 20
-68.07736206054688
 30
4.410933017730713
 70
192
  0
VERTEX
  8
0
 10
-59.3383903503418
 20
-68.07736206054688
 30
4.410933017730713
 70
192
  0
VERTEX
  8
0
 10
-59.96559143066406
 20
-62.11027145385742
 30
4.410933017730713
 70
192
  0
VERTEX
  8
0
 10
-64.53238677978516
 20
-69.18136596679688
 30
4.410933017730713
 70
192
  0
VERTEX
  8
0
 10
-66.38648986816406
 20
-63.47507095336914
 30
4.410933017730713
 70
192
  0
VERTEX
  8
0
 10
-71.49598693847656
 20
-65.74996948242188
 30
4.410933017730713
 70
192
  0
VERTEX
  8
0
 10
-69.38338470458984
 20
-71.34117126464844
 30
4.410933017730713
 70
192
  0
VERTEX
  8
0
 10
-72.47119140625
 20
-73.58467102050781
 30
4.410933017730713
 70
192
  0
VERTEX
  8
0
 10
-85.88568878173828
 20
-58.686370849609375
 30
4.410933017730713
 70
192
  0
VERTEX
  8
0
 10
-81.03158569335938
 20
-55.15966796875
 30
4.410933017730713
 70
192
  0
VERTEX
  8
0
 10
-91.35638427734375
 20
-37.27656936645508
 30
4.410933017730713
 70
192
  0
VERTEX
  8
0
 10
-96.83758544921875
 20
-39.71696853637695
 30
4.410933017730713
 70
192
  0
VERTEX
  8
0
 10
-97.73738861083984
 20
-17.637670516967773
 30
4.410933017730713
 70
192
  0
VERTEX
  8
0
 10
-103.60588836669922
 20
-18.885068893432617
 30
4.410933017730713
 70
192
  0
VERTEX
  8
0
 10
-97.96208953857422
 20
-15.499870300292969
 30
4.410933017730713
 70
192
  0
VERTEX
  8
0
 10
-100.95248413085938
 20
-9.532670021057129
 30
4.410933017730713
 70
192
  0
VERTEX
  8
0
 10
-98.33928680419922
 20
-9.532670021057129
 30
4.410933017730713
 70
192
  0
VERTEX
  8
0
 10
-103.5088882446289
 20
-8.98936939239502
 30
4.410933017730713
 70
192
  0
VERTEX
  8
0
 10
-104.70188903808594
 20
-8.457969665527344
 30
4.410933017730713
 70
192
  0
VERTEX
  8
0
 10
-87.14588928222656
 20
2.8988304138183594
 30
4.410933017730713
 70
192
  0
VERTEX
  8
0
 10
-81.14588928222656
 20
2.8988304138183594
 30
4.410933017730713
 70
192
  0
VERTEX
  8
0
 10
-81.55018615722656
 20
-0.9475395679473877
 30
4.410933017730713
 70
192
  0
VERTEX
  8
0
 10
-87.4190902709961
 20
0.2999303340911865
 30
4.410933017730713
 70
192
  0
VERTEX
  8
0
 10
-82.74528503417969
 20
-4.625799655914307
 30
4.410933017730713
 70
192
  0
VERTEX
  8
0
 10
-81.55018615722656
 20
6.745200157165527
 30
4.410933017730713
 70
192
  0
VERTEX
  8
0
 10
-88.2265853881836
 20
-2.1853795051574707
 30
4.410933017730713
 70
192
  0
VERTEX
  8
0
 10
-84.67908477783203
 20
-7.9751691818237305
 30
4.410933017730713
 70
192
  0
VERTEX
  8
0
 10
-87.4190902709961
 20
5.497730255126953
 30
4.410933017730713
 70
192
  0
VERTEX
  8
0
 10
-82.74528503417969
 20
10.423460006713867
 30
4.410933017730713
 70
192
  0
VERTEX
  8
0
 10
-89.53318786621094
 20
-4.448479652404785
 30
4.410933017730713
 70
192
  0
VERTEX
  8
0
 10
-87.2669906616211
 20
-10.849370002746582
 30
4.410933017730713
 70
192
  0
VERTEX
  8
0
 10
-91.28178405761719
 20
-6.390480041503906
 30
4.410933017730713
 70
192
  0
VERTEX
  8
0
 10
-90.39588928222656
 20
-13.122669219970703
 30
4.410933017730713
 70
192
  0
VERTEX
  8
0
 10
-93.39588928222656
 20
-7.926469802856445
 30
4.410933017730713
 70
192
  0
VERTEX
  8
0
 10
-93.92908477783203
 20
-14.695669174194336
 30
4.410933017730713
 70
192
  0
VERTEX
  8
0
 10
-95.78318786621094
 20
-8.98936939239502
 30
4.410933017730713
 70
192
  0
VERTEX
  8
0
 10
-97.71208953857422
 20
-15.499870300292969
 30
4.410933017730713
 70
192
  0
VERTEX
  8
0
 10
-88.2265853881836
 20
7.9830403327941895
 30
4.410933017730713
 70
192
  0
VERTEX
  8
0
 10
-84.67908477783203
 20
13.77283000946045
 30
4.410933017730713
 70
192
  0
VERTEX
  8
0
 10
-89.53318786621094
 20
10.246140480041504
 30
4.410933017730713
 70
192
  0
VERTEX
  8
0
 10
-87.2669906616211
 20
16.647029876708984
 30
4.410933017730713
 70
192
  0
VERTEX
  8
0
 10
-91.28178405761719
 20
12.188140869140625
 30
4.410933017730713
 70
192
  0
VERTEX
  8
0
 10
-90.39588928222656
 20
18.920330047607422
 30
4.410933017730713
 70
192
  0
VERTEX
  8
0
 10
-93.39588928222656
 20
13.724130630493164
 30
4.410933017730713
 70
192
  0
VERTEX
  8
0
 10
-93.92908477783203
 20
20.493330001831055
 30
4.410933017730713
 70
192
  0
VERTEX
  8
0
 10
-95.78318786621094
 20
14.787030220031738
 30
4.410933017730713
 70
192
  0
VERTEX
  8
0
 10
-97.71208953857422
 20
21.297531127929688
 30
4.410933017730713
 70
192
  0
VERTEX
  8
0
 10
0.0
 20
0.0
 30
0.0
 70
128
 71
24
 72
25
 73
26
  0
VERTEX
  8
0
 10
0.0
 20
0.0
 30
0.0
 70
128
 71
27
 72
26
 73
28
  0
VERTEX
  8
0
 10
0.0
 20
0.0
 30
0.0
 70
128
 71
25
 72
24
 73
29
  0
VERTEX
  8
0
 10
0.0
 20
0.0
 30
0.0
 70
128
 71
30
 72
28
 73
31
  0
VERTEX
  8
0
 10
0.0
 20
0.0
 30
0.0
 70
128
 71
32
 72
29
 73
24
  0
VERTEX
  8
0
 10
0.0
 20
0.0
 30
0.0
 70
128
 71
29
 72
32
 73
33
  0
VERTEX
  8
0
 10
0.0
 20
0.0
 30
0.0
 70
128
 71
26
 72
27
 73
24
  0
VERTEX
  8
0
 10
0.0
 20
0.0
 30
0.0
 70
128
 71
28
 72
30
 73
27
  0
VERTEX
  8
0
 10
0.0
 20
0.0
 30
0.0
 70
128
 71
34
 72
31
 73
35
  0
VERTEX
  8
0
 10
0.0
 20
0.0
 30
0.0
 70
128
 71
31
 72
34
 73
30
  0
VERTEX
  8
0
 10
0.0
 20
0.0
 30
0.0
 70
128
 71
35
 72
36
 73
34
  0
VERTEX
  8
0
 10
0.0
 20
0.0
 30
0.0
 70
128
 71
37
 72
36
 73
35
  0
VERTEX
  8
0
 10
0.0
 20
0.0
 30
0.0
 70
128
 71
37
 72
38
 73
36
  0
VERTEX
  8
0
 10
0.0
 20
0.0
 30
0.0
 70
128
 71
39
 72
38
 73
37
  0
VERTEX
  8
0
 10
0.0
 20
0.0
 30
0.0
 70
128
 71
40
 72
39
 73
17
  0
VERTEX
  8
0
 10
0.0
 20
0.0
 30
0.0
 70
128
 71
39
 72
40
 73
38
  0
VERTEX
  8
0
 10
0.0
 20
0.0
 30
0.0
 70
128
 71
17
 72
41
 73
40
  0
VERTEX
  8
0
 10
0.0
 20
0.0
 30
0.0
 70
128
 71
42
 72
17
 73
18
  0
VERTEX
  8
0
 10
0.0
 20
0.0
 30
0.0
 70
128
 71
17
 72
42
 73
41
  0
VERTEX
  8
0
 10
0.0
 20
0.0
 30
0.0
 70
128
 71
22
 72
42
 73
18
  0
VERTEX
  8
0
 10
0.0
 20
0.0
 30
0.0
 70
128
 71
22
 72
43
 73
42
  0
VERTEX
  8
0
 10
0.0
 20
0.0
 30
0.0
 70
128
 71
16
 72
43
 73
22
  0
VERTEX
  8
0
 10
0.0
 20
0.0
 30
0.0
 70
128
 71
16
 72
44
 73
43
  0
VERTEX
  8
0
 10
0.0
 20
0.0
 30
0.0
 70
128
 71
15
 72
44
 73
16
  0
VERTEX
  8
0
 10
0.0
 20
0.0
 30
0.0
 70
128
 71
15
 72
45
 73
44
  0
VERTEX
  8
0
 10
0.0
 20
0.0
 30
0.0
 70
128
 71
10
 72
45
 73
15
  0
VERTEX
  8
0
 10
0.0
 20
0.0
 30
0.0
 70
128
 71
10
 72
46
 73
45
  0
VERTEX
  8
0
 10
0.0
 20
0.0
 30
0.0
 70
128
 71
9
 72
46
 73
10
  0
VERTEX
  8
0
 10
0.0
 20
0.0
 30
0.0
 70
128
 71
9
 72
47
 73
46
  0
VERTEX
  8
0
 10
0.0
 20
0.0
 30
0.0
 70
128
 71
9
 72
48
 73
47
  0
VERTEX
  8
0
 10
0.0
 20
0.0
 30
0.0
 70
128
 71
23
 72
48
 73
9
  0
VERTEX
  8
0
 10
0.0
 20
0.0
 30
0.0
 70
128
 71
49
 72
48
 73
23
  0
VERTEX
  8
0
 10
0.0
 20
0.0
 30
0.0
 70
128
 71
49
 72
50
 73
48
  0
VERTEX
  8
0
 10
0.0
 20
0.0
 30
0.0
 70
128
 71
51
 72
49
 73
52
  0
VERTEX
  8
0
 10
0.0
 20
0.0
 30
0.0
 70
128
 71
49
 72
51
 73
50
  0
VERTEX
  8
0
 10
0.0
 20
0.0
 30
0.0
 70
128
 71
53
 72
51
 73
52
  0
VERTEX
  8
0
 10
0.0
 20
0.0
 30
0.0
 70
128
 71
53
 72
54
 73
51
  0
VERTEX
  8
0
 10
0.0
 20
0.0
 30
0.0
 70
128
 71
55
 72
54
 73
53
  0
VERTEX
  8
0
 10
0.0
 20
0.0
 30
0.0
 70
128
 71
55
 72
56
 73
54
  0
VERTEX
  8
0
 10
0.0
 20
0.0
 30
0.0
 70
128
 71
57
 72
56
 73
55
  0
VERTEX
  8
0
 10
0.0
 20
0.0
 30
0.0
 70
128
 71
57
 72
58
 73
56
  0
VERTEX
  8
0
 10
0.0
 20
0.0
 30
0.0
 70
128
 71
57
 72
59
 73
58
  0
VERTEX
  8
0
 10
0.0
 20
0.0
 30
0.0
 70
128
 71
60
 72
59
 73
57
  0
VERTEX
  8
0
 10
0.0
 20
0.0
 30
0.0
 70
128
 71
60
 72
61
 73
59
  0
VERTEX
  8
0
 10
0.0
 20
0.0
 30
0.0
 70
128
 71
62
 72
61
 73
60
  0
VERTEX
  8
0
 10
0.0
 20
0.0
 30
0.0
 70
128
 71
62
 72
63
 73
61
  0
VERTEX
  8
0
 10
0.0
 20
0.0
 30
0.0
 70
128
 71
64
 72
63
 73
62
  0
VERTEX
  8
0
 10
0.0
 20
0.0
 30
0.0
 70
128
 71
64
 72
65
 73
63
  0
VERTEX
  8
0
 10
0.0
 20
0.0
 30
0.0
 70
128
 71
66
 72
65
 73
64
  0
VERTEX
  8
0
 10
0.0
 20
0.0
 30
0.0
 70
128
 71
65
 72
66
 73
67
  0
VERTEX
  8
0
 10
0.0
 20
0.0
 30
0.0
 70
128
 71
68
 72
67
 73
66
  0
VERTEX
  8
0
 10
0.0
 20
0.0
 30
0.0
 70
128
 71
67
 72
68
 73
69
  0
VERTEX
  8
0
 10
0.0
 20
0.0
 30
0.0
 70
128
 71
69
 72
70
 73
71
  0
VERTEX
  8
0
 10
0.0
 20
0.0
 30
0.0
 70
128
 71
70
 72
69
 73
68
  0
VERTEX
  8
0
 10
0.0
 20
0.0
 30
0.0
 70
128
 71
72
 72
33
 73
32
  0
VERTEX
  8
0
 10
0.0
 20
0.0
 30
0.0
 70
128
 71
33
 72
72
 73
73
  0
VERTEX
  8
0
 10
0.0
 20
0.0
 30
0.0
 70
128
 71
74
 72
73
 73
72
  0
VERTEX
  8
0
 10
0.0
 20
0.0
 30
0.0
 70
128
 71
73
 72
74
 73
75
  0
VERTEX
  8
0
 10
0.0
 20
0.0
 30
0.0
 70
128
 71
76
 72
75
 73
74
  0
VERTEX
  8
0
 10
0.0
 20
0.0
 30
0.0
 70
128
 71
76
 72
77
 73
75
  0
VERTEX
  8
0
 10
0.0
 20
0.0
 30
0.0
 70
128
 71
78
 72
77
 73
76
  0
VERTEX
  8
0
 10
0.0
 20
0.0
 30
0.0
 70
128
 71
78
 72
79
 73
77
  0
VERTEX
  8
0
 10
0.0
 20
0.0
 30
0.0
 70
128
 71
80
 72
79
 73
78
  0
VERTEX
  8
0
 10
0.0
 20
0.0
 30
0.0
 70
128
 71
79
 72
80
 73
11
  0
VERTEX
  8
0
 10
0.0
 20
0.0
 30
0.0
 70
128
 71
81
 72
11
 73
80
  0
VERTEX
  8
0
 10
0.0
 20
0.0
 30
0.0
 70
128
 71
82
 72
11
 73
81
  0
VERTEX
  8
0
 10
0.0
 20
0.0
 30
0.0
 70
128
 71
11
 72
82
 73
2
  0
VERTEX
  8
0
 10
0.0
 20
0.0
 30
0.0
 70
128
 71
82
 72
1
 73
2
  0
VERTEX
  8
0
 10
0.0
 20
0.0
 30
0.0
 70
128
 71
83
 72
1
 73
82
  0
VERTEX
  8
0
 10
0.0
 20
0.0
 30
0.0
 70
128
 71
83
 72
5
 73
1
  0
VERTEX
  8
0
 10
0.0
 20
0.0
 30
0.0
 70
128
 71
84
 72
5
 73
83
  0
VERTEX
  8
0
 10
0.0
 20
0.0
 30
0.0
 70
128
 71
84
 72
12
 73
5
  0
VERTEX
  8
0
 10
0.0
 20
0.0
 30
0.0
 70
128
 71
85
 72
12
 73
84
  0
VERTEX
  8
0
 10
0.0
 20
0.0
 30
0.0
 70
128
 71
85
 72
6
 73
12
  0
VERTEX
  8
0
 10
0.0
 20
0.0
 30
0.0
 70
128
 71
86
 72
6
 73
85
  0
VERTEX
  8
0
 10
0.0
 20
0.0
 30
0.0
 70
128
 71
86
 72
3
 73
6
  0
VERTEX
  8
0
 10
0.0
 20
0.0
 30
0.0
 70
128
 71
87
 72
3
 73
86
  0
VERTEX
  8
0
 10
0.0
 20
0.0
 30
0.0
 70
128
 71
88
 72
3
 73
87
  0
VERTEX
  8
0
 10
0.0
 20
0.0
 30
0.0
 70
128
 71
88
 72
4
 73
3
  0
VERTEX
  8
0
 10
0.0
 20
0.0
 30
0.0
 70
128
 71
88
 72
14
 73
4
  0
VERTEX
  8
0
 10
0.0
 20
0.0
 30
0.0
 70
128
 71
89
 72
14
 73
88
  0
VERTEX
  8
0
 10
0.0
 20
0.0
 30
0.0
 70
128
 71
90
 72
14
 73
89
  0
VERTEX
  8
0
 10
0.0
 20
0.0
 30
0.0
 70
128
 71
14
 72
90
 73
91
  0
VERTEX
  8
0
 10
0.0
 20
0.0
 30
0.0
 70
128
 71
90
 72
92
 73
91
  0
VERTEX
  8
0
 10
0.0
 20
0.0
 30
0.0
 70
128
 71
93
 72
92
 73
90
  0
VERTEX
  8
0
 10
0.0
 20
0.0
 30
0.0
 70
128
 71
93
 72
94
 73
92
  0
VERTEX
  8
0
 10
0.0
 20
0.0
 30
0.0
 70
128
 71
95
 72
94
 73
93
  0
VERTEX
  8
0
 10
0.0
 20
0.0
 30
0.0
 70
128
 71
95
 72
96
 73
94
  0
VERTEX
  8
0
 10
0.0
 20
0.0
 30
0.0
 70
128
 71
97
 72
96
 73
95
  0
VERTEX
  8
0
 10
0.0
 20
0.0
 30
0.0
 70
128
 71
98
 72
96
 73
97
  0
VERTEX
  8
0
 10
0.0
 20
0.0
 30
0.0
 70
128
 71
98
 72
99
 73
96
  0
VERTEX
  8
0
 10
0.0
 20
0.0
 30
0.0
 70
128
 71
100
 72
99
 73
98
  0
VERTEX
  8
0
 10
0.0
 20
0.0
 30
0.0
 70
128
 71
100
 72
101
 73
99
  0
VERTEX
  8
0
 10
0.0
 20
0.0
 30
0.0
 70
128
 71
102
 72
101
 73
100
  0
VERTEX
  8
0
 10
0.0
 20
0.0
 30
0.0
 70
128
 71
102
 72
103
 73
101
  0
VERTEX
  8
0
 10
0.0
 20
0.0
 30
0.0
 70
128
 71
104
 72
103
 73
102
  0
VERTEX
  8
0
 10
0.0
 20
0.0
 30
0.0
 70
128
 71
105
 72
104
 73
106
  0
VERTEX
  8
0
 10
0.0
 20
0.0
 30
0.0
 70
128
 71
104
 72
105
 73
103
  0
VERTEX
  8
0
 10
0.0
 20
0.0
 30
0.0
 70
128
 71
107
 72
106
 73
108
  0
VERTEX
  8
0
 10
0.0
 20
0.0
 30
0.0
 70
128
 71
109
 72
108
 73
110
  0
VERTEX
  8
0
 10
0.0
 20
0.0
 30
0.0
 70
128
 71
106
 72
107
 73
105
  0
VERTEX
  8
0
 10
0.0
 20
0.0
 30
0.0
 70
128
 71
111
 72
110
 73
112
  0
VERTEX
  8
0
 10
0.0
 20
0.0
 30
0.0
 70
128
 71
113
 72
71
 73
70
  0
VERTEX
  8
0
 10
0.0
 20
0.0
 30
0.0
 70
128
 71
71
 72
113
 73
114
  0
VERTEX
  8
0
 10
0.0
 20
0.0
 30
0.0
 70
128
 71
115
 72
114
 73
113
  0
VERTEX
  8
0
 10
0.0
 20
0.0
 30
0.0
 70
128
 71
116
 72
117
 73
118
  0
VERTEX
  8
0
 10
0.0
 20
0.0
 30
0.0
 70
128
 71
116
 72
119
 73
117
  0
VERTEX
  8
0
 10
0.0
 20
0.0
 30
0.0
 70
128
 71
19
 72
119
 73
116
  0
VERTEX
  8
0
 10
0.0
 20
0.0
 30
0.0
 70
128
 71
19
 72
120
 73
119
  0
VERTEX
  8
0
 10
0.0
 20
0.0
 30
0.0
 70
128
 71
20
 72
120
 73
19
  0
VERTEX
  8
0
 10
0.0
 20
0.0
 30
0.0
 70
128
 71
121
 72
120
 73
20
  0
VERTEX
  8
0
 10
0.0
 20
0.0
 30
0.0
 70
128
 71
120
 72
121
 73
122
  0
VERTEX
  8
0
 10
0.0
 20
0.0
 30
0.0
 70
128
 71
122
 72
123
 73
124
  0
VERTEX
  8
0
 10
0.0
 20
0.0
 30
0.0
 70
128
 71
125
 72
122
 73
121
  0
VERTEX
  8
0
 10
0.0
 20
0.0
 30
0.0
 70
128
 71
122
 72
125
 73
123
  0
VERTEX
  8
0
 10
0.0
 20
0.0
 30
0.0
 70
128
 71
126
 72
121
 73
127
  0
VERTEX
  8
0
 10
0.0
 20
0.0
 30
0.0
 70
128
 71
121
 72
126
 73
125
  0
VERTEX
  8
0
 10
0.0
 20
0.0
 30
0.0
 70
128
 71
128
 72
126
 73
127
  0
VERTEX
  8
0
 10
0.0
 20
0.0
 30
0.0
 70
128
 71
128
 72
129
 73
126
  0
VERTEX
  8
0
 10
0.0
 20
0.0
 30
0.0
 70
128
 71
130
 72
129
 73
128
  0
VERTEX
  8
0
 10
0.0
 20
0.0
 30
0.0
 70
128
 71
130
 72
131
 73
129
  0
VERTEX
  8
0
 10
0.0
 20
0.0
 30
0.0
 70
128
 71
130
 72
132
 73
131
  0
VERTEX
  8
0
 10
0.0
 20
0.0
 30
0.0
 70
128
 71
133
 72
132
 73
130
  0
VERTEX
  8
0
 10
0.0
 20
0.0
 30
0.0
 70
128
 71
133
 72
134
 73
132
  0
VERTEX
  8
0
 10
0.0
 20
0.0
 30
0.0
 70
128
 71
135
 72
134
 73
133
  0
VERTEX
  8
0
 10
0.0
 20
0.0
 30
0.0
 70
128
 71
135
 72
136
 73
134
  0
VERTEX
  8
0
 10
0.0
 20
0.0
 30
0.0
 70
128
 71
137
 72
136
 73
135
  0
VERTEX
  8
0
 10
0.0
 20
0.0
 30
0.0
 70
128
 71
137
 72
138
 73
136
  0
VERTEX
  8
0
 10
0.0
 20
0.0
 30
0.0
 70
128
 71
139
 72
138
 73
137
  0
VERTEX
  8
0
 10
0.0
 20
0.0
 30
0.0
 70
128
 71
138
 72
139
 73
140
  0
VERTEX
  8
0
 10
0.0
 20
0.0
 30
0.0
 70
128
 71
141
 72
140
 73
139
  0
VERTEX
  8
0
 10
0.0
 20
0.0
 30
0.0
 70
128
 71
140
 72
141
 73
142
  0
VERTEX
  8
0
 10
0.0
 20
0.0
 30
0.0
 70
128
 71
142
 72
143
 73
144
  0
VERTEX
  8
0
 10
0.0
 20
0.0
 30
0.0
 70
128
 71
143
 72
142
 73
141
  0
VERTEX
  8
0
 10
0.0
 20
0.0
 30
0.0
 70
128
 71
114
 72
115
 73
118
  0
VERTEX
  8
0
 10
0.0
 20
0.0
 30
0.0
 70
128
 71
145
 72
118
 73
115
  0
VERTEX
  8
0
 10
0.0
 20
0.0
 30
0.0
 70
128
 71
118
 72
145
 73
116
  0
VERTEX
  8
0
 10
0.0
 20
0.0
 30
0.0
 70
128
 71
108
 72
109
 73
107
  0
VERTEX
  8
0
 10
0.0
 20
0.0
 30
0.0
 70
128
 71
146
 72
112
 73
147
  0
VERTEX
  8
0
 10
0.0
 20
0.0
 30
0.0
 70
128
 71
148
 72
147
 73
13
  0
VERTEX
  8
0
 10
0.0
 20
0.0
 30
0.0
 70
128
 71
149
 72
13
 73
147
  0
VERTEX
  8
0
 10
0.0
 20
0.0
 30
0.0
 70
128
 71
150
 72
13
 73
149
  0
VERTEX
  8
0
 10
0.0
 20
0.0
 30
0.0
 70
128
 71
150
 72
8
 73
13
  0
VERTEX
  8
0
 10
0.0
 20
0.0
 30
0.0
 70
128
 71
151
 72
8
 73
150
  0
VERTEX
  8
0
 10
0.0
 20
0.0
 30
0.0
 70
128
 71
151
 72
7
 73
8
  0
VERTEX
  8
0
 10
0.0
 20
0.0
 30
0.0
 70
128
 71
21
 72
151
 73
152
  0
VERTEX
  8
0
 10
0.0
 20
0.0
 30
0.0
 70
128
 71
153
 72
152
 73
154
  0
VERTEX
  8
0
 10
0.0
 20
0.0
 30
0.0
 70
128
 71
155
 72
152
 73
153
  0
VERTEX
  8
0
 10
0.0
 20
0.0
 30
0.0
 70
128
 71
152
 72
155
 73
21
  0
VERTEX
  8
0
 10
0.0
 20
0.0
 30
0.0
 70
128
 71
151
 72
21
 73
7
  0
VERTEX
  8
0
 10
0.0
 20
0.0
 30
0.0
 70
128
 71
156
 72
21
 73
155
  0
VERTEX
  8
0
 10
0.0
 20
0.0
 30
0.0
 70
128
 71
21
 72
156
 73
157
  0
VERTEX
  8
0
 10
0.0
 20
0.0
 30
0.0
 70
128
 71
156
 72
158
 73
157
  0
VERTEX
  8
0
 10
0.0
 20
0.0
 30
0.0
 70
128
 71
159
 72
158
 73
156
  0
VERTEX
  8
0
 10
0.0
 20
0.0
 30
0.0
 70
128
 71
159
 72
160
 73
158
  0
VERTEX
  8
0
 10
0.0
 20
0.0
 30
0.0
 70
128
 71
161
 72
160
 73
159
  0
VERTEX
  8
0
 10
0.0
 20
0.0
 30
0.0
 70
128
 71
162
 72
160
 73
161
  0
VERTEX
  8
0
 10
0.0
 20
0.0
 30
0.0
 70
128
 71
162
 72
163
 73
160
  0
VERTEX
  8
0
 10
0.0
 20
0.0
 30
0.0
 70
128
 71
164
 72
163
 73
162
  0
VERTEX
  8
0
 10
0.0
 20
0.0
 30
0.0
 70
128
 71
164
 72
165
 73
163
  0
VERTEX
  8
0
 10
0.0
 20
0.0
 30
0.0
 70
128
 71
166
 72
165
 73
164
  0
VERTEX
  8
0
 10
0.0
 20
0.0
 30
0.0
 70
128
 71
166
 72
167
 73
165
  0
VERTEX
  8
0
 10
0.0
 20
0.0
 30
0.0
 70
128
 71
168
 72
167
 73
166
  0
VERTEX
  8
0
 10
0.0
 20
0.0
 30
0.0
 70
128
 71
169
 72
168
 73
170
  0
VERTEX
  8
0
 10
0.0
 20
0.0
 30
0.0
 70
128
 71
168
 72
169
 73
167
  0
VERTEX
  8
0
 10
0.0
 20
0.0
 30
0.0
 70
128
 71
171
 72
170
 73
172
  0
VERTEX
  8
0
 10
0.0
 20
0.0
 30
0.0
 70
128
 71
173
 72
172
 73
174
  0
VERTEX
  8
0
 10
0.0
 20
0.0
 30
0.0
 70
128
 71
170
 72
171
 73
169
  0
VERTEX
  8
0
 10
0.0
 20
0.0
 30
0.0
 70
128
 71
175
 72
174
 73
176
  0
VERTEX
  8
0
 10
0.0
 20
0.0
 30
0.0
 70
128
 71
177
 72
144
 73
143
  0
VERTEX
  8
0
 10
0.0
 20
0.0
 30
0.0
 70
128
 71
144
 72
177
 73
176
  0
VERTEX
  8
0
 10
0.0
 20
0.0
 30
0.0
 70
128
 71
172
 72
173
 73
171
  0
VERTEX
  8
0
 10
0.0
 20
0.0
 30
0.0
 70
128
 71
178
 72
176
 73
177
  0
VERTEX
  8
0
 10
0.0
 20
0.0
 30
0.0
 70
128
 71
174
 72
175
 73
173
  0
VERTEX
  8
0
 10
0.0
 20
0.0
 30
0.0
 70
128
 71
176
 72
178
 73
175
  0
VERTEX
  8
0
 10
0.0
 20
0.0
 30
0.0
 70
128
 71
147
 72
148
 73
146
  0
VERTEX
  8
0
 10
0.0
 20
0.0
 30
0.0
 70
128
 71
110
 72
111
 73
109
  0
VERTEX
  8
0
 10
0.0
 20
0.0
 30
0.0
 70
128
 71
112
 72
146
 73
111
  0
VERTEX
  8
0
 10
0.0
 20
0.0
 30
0.0
 70
128
 71
179
 72
180
 73
181
  0
VERTEX
  8
0
 10
0.0
 20
0.0
 30
0.0
 70
128
 71
182
 72
183
 73
181
  0
VERTEX
  8
0
 10
0.0
 20
0.0
 30
0.0
 70
128
 71
183
 72
182
 73
184
  0
VERTEX
  8
0
 10
0.0
 20
0.0
 30
0.0
 70
128
 71
185
 72
184
 73
182
  0
VERTEX
  8
0
 10
0.0
 20
0.0
 30
0.0
 70
128
 71
186
 72
185
 73
187
  0
VERTEX
  8
0
 10
0.0
 20
0.0
 30
0.0
 70
128
 71
186
 72
187
 73
188
  0
VERTEX
  8
0
 10
0.0
 20
0.0
 30
0.0
 70
128
 71
185
 72
186
 73
184
  0
VERTEX
  8
0
 10
0.0
 20
0.0
 30
0.0
 70
128
 71
186
 72
189
 73
184
  0
VERTEX
  8
0
 10
0.0
 20
0.0
 30
0.0
 70
128
 71
190
 72
189
 73
186
  0
VERTEX
  8
0
 10
0.0
 20
0.0
 30
0.0
 70
128
 71
190
 72
191
 73
189
  0
VERTEX
  8
0
 10
0.0
 20
0.0
 30
0.0
 70
128
 71
190
 72
192
 73
191
  0
VERTEX
  8
0
 10
0.0
 20
0.0
 30
0.0
 70
128
 71
193
 72
192
 73
190
  0
VERTEX
  8
0
 10
0.0
 20
0.0
 30
0.0
 70
128
 71
193
 72
194
 73
192
  0
VERTEX
  8
0
 10
0.0
 20
0.0
 30
0.0
 70
128
 71
195
 72
196
 73
194
  0
VERTEX
  8
0
 10
0.0
 20
0.0
 30
0.0
 70
128
 71
196
 72
195
 73
197
  0
VERTEX
  8
0
 10
0.0
 20
0.0
 30
0.0
 70
128
 71
195
 72
194
 73
198
  0
VERTEX
  8
0
 10
0.0
 20
0.0
 30
0.0
 70
128
 71
199
 72
194
 73
193
  0
VERTEX
  8
0
 10
0.0
 20
0.0
 30
0.0
 70
128
 71
194
 72
199
 73
198
  0
VERTEX
  8
0
 10
0.0
 20
0.0
 30
0.0
 70
128
 71
200
 72
201
 73
202
  0
VERTEX
  8
0
 10
0.0
 20
0.0
 30
0.0
 70
128
 71
203
 72
201
 73
200
  0
VERTEX
  8
0
 10
0.0
 20
0.0
 30
0.0
 70
128
 71
203
 72
204
 73
201
  0
VERTEX
  8
0
 10
0.0
 20
0.0
 30
0.0
 70
128
 71
205
 72
204
 73
203
  0
VERTEX
  8
0
 10
0.0
 20
0.0
 30
0.0
 70
128
 71
205
 72
206
 73
204
  0
VERTEX
  8
0
 10
0.0
 20
0.0
 30
0.0
 70
128
 71
205
 72
207
 73
206
  0
VERTEX
  8
0
 10
0.0
 20
0.0
 30
0.0
 70
128
 71
208
 72
209
 73
207
  0
VERTEX
  8
0
 10
0.0
 20
0.0
 30
0.0
 70
128
 71
210
 72
205
 73
211
  0
VERTEX
  8
0
 10
0.0
 20
0.0
 30
0.0
 70
128
 71
212
 72
205
 73
210
  0
VERTEX
  8
0
 10
0.0
 20
0.0
 30
0.0
 70
128
 71
205
 72
212
 73
207
  0
VERTEX
  8
0
 10
0.0
 20
0.0
 30
0.0
 70
128
 71
208
 72
207
 73
212
  0
VERTEX
  8
0
 10
0.0
 20
0.0
 30
0.0
 70
128
 71
209
 72
208
 73
213
  0
VERTEX
  8
0
 10
0.0
 20
0.0
 30
0.0
 70
128
 71
214
 72
213
 73
208
  0
VERTEX
  8
0
 10
0.0
 20
0.0
 30
0.0
 70
128
 71
213
 72
214
 73
215
  0
VERTEX
  8
0
 10
0.0
 20
0.0
 30
0.0
 70
128
 71
216
 72
215
 73
214
  0
VERTEX
  8
0
 10
0.0
 20
0.0
 30
0.0
 70
128
 71
216
 72
217
 73
215
  0
VERTEX
  8
0
 10
0.0
 20
0.0
 30
0.0
 70
128
 71
218
 72
217
 73
216
  0
VERTEX
  8
0
 10
0.0
 20
0.0
 30
0.0
 70
128
 71
218
 72
219
 73
217
  0
VERTEX
  8
0
 10
0.0
 20
0.0
 30
0.0
 70
128
 71
220
 72
219
 73
218
  0
VERTEX
  8
0
 10
0.0
 20
0.0
 30
0.0
 70
128
 71
221
 72
219
 73
220
  0
VERTEX
  8
0
 10
0.0
 20
0.0
 30
0.0
 70
128
 71
221
 72
222
 73
219
  0
VERTEX
  8
0
 10
0.0
 20
0.0
 30
0.0
 70
128
 71
223
 72
222
 73
221
  0
VERTEX
  8
0
 10
0.0
 20
0.0
 30
0.0
 70
128
 71
223
 72
224
 73
222
  0
VERTEX
  8
0
 10
0.0
 20
0.0
 30
0.0
 70
128
 71
225
 72
224
 73
223
  0
VERTEX
  8
0
 10
0.0
 20
0.0
 30
0.0
 70
128
 71
226
 72
225
 73
227
  0
VERTEX
  8
0
 10
0.0
 20
0.0
 30
0.0
 70
128
 71
225
 72
226
 73
224
  0
VERTEX
  8
0
 10
0.0
 20
0.0
 30
0.0
 70
128
 71
228
 72
227
 73
229
  0
VERTEX
  8
0
 10
0.0
 20
0.0
 30
0.0
 70
128
 71
230
 72
229
 73
231
  0
VERTEX
  8
0
 10
0.0
 20
0.0
 30
0.0
 70
128
 71
230
 72
231
 73
232
  0
VERTEX
  8
0
 10
0.0
 20
0.0
 30
0.0
 70
128
 71
227
 72
228
 73
226
  0
VERTEX
  8
0
 10
0.0
 20
0.0
 30
0.0
 70
128
 71
230
 72
232
 73
180
  0
VERTEX
  8
0
 10
0.0
 20
0.0
 30
0.0
 70
128
 71
229
 72
230
 73
228
  0
VERTEX
  8
0
 10
0.0
 20
0.0
 30
0.0
 70
128
 71
202
 72
233
 73
200
  0
VERTEX
  8
0
 10
0.0
 20
0.0
 30
0.0
 70
128
 71
233
 72
202
 73
234
  0
VERTEX
  8
0
 10
0.0
 20
0.0
 30
0.0
 70
128
 71
202
 72
235
 73
234
  0
VERTEX
  8
0
 10
0.0
 20
0.0
 30
0.0
 70
128
 71
236
 72
235
 73
202
  0
VERTEX
  8
0
 10
0.0
 20
0.0
 30
0.0
 70
128
 71
235
 72
236
 73
237
  0
VERTEX
  8
0
 10
0.0
 20
0.0
 30
0.0
 70
128
 71
238
 72
237
 73
236
  0
VERTEX
  8
0
 10
0.0
 20
0.0
 30
0.0
 70
128
 71
237
 72
238
 73
239
  0
VERTEX
  8
0
 10
0.0
 20
0.0
 30
0.0
 70
128
 71
239
 72
240
 73
241
  0
VERTEX
  8
0
 10
0.0
 20
0.0
 30
0.0
 70
128
 71
240
 72
239
 73
238
  0
VERTEX
  8
0
 10
0.0
 20
0.0
 30
0.0
 70
128
 71
242
 72
243
 73
244
  0
VERTEX
  8
0
 10
0.0
 20
0.0
 30
0.0
 70
128
 71
243
 72
242
 73
245
  0
VERTEX
  8
0
 10
0.0
 20
0.0
 30
0.0
 70
128
 71
246
 72
242
 73
244
  0
VERTEX
  8
0
 10
0.0
 20
0.0
 30
0.0
 70
128
 71
247
 72
246
 73
248
  0
VERTEX
  8
0
 10
0.0
 20
0.0
 30
0.0
 70
128
 71
246
 72
247
 73
242
  0
VERTEX
  8
0
 10
0.0
 20
0.0
 30
0.0
 70
128
 71
249
 72
248
 73
250
  0
VERTEX
  8
0
 10
0.0
 20
0.0
 30
0.0
 70
128
 71
251
 72
250
 73
252
  0
VERTEX
  8
0
 10
0.0
 20
0.0
 30
0.0
 70
128
 71
248
 72
249
 73
247
  0
VERTEX
  8
0
 10
0.0
 20
0.0
 30
0.0
 70
128
 71
253
 72
252
 73
254
  0
VERTEX
  8
0
 10
0.0
 20
0.0
 30
0.0
 70
128
 71
255
 72
241
 73
240
  0
VERTEX
  8
0
 10
0.0
 20
0.0
 30
0.0
 70
128
 71
241
 72
255
 73
254
  0
VERTEX
  8
0
 10
0.0
 20
0.0
 30
0.0
 70
128
 71
250
 72
251
 73
249
  0
VERTEX
  8
0
 10
0.0
 20
0.0
 30
0.0
 70
128
 71
256
 72
254
 73
255
  0
VERTEX
  8
0
 10
0.0
 20
0.0
 30
0.0
 70
128
 71
252
 72
253
 73
251
  0
VERTEX
  8
0
 10
0.0
 20
0.0
 30
0.0
 70
128
 71
254
 72
256
 73
253
  0
VERTEX
  8
0
 10
0.0
 20
0.0
 30
0.0
 70
128
 71
257
 72
245
 73
242
  0
VERTEX
  8
0
 10
0.0
 20
0.0
 30
0.0
 70
128
 71
257
 72
258
 73
245
  0
VERTEX
  8
0
 10
0.0
 20
0.0
 30
0.0
 70
128
 71
259
 72
258
 73
257
  0
VERTEX
  8
0
 10
0.0
 20
0.0
 30
0.0
 70
128
 71
259
 72
260
 73
258
  0
VERTEX
  8
0
 10
0.0
 20
0.0
 30
0.0
 70
128
 71
261
 72
260
 73
259
  0
VERTEX
  8
0
 10
0.0
 20
0.0
 30
0.0
 70
128
 71
262
 72
260
 73
261
  0
VERTEX
  8
0
 10
0.0
 20
0.0
 30
0.0
 70
128
 71
263
 72
264
 73
265
  0
VERTEX
  8
0
 10
0.0
 20
0.0
 30
0.0
 70
128
 71
266
 72
260
 73
262
  0
VERTEX
  8
0
 10
0.0
 20
0.0
 30
0.0
 70
128
 71
264
 72
263
 73
262
  0
VERTEX
  8
0
 10
0.0
 20
0.0
 30
0.0
 70
128
 71
260
 72
267
 73
268
  0
VERTEX
  8
0
 10
0.0
 20
0.0
 30
0.0
 70
128
 71
260
 72
266
 73
267
  0
VERTEX
  8
0
 10
0.0
 20
0.0
 30
0.0
 70
128
 71
262
 72
263
 73
266
  0
VERTEX
  8
0
 10
0.0
 20
0.0
 30
0.0
 70
128
 71
269
 72
265
 73
270
  0
VERTEX
  8
0
 10
0.0
 20
0.0
 30
0.0
 70
128
 71
265
 72
269
 73
263
  0
VERTEX
  8
0
 10
0.0
 20
0.0
 30
0.0
 70
128
 71
270
 72
271
 73
269
  0
VERTEX
  8
0
 10
0.0
 20
0.0
 30
0.0
 70
128
 71
272
 72
271
 73
270
  0
VERTEX
  8
0
 10
0.0
 20
0.0
 30
0.0
 70
128
 71
272
 72
273
 73
271
  0
VERTEX
  8
0
 10
0.0
 20
0.0
 30
0.0
 70
128
 71
274
 72
273
 73
272
  0
VERTEX
  8
0
 10
0.0
 20
0.0
 30
0.0
 70
128
 71
274
 72
275
 73
273
  0
VERTEX
  8
0
 10
0.0
 20
0.0
 30
0.0
 70
128
 71
274
 72
276
 73
275
  0
VERTEX
  8
0
 10
0.0
 20
0.0
 30
0.0
 70
128
 71
277
 72
276
 73
274
  0
VERTEX
  8
0
 10
0.0
 20
0.0
 30
0.0
 70
128
 71
277
 72
278
 73
276
  0
VERTEX
  8
0
 10
0.0
 20
0.0
 30
0.0
 70
128
 71
279
 72
278
 73
277
  0
VERTEX
  8
0
 10
0.0
 20
0.0
 30
0.0
 70
128
 71
279
 72
280
 73
278
  0
VERTEX
  8
0
 10
0.0
 20
0.0
 30
0.0
 70
128
 71
281
 72
280
 73
279
  0
VERTEX
  8
0
 10
0.0
 20
0.0
 30
0.0
 70
128
 71
280
 72
281
 73
282
  0
VERTEX
  8
0
 10
0.0
 20
0.0
 30
0.0
 70
128
 71
283
 72
282
 73
281
  0
VERTEX
  8
0
 10
0.0
 20
0.0
 30
0.0
 70
128
 71
282
 72
283
 73
284
  0
VERTEX
  8
0
 10
0.0
 20
0.0
 30
0.0
 70
128
 71
285
 72
284
 73
283
  0
VERTEX
  8
0
 10
0.0
 20
0.0
 30
0.0
 70
128
 71
284
 72
285
 73
286
  0
VERTEX
  8
0
 10
0.0
 20
0.0
 30
0.0
 70
128
 71
287
 72
286
 73
285
  0
VERTEX
  8
0
 10
0.0
 20
0.0
 30
0.0
 70
128
 71
286
 72
287
 73
288
  0
VERTEX
  8
0
 10
0.0
 20
0.0
 30
0.0
 70
128
 71
289
 72
288
 73
287
  0
VERTEX
  8
0
 10
0.0
 20
0.0
 30
0.0
 70
128
 71
288
 72
289
 73
290
  0
VERTEX
  8
0
 10
0.0
 20
0.0
 30
0.0
 70
128
 71
291
 72
292
 73
293
  0
VERTEX
  8
0
 10
0.0
 20
0.0
 30
0.0
 70
128
 71
294
 72
295
 73
292
  0
VERTEX
  8
0
 10
0.0
 20
0.0
 30
0.0
 70
128
 71
296
 72
295
 73
294
  0
VERTEX
  8
0
 10
0.0
 20
0.0
 30
0.0
 70
128
 71
295
 72
296
 73
297
  0
VERTEX
  8
0
 10
0.0
 20
0.0
 30
0.0
 70
128
 71
297
 72
296
 73
298
  0
VERTEX
  8
0
 10
0.0
 20
0.0
 30
0.0
 70
128
 71
299
 72
296
 73
294
  0
VERTEX
  8
0
 10
0.0
 20
0.0
 30
0.0
 70
128
 71
299
 72
300
 73
296
  0
VERTEX
  8
0
 10
0.0
 20
0.0
 30
0.0
 70
128
 71
301
 72
300
 73
299
  0
VERTEX
  8
0
 10
0.0
 20
0.0
 30
0.0
 70
128
 71
302
 72
300
 73
301
  0
VERTEX
  8
0
 10
0.0
 20
0.0
 30
0.0
 70
128
 71
302
 72
303
 73
300
  0
VERTEX
  8
0
 10
0.0
 20
0.0
 30
0.0
 70
128
 71
304
 72
303
 73
302
  0
VERTEX
  8
0
 10
0.0
 20
0.0
 30
0.0
 70
128
 71
305
 72
306
 73
307
  0
VERTEX
  8
0
 10
0.0
 20
0.0
 30
0.0
 70
128
 71
308
 72
307
 73
309
  0
VERTEX
  8
0
 10
0.0
 20
0.0
 30
0.0
 70
128
 71
305
 72
307
 73
308
  0
VERTEX
  8
0
 10
0.0
 20
0.0
 30
0.0
 70
128
 71
310
 72
304
 73
311
  0
VERTEX
  8
0
 10
0.0
 20
0.0
 30
0.0
 70
128
 71
304
 72
310
 73
303
  0
VERTEX
  8
0
 10
0.0
 20
0.0
 30
0.0
 70
128
 71
304
 72
305
 73
311
  0
VERTEX
  8
0
 10
0.0
 20
0.0
 30
0.0
 70
128
 71
306
 72
305
 73
304
  0
VERTEX
  8
0
 10
0.0
 20
0.0
 30
0.0
 70
128
 71
312
 72
309
 73
313
  0
VERTEX
  8
0
 10
0.0
 20
0.0
 30
0.0
 70
128
 71
309
 72
312
 73
308
  0
VERTEX
  8
0
 10
0.0
 20
0.0
 30
0.0
 70
128
 71
313
 72
314
 73
312
  0
VERTEX
  8
0
 10
0.0
 20
0.0
 30
0.0
 70
128
 71
315
 72
314
 73
313
  0
VERTEX
  8
0
 10
0.0
 20
0.0
 30
0.0
 70
128
 71
315
 72
316
 73
314
  0
VERTEX
  8
0
 10
0.0
 20
0.0
 30
0.0
 70
128
 71
317
 72
316
 73
315
  0
VERTEX
  8
0
 10
0.0
 20
0.0
 30
0.0
 70
128
 71
317
 72
318
 73
316
  0
VERTEX
  8
0
 10
0.0
 20
0.0
 30
0.0
 70
128
 71
319
 72
318
 73
317
  0
VERTEX
  8
0
 10
0.0
 20
0.0
 30
0.0
 70
128
 71
319
 72
320
 73
318
  0
VERTEX
  8
0
 10
0.0
 20
0.0
 30
0.0
 70
128
 71
319
 72
321
 73
320
  0
VERTEX
  8
0
 10
0.0
 20
0.0
 30
0.0
 70
128
 71
322
 72
321
 73
319
  0
VERTEX
  8
0
 10
0.0
 20
0.0
 30
0.0
 70
128
 71
322
 72
323
 73
321
  0
VERTEX
  8
0
 10
0.0
 20
0.0
 30
0.0
 70
128
 71
324
 72
323
 73
322
  0
VERTEX
  8
0
 10
0.0
 20
0.0
 30
0.0
 70
128
 71
325
 72
323
 73
324
  0
VERTEX
  8
0
 10
0.0
 20
0.0
 30
0.0
 70
128
 71
323
 72
325
 73
326
  0
VERTEX
  8
0
 10
0.0
 20
0.0
 30
0.0
 70
128
 71
325
 72
327
 73
326
  0
VERTEX
  8
0
 10
0.0
 20
0.0
 30
0.0
 70
128
 71
328
 72
325
 73
329
  0
VERTEX
  8
0
 10
0.0
 20
0.0
 30
0.0
 70
128
 71
325
 72
328
 73
327
  0
VERTEX
  8
0
 10
0.0
 20
0.0
 30
0.0
 70
128
 71
330
 72
328
 73
329
  0
VERTEX
  8
0
 10
0.0
 20
0.0
 30
0.0
 70
128
 71
330
 72
331
 73
328
  0
VERTEX
  8
0
 10
0.0
 20
0.0
 30
0.0
 70
128
 71
332
 72
331
 73
330
  0
VERTEX
  8
0
 10
0.0
 20
0.0
 30
0.0
 70
128
 71
333
 72
332
 73
334
  0
VERTEX
  8
0
 10
0.0
 20
0.0
 30
0.0
 70
128
 71
335
 72
334
 73
336
  0
VERTEX
  8
0
 10
0.0
 20
0.0
 30
0.0
 70
128
 71
334
 72
335
 73
333
  0
VERTEX
  8
0
 10
0.0
 20
0.0
 30
0.0
 70
128
 71
333
 72
335
 73
337
  0
VERTEX
  8
0
 10
0.0
 20
0.0
 30
0.0
 70
128
 71
332
 72
333
 73
331
  0
VERTEX
  8
0
 10
0.0
 20
0.0
 30
0.0
 70
128
 71
333
 72
337
 73
338
  0
VERTEX
  8
0
 10
0.0
 20
0.0
 30
0.0
 70
128
 71
339
 72
290
 73
289
  0
VERTEX
  8
0
 10
0.0
 20
0.0
 30
0.0
 70
128
 71
290
 72
339
 73
293
  0
VERTEX
  8
0
 10
0.0
 20
0.0
 30
0.0
 70
128
 71
291
 72
293
 73
340
  0
VERTEX
  8
0
 10
0.0
 20
0.0
 30
0.0
 70
128
 71
292
 72
291
 73
294
  0
VERTEX
  8
0
 10
0.0
 20
0.0
 30
0.0
 70
128
 71
293
 72
339
 73
340
  0
VERTEX
  8
0
 10
0.0
 20
0.0
 30
0.0
 70
128
 71
181
 72
183
 73
341
  0
VERTEX
  8
0
 10
0.0
 20
0.0
 30
0.0
 70
128
 71
180
 72
342
 73
230
  0
VERTEX
  8
0
 10
0.0
 20
0.0
 30
0.0
 70
128
 71
179
 72
181
 73
341
  0
VERTEX
  8
0
 10
0.0
 20
0.0
 30
0.0
 70
128
 71
180
 72
343
 73
342
  0
VERTEX
  8
0
 10
0.0
 20
0.0
 30
0.0
 70
128
 71
180
 72
179
 73
343
  0
VERTEX
  8
0
 10
0.0
 20
0.0
 30
0.0
 70
128
 71
197
 72
195
 73
344
  0
VERTEX
  8
0
 10
0.0
 20
0.0
 30
0.0
 70
128
 71
197
 72
344
 73
345
  0
VERTEX
  8
0
 10
0.0
 20
0.0
 30
0.0
 70
128
 71
346
 72
345
 73
344
  0
VERTEX
  8
0
 10
0.0
 20
0.0
 30
0.0
 70
128
 71
345
 72
346
 73
347
  0
VERTEX
  8
0
 10
0.0
 20
0.0
 30
0.0
 70
128
 71
348
 72
347
 73
346
  0
VERTEX
  8
0
 10
0.0
 20
0.0
 30
0.0
 70
128
 71
348
 72
349
 73
347
  0
VERTEX
  8
0
 10
0.0
 20
0.0
 30
0.0
 70
128
 71
350
 72
349
 73
348
  0
VERTEX
  8
0
 10
0.0
 20
0.0
 30
0.0
 70
128
 71
350
 72
351
 73
349
  0
VERTEX
  8
0
 10
0.0
 20
0.0
 30
0.0
 70
128
 71
352
 72
351
 73
350
  0
VERTEX
  8
0
 10
0.0
 20
0.0
 30
0.0
 70
128
 71
352
 72
353
 73
351
  0
VERTEX
  8
0
 10
0.0
 20
0.0
 30
0.0
 70
128
 71
354
 72
353
 73
352
  0
VERTEX
  8
0
 10
0.0
 20
0.0
 30
0.0
 70
128
 71
355
 72
353
 73
354
  0
VERTEX
  8
0
 10
0.0
 20
0.0
 30
0.0
 70
128
 71
355
 72
356
 73
353
  0
VERTEX
  8
0
 10
0.0
 20
0.0
 30
0.0
 70
128
 71
357
 72
356
 73
355
  0
VERTEX
  8
0
 10
0.0
 20
0.0
 30
0.0
 70
128
 71
357
 72
358
 73
356
  0
VERTEX
  8
0
 10
0.0
 20
0.0
 30
0.0
 70
128
 71
359
 72
357
 73
360
  0
VERTEX
  8
0
 10
0.0
 20
0.0
 30
0.0
 70
128
 71
357
 72
359
 73
358
  0
VERTEX
  8
0
 10
0.0
 20
0.0
 30
0.0
 70
128
 71
361
 72
359
 73
360
  0
VERTEX
  8
0
 10
0.0
 20
0.0
 30
0.0
 70
128
 71
362
 72
359
 73
361
  0
VERTEX
  8
0
 10
0.0
 20
0.0
 30
0.0
 70
128
 71
359
 72
362
 73
363
  0
VERTEX
  8
0
 10
0.0
 20
0.0
 30
0.0
 70
128
 71
362
 72
364
 73
363
  0
VERTEX
  8
0
 10
0.0
 20
0.0
 30
0.0
 70
128
 71
365
 72
364
 73
362
  0
VERTEX
  8
0
 10
0.0
 20
0.0
 30
0.0
 70
128
 71
365
 72
366
 73
364
  0
VERTEX
  8
0
 10
0.0
 20
0.0
 30
0.0
 70
128
 71
367
 72
366
 73
365
  0
VERTEX
  8
0
 10
0.0
 20
0.0
 30
0.0
 70
128
 71
366
 72
367
 73
368
  0
VERTEX
  8
0
 10
0.0
 20
0.0
 30
0.0
 70
128
 71
369
 72
368
 73
367
  0
VERTEX
  8
0
 10
0.0
 20
0.0
 30
0.0
 70
128
 71
368
 72
369
 73
370
  0
VERTEX
  8
0
 10
0.0
 20
0.0
 30
0.0
 70
128
 71
369
 72
367
 73
371
  0
VERTEX
  8
0
 10
0.0
 20
0.0
 30
0.0
 70
128
 71
371
 72
367
 73
372
  0
VERTEX
  8
0
 10
0.0
 20
0.0
 30
0.0
 70
128
 71
373
 72
374
 73
375
  0
VERTEX
  8
0
 10
0.0
 20
0.0
 30
0.0
 70
128
 71
376
 72
375
 73
377
  0
VERTEX
  8
0
 10
0.0
 20
0.0
 30
0.0
 70
128
 71
374
 72
373
 73
378
  0
VERTEX
  8
0
 10
0.0
 20
0.0
 30
0.0
 70
128
 71
379
 72
377
 73
380
  0
VERTEX
  8
0
 10
0.0
 20
0.0
 30
0.0
 70
128
 71
381
 72
378
 73
373
  0
VERTEX
  8
0
 10
0.0
 20
0.0
 30
0.0
 70
128
 71
378
 72
381
 73
382
  0
VERTEX
  8
0
 10
0.0
 20
0.0
 30
0.0
 70
128
 71
383
 72
380
 73
384
  0
VERTEX
  8
0
 10
0.0
 20
0.0
 30
0.0
 70
128
 71
375
 72
376
 73
373
  0
VERTEX
  8
0
 10
0.0
 20
0.0
 30
0.0
 70
128
 71
377
 72
379
 73
376
  0
VERTEX
  8
0
 10
0.0
 20
0.0
 30
0.0
 70
128
 71
380
 72
383
 73
379
  0
VERTEX
  8
0
 10
0.0
 20
0.0
 30
0.0
 70
128
 71
385
 72
384
 73
386
  0
VERTEX
  8
0
 10
0.0
 20
0.0
 30
0.0
 70
128
 71
384
 72
385
 73
383
  0
VERTEX
  8
0
 10
0.0
 20
0.0
 30
0.0
 70
128
 71
386
 72
387
 73
385
  0
VERTEX
  8
0
 10
0.0
 20
0.0
 30
0.0
 70
128
 71
388
 72
387
 73
386
  0
VERTEX
  8
0
 10
0.0
 20
0.0
 30
0.0
 70
128
 71
388
 72
389
 73
387
  0
VERTEX
  8
0
 10
0.0
 20
0.0
 30
0.0
 70
128
 71
390
 72
389
 73
388
  0
VERTEX
  8
0
 10
0.0
 20
0.0
 30
0.0
 70
128
 71
370
 72
390
 73
368
  0
VERTEX
  8
0
 10
0.0
 20
0.0
 30
0.0
 70
128
 71
390
 72
370
 73
389
  0
VERTEX
  8
0
 10
0.0
 20
0.0
 30
0.0
 70
128
 71
391
 72
382
 73
381
  0
VERTEX
  8
0
 10
0.0
 20
0.0
 30
0.0
 70
128
 71
382
 72
391
 73
392
  0
VERTEX
  8
0
 10
0.0
 20
0.0
 30
0.0
 70
128
 71
393
 72
392
 73
391
  0
VERTEX
  8
0
 10
0.0
 20
0.0
 30
0.0
 70
128
 71
392
 72
393
 73
394
  0
VERTEX
  8
0
 10
0.0
 20
0.0
 30
0.0
 70
128
 71
395
 72
394
 73
393
  0
VERTEX
  8
0
 10
0.0
 20
0.0
 30
0.0
 70
128
 71
394
 72
395
 73
396
  0
VERTEX
  8
0
 10
0.0
 20
0.0
 30
0.0
 70
128
 71
397
 72
396
 73
395
  0
VERTEX
  8
0
 10
0.0
 20
0.0
 30
0.0
 70
128
 71
397
 72
398
 73
396
  0
VERTEX
  8
0
 10
0.0
 20
0.0
 30
0.0
 70
128
 71
399
 72
398
 73
397
  0
VERTEX
  8
0
 10
0.0
 20
0.0
 30
0.0
 70
128
 71
399
 72
400
 73
398
  0
VERTEX
  8
0
 10
0.0
 20
0.0
 30
0.0
 70
128
 71
336
 72
400
 73
399
  0
VERTEX
  8
0
 10
0.0
 20
0.0
 30
0.0
 70
128
 71
400
 72
336
 73
334
  0
SEQEND
  8
0
  0
ENDSEC
  0
EOF
