G04 DipTrace 2.4.0.2*
%INBoardOutline.oln*%
%MOMM*%
%ADD11C,0.14*%
%FSLAX53Y53*%
G04*
G71*
G90*
G75*
G01*
%LNBoardOutline*%
%LPD*%
X0Y0D2*
D11*
X100000D1*
Y100000D1*
X0D1*
Y0D1*
X68000Y48050D2*
X82000D1*
Y46050D1*
X68000D1*
Y48050D1*
X67000Y47050D2*
G02X67000Y47050I1000J0D01*
G01*
X81000D2*
G02X81000Y47050I1000J0D01*
G01*
X55007Y34893D2*
X53593Y36307D1*
X63493Y46207D1*
X64907Y44793D1*
X55007Y34893D1*
X63493Y46207D2*
X63746Y46391D1*
X64043Y46487D1*
X64356D1*
X64654Y46391D1*
X64907Y46207D1*
X65091Y45954D1*
X65187Y45656D1*
Y45343D1*
X65091Y45046D1*
X64907Y44793D1*
X64654Y44609D1*
X64356Y44512D1*
X64043D1*
X63746Y44609D1*
X63493Y44793D1*
X63309Y45046D1*
X63212Y45343D1*
Y45656D1*
X63309Y45954D1*
X63493Y46207D1*
X53593Y36307D2*
X53846Y36491D1*
X54144Y36588D1*
X54457D1*
X54754Y36491D1*
X55007Y36307D1*
X55191Y36054D1*
X55288Y35757D1*
Y35444D1*
X55191Y35146D1*
X55007Y34893D1*
X54754Y34709D1*
X54457Y34613D1*
X54144D1*
X53846Y34709D1*
X53593Y34893D1*
X53409Y35146D1*
X53313Y35444D1*
Y35757D1*
X53409Y36054D1*
X53593Y36307D1*
X86407Y3293D2*
X84993Y4707D1*
X94893Y14607D1*
X96307Y13193D1*
X86407Y3293D1*
X94893Y14607D2*
X95146Y14791D1*
X95443Y14887D1*
X95756D1*
X96054Y14791D1*
X96307Y14607D1*
X96491Y14354D1*
X96587Y14056D1*
Y13743D1*
X96491Y13446D1*
X96307Y13193D1*
X96054Y13009D1*
X95756Y12912D1*
X95443D1*
X95146Y13009D1*
X94893Y13193D1*
X94709Y13446D1*
X94612Y13743D1*
Y14056D1*
X94709Y14354D1*
X94893Y14607D1*
X84993Y4707D2*
X85246Y4891D1*
X85544Y4988D1*
X85857D1*
X86154Y4891D1*
X86407Y4707D1*
X86591Y4454D1*
X86688Y4157D1*
Y3844D1*
X86591Y3546D1*
X86407Y3293D1*
X86154Y3109D1*
X85857Y3013D1*
X85544D1*
X85246Y3109D1*
X84993Y3293D1*
X84809Y3546D1*
X84713Y3844D1*
Y4157D1*
X84809Y4454D1*
X84993Y4707D1*
X96407Y36307D2*
X94993Y34893D1*
X85093Y44793D1*
X86507Y46207D1*
X96407Y36307D1*
X85093Y44793D2*
X84909Y45046D1*
X84813Y45343D1*
Y45656D1*
X84909Y45954D1*
X85093Y46207D1*
X85346Y46391D1*
X85644Y46487D1*
X85957D1*
X86254Y46391D1*
X86507Y46207D1*
X86691Y45954D1*
X86788Y45656D1*
Y45343D1*
X86691Y45046D1*
X86507Y44793D1*
X86254Y44609D1*
X85957Y44512D1*
X85644D1*
X85346Y44609D1*
X85093Y44793D1*
X94993Y34893D2*
X94809Y35146D1*
X94712Y35444D1*
Y35757D1*
X94809Y36054D1*
X94993Y36307D1*
X95246Y36491D1*
X95543Y36588D1*
X95856D1*
X96154Y36491D1*
X96407Y36307D1*
X96591Y36054D1*
X96687Y35757D1*
Y35444D1*
X96591Y35146D1*
X96407Y34893D1*
X96154Y34709D1*
X95856Y34613D1*
X95543D1*
X95246Y34709D1*
X94993Y34893D1*
X18000Y48050D2*
X32000D1*
Y46050D1*
X18000D1*
Y48050D1*
X17000Y47050D2*
G02X17000Y47050I1000J0D01*
G01*
X31000D2*
G02X31000Y47050I1000J0D01*
G01*
X5007Y34893D2*
X3593Y36307D1*
X13493Y46207D1*
X14907Y44793D1*
X5007Y34893D1*
X13493Y46207D2*
X13746Y46391D1*
X14043Y46487D1*
X14356D1*
X14654Y46391D1*
X14907Y46207D1*
X15091Y45954D1*
X15187Y45656D1*
Y45343D1*
X15091Y45046D1*
X14907Y44793D1*
X14654Y44609D1*
X14356Y44512D1*
X14043D1*
X13746Y44609D1*
X13493Y44793D1*
X13309Y45046D1*
X13212Y45343D1*
Y45656D1*
X13309Y45954D1*
X13493Y46207D1*
X3593Y36307D2*
X3846Y36491D1*
X4144Y36588D1*
X4457D1*
X4754Y36491D1*
X5007Y36307D1*
X5191Y36054D1*
X5288Y35757D1*
Y35444D1*
X5191Y35146D1*
X5007Y34893D1*
X4754Y34709D1*
X4457Y34613D1*
X4144D1*
X3846Y34709D1*
X3593Y34893D1*
X3409Y35146D1*
X3313Y35444D1*
Y35757D1*
X3409Y36054D1*
X3593Y36307D1*
X36407Y3293D2*
X34993Y4707D1*
X44893Y14607D1*
X46307Y13193D1*
X36407Y3293D1*
X44893Y14607D2*
X45146Y14791D1*
X45443Y14887D1*
X45756D1*
X46054Y14791D1*
X46307Y14607D1*
X46491Y14354D1*
X46587Y14056D1*
Y13743D1*
X46491Y13446D1*
X46307Y13193D1*
X46054Y13009D1*
X45756Y12912D1*
X45443D1*
X45146Y13009D1*
X44893Y13193D1*
X44709Y13446D1*
X44612Y13743D1*
Y14056D1*
X44709Y14354D1*
X44893Y14607D1*
X34993Y4707D2*
X35246Y4891D1*
X35544Y4988D1*
X35857D1*
X36154Y4891D1*
X36407Y4707D1*
X36591Y4454D1*
X36688Y4157D1*
Y3844D1*
X36591Y3546D1*
X36407Y3293D1*
X36154Y3109D1*
X35857Y3013D1*
X35544D1*
X35246Y3109D1*
X34993Y3293D1*
X34809Y3546D1*
X34713Y3844D1*
Y4157D1*
X34809Y4454D1*
X34993Y4707D1*
X46407Y36307D2*
X44993Y34893D1*
X35093Y44793D1*
X36507Y46207D1*
X46407Y36307D1*
X35093Y44793D2*
X34909Y45046D1*
X34813Y45343D1*
Y45656D1*
X34909Y45954D1*
X35093Y46207D1*
X35346Y46391D1*
X35644Y46487D1*
X35957D1*
X36254Y46391D1*
X36507Y46207D1*
X36691Y45954D1*
X36788Y45656D1*
Y45343D1*
X36691Y45046D1*
X36507Y44793D1*
X36254Y44609D1*
X35957Y44512D1*
X35644D1*
X35346Y44609D1*
X35093Y44793D1*
X44993Y34893D2*
X44809Y35146D1*
X44712Y35444D1*
Y35757D1*
X44809Y36054D1*
X44993Y36307D1*
X45246Y36491D1*
X45543Y36588D1*
X45856D1*
X46154Y36491D1*
X46407Y36307D1*
X46591Y36054D1*
X46687Y35757D1*
Y35444D1*
X46591Y35146D1*
X46407Y34893D1*
X46154Y34709D1*
X45856Y34613D1*
X45543D1*
X45246Y34709D1*
X44993Y34893D1*
X14857Y4857D2*
X13443Y3443D1*
X3543Y13343D1*
X4957Y14757D1*
X14857Y4857D1*
X3543Y13343D2*
X3359Y13596D1*
X3263Y13893D1*
Y14206D1*
X3359Y14504D1*
X3543Y14757D1*
X3796Y14941D1*
X4094Y15037D1*
X4407D1*
X4704Y14941D1*
X4957Y14757D1*
X5141Y14504D1*
X5238Y14206D1*
Y13893D1*
X5141Y13596D1*
X4957Y13343D1*
X4704Y13159D1*
X4407Y13062D1*
X4094D1*
X3796Y13159D1*
X3543Y13343D1*
X13443Y3443D2*
X13259Y3696D1*
X13162Y3994D1*
Y4307D1*
X13259Y4604D1*
X13443Y4857D1*
X13696Y5041D1*
X13993Y5138D1*
X14306D1*
X14604Y5041D1*
X14857Y4857D1*
X15041Y4604D1*
X15137Y4307D1*
Y3994D1*
X15041Y3696D1*
X14857Y3443D1*
X14604Y3259D1*
X14306Y3163D1*
X13993D1*
X13696Y3259D1*
X13443Y3443D1*
X17950Y3500D2*
X31950D1*
Y1500D1*
X17950D1*
Y3500D1*
X16950Y2500D2*
G02X16950Y2500I1000J0D01*
G01*
X30950D2*
G02X30950Y2500I1000J0D01*
G01*
X1700Y31700D2*
X3700D1*
Y17700D1*
X1700D1*
Y31700D1*
Y17700D2*
G02X1700Y17700I1000J0D01*
G01*
Y31700D2*
G02X1700Y31700I1000J0D01*
G01*
X46200Y31800D2*
X48200D1*
Y17800D1*
X46200D1*
Y31800D1*
Y17800D2*
G02X46200Y17800I1000J0D01*
G01*
Y31800D2*
G02X46200Y31800I1000J0D01*
G01*
X64857Y4857D2*
X63443Y3443D1*
X53543Y13343D1*
X54957Y14757D1*
X64857Y4857D1*
X53543Y13343D2*
X53359Y13596D1*
X53263Y13893D1*
Y14206D1*
X53359Y14504D1*
X53543Y14757D1*
X53796Y14941D1*
X54094Y15037D1*
X54407D1*
X54704Y14941D1*
X54957Y14757D1*
X55141Y14504D1*
X55238Y14206D1*
Y13893D1*
X55141Y13596D1*
X54957Y13343D1*
X54704Y13159D1*
X54407Y13062D1*
X54094D1*
X53796Y13159D1*
X53543Y13343D1*
X63443Y3443D2*
X63259Y3696D1*
X63162Y3994D1*
Y4307D1*
X63259Y4604D1*
X63443Y4857D1*
X63696Y5041D1*
X63993Y5138D1*
X64306D1*
X64604Y5041D1*
X64857Y4857D1*
X65041Y4604D1*
X65137Y4307D1*
Y3994D1*
X65041Y3696D1*
X64857Y3443D1*
X64604Y3259D1*
X64306Y3163D1*
X63993D1*
X63696Y3259D1*
X63443Y3443D1*
X67950Y3500D2*
X81950D1*
Y1500D1*
X67950D1*
Y3500D1*
X66950Y2500D2*
G02X66950Y2500I1000J0D01*
G01*
X80950D2*
G02X80950Y2500I1000J0D01*
G01*
X51700Y31700D2*
X53700D1*
Y17700D1*
X51700D1*
Y31700D1*
Y17700D2*
G02X51700Y17700I1000J0D01*
G01*
Y31700D2*
G02X51700Y31700I1000J0D01*
G01*
X96200Y31800D2*
X98200D1*
Y17800D1*
X96200D1*
Y31800D1*
Y17800D2*
G02X96200Y17800I1000J0D01*
G01*
Y31800D2*
G02X96200Y31800I1000J0D01*
G01*
X68000Y98050D2*
X82000D1*
Y96050D1*
X68000D1*
Y98050D1*
X67000Y97050D2*
G02X67000Y97050I1000J0D01*
G01*
X81000D2*
G02X81000Y97050I1000J0D01*
G01*
X55007Y84893D2*
X53593Y86307D1*
X63493Y96207D1*
X64907Y94793D1*
X55007Y84893D1*
X63493Y96207D2*
X63746Y96391D1*
X64043Y96487D1*
X64356D1*
X64654Y96391D1*
X64907Y96207D1*
X65091Y95954D1*
X65187Y95656D1*
Y95343D1*
X65091Y95046D1*
X64907Y94793D1*
X64654Y94609D1*
X64356Y94512D1*
X64043D1*
X63746Y94609D1*
X63493Y94793D1*
X63309Y95046D1*
X63212Y95343D1*
Y95656D1*
X63309Y95954D1*
X63493Y96207D1*
X53593Y86307D2*
X53846Y86491D1*
X54144Y86588D1*
X54457D1*
X54754Y86491D1*
X55007Y86307D1*
X55191Y86054D1*
X55288Y85757D1*
Y85444D1*
X55191Y85146D1*
X55007Y84893D1*
X54754Y84709D1*
X54457Y84613D1*
X54144D1*
X53846Y84709D1*
X53593Y84893D1*
X53409Y85146D1*
X53313Y85444D1*
Y85757D1*
X53409Y86054D1*
X53593Y86307D1*
X86407Y53293D2*
X84993Y54707D1*
X94893Y64607D1*
X96307Y63193D1*
X86407Y53293D1*
X94893Y64607D2*
X95146Y64791D1*
X95443Y64887D1*
X95756D1*
X96054Y64791D1*
X96307Y64607D1*
X96491Y64354D1*
X96587Y64056D1*
Y63743D1*
X96491Y63446D1*
X96307Y63193D1*
X96054Y63009D1*
X95756Y62912D1*
X95443D1*
X95146Y63009D1*
X94893Y63193D1*
X94709Y63446D1*
X94612Y63743D1*
Y64056D1*
X94709Y64354D1*
X94893Y64607D1*
X84993Y54707D2*
X85246Y54891D1*
X85544Y54988D1*
X85857D1*
X86154Y54891D1*
X86407Y54707D1*
X86591Y54454D1*
X86688Y54157D1*
Y53844D1*
X86591Y53546D1*
X86407Y53293D1*
X86154Y53109D1*
X85857Y53013D1*
X85544D1*
X85246Y53109D1*
X84993Y53293D1*
X84809Y53546D1*
X84713Y53844D1*
Y54157D1*
X84809Y54454D1*
X84993Y54707D1*
X96407Y86307D2*
X94993Y84893D1*
X85093Y94793D1*
X86507Y96207D1*
X96407Y86307D1*
X85093Y94793D2*
X84909Y95046D1*
X84813Y95343D1*
Y95656D1*
X84909Y95954D1*
X85093Y96207D1*
X85346Y96391D1*
X85644Y96487D1*
X85957D1*
X86254Y96391D1*
X86507Y96207D1*
X86691Y95954D1*
X86788Y95656D1*
Y95343D1*
X86691Y95046D1*
X86507Y94793D1*
X86254Y94609D1*
X85957Y94512D1*
X85644D1*
X85346Y94609D1*
X85093Y94793D1*
X94993Y84893D2*
X94809Y85146D1*
X94712Y85444D1*
Y85757D1*
X94809Y86054D1*
X94993Y86307D1*
X95246Y86491D1*
X95543Y86588D1*
X95856D1*
X96154Y86491D1*
X96407Y86307D1*
X96591Y86054D1*
X96687Y85757D1*
Y85444D1*
X96591Y85146D1*
X96407Y84893D1*
X96154Y84709D1*
X95856Y84613D1*
X95543D1*
X95246Y84709D1*
X94993Y84893D1*
X64857Y54857D2*
X63443Y53443D1*
X53543Y63343D1*
X54957Y64757D1*
X64857Y54857D1*
X53543Y63343D2*
X53359Y63596D1*
X53263Y63893D1*
Y64206D1*
X53359Y64504D1*
X53543Y64757D1*
X53796Y64941D1*
X54094Y65037D1*
X54407D1*
X54704Y64941D1*
X54957Y64757D1*
X55141Y64504D1*
X55238Y64206D1*
Y63893D1*
X55141Y63596D1*
X54957Y63343D1*
X54704Y63159D1*
X54407Y63062D1*
X54094D1*
X53796Y63159D1*
X53543Y63343D1*
X63443Y53443D2*
X63259Y53696D1*
X63162Y53994D1*
Y54307D1*
X63259Y54604D1*
X63443Y54857D1*
X63696Y55041D1*
X63993Y55138D1*
X64306D1*
X64604Y55041D1*
X64857Y54857D1*
X65041Y54604D1*
X65137Y54307D1*
Y53994D1*
X65041Y53696D1*
X64857Y53443D1*
X64604Y53259D1*
X64306Y53163D1*
X63993D1*
X63696Y53259D1*
X63443Y53443D1*
X67950Y53500D2*
X81950D1*
Y51500D1*
X67950D1*
Y53500D1*
X66950Y52500D2*
G02X66950Y52500I1000J0D01*
G01*
X80950D2*
G02X80950Y52500I1000J0D01*
G01*
X51700Y81700D2*
X53700D1*
Y67700D1*
X51700D1*
Y81700D1*
Y67700D2*
G02X51700Y67700I1000J0D01*
G01*
Y81700D2*
G02X51700Y81700I1000J0D01*
G01*
X96200Y81800D2*
X98200D1*
Y67800D1*
X96200D1*
Y81800D1*
Y67800D2*
G02X96200Y67800I1000J0D01*
G01*
Y81800D2*
G02X96200Y81800I1000J0D01*
G01*
X18000Y98050D2*
X32000D1*
Y96050D1*
X18000D1*
Y98050D1*
X17000Y97050D2*
G02X17000Y97050I1000J0D01*
G01*
X31000D2*
G02X31000Y97050I1000J0D01*
G01*
X5007Y84893D2*
X3593Y86307D1*
X13493Y96207D1*
X14907Y94793D1*
X5007Y84893D1*
X13493Y96207D2*
X13746Y96391D1*
X14043Y96487D1*
X14356D1*
X14654Y96391D1*
X14907Y96207D1*
X15091Y95954D1*
X15187Y95656D1*
Y95343D1*
X15091Y95046D1*
X14907Y94793D1*
X14654Y94609D1*
X14356Y94512D1*
X14043D1*
X13746Y94609D1*
X13493Y94793D1*
X13309Y95046D1*
X13212Y95343D1*
Y95656D1*
X13309Y95954D1*
X13493Y96207D1*
X3593Y86307D2*
X3846Y86491D1*
X4144Y86588D1*
X4457D1*
X4754Y86491D1*
X5007Y86307D1*
X5191Y86054D1*
X5288Y85757D1*
Y85444D1*
X5191Y85146D1*
X5007Y84893D1*
X4754Y84709D1*
X4457Y84613D1*
X4144D1*
X3846Y84709D1*
X3593Y84893D1*
X3409Y85146D1*
X3313Y85444D1*
Y85757D1*
X3409Y86054D1*
X3593Y86307D1*
X36407Y53293D2*
X34993Y54707D1*
X44893Y64607D1*
X46307Y63193D1*
X36407Y53293D1*
X44893Y64607D2*
X45146Y64791D1*
X45443Y64887D1*
X45756D1*
X46054Y64791D1*
X46307Y64607D1*
X46491Y64354D1*
X46587Y64056D1*
Y63743D1*
X46491Y63446D1*
X46307Y63193D1*
X46054Y63009D1*
X45756Y62912D1*
X45443D1*
X45146Y63009D1*
X44893Y63193D1*
X44709Y63446D1*
X44612Y63743D1*
Y64056D1*
X44709Y64354D1*
X44893Y64607D1*
X34993Y54707D2*
X35246Y54891D1*
X35544Y54988D1*
X35857D1*
X36154Y54891D1*
X36407Y54707D1*
X36591Y54454D1*
X36688Y54157D1*
Y53844D1*
X36591Y53546D1*
X36407Y53293D1*
X36154Y53109D1*
X35857Y53013D1*
X35544D1*
X35246Y53109D1*
X34993Y53293D1*
X34809Y53546D1*
X34713Y53844D1*
Y54157D1*
X34809Y54454D1*
X34993Y54707D1*
X46407Y86307D2*
X44993Y84893D1*
X35093Y94793D1*
X36507Y96207D1*
X46407Y86307D1*
X35093Y94793D2*
X34909Y95046D1*
X34813Y95343D1*
Y95656D1*
X34909Y95954D1*
X35093Y96207D1*
X35346Y96391D1*
X35644Y96487D1*
X35957D1*
X36254Y96391D1*
X36507Y96207D1*
X36691Y95954D1*
X36788Y95656D1*
Y95343D1*
X36691Y95046D1*
X36507Y94793D1*
X36254Y94609D1*
X35957Y94512D1*
X35644D1*
X35346Y94609D1*
X35093Y94793D1*
X44993Y84893D2*
X44809Y85146D1*
X44712Y85444D1*
Y85757D1*
X44809Y86054D1*
X44993Y86307D1*
X45246Y86491D1*
X45543Y86588D1*
X45856D1*
X46154Y86491D1*
X46407Y86307D1*
X46591Y86054D1*
X46687Y85757D1*
Y85444D1*
X46591Y85146D1*
X46407Y84893D1*
X46154Y84709D1*
X45856Y84613D1*
X45543D1*
X45246Y84709D1*
X44993Y84893D1*
X14857Y54857D2*
X13443Y53443D1*
X3543Y63343D1*
X4957Y64757D1*
X14857Y54857D1*
X3543Y63343D2*
X3359Y63596D1*
X3263Y63893D1*
Y64206D1*
X3359Y64504D1*
X3543Y64757D1*
X3796Y64941D1*
X4094Y65037D1*
X4407D1*
X4704Y64941D1*
X4957Y64757D1*
X5141Y64504D1*
X5238Y64206D1*
Y63893D1*
X5141Y63596D1*
X4957Y63343D1*
X4704Y63159D1*
X4407Y63062D1*
X4094D1*
X3796Y63159D1*
X3543Y63343D1*
X13443Y53443D2*
X13259Y53696D1*
X13162Y53994D1*
Y54307D1*
X13259Y54604D1*
X13443Y54857D1*
X13696Y55041D1*
X13993Y55138D1*
X14306D1*
X14604Y55041D1*
X14857Y54857D1*
X15041Y54604D1*
X15137Y54307D1*
Y53994D1*
X15041Y53696D1*
X14857Y53443D1*
X14604Y53259D1*
X14306Y53163D1*
X13993D1*
X13696Y53259D1*
X13443Y53443D1*
X17950Y53500D2*
X31950D1*
Y51500D1*
X17950D1*
Y53500D1*
X16950Y52500D2*
G02X16950Y52500I1000J0D01*
G01*
X30950D2*
G02X30950Y52500I1000J0D01*
G01*
X1700Y81700D2*
X3700D1*
Y67700D1*
X1700D1*
Y81700D1*
Y67700D2*
G02X1700Y67700I1000J0D01*
G01*
Y81700D2*
G02X1700Y81700I1000J0D01*
G01*
X46200Y81800D2*
X48200D1*
Y67800D1*
X46200D1*
Y81800D1*
Y67800D2*
G02X46200Y67800I1000J0D01*
G01*
Y81800D2*
G02X46200Y81800I1000J0D01*
G01*
M02*
