G04 DipTrace 2.4.0.2*
%INBottomSilk.gbo*%
%MOMM*%
%ADD24C,0.152*%
%ADD26O,2.25X2.1*%
%ADD27C,1.05*%
%ADD98C,0.235*%
%FSLAX53Y53*%
G04*
G71*
G90*
G75*
G01*
%LNBotSilk*%
%LPD*%
X62100Y16325D2*
D24*
X62107Y16508D1*
X62128Y16690D1*
X62163Y16871D1*
X62211Y17049D1*
X62273Y17223D1*
X62349Y17393D1*
X62437Y17557D1*
X62537Y17716D1*
X62649Y17868D1*
X62773Y18012D1*
X62907Y18148D1*
X63051Y18276D1*
X63205Y18394D1*
X63367Y18501D1*
X63538Y18598D1*
X63715Y18684D1*
X63898Y18759D1*
X64087Y18822D1*
X64279Y18872D1*
X64476Y18910D1*
X64674Y18936D1*
X64875Y18948D1*
X65075D1*
X65276Y18936D1*
X65474Y18910D1*
X65671Y18872D1*
X65863Y18822D1*
X66052Y18759D1*
X66235Y18684D1*
X66413Y18598D1*
X66583Y18501D1*
X66745Y18394D1*
X66899Y18276D1*
X67043Y18148D1*
X67177Y18012D1*
X67301Y17868D1*
X67413Y17716D1*
X67513Y17557D1*
X67601Y17393D1*
X67677Y17223D1*
X67739Y17049D1*
X67787Y16871D1*
X67822Y16690D1*
X67843Y16508D1*
X67850Y16325D1*
X67843Y16142D1*
X67822Y15960D1*
X67787Y15779D1*
X67739Y15601D1*
X67677Y15427D1*
X67601Y15257D1*
X67513Y15093D1*
X67413Y14934D1*
X67301Y14782D1*
X67177Y14638D1*
X67043Y14502D1*
X66899Y14374D1*
X66745Y14256D1*
X66583Y14149D1*
X66413Y14052D1*
X66235Y13966D1*
X66052Y13891D1*
X65863Y13828D1*
X65671Y13778D1*
X65474Y13740D1*
X65276Y13714D1*
X65075Y13702D1*
X64875D1*
X64674Y13714D1*
X64476Y13740D1*
X64279Y13778D1*
X64087Y13828D1*
X63898Y13891D1*
X63715Y13966D1*
X63538Y14052D1*
X63367Y14149D1*
X63205Y14256D1*
X63051Y14374D1*
X62907Y14502D1*
X62773Y14638D1*
X62649Y14782D1*
X62537Y14934D1*
X62437Y15093D1*
X62349Y15257D1*
X62273Y15427D1*
X62211Y15601D1*
X62163Y15779D1*
X62128Y15960D1*
X62107Y16142D1*
X62100Y16325D1*
X31100Y13875D2*
X31107Y14058D1*
X31128Y14240D1*
X31163Y14421D1*
X31211Y14599D1*
X31273Y14773D1*
X31349Y14943D1*
X31437Y15107D1*
X31537Y15266D1*
X31649Y15418D1*
X31773Y15562D1*
X31907Y15698D1*
X32051Y15826D1*
X32205Y15944D1*
X32367Y16051D1*
X32538Y16148D1*
X32715Y16234D1*
X32898Y16309D1*
X33087Y16372D1*
X33279Y16422D1*
X33476Y16460D1*
X33674Y16486D1*
X33875Y16498D1*
X34075D1*
X34276Y16486D1*
X34474Y16460D1*
X34671Y16422D1*
X34863Y16372D1*
X35052Y16309D1*
X35235Y16234D1*
X35413Y16148D1*
X35583Y16051D1*
X35745Y15944D1*
X35899Y15826D1*
X36043Y15698D1*
X36177Y15562D1*
X36301Y15418D1*
X36413Y15266D1*
X36513Y15107D1*
X36601Y14943D1*
X36677Y14773D1*
X36739Y14599D1*
X36787Y14421D1*
X36822Y14240D1*
X36843Y14058D1*
X36850Y13875D1*
X36843Y13692D1*
X36822Y13510D1*
X36787Y13329D1*
X36739Y13151D1*
X36677Y12977D1*
X36601Y12807D1*
X36513Y12643D1*
X36413Y12484D1*
X36301Y12332D1*
X36177Y12188D1*
X36043Y12052D1*
X35899Y11924D1*
X35745Y11806D1*
X35583Y11699D1*
X35413Y11602D1*
X35235Y11516D1*
X35052Y11441D1*
X34863Y11378D1*
X34671Y11328D1*
X34474Y11290D1*
X34276Y11264D1*
X34075Y11252D1*
X33875D1*
X33674Y11264D1*
X33476Y11290D1*
X33279Y11328D1*
X33087Y11378D1*
X32898Y11441D1*
X32715Y11516D1*
X32538Y11602D1*
X32367Y11699D1*
X32205Y11806D1*
X32051Y11924D1*
X31907Y12052D1*
X31773Y12188D1*
X31649Y12332D1*
X31537Y12484D1*
X31437Y12643D1*
X31349Y12807D1*
X31273Y12977D1*
X31211Y13151D1*
X31163Y13329D1*
X31128Y13510D1*
X31107Y13692D1*
X31100Y13875D1*
D26*
X31675Y13600D3*
X36125D3*
D27*
X33875Y14225D3*
G36*
X32500Y12900D2*
X33250D1*
X33700Y13250D1*
X33800Y13800D1*
X33400Y14450D1*
X32250D1*
D1*
X32500Y12900D1*
G37*
G36*
X35250Y12950D2*
X34500Y12900D1*
X34050Y13300D1*
Y13850D1*
X34300Y14450D1*
X35600D1*
X35250Y12950D1*
G37*
G36*
X36950Y14700D2*
X37500Y14350D1*
X37900Y13450D1*
Y12450D1*
X37700Y12400D1*
X38300Y10950D1*
X38250Y9900D1*
X36500Y8650D1*
X36250Y8350D1*
X31550D1*
X31500Y8700D1*
X29750Y10200D1*
Y11000D1*
X30200Y12600D1*
Y13850D1*
X30950Y14850D1*
X31000Y14600D1*
X30550Y14000D1*
X30500Y13800D1*
X30450Y13250D1*
X30750Y12850D1*
X31100Y12500D1*
X30950Y11400D1*
Y11200D1*
X31950Y10450D1*
X33150Y10850D1*
Y11350D1*
X33900Y11250D1*
X34650Y11300D1*
X34600Y10850D1*
X35850Y10400D1*
X37050Y10950D1*
X36950Y12250D1*
X36750Y12650D1*
X37300Y13050D1*
X37350Y14050D1*
X36850Y14600D1*
X36900D1*
X36950Y14700D1*
G37*
D26*
X62675Y16050D3*
X67125D3*
D27*
X64875Y16675D3*
G36*
X63500Y15350D2*
X64250D1*
X64700Y15700D1*
X64800Y16250D1*
X64400Y16900D1*
X63250D1*
D1*
X63500Y15350D1*
G37*
G36*
X66250Y15400D2*
X65500Y15350D1*
X65050Y15750D1*
Y16300D1*
X65300Y16900D1*
X66600D1*
X66250Y15400D1*
G37*
G36*
X67950Y17150D2*
X68500Y16800D1*
X68900Y15900D1*
Y14900D1*
X68700Y14850D1*
X69300Y13400D1*
X69250Y12350D1*
X67500Y11100D1*
X67250Y10800D1*
X62550D1*
X62500Y11150D1*
X60750Y12650D1*
Y13450D1*
X61200Y15050D1*
Y16300D1*
X61950Y17300D1*
X62000Y17050D1*
X61550Y16450D1*
X61500Y16250D1*
X61450Y15700D1*
X61750Y15300D1*
X62100Y14950D1*
X61950Y13850D1*
Y13650D1*
X62950Y12900D1*
X64150Y13300D1*
Y13800D1*
X64900Y13700D1*
X65650Y13750D1*
X65600Y13300D1*
X66850Y12850D1*
X68050Y13400D1*
X67950Y14700D1*
X67750Y15100D1*
X68300Y15500D1*
X68350Y16500D1*
X67850Y17050D1*
X67900D1*
X67950Y17150D1*
G37*
X62100Y66325D2*
D24*
X62107Y66508D1*
X62128Y66690D1*
X62163Y66871D1*
X62211Y67049D1*
X62273Y67223D1*
X62349Y67393D1*
X62437Y67557D1*
X62537Y67716D1*
X62649Y67868D1*
X62773Y68012D1*
X62907Y68148D1*
X63051Y68276D1*
X63205Y68394D1*
X63367Y68501D1*
X63538Y68598D1*
X63715Y68684D1*
X63898Y68759D1*
X64087Y68822D1*
X64279Y68872D1*
X64476Y68910D1*
X64674Y68936D1*
X64875Y68948D1*
X65075D1*
X65276Y68936D1*
X65474Y68910D1*
X65671Y68872D1*
X65863Y68822D1*
X66052Y68759D1*
X66235Y68684D1*
X66413Y68598D1*
X66583Y68501D1*
X66745Y68394D1*
X66899Y68276D1*
X67043Y68148D1*
X67177Y68012D1*
X67301Y67868D1*
X67413Y67716D1*
X67513Y67557D1*
X67601Y67393D1*
X67677Y67223D1*
X67739Y67049D1*
X67787Y66871D1*
X67822Y66690D1*
X67843Y66508D1*
X67850Y66325D1*
X67843Y66142D1*
X67822Y65960D1*
X67787Y65779D1*
X67739Y65601D1*
X67677Y65427D1*
X67601Y65257D1*
X67513Y65093D1*
X67413Y64934D1*
X67301Y64782D1*
X67177Y64638D1*
X67043Y64502D1*
X66899Y64374D1*
X66745Y64256D1*
X66583Y64149D1*
X66413Y64052D1*
X66235Y63966D1*
X66052Y63891D1*
X65863Y63828D1*
X65671Y63778D1*
X65474Y63740D1*
X65276Y63714D1*
X65075Y63702D1*
X64875D1*
X64674Y63714D1*
X64476Y63740D1*
X64279Y63778D1*
X64087Y63828D1*
X63898Y63891D1*
X63715Y63966D1*
X63538Y64052D1*
X63367Y64149D1*
X63205Y64256D1*
X63051Y64374D1*
X62907Y64502D1*
X62773Y64638D1*
X62649Y64782D1*
X62537Y64934D1*
X62437Y65093D1*
X62349Y65257D1*
X62273Y65427D1*
X62211Y65601D1*
X62163Y65779D1*
X62128Y65960D1*
X62107Y66142D1*
X62100Y66325D1*
D26*
X62675Y66050D3*
X67125D3*
D27*
X64875Y66675D3*
G36*
X63500Y65350D2*
X64250D1*
X64700Y65700D1*
X64800Y66250D1*
X64400Y66900D1*
X63250D1*
D1*
X63500Y65350D1*
G37*
G36*
X66250Y65400D2*
X65500Y65350D1*
X65050Y65750D1*
Y66300D1*
X65300Y66900D1*
X66600D1*
X66250Y65400D1*
G37*
G36*
X67950Y67150D2*
X68500Y66800D1*
X68900Y65900D1*
Y64900D1*
X68700Y64850D1*
X69300Y63400D1*
X69250Y62350D1*
X67500Y61100D1*
X67250Y60800D1*
X62550D1*
X62500Y61150D1*
X60750Y62650D1*
Y63450D1*
X61200Y65050D1*
Y66300D1*
X61950Y67300D1*
X62000Y67050D1*
X61550Y66450D1*
X61500Y66250D1*
X61450Y65700D1*
X61750Y65300D1*
X62100Y64950D1*
X61950Y63850D1*
Y63650D1*
X62950Y62900D1*
X64150Y63300D1*
Y63800D1*
X64900Y63700D1*
X65650Y63750D1*
X65600Y63300D1*
X66850Y62850D1*
X68050Y63400D1*
X67950Y64700D1*
X67750Y65100D1*
X68300Y65500D1*
X68350Y66500D1*
X67850Y67050D1*
X67900D1*
X67950Y67150D1*
G37*
X12100Y66325D2*
D24*
X12107Y66508D1*
X12128Y66690D1*
X12163Y66871D1*
X12211Y67049D1*
X12273Y67223D1*
X12349Y67393D1*
X12437Y67557D1*
X12537Y67716D1*
X12649Y67868D1*
X12773Y68012D1*
X12907Y68148D1*
X13051Y68276D1*
X13205Y68394D1*
X13367Y68501D1*
X13538Y68598D1*
X13715Y68684D1*
X13898Y68759D1*
X14087Y68822D1*
X14279Y68872D1*
X14476Y68910D1*
X14674Y68936D1*
X14875Y68948D1*
X15075D1*
X15276Y68936D1*
X15474Y68910D1*
X15671Y68872D1*
X15863Y68822D1*
X16052Y68759D1*
X16235Y68684D1*
X16413Y68598D1*
X16583Y68501D1*
X16745Y68394D1*
X16899Y68276D1*
X17043Y68148D1*
X17177Y68012D1*
X17301Y67868D1*
X17413Y67716D1*
X17513Y67557D1*
X17601Y67393D1*
X17677Y67223D1*
X17739Y67049D1*
X17787Y66871D1*
X17822Y66690D1*
X17843Y66508D1*
X17850Y66325D1*
X17843Y66142D1*
X17822Y65960D1*
X17787Y65779D1*
X17739Y65601D1*
X17677Y65427D1*
X17601Y65257D1*
X17513Y65093D1*
X17413Y64934D1*
X17301Y64782D1*
X17177Y64638D1*
X17043Y64502D1*
X16899Y64374D1*
X16745Y64256D1*
X16583Y64149D1*
X16413Y64052D1*
X16235Y63966D1*
X16052Y63891D1*
X15863Y63828D1*
X15671Y63778D1*
X15474Y63740D1*
X15276Y63714D1*
X15075Y63702D1*
X14875D1*
X14674Y63714D1*
X14476Y63740D1*
X14279Y63778D1*
X14087Y63828D1*
X13898Y63891D1*
X13715Y63966D1*
X13538Y64052D1*
X13367Y64149D1*
X13205Y64256D1*
X13051Y64374D1*
X12907Y64502D1*
X12773Y64638D1*
X12649Y64782D1*
X12537Y64934D1*
X12437Y65093D1*
X12349Y65257D1*
X12273Y65427D1*
X12211Y65601D1*
X12163Y65779D1*
X12128Y65960D1*
X12107Y66142D1*
X12100Y66325D1*
D26*
X12675Y66050D3*
X17125D3*
D27*
X14875Y66675D3*
G36*
X13500Y65350D2*
X14250D1*
X14700Y65700D1*
X14800Y66250D1*
X14400Y66900D1*
X13250D1*
D1*
X13500Y65350D1*
G37*
G36*
X16250Y65400D2*
X15500Y65350D1*
X15050Y65750D1*
Y66300D1*
X15300Y66900D1*
X16600D1*
X16250Y65400D1*
G37*
G36*
X17950Y67150D2*
X18500Y66800D1*
X18900Y65900D1*
Y64900D1*
X18700Y64850D1*
X19300Y63400D1*
X19250Y62350D1*
X17500Y61100D1*
X17250Y60800D1*
X12550D1*
X12500Y61150D1*
X10750Y62650D1*
Y63450D1*
X11200Y65050D1*
Y66300D1*
X11950Y67300D1*
X12000Y67050D1*
X11550Y66450D1*
X11500Y66250D1*
X11450Y65700D1*
X11750Y65300D1*
X12100Y64950D1*
X11950Y63850D1*
Y63650D1*
X12950Y62900D1*
X14150Y63300D1*
Y63800D1*
X14900Y63700D1*
X15650Y63750D1*
X15600Y63300D1*
X16850Y62850D1*
X18050Y63400D1*
X17950Y64700D1*
X17750Y65100D1*
X18300Y65500D1*
X18350Y66500D1*
X17850Y67050D1*
X17900D1*
X17950Y67150D1*
G37*
X70791Y17149D2*
D98*
X70134D1*
X69917Y17221D1*
X69843Y17295D1*
X69771Y17440D1*
Y17659D1*
X69843Y17804D1*
X69917Y17878D1*
X70134Y17951D1*
X70791D1*
Y16419D1*
X69300Y17951D2*
Y16419D1*
X39841Y15049D2*
X39184D1*
X38967Y15121D1*
X38893Y15195D1*
X38821Y15340D1*
Y15559D1*
X38893Y15704D1*
X38967Y15778D1*
X39184Y15851D1*
X39841D1*
Y14319D1*
X38350Y15851D2*
Y14319D1*
X70791Y67149D2*
X70134D1*
X69917Y67221D1*
X69843Y67295D1*
X69771Y67440D1*
Y67659D1*
X69843Y67804D1*
X69917Y67878D1*
X70134Y67951D1*
X70791D1*
Y66419D1*
X69300Y67951D2*
Y66419D1*
X20791Y67149D2*
X20134D1*
X19917Y67221D1*
X19843Y67295D1*
X19771Y67440D1*
Y67659D1*
X19843Y67804D1*
X19917Y67878D1*
X20134Y67951D1*
X20791D1*
Y66419D1*
X19300Y67951D2*
Y66419D1*
M02*
