G04 DipTrace 2.4.0.2*
%INBottom.gbl*%
%MOMM*%
%ADD15C,0.152*%
%ADD17C,1.0*%
%ADD20C,0.7*%
%ADD27R,1.5X1.5*%
%ADD29C,1.5*%
%ADD31C,1.7*%
%ADD33R,1.7X1.7*%
%FSLAX53Y53*%
G04*
G71*
G90*
G75*
G01*
%LNBottom*%
%LPD*%
X25403Y76049D2*
D15*
X26990D1*
X27149Y76208D1*
X11112Y87154D2*
D17*
Y84783D1*
X19528Y76367D1*
Y69063D1*
X11647Y61182D1*
X27784Y78907D2*
D15*
X30642Y81765D1*
X32388D2*
X30642D1*
X25102Y67587D2*
X24815D1*
X23815Y68587D1*
Y70651D1*
X26038Y72874D1*
X29054D1*
X29213Y73033D1*
Y72874D1*
Y71921D2*
X30007Y72715D1*
Y73191D1*
X29372Y73826D1*
X24926D1*
X18734Y80018D1*
X18099D1*
X17306Y80812D1*
X29713Y79860D2*
D20*
X39533D1*
X25403Y76049D3*
X27149Y76208D3*
X26673Y25879D3*
X20957Y29213D3*
X11647Y61182D3*
X21751Y39057D3*
X27149Y38422D3*
X76818Y87004D3*
X71445Y87798D3*
X70969Y77478D3*
X76843Y75414D3*
X27784Y78907D3*
X30642Y81765D3*
X32388D3*
X29213Y72874D3*
X76367Y26038D3*
X70651Y30166D3*
X71763Y39057D3*
X76843Y38580D3*
X29213Y71921D3*
X17306Y80812D3*
X29713Y79860D3*
X39533D3*
D3*
X18417Y75573D3*
Y74779D3*
Y73985D3*
X20322Y81289D3*
Y80495D3*
Y79701D3*
X24291Y83035D3*
X28578D3*
X33023D3*
X12543Y73350D3*
X21751Y79542D3*
X23021D3*
X13654Y73350D3*
X14765D3*
X15718D3*
X10955Y69063D3*
Y68270D3*
Y67476D3*
X8573Y73350D3*
X9685D3*
X10796D3*
X11749D3*
X33817Y76049D3*
Y75414D3*
Y74779D3*
X34135Y76843D3*
X33500D3*
X21116Y64618D3*
X20322D3*
X19528D3*
X18893D3*
X18099D3*
X18258Y60331D3*
X18893D3*
X19528D3*
X20163D3*
Y60966D3*
X19528D3*
X18893D3*
X18258D3*
X63348Y85575D3*
Y84781D3*
Y83988D3*
X60490Y84781D3*
X63348Y82400D3*
Y81606D3*
Y80971D3*
X62237D3*
X82082Y72556D3*
X83035D3*
X83988D3*
X84940D3*
X76367Y88909D3*
X75573D3*
X77161Y84781D3*
X78748D3*
X74779Y83511D3*
X74462Y81924D3*
Y81289D3*
X73826Y80971D3*
X75414Y70810D3*
X76843Y71763D3*
Y72715D3*
X75097Y76049D3*
X77954Y75573D3*
X76684Y23021D3*
X72239Y72556D3*
X72398Y71763D3*
X75097Y79225D3*
X73350Y78113D3*
X76684Y24450D3*
X70492Y75414D3*
X72239Y24450D3*
Y23339D3*
X70810Y25720D3*
X74938Y30483D3*
X75255Y22069D3*
X73509Y40327D3*
X74462D3*
X75573D3*
X76684D3*
X81924Y25879D3*
X82717D3*
X83670D3*
X84464D3*
X85416D3*
X86210D3*
X77954Y26355D3*
X63348Y37151D3*
X75097Y27784D3*
X63348Y36358D3*
Y35564D3*
Y34929D3*
X61125Y36358D3*
X61443Y32230D3*
X62078D3*
X62713D3*
X63348D3*
Y32865D3*
Y33659D3*
X73985Y33023D3*
Y32388D3*
X74620Y34929D3*
X76684Y36040D3*
X77637D3*
X78748Y35881D3*
X25085Y34770D3*
X27149Y35722D3*
X27784D3*
X28578D3*
X29213D3*
X26990Y23021D3*
Y23815D3*
X22862Y22704D3*
Y23656D3*
X25403Y30324D3*
X22069Y26990D3*
X20957Y25561D3*
X27467Y26990D3*
X25561Y27149D3*
X32547Y25561D3*
X33659D3*
X34611D3*
X35722D3*
X36834D3*
X24609Y32865D3*
Y32071D3*
X26673Y40168D3*
X25561D3*
X24450D3*
X25720Y21592D3*
X13813Y34929D3*
Y35564D3*
Y36199D3*
Y36834D3*
X13336Y33659D3*
X13971D3*
Y32865D3*
Y32230D3*
X13336D3*
X12701D3*
X12066D3*
X77796Y81289D3*
X80653Y81130D3*
X83670D3*
X87004Y80971D3*
Y83511D3*
X86845Y85575D3*
Y87480D3*
Y89544D3*
X81130Y83353D3*
Y84781D3*
X82082Y86369D3*
Y90973D3*
Y92243D3*
X77478Y32865D3*
X80336Y32706D3*
X83353D3*
X86687Y32547D3*
Y35087D3*
X86528Y37151D3*
Y39057D3*
Y41121D3*
X80812Y34929D3*
X81765Y36358D3*
Y37945D3*
Y42549D3*
Y43820D3*
X27943Y32706D3*
X30801Y32547D3*
X33817D3*
X37151Y32388D3*
Y34929D3*
X36993Y36993D3*
Y38898D3*
X31277Y34770D3*
X32230Y36199D3*
Y37786D3*
D27*
X79383Y91926D3*
D29*
X69283D3*
D27*
X29689Y43185D3*
D29*
X19589D3*
G36*
X9910Y87154D2*
X11112Y88356D1*
X12315Y87154D1*
X11112Y85952D1*
X9910Y87154D1*
G37*
D31*
X12909Y88950D3*
D27*
X25102Y69587D3*
D29*
Y67587D3*
Y65587D3*
X27102D3*
Y67587D3*
Y69587D3*
D33*
X6826Y72866D3*
D31*
Y75406D3*
D27*
X79225Y43343D3*
D29*
X69125D3*
M02*
