M48
METRIC,0000.00
T01C0.35
T02C0.9
T03C1.1
%
T01
X+001942Y+002542
X+002015Y+002515
X+002015Y+002445
X+002015Y+002380
X+001942Y+002384
X+001942Y+002463
X+002107Y+002980
X+002107Y+003059
X+001805Y+003090
X+002444Y+003313
X+002873Y+003313
X+003139Y+003188
X+003314Y+003188
X+003317Y+003313
X+003046Y+002950
X+002853Y+002902
X+002790Y+002632
X+002615Y+002616
X+002910Y+002296
X+002990Y+002215
X+003155Y+002203
X+003080Y+002029
X+003314Y+002029
X+003361Y+002203
X+003457Y+002489
X+003457Y+002553
X+003457Y+002616
X+003490Y+002716
X+003405Y+002711
X+003705Y+002501
X+003726Y+002362
X+003726Y+002188
X+003968Y+002170
X+004028Y+002362
X+004028Y+002537
X+004025Y+002656
X+004025Y+002950
X+003984Y+001964
X+002680Y+001260
X+002235Y+000880
X+002035Y+000880
X+002031Y+001043
X+001968Y+001043
X+001904Y+001043
X+001841Y+001043
X+001841Y+001107
X+001904Y+001107
X+001968Y+001107
X+002031Y+001107
X+002045Y+001470
X+001968Y+001472
X+001904Y+001472
X+001825Y+001472
X+002127Y+001472
X+001180Y+001128
X+001110Y+001758
X+001110Y+001837
X+001110Y+001916
X+002045Y+004140
X+002440Y+004145
X+002845Y+004150
X+002925Y+006280
X+002825Y+006345
X+002501Y+006280
X+002227Y+006345
X+002600Y+007020
X+002740Y+007300
X+002735Y+007385
X+002739Y+007576
X+002850Y+007592
X+002565Y+007640
X+002390Y+007846
X+002565Y+007957
X+002505Y+008125
X+002430Y+008120
X+002505Y+008210
X+002533Y+008386
X+002771Y+008513
X+002930Y+008513
X+003168Y+008513
X+003168Y+008370
X+003120Y+008148
X+002835Y+008164
X+002737Y+008735
X+002690Y+008945
X+002610Y+008945
X+002199Y+008815
X+001390Y+008593
X+001390Y+008513
X+001390Y+008435
X+001390Y+008275
X+001390Y+008196
X+001390Y+008132
X+001279Y+008132
X+000945Y+007989
X+001104Y+008513
X+002152Y+007783
X+002104Y+007576
X+002285Y+007380
X+002285Y+007290
X+003255Y+007415
X+003365Y+007415
X+003475Y+007415
X+004105Y+007205
X+004115Y+007005
X+004009Y+008037
X+003755Y+008132
X+003755Y+008386
X+003740Y+008593
X+003740Y+008783
X+003740Y+008989
X+003263Y+009132
X+003263Y+009259
X+003263Y+008672
X+003422Y+008148
X+005945Y+007989
X+006279Y+008132
X+006390Y+008132
X+006390Y+008196
X+006390Y+008275
X+006390Y+008435
X+006390Y+008513
X+006390Y+008593
X+006104Y+008513
X+007199Y+008815
X+007610Y+008945
X+007690Y+008945
X+007737Y+008735
X+007771Y+008513
X+007930Y+008513
X+008168Y+008513
X+008168Y+008370
X+008120Y+008148
X+007835Y+008164
X+007505Y+008125
X+007430Y+008120
X+007505Y+008210
X+007533Y+008386
X+007565Y+007957
X+007390Y+007846
X+007152Y+007783
X+007104Y+007576
X+007285Y+007380
X+007285Y+007290
X+007600Y+007020
X+007740Y+007300
X+007735Y+007385
X+007739Y+007576
X+007850Y+007592
X+007565Y+007640
X+008255Y+007415
X+008365Y+007415
X+008475Y+007415
X+009105Y+007205
X+009115Y+007005
X+009009Y+008037
X+008755Y+008132
X+008755Y+008386
X+008740Y+008593
X+008740Y+008783
X+008740Y+008989
X+008263Y+009132
X+008263Y+009259
X+008263Y+008672
X+008422Y+008148
X+007825Y+006345
X+007925Y+006280
X+007501Y+006280
X+007227Y+006345
X+005961Y+006989
X+005961Y+007195
X+007200Y+003815
X+007610Y+003945
X+007690Y+003945
X+007737Y+003735
X+007771Y+003513
X+007930Y+003513
X+008168Y+003513
X+008168Y+003370
X+008120Y+003148
X+007835Y+003164
X+007505Y+003125
X+007430Y+003120
X+007505Y+003210
X+007533Y+003386
X+007565Y+002957
X+007390Y+002846
X+007152Y+002783
X+007104Y+002576
X+007285Y+002380
X+007285Y+002290
X+007600Y+002020
X+007740Y+002300
X+007735Y+002385
X+007739Y+002576
X+007850Y+002592
X+007565Y+002640
X+008255Y+002415
X+008365Y+002415
X+008475Y+002415
X+009105Y+002205
X+009115Y+002005
X+009009Y+003037
X+008755Y+003132
X+008755Y+003386
X+008740Y+003593
X+008740Y+003783
X+008740Y+003989
X+008263Y+004132
X+008263Y+004259
X+008263Y+003672
X+008422Y+003148
X+007825Y+001345
X+007925Y+001280
X+007501Y+001280
X+007227Y+001345
X+005961Y+001989
X+005961Y+002195
X+005945Y+002989
X+006279Y+003132
X+006390Y+003132
X+006390Y+003196
X+006390Y+003275
X+006390Y+003435
X+006390Y+003513
X+006390Y+003593
X+006104Y+003513
X+000961Y+006989
X+000961Y+007195
T02
X+007993Y+004228
X+006983Y+004228
X+002785Y+001970
X+002785Y+001770
X+002785Y+001570
X+002585Y+001570
X+002585Y+001770
X+002585Y+001970
X+002993Y+009228
X+001983Y+009228
X+006983Y+009228
X+007993Y+009228
T03
X+001126Y+003725
X+001306Y+003905
X+000698Y+002551
X+000698Y+002297
T00
M30
