G04 DipTrace 2.4.0.2*
%INTop.gtl*%
%MOMM*%
%ADD10C,0.25*%
%ADD13C,0.381*%
%ADD14C,1.0*%
%ADD15C,0.7*%
%ADD16C,0.2*%
%ADD17C,0.3*%
%ADD18C,0.6*%
%ADD19C,0.4*%
%ADD20C,0.178*%
%ADD21C,0.8*%
%ADD22C,0.5*%
%ADD23C,0.33*%
%ADD28R,0.7X0.9*%
%ADD29R,1.0X1.1*%
%ADD30R,1.5X1.3*%
%ADD31R,0.9X0.7*%
%ADD32C,1.6*%
%ADD33R,1.6X1.6*%
%ADD34R,1.219X0.914*%
%ADD35R,1.5X1.5*%
%ADD36C,1.5*%
%ADD37C,1.7*%
%ADD38R,1.0X2.0*%
%ADD39R,1.7X1.7*%
%ADD40R,2.0X1.0*%
%ADD41R,5.7X1.6*%
%ADD43R,0.65X1.05*%
%ADD44R,1.05X0.65*%
%ADD45R,0.6X1.1*%
%ADD46R,1.1X0.6*%
%ADD47O,0.3X0.85*%
%ADD48O,0.85X0.3*%
%ADD49R,2.45X2.45*%
%FSLAX53Y53*%
G04*
G71*
G90*
G75*
G01*
%LNTop*%
%LPD*%
X20450Y41400D2*
D13*
Y43162D1*
X20316Y43296D1*
X24316D2*
Y41534D1*
X24400Y41450D1*
X28316Y43296D2*
Y41634D1*
X28450Y41500D1*
X20316Y43296D2*
Y41534D1*
X20450Y41400D1*
X16150Y23100D2*
Y22550D1*
X17500Y21200D1*
D14*
X20750D1*
X25050Y25500D1*
Y29700D1*
X23550D1*
X20400Y32850D1*
Y41350D1*
D15*
X20450Y41400D1*
X34437Y29337D2*
D16*
Y27624D1*
X34898Y27163D1*
X21266Y14718D2*
D15*
X22116D1*
D14*
X22732D1*
X24850Y12600D1*
X26800D1*
X35800Y26950D2*
D17*
X35111D1*
X34898Y27163D1*
X35800Y26950D2*
Y27900D1*
Y28050D1*
Y29000D1*
X13700Y13200D2*
D18*
X13328Y12828D1*
Y12024D1*
X15709D1*
Y13924D2*
X14424D1*
D14*
X13700Y13200D1*
X22450Y40600D2*
D19*
Y43162D1*
D20*
X22316Y43296D1*
X26350Y40500D2*
D19*
Y43262D1*
D20*
X26316Y43296D1*
X30250Y40700D2*
D19*
Y43230D1*
D20*
X30316Y43296D1*
X29961Y27581D2*
X29813D1*
X29168Y28226D1*
Y32036D1*
X30036D1*
X30250Y32250D1*
Y33258D1*
X30198D1*
X29168Y32036D2*
X25711D1*
Y33294D1*
Y32036D2*
X22364D1*
X21800Y32600D1*
Y33300D1*
X32861Y25681D2*
D16*
X30961D1*
X32098Y33258D2*
D15*
X33051D1*
X33173Y33135D1*
X27611Y33294D2*
X28569D1*
X28728Y33135D1*
X23700Y33300D2*
X24276D1*
X24441Y33135D1*
X43017Y21640D2*
Y19640D1*
Y21640D2*
X39683D1*
Y21704D1*
X39842Y19640D2*
X43017D1*
X22350Y6500D2*
Y8800D1*
X20350Y6500D2*
Y8800D1*
X34566Y25527D2*
D17*
X35677D1*
D20*
X35800Y25650D1*
X27850Y17700D2*
X28262D1*
X29326Y16636D1*
Y14890D1*
X28532Y14096D1*
X25516D1*
X23452Y16160D1*
Y21240D1*
X24246Y22034D1*
Y22828D1*
X26151Y24733D1*
Y26162D1*
X27897Y26321D2*
X28215D1*
X28575Y26681D1*
X29061D1*
X9200Y16306D2*
X18517D1*
X23452Y21240D1*
X84600Y24150D2*
D14*
X86300D1*
X86760Y24610D1*
D16*
Y26399D1*
X75050Y31250D2*
D15*
X74350D1*
X74300Y31200D1*
X75050Y31250D2*
Y32100D1*
X84600Y74150D2*
D14*
X86300D1*
X86760Y74610D1*
D16*
Y76399D1*
X75050Y81250D2*
D15*
X74350D1*
X74300Y81200D1*
X75050Y81250D2*
Y82100D1*
X34600Y74150D2*
D14*
X36300D1*
X36760Y74610D1*
D16*
Y76399D1*
X25050Y81250D2*
D15*
X24350D1*
X24300Y81200D1*
X25050Y81250D2*
Y82100D1*
X25850Y19700D2*
D20*
Y22209D1*
X28215Y24574D1*
X28955D1*
X29061Y24681D1*
X31148Y35558D2*
D19*
Y38502D1*
D20*
X30250Y39400D1*
X56912Y27892D2*
X56841Y27963D1*
X56264D1*
X73756Y14794D2*
Y13856D1*
X73350Y13450D1*
X72271D1*
X70750D1*
X64750Y19450D1*
Y22450D1*
X59450Y27750D1*
X57054D1*
X56912Y27892D1*
X78250Y13450D2*
X79150D1*
X89150Y23450D1*
Y27350D1*
X90250Y28450D1*
X92750D1*
X93050Y28150D1*
X56912Y77892D2*
X56841Y77963D1*
X56264D1*
X73756Y64794D2*
Y63856D1*
X73350Y63450D1*
X72271D1*
X70750D1*
X64750Y69450D1*
Y72450D1*
X59450Y77750D1*
X57054D1*
X56912Y77892D1*
X78250Y63450D2*
X79150D1*
X89150Y73450D1*
Y77350D1*
X90250Y78450D1*
X92750D1*
X93050Y78150D1*
X6912Y77892D2*
X6841Y77963D1*
X6264D1*
X23756Y64794D2*
Y63856D1*
X23350Y63450D1*
X22271D1*
X20750D1*
X14750Y69450D1*
Y72450D1*
X9450Y77750D1*
X7054D1*
X6912Y77892D1*
X28250Y63450D2*
X29150D1*
X39150Y73450D1*
Y77350D1*
X40250Y78450D1*
X42750D1*
X43050Y78150D1*
X22750Y35600D2*
D19*
Y39000D1*
D20*
X22450Y39300D1*
X74064Y22429D2*
Y21165D1*
X73741Y20842D1*
Y16109D1*
X73756Y16094D1*
X74997D1*
X75012Y16109D1*
X76282D1*
X74064Y72429D2*
Y71165D1*
X73741Y70842D1*
Y66109D1*
X73756Y66094D1*
X74997D1*
X75012Y66109D1*
X76282D1*
X24064Y72429D2*
Y71165D1*
X23741Y70842D1*
Y66109D1*
X23756Y66094D1*
X24997D1*
X25012Y66109D1*
X26282D1*
X76282Y14809D2*
Y12082D1*
X74750Y10550D1*
X70150D1*
X62550Y18150D1*
Y21150D1*
X59650Y24050D1*
X57070D1*
X56912Y23892D1*
X76282Y12082D2*
X79782D1*
X91850Y24150D1*
X93050D1*
X76282Y64809D2*
Y62082D1*
X74750Y60550D1*
X70150D1*
X62550Y68150D1*
Y71150D1*
X59650Y74050D1*
X57070D1*
X56912Y73892D1*
X76282Y62082D2*
X79782D1*
X91850Y74150D1*
X93050D1*
X26282Y64809D2*
Y62082D1*
X24750Y60550D1*
X20150D1*
X12550Y68150D1*
Y71150D1*
X9650Y74050D1*
X7070D1*
X6912Y73892D1*
X26282Y62082D2*
X29782D1*
X41850Y74150D1*
X43050D1*
X56912Y29892D2*
D14*
X59452D1*
X90094Y30368D2*
X92832D1*
X93050Y30150D1*
X61040Y32750D2*
D19*
Y31480D1*
D14*
X59452Y29892D1*
X75964Y22429D2*
D17*
Y20164D1*
D20*
X76000Y20200D1*
X56912Y79892D2*
D14*
X59452D1*
X90094Y80368D2*
X92832D1*
X93050Y80150D1*
X61040Y82750D2*
D19*
Y81480D1*
D14*
X59452Y79892D1*
X75964Y72429D2*
D17*
Y70236D1*
D20*
X76000Y70200D1*
X6912Y79892D2*
D14*
X9452D1*
X40094Y80368D2*
X42832D1*
X43050Y80150D1*
X11040Y82750D2*
D19*
Y81480D1*
D14*
X9452Y79892D1*
X25964Y72429D2*
D17*
Y70236D1*
D20*
X26000Y70200D1*
X30461Y23781D2*
Y22611D1*
X30000Y22150D1*
X35800Y30300D2*
Y31600D1*
X37000Y32800D1*
Y34510D1*
X26661Y35594D2*
D19*
Y37989D1*
D20*
X26350Y38300D1*
Y39200D1*
X56912Y21892D2*
D15*
Y19892D1*
X59611Y19890D2*
X56914D1*
X56912Y19892D1*
X59611Y21954D2*
X56974D1*
X56912Y21892D1*
X91050Y22050D2*
X92950D1*
X93050Y22150D1*
X91150Y20050D2*
X92950D1*
X93050Y20150D1*
X56912Y71892D2*
Y69892D1*
X59611Y69890D2*
X56914D1*
X59611Y71954D2*
X56974D1*
X56912Y71892D1*
X91050Y72050D2*
X92950D1*
X93050Y72150D1*
X91150Y70050D2*
X92950D1*
X93050Y70150D1*
X6912Y71892D2*
Y69892D1*
X9611Y69890D2*
X6914D1*
X9611Y71954D2*
X6974D1*
X6912Y71892D1*
X41050Y72050D2*
X42950D1*
X43050Y72150D1*
X41150Y70050D2*
X42950D1*
X43050Y70150D1*
X6900Y17256D2*
D21*
Y18600D1*
X4800Y20700D1*
Y24925D1*
X5389Y25514D1*
X6968D1*
X6976Y25506D1*
X17103Y32182D2*
D20*
Y29961D1*
X17100D1*
X78633Y37989D2*
X77368D1*
X76593D1*
X76276Y37673D1*
X77368Y37989D2*
Y37354D1*
X71995Y38148D2*
Y36908D1*
X78633Y87989D2*
X77368D1*
X76593D1*
X76276Y87673D1*
X77368Y87989D2*
Y87354D1*
X71995Y88148D2*
Y86908D1*
X28633Y87989D2*
X27368D1*
X26593D1*
X26277Y87673D1*
X27368Y87989D2*
Y87354D1*
X21995Y88148D2*
Y86908D1*
X74377Y34973D2*
X72630D1*
X71995Y35608D1*
X69296Y32939D2*
Y33067D1*
X71042D1*
Y34655D1*
X71995Y35608D1*
X74377Y84973D2*
X72630D1*
X71995Y85608D1*
X69296Y82939D2*
Y83067D1*
X71042D1*
Y84655D1*
X71995Y85608D1*
X24377Y84973D2*
X22630D1*
X21995Y85608D1*
X19296Y82939D2*
Y83067D1*
X21042D1*
Y84655D1*
X21995Y85608D1*
X69296Y31639D2*
X70090D1*
Y31321D1*
X70249Y31162D1*
X71037D1*
X71042Y31167D1*
X68820Y28463D2*
X70249D1*
X71042Y31167D2*
Y30051D1*
X70725D1*
X70249Y29575D1*
Y28463D1*
X70884D1*
X71519Y27828D1*
X77393Y25764D2*
X76758Y25129D1*
X75964D1*
X69296Y81639D2*
X70090D1*
Y81321D1*
X70249Y81162D1*
X71037D1*
X71042Y81167D1*
X68820Y78463D2*
X70249D1*
X71042Y81167D2*
Y80051D1*
X70725D1*
X70249Y79575D1*
Y78463D1*
X70884D1*
X71519Y77828D1*
X77393Y75764D2*
X76758Y75129D1*
X75964D1*
X19296Y81639D2*
X20090D1*
Y81321D1*
X20249Y81162D1*
X21037D1*
X21042Y81167D1*
X18820Y78463D2*
X20249D1*
X21042Y81167D2*
Y80051D1*
X20725D1*
X20249Y79575D1*
Y78463D1*
X20884D1*
X21519Y77828D1*
X27393Y75764D2*
X26758Y75129D1*
X25964D1*
X75012Y14809D2*
Y12800D1*
Y12712D1*
X74050Y11750D1*
X70550D1*
X63950Y18350D1*
Y21250D1*
X59450Y25750D1*
X57054D1*
X56912Y25892D1*
X93050Y26150D2*
X91400D1*
X90450Y25200D1*
Y24000D1*
X79250Y12800D1*
X75012Y64809D2*
Y62800D1*
Y62712D1*
X74050Y61750D1*
X70550D1*
X63950Y68350D1*
Y71250D1*
X59450Y75750D1*
X57054D1*
X56912Y75892D1*
X93050Y76150D2*
X91400D1*
X90450Y75200D1*
Y74000D1*
X79250Y62800D1*
X25012Y64809D2*
Y62800D1*
Y62712D1*
X24050Y61750D1*
X20550D1*
X13950Y68350D1*
Y71250D1*
X9450Y75750D1*
X7054D1*
X6912Y75892D1*
X43050Y76150D2*
X41400D1*
X40450Y75200D1*
Y74000D1*
X29250Y62800D1*
X86760Y28299D2*
X86130D1*
X85490Y28939D1*
X83744D1*
X83426Y28622D1*
X82950D1*
X82474Y28146D1*
X81045D1*
X86760Y78299D2*
X86130D1*
X85490Y78939D1*
X83744D1*
X83426Y78622D1*
X82950D1*
X82474Y78146D1*
X81045D1*
X36760Y78299D2*
X36130D1*
X35490Y78939D1*
X33744D1*
X33426Y78622D1*
X32950D1*
X32474Y78146D1*
X31045D1*
X79775Y28176D2*
X78376D1*
X78346Y28146D1*
X76917D1*
Y32274D1*
X76440Y32750D1*
Y34809D1*
X76276Y34973D1*
X74064Y25129D2*
Y26722D1*
X75488Y28146D1*
X76917D1*
X79775Y78176D2*
X78376D1*
X78346Y78146D1*
X76917D1*
Y82274D1*
X76440Y82750D1*
Y84809D1*
X76276Y84973D1*
X74064Y75129D2*
Y76722D1*
X75488Y78146D1*
X76917D1*
X29775Y78176D2*
X28376D1*
X28346Y78146D1*
X26917D1*
Y82274D1*
X26440Y82750D1*
Y84809D1*
X26277Y84973D1*
X24064Y75129D2*
Y76722D1*
X25488Y78146D1*
X26917D1*
X81045Y26846D2*
X79804D1*
X79775Y26876D1*
X81045Y76846D2*
X79804D1*
X79775Y76876D1*
X31045Y76846D2*
X29804D1*
X29775Y76876D1*
X30461Y27581D2*
D16*
Y28896D1*
D15*
Y29500D1*
X40250D2*
X40110Y29640D1*
X43017D1*
X40250Y29500D2*
D14*
X38500Y27750D1*
Y16700D1*
X30350Y8550D1*
Y6500D1*
X25850Y15700D2*
D20*
X25499D1*
X24087Y17112D1*
Y21240D1*
X24722Y21875D1*
Y22669D1*
X26945Y24892D1*
Y27432D1*
X28532Y29020D1*
X31390Y31878D2*
Y28544D1*
X30914Y28067D1*
Y27581D1*
X30961D1*
X33137Y29337D2*
Y31878D1*
X31961Y27581D2*
Y28211D1*
X32250Y28500D1*
X18050Y31100D2*
Y29961D1*
X28350Y6500D2*
Y7814D1*
X32184Y11649D1*
Y22987D1*
X31948Y23222D1*
Y23767D1*
X31961Y23781D1*
X43017Y27640D2*
X41325D1*
X40248Y26563D1*
X37048Y25013D2*
Y24913D1*
X35098Y22963D1*
X32138D1*
X31948Y23222D1*
X43017Y25640D2*
X40553D1*
X40281Y25368D1*
X37265Y23622D2*
X37106D1*
X35518Y22034D1*
X33613D1*
X31549D2*
Y13114D1*
X26350Y7914D1*
Y6500D1*
X31461Y23781D2*
Y22122D1*
X31549Y22034D1*
X24350Y6500D2*
Y7614D1*
X30914Y14178D1*
Y20178D1*
Y23733D1*
X30961Y23781D1*
X43017Y23640D2*
X40299D1*
X40281Y23622D1*
X37265Y21875D2*
Y21717D1*
X36312Y20764D1*
X33613D1*
X33137Y20288D1*
X30804D2*
X30914Y20178D1*
X29098Y22963D2*
X29598D1*
X29961Y23326D1*
Y23781D1*
D15*
X26800Y12600D3*
X13700Y13200D3*
D3*
X26151Y26162D3*
X27897Y26321D3*
X84600Y24150D3*
Y74150D3*
X34600D3*
X78250Y13450D3*
X72271D3*
X78250Y63450D3*
X72271D3*
X28250D3*
X22271D3*
X59452Y29892D3*
X90094Y30368D3*
X76000Y20200D3*
X59452Y79892D3*
X90094Y80368D3*
X76000Y70200D3*
X9452Y79892D3*
X40094Y80368D3*
X26000Y70200D3*
X30000Y22150D3*
X77368Y37354D3*
X71995Y38148D3*
X77368Y87354D3*
X71995Y88148D3*
X27368Y87354D3*
X21995Y88148D3*
X71519Y27828D3*
X77393Y25764D3*
X71519Y77828D3*
X77393Y75764D3*
X21519Y77828D3*
X27393Y75764D3*
X79250Y12800D3*
X75012D3*
X79250Y62800D3*
X75012D3*
X29250D3*
X25012D3*
X30461Y29500D3*
X40250D3*
D3*
X28532Y29020D3*
X31390Y31878D3*
X33137D3*
X32250Y28500D3*
X18050Y31100D3*
X40248Y26563D3*
X37048Y25013D3*
X40281Y25368D3*
X37265Y23622D3*
X33613Y22034D3*
X31549D3*
D3*
X40281Y23622D3*
X37265Y21875D3*
X33137Y20288D3*
X30804D3*
X29098Y22963D3*
X19417Y25423D3*
Y24629D3*
Y23835D3*
X20150Y23800D3*
X21072Y30595D3*
Y29801D3*
X24441Y33135D3*
X28728D3*
X33173D3*
X20150Y24450D3*
Y25150D3*
X11105Y19163D3*
Y18370D3*
Y17576D3*
X34566Y26162D3*
Y25527D3*
Y24892D3*
X34898Y27163D3*
X34048Y27113D3*
X21266Y14718D3*
X20450Y14700D3*
X19678Y14718D3*
X19043D3*
X18249D3*
X18408Y10431D3*
X19043D3*
X19678D3*
X20313D3*
Y11066D3*
X19678D3*
X19043D3*
X18408D3*
X63898Y35925D3*
Y85925D3*
X13898D3*
X63898Y35131D3*
Y85131D3*
X13898D3*
X63900Y34350D3*
Y84350D3*
X13900D3*
X61040Y35131D3*
Y85131D3*
X11040D3*
X63898Y32750D3*
Y82750D3*
X13898D3*
X63898Y31956D3*
Y81956D3*
X13898D3*
X63898Y31321D3*
Y81321D3*
X13898D3*
X62787Y31321D3*
Y81321D3*
X12787D3*
X76900Y39450D3*
Y89450D3*
X26900D3*
X76100Y39450D3*
Y89450D3*
X26100D3*
X77711Y35131D3*
Y85131D3*
X27711D3*
X79298Y35131D3*
Y85131D3*
X29298D3*
X75329Y33861D3*
Y83861D3*
X25329D3*
X75050Y32100D3*
Y82100D3*
X25050D3*
X75050Y31250D3*
Y81250D3*
X25050D3*
X74300Y31200D3*
Y81200D3*
X24300D3*
X77400Y23000D3*
Y73000D3*
X27400D3*
X77350Y23850D3*
Y73850D3*
X27350D3*
X75647Y26399D3*
Y76399D3*
X25647D3*
X78500Y25900D3*
X83650Y24150D3*
X82750D3*
X78500Y75900D3*
X83650Y74150D3*
X82750D3*
X28500Y75900D3*
X33650Y74150D3*
X32750D3*
X72850Y23800D3*
Y73800D3*
X22850D3*
X72850Y22900D3*
Y72900D3*
X22850D3*
X75647Y29575D3*
Y79575D3*
X25647D3*
X73900Y28463D3*
Y78463D3*
X23900D3*
X71042Y25764D3*
Y75764D3*
X21042D3*
X78346Y31639D3*
Y81639D3*
X28346D3*
X81203Y31480D3*
Y81480D3*
X31203D3*
X84220Y31480D3*
Y81480D3*
X34220D3*
X87554Y31321D3*
Y81321D3*
X37554D3*
X87554Y33861D3*
Y83861D3*
X37554D3*
X87395Y35925D3*
Y85925D3*
X37395D3*
X87395Y37830D3*
Y87830D3*
X37395D3*
X87395Y39894D3*
Y89894D3*
X37395D3*
X81680Y33703D3*
Y83703D3*
X31680Y83702D3*
X81680Y35131D3*
Y85131D3*
X31680D3*
X82632Y36719D3*
Y86719D3*
X32632D3*
X82632Y41323D3*
Y91323D3*
X32632D3*
X82632Y42593D3*
Y92593D3*
X32632D3*
X39683Y21704D3*
X39842Y19640D3*
X59611Y21954D3*
Y71954D3*
X9611D3*
X59611Y19890D3*
Y69890D3*
X9611D3*
X20350Y8800D3*
X22350D3*
X91050Y22050D3*
Y72050D3*
X41050D3*
X91150Y20050D3*
Y70050D3*
X41150D3*
X20450Y41400D3*
X24400Y41450D3*
X28450Y41500D3*
X18656Y27503D2*
D16*
X20416D1*
X21728D2*
X21844D1*
X18656Y27307D2*
X20416D1*
X21728D2*
X21844D1*
X18656Y27110D2*
X20416D1*
X21728D2*
X21844D1*
X18656Y26913D2*
X20416D1*
X21728D2*
X21844D1*
X19272Y26717D2*
X20416D1*
X21728D2*
X21844D1*
X19322Y26520D2*
X20416D1*
X21728D2*
X21844D1*
X19322Y26323D2*
X23685D1*
X19322Y26127D2*
X23685D1*
X23706Y26495D2*
X21865D1*
Y27658D1*
X21708Y27659D1*
Y26495D1*
X20436D1*
Y27672D1*
X18634Y27691D1*
X18636Y27536D1*
Y26735D1*
X19204Y26726D1*
X19287Y26675D1*
X19302Y26626D1*
Y26090D1*
X23706D1*
Y26494D1*
X23771Y27231D2*
Y26495D1*
X22501Y27231D2*
Y26495D1*
X21866Y27231D2*
X22501D1*
X21072D2*
Y26495D1*
X20437Y27231D2*
X21708D1*
X18050Y27261D2*
X18636D1*
X21854Y29980D2*
X24286D1*
X21854Y29784D2*
X24286D1*
X21854Y29587D2*
X24286D1*
X21854Y29391D2*
X24286D1*
X23181Y29241D2*
X24307D1*
X24306Y30177D1*
X21834D1*
Y28154D1*
X21891Y28161D1*
Y29241D1*
X23111D1*
Y28154D1*
X23161Y28161D1*
Y29241D1*
X23181D1*
X23771Y29240D2*
Y28531D1*
X23162D2*
X23771D1*
X22501Y29240D2*
Y28531D1*
X21891D2*
X23111D1*
X14417Y29035D2*
X14602D1*
X14417Y28838D2*
X14602D1*
X14417Y28642D2*
X18130D1*
X13207Y28445D2*
X18130D1*
X16738Y28248D2*
X18130D1*
X16723Y26282D2*
X18895D1*
X16720Y26085D2*
X18895D1*
X14963Y25888D2*
X15095D1*
X17207D2*
X18914D1*
X14954Y25692D2*
X15095D1*
X17207D2*
X20717D1*
X15007Y25495D2*
X15092D1*
X17207D2*
X20714D1*
X15007Y25298D2*
X15092D1*
X17207D2*
X20711D1*
X15007Y25102D2*
X15092D1*
X17207D2*
X20708D1*
X15007Y24905D2*
X15092D1*
X17207D2*
X20702D1*
X15007Y24708D2*
X15092D1*
X17207D2*
X20698D1*
X15007Y24512D2*
X15092D1*
X17207D2*
X20695D1*
X15007Y24315D2*
X15092D1*
X17207D2*
X20692D1*
X15007Y24118D2*
X15092D1*
X17207D2*
X20689D1*
X15007Y23922D2*
X15092D1*
X17207D2*
X20686D1*
X17779Y23725D2*
X20683D1*
X14396Y29123D2*
Y28535D1*
X13185D1*
X13186Y28316D1*
X14057Y28313D1*
X16627D1*
X16711Y28264D1*
X16727Y28212D1*
X16725Y28096D1*
X17486Y28097D1*
X17528Y28139D1*
X17573Y28154D1*
X18149Y28193D1*
X18150Y28750D1*
X14721Y28748D1*
X14637Y28797D1*
X14621Y28848D1*
Y29039D1*
X14500Y29056D1*
X14412Y29108D1*
X14451Y29080D1*
X14986Y25400D2*
Y23747D1*
X15114Y23748D1*
Y24036D1*
X17186D1*
Y23727D1*
X17651Y23726D1*
X20702Y23702D1*
X20737Y25705D1*
X19202Y25704D1*
X19104Y25722D1*
X19018Y25772D1*
X18954Y25848D1*
X18920Y25945D1*
X18916Y26190D1*
Y26344D1*
X17579Y26367D1*
X17495Y26416D1*
X17486Y26425D1*
X16704D1*
X16700Y26049D1*
X16650Y25965D1*
X16654Y25936D1*
X17186D1*
Y24064D1*
X15114D1*
Y25936D1*
X16654D1*
X16500Y25950D1*
X14946Y25946D1*
X14934Y25662D1*
X14948Y25643D1*
X14982Y25546D1*
X14986Y25400D1*
X13610Y29371D2*
D10*
Y28535D1*
X16150Y25936D2*
Y24064D1*
X15114Y25000D2*
X17186D1*
X17100Y28096D2*
Y26425D1*
X12678Y33003D2*
D16*
X15885D1*
X12678Y32807D2*
X15885D1*
X12678Y32610D2*
X15888D1*
X12678Y32413D2*
X15891D1*
X12678Y32217D2*
X15894D1*
X12678Y32020D2*
X15894D1*
X9747Y31823D2*
X12782D1*
X14437D2*
X15897D1*
X9750Y31627D2*
X12782D1*
X14437D2*
X15900D1*
X9753Y31430D2*
X12782D1*
X14437D2*
X15903D1*
X9756Y31233D2*
X12782D1*
X14437D2*
X15903D1*
X9759Y31037D2*
X12782D1*
X14437D2*
X15907D1*
X9762Y30840D2*
X12782D1*
X14437D2*
X15907D1*
X9765Y30643D2*
X12782D1*
X14437D2*
X15522D1*
X14722Y30447D2*
X15522D1*
X14718Y30250D2*
X15522D1*
X14718Y30053D2*
X15522D1*
X14718Y29857D2*
X15522D1*
X14718Y29660D2*
X15522D1*
X14718Y29463D2*
X15522D1*
X12822Y31929D2*
X14418D1*
Y30500D1*
X14600D1*
X14684Y30451D1*
X14700Y30400D1*
X14698Y29425D1*
X15545D1*
X15542Y30503D1*
Y30819D1*
X15927D1*
X15923Y31370D1*
X15900Y33200D1*
X12659D1*
X12658Y31892D1*
X9724D1*
X9750Y30500D1*
X12803D1*
X12802Y31929D1*
X12822D1*
X13610D2*
Y31071D1*
X12803D2*
X14418D1*
X9500Y33000D2*
X12658D1*
X15543Y29961D2*
X16150D1*
X8720Y29603D2*
X12782D1*
X12678Y29407D2*
X12782D1*
X12678Y29210D2*
X12782D1*
X12678Y29013D2*
X12782D1*
X12678Y28817D2*
X12782D1*
X12678Y28620D2*
X12782D1*
X12678Y28423D2*
X12782D1*
X12678Y28227D2*
X12782D1*
X12678Y28030D2*
X12782D1*
X12678Y27833D2*
X12782D1*
X12678Y27637D2*
X15522D1*
X12678Y27440D2*
X15522D1*
X12678Y27243D2*
X15522D1*
X8720Y27047D2*
X12663D1*
X14537D2*
X15522D1*
X8720Y26850D2*
X12663D1*
X14537D2*
X15522D1*
X8720Y26653D2*
X12663D1*
X14537D2*
X15522D1*
X8720Y26457D2*
X12663D1*
X14537D2*
X15522D1*
X12702Y27103D2*
X14518D1*
Y26403D1*
X15542D1*
Y27799D1*
X12900Y27800D1*
X12816Y27849D1*
X12800Y27900D1*
Y29800D1*
X8700D1*
X8702Y29408D1*
X12658D1*
Y27192D1*
X8700D1*
Y26400D1*
X12681Y26408D1*
X12682Y26873D1*
Y27103D1*
X12702D1*
X13600D2*
D22*
Y26338D1*
X12683D2*
X14517D1*
X9500Y29408D2*
Y27192D1*
Y28300D2*
X12658D1*
X15543Y27261D2*
X16150D1*
X12670Y25203D2*
D16*
X14582D1*
X12670Y25007D2*
X14582D1*
X12670Y24810D2*
X14582D1*
X12670Y24613D2*
X14582D1*
X12670Y24417D2*
X14582D1*
X12670Y24220D2*
X14582D1*
X12670Y24023D2*
X14582D1*
X12670Y23827D2*
X14582D1*
X14490Y23630D2*
X14582D1*
X14490Y23433D2*
X14582D1*
X14490Y23237D2*
X14582D1*
X14490Y23040D2*
X15119D1*
X17181D2*
X17582D1*
X14490Y22843D2*
X15119D1*
X17181D2*
X17582D1*
X14490Y22647D2*
X15119D1*
X17181D2*
X17582D1*
X14490Y22450D2*
X15119D1*
X17181D2*
X17582D1*
X12670Y22253D2*
X15119D1*
X17181D2*
X17582D1*
X12670Y22057D2*
X17582D1*
X12670Y21860D2*
X17582D1*
X17160Y23159D2*
Y22190D1*
X15140D1*
Y23193D1*
X14698Y23200D1*
X14615Y23250D1*
X14600Y23300D1*
Y25400D1*
X12650D1*
Y21750D1*
X17600D1*
X17598Y23152D1*
X17158Y23159D1*
X12750Y23779D2*
X14470D1*
Y22344D1*
X12730D1*
Y23779D1*
X12750D1*
X16150Y23100D2*
D22*
Y22190D1*
X15140Y23100D2*
X17160D1*
X13600Y23778D2*
Y22345D1*
X12731Y23062D2*
X14469D1*
X19181Y32362D2*
D16*
X19681D1*
X19181Y32165D2*
X19681D1*
X19181Y31969D2*
X19681D1*
X19181Y31772D2*
X19681D1*
X19181Y31575D2*
X19681D1*
X18665Y31379D2*
X19681D1*
X18721Y31182D2*
X19681D1*
X18809Y30985D2*
X21103D1*
X18809Y30789D2*
X21300D1*
X18809Y30592D2*
X21428D1*
X18809Y30395D2*
X21428D1*
X18809Y30199D2*
X21428D1*
X18809Y30002D2*
X21428D1*
X18809Y29805D2*
X21428D1*
X18809Y29609D2*
X21428D1*
X18809Y29412D2*
X21428D1*
X18809Y29215D2*
X20394D1*
X18809Y29019D2*
X20394D1*
X18809Y28822D2*
X20394D1*
X18809Y28625D2*
X20394D1*
X18809Y28429D2*
X20394D1*
X18809Y28232D2*
X20394D1*
X19161Y32553D2*
Y31524D1*
X18553D1*
X18625Y31420D1*
X18667Y31329D1*
X18694Y31233D1*
X18703Y31168D1*
X18732Y31162D1*
X18790Y31085D1*
X18789Y29481D1*
X18791Y28154D1*
X20412D1*
X20414Y28753D1*
Y29289D1*
X21450D1*
Y30658D1*
X21107Y31000D1*
X19800D1*
X19716Y31049D1*
X19700Y31100D1*
Y32447D1*
X19659Y32528D1*
X19600Y32551D1*
X19159Y32553D1*
X18403Y32182D2*
X19161D1*
X21072Y29288D2*
Y28531D1*
X20415D2*
X21072D1*
X9726Y25253D2*
X12980D1*
X9730Y25057D2*
X12980D1*
X9733Y24860D2*
X12980D1*
X9736Y24663D2*
X12980D1*
X9739Y24467D2*
X12980D1*
X9745Y24270D2*
X12980D1*
X5658Y24073D2*
X5846D1*
X8105D2*
X8990D1*
X9711D2*
X12980D1*
X5645Y23877D2*
X5846D1*
X8105D2*
X12980D1*
X5633Y23680D2*
X5846D1*
X8105D2*
X12712D1*
X5620Y23483D2*
X5846D1*
X8105D2*
X12712D1*
X5608Y23287D2*
X5846D1*
X8105D2*
X12712D1*
X5595Y23090D2*
X5846D1*
X8105D2*
X12712D1*
X5583Y22893D2*
X5846D1*
X8105D2*
X12712D1*
X5570Y22697D2*
X5846D1*
X8105D2*
X12712D1*
X5558Y22500D2*
X5846D1*
X8105D2*
X12712D1*
X5545Y22303D2*
X5846D1*
X8105D2*
X12980D1*
X5536Y22107D2*
X5846D1*
X8105D2*
X12980D1*
X5523Y21910D2*
X5846D1*
X8105D2*
X12980D1*
X12830Y23779D2*
X13002D1*
X13000Y24750D1*
Y25450D1*
X9703D1*
X9726Y24163D1*
X9679Y24077D1*
X9624Y24061D1*
X5642Y24138D1*
X5496Y21802D1*
X6489Y21810D1*
X13000Y21850D1*
Y22347D1*
X12730Y22344D1*
Y23779D1*
X12830D1*
X5886Y24076D2*
X8086D1*
Y21856D1*
X5866D1*
Y24076D1*
X5886D1*
X6976D2*
D23*
Y21857D1*
X5867Y22966D2*
X8086D1*
X10589Y19502D2*
D16*
X11777D1*
X10589Y19305D2*
X11777D1*
X10589Y19109D2*
X11777D1*
X10586Y18912D2*
X11777D1*
X10005Y18715D2*
X11777D1*
X10005Y18519D2*
X11777D1*
X10005Y18322D2*
X11777D1*
X10005Y18125D2*
X11777D1*
X10005Y17929D2*
X11777D1*
X10005Y17732D2*
X11777D1*
X8685Y17535D2*
X11777D1*
X10589Y17339D2*
X11777D1*
X10589Y17142D2*
X11777D1*
X8664Y18791D2*
X9985D1*
Y17621D1*
X8664D1*
X8665Y17517D1*
X10470D1*
X10554Y17468D1*
X10570Y17417D1*
Y17041D1*
X11799D1*
Y19699D1*
X10570D1*
Y19005D1*
X10521Y18920D1*
X10470Y18905D1*
X8665D1*
Y18789D1*
X9200Y18790D2*
Y17621D1*
Y18206D2*
X9984D1*
X11128Y38713D2*
X11206D1*
X11321D2*
X11423D1*
X11787Y38319D2*
X11864D1*
X11984Y38123D2*
X12086D1*
X12181Y37926D2*
X12303D1*
X12375Y37729D2*
X12527D1*
X12572Y37533D2*
X12744D1*
X12731Y37336D2*
X12963D1*
X9556Y37139D2*
X9807D1*
X12718D2*
X13185D1*
X9359Y36943D2*
X9985D1*
X12540D2*
X13403D1*
X9278Y36746D2*
X10182D1*
X12343D2*
X13622D1*
X9234Y36549D2*
X10378D1*
X12147D2*
X13844D1*
X9190Y36353D2*
X10575D1*
X11950D2*
X14063D1*
X9147Y36156D2*
X10772D1*
X11753D2*
X14160D1*
X9103Y35959D2*
X10969D1*
X11556D2*
X14160D1*
X9059Y35763D2*
X14160D1*
X9015Y35566D2*
X14160D1*
X8975Y35369D2*
X14160D1*
X8931Y35173D2*
X14160D1*
X8887Y34976D2*
X14160D1*
X8843Y34779D2*
X14160D1*
X8800Y34583D2*
X14160D1*
X8756Y34386D2*
X14160D1*
X8712Y34189D2*
X14160D1*
X12631Y33993D2*
X14160D1*
X12631Y33796D2*
X14160D1*
X12631Y33599D2*
X14160D1*
X12631Y33403D2*
X14160D1*
X12631Y33206D2*
X14160D1*
X12631Y33009D2*
X14160D1*
X12631Y32813D2*
X14160D1*
X12631Y32616D2*
X14160D1*
X12631Y32419D2*
X14160D1*
X9891Y37452D2*
X11109Y38666D1*
X11180Y38702D1*
X11258Y38716D1*
X11337Y38705D1*
X11409Y38671D1*
X11489Y38597D1*
X12674Y37407D1*
X12711Y37337D1*
X12725Y37258D1*
X12714Y37179D1*
X12679Y37107D1*
X12606Y37028D1*
X11416Y35842D1*
X11345Y35805D1*
X11267Y35792D1*
X11188Y35803D1*
X11116Y35837D1*
X11036Y35910D1*
X9851Y37100D1*
X9814Y37171D1*
X9800Y37250D1*
X9811Y37328D1*
X9846Y37400D1*
X9877Y37438D1*
X9891Y37452D1*
X8663Y34060D2*
X12610D1*
Y32287D1*
X14180Y32282D1*
Y36267D1*
X11268Y38872D1*
X9290Y36895D1*
X8664Y34059D1*
X11263Y38715D2*
D23*
Y35792D1*
X9801Y37254D2*
X12724D1*
X9500Y34060D2*
D22*
Y33000D1*
X12610D1*
X34219Y26116D2*
D16*
X35079D1*
X34219Y25919D2*
X35079D1*
X34182Y25723D2*
X35079D1*
X34216Y25526D2*
X35079D1*
X34216Y25329D2*
X35079D1*
X34213Y25133D2*
X35079D1*
X34213Y24936D2*
X35079D1*
X34210Y24739D2*
X35079D1*
X33573Y25650D2*
X34096Y25663D1*
X34181Y25616D1*
X34198Y25562D1*
X34190Y24671D1*
X34889Y24674D1*
X35101D1*
X35098Y26313D1*
X34198D1*
Y25813D1*
X34149Y25728D1*
X34096Y25713D1*
X33596Y25724D1*
X33568D1*
X33572Y25661D1*
X32861Y25681D2*
X33572D1*
X33570Y27216D2*
X35127D1*
X33570Y27019D2*
X35127D1*
X33592Y26823D2*
X35127D1*
X33611Y26626D2*
X33811D1*
X33573Y26429D2*
X33793D1*
X33564Y26233D2*
X33793D1*
X33546Y26161D2*
X33540Y26110D1*
X33813Y26105D1*
X33812Y26413D1*
X33831Y26513D1*
X33818Y26466D1*
X33831Y26638D1*
X33880Y26723D1*
X33932Y26738D1*
X34286Y26731D1*
X34373Y26768D1*
X34470Y26791D1*
X34569Y26798D1*
X34669Y26789D1*
X34766Y26765D1*
X34871Y26718D1*
X35148Y26715D1*
Y27413D1*
X33551D1*
Y26873D1*
X33588Y26758D1*
X33594Y26681D1*
X33584Y26581D1*
X33552Y26490D1*
X33553Y26319D1*
X33539Y26256D1*
X33546Y26161D1*
X32861Y26181D2*
X33546D1*
X14400Y12199D2*
X14881D1*
X14400Y12002D2*
X14881D1*
X14400Y11805D2*
X14881D1*
X14400Y11609D2*
X14881D1*
X14400Y11412D2*
X16065D1*
X14400Y11215D2*
X16065D1*
X14400Y11019D2*
X14981D1*
X14400Y10822D2*
X14981D1*
X14400Y10625D2*
X14981D1*
X14400Y10429D2*
X14981D1*
X14400Y10232D2*
X14981D1*
X14400Y10035D2*
X14981D1*
X15019Y11041D2*
X16086D1*
X16085Y11462D1*
X15959Y11464D1*
X14899D1*
Y12396D1*
X14380Y12395D1*
Y9896D1*
X15002D1*
X14999Y9961D1*
Y11041D1*
X15019D1*
X15709D2*
Y10431D1*
X15000D2*
X15709D1*
Y12024D2*
Y11465D1*
X14900Y12024D2*
X15709D1*
X16565Y13103D2*
X19569D1*
X16565Y12907D2*
X19563D1*
X16565Y12710D2*
X19975D1*
X16622Y12513D2*
X17532D1*
X19287D2*
X19975D1*
X16622Y12317D2*
X17532D1*
X19287D2*
X19975D1*
X16622Y12120D2*
X17532D1*
X19287D2*
X19975D1*
X16622Y11923D2*
X17532D1*
X19287D2*
X19975D1*
X16622Y11727D2*
X17532D1*
X19287D2*
X19975D1*
X16622Y11530D2*
X17532D1*
X19287D2*
X21147D1*
X16622Y11333D2*
X21147D1*
X16622Y11137D2*
X21147D1*
X17765Y10940D2*
X21147D1*
X17765Y10743D2*
X21147D1*
X17765Y10547D2*
X21147D1*
X17765Y10350D2*
X21147D1*
X17765Y10153D2*
X21147D1*
X21166Y11571D2*
X19995D1*
Y12713D1*
X19678D1*
X19594Y12762D1*
X19578Y12817D1*
X19596Y13301D1*
X16545Y13300D1*
Y12586D1*
X16587Y12546D1*
X16603Y12495D1*
Y11067D1*
X17745D1*
Y10055D1*
X21166D1*
Y11571D1*
X17651Y12632D2*
X19267D1*
Y11416D1*
X17551D1*
Y12632D1*
X17651D1*
X20631Y12307D2*
Y11571D1*
X19995Y12307D2*
X20631D1*
X17009Y11067D2*
Y10431D1*
X17745D1*
X15709Y12974D2*
X16545D1*
X17893Y14898D2*
X21623D1*
X17893Y14701D2*
X21623D1*
X17893Y14504D2*
X21623D1*
X19238Y14308D2*
X20002D1*
X21260D2*
X21623D1*
X19238Y14111D2*
X20002D1*
X21260D2*
X21623D1*
X19238Y13914D2*
X20002D1*
X21260D2*
X21623D1*
X19792Y13718D2*
X20002D1*
X21260D2*
X21623D1*
X21260Y13521D2*
X21623D1*
X21260Y13324D2*
X21623D1*
X21260Y13128D2*
X21623D1*
X20041Y14317D2*
X21241D1*
Y13099D1*
X21367Y13080D1*
X21396Y13072D1*
X21642D1*
Y15094D1*
X17873D1*
Y14485D1*
X19219Y14484D1*
Y13734D1*
X19678D1*
X19779Y13715D1*
X19732Y13728D1*
X19873Y13707D1*
X19998Y13705D1*
X20021Y13717D1*
Y14317D1*
X20041D1*
X20631Y14316D2*
Y13607D1*
X21241D1*
X18409Y14484D2*
Y13924D1*
X19219D1*
X60366Y36264D2*
X64731D1*
X60366Y36067D2*
X64731D1*
X60366Y35870D2*
X64731D1*
X60366Y35674D2*
X64731D1*
X60366Y35477D2*
X64731D1*
X60366Y35280D2*
X64731D1*
X60366Y35084D2*
X64731D1*
X60366Y34887D2*
X64731D1*
X61671Y34690D2*
X61984D1*
X63243D2*
X64731D1*
X61671Y34494D2*
X61984D1*
X63243D2*
X64731D1*
X61671Y34297D2*
X61984D1*
X63243D2*
X64731D1*
X61671Y34100D2*
X61984D1*
X63243D2*
X64731D1*
X61671Y33904D2*
X61984D1*
X63243D2*
X64731D1*
X61671Y33707D2*
X61984D1*
X63243D2*
X64731D1*
X62023Y34745D2*
X63223D1*
Y33643D1*
X64751Y33644D1*
Y36434D1*
X60349Y36433D1*
X60346Y35560D1*
Y33644D1*
X60431D1*
X60430Y34760D1*
X61650D1*
Y33643D1*
X62003Y33645D1*
Y34745D1*
X62023D1*
X62613D2*
Y34035D1*
X62003D2*
X63222D1*
X61040Y34760D2*
Y34050D1*
X60430D2*
X61650D1*
X63243Y32930D2*
X64731D1*
X63243Y32733D2*
X64731D1*
X63243Y32536D2*
X64731D1*
X63243Y32340D2*
X64731D1*
X63243Y32143D2*
X64731D1*
X61954Y31946D2*
X64731D1*
X61954Y31750D2*
X64731D1*
X61954Y31553D2*
X64731D1*
X61954Y31356D2*
X64731D1*
X61954Y31160D2*
X64731D1*
X61954Y30963D2*
X64731D1*
X63223Y33127D2*
Y32025D1*
X62003D1*
Y33127D1*
X61934Y33126D1*
Y30786D1*
X64751D1*
Y33126D1*
X63222D1*
X62613Y32735D2*
Y32025D1*
X62003Y32735D2*
X63222D1*
X83547Y27849D2*
X83657D1*
X85265D2*
X85369D1*
X83547Y27652D2*
X83657D1*
X85265D2*
X85369D1*
X83528Y27456D2*
X83657D1*
X85265D2*
X85369D1*
X83103Y27259D2*
X83657D1*
X85265D2*
X85369D1*
X83103Y27062D2*
X83657D1*
X85265D2*
X88385D1*
X83103Y26866D2*
X83657D1*
X85265D2*
X85957D1*
X87565D2*
X88382D1*
X83103Y26669D2*
X85957D1*
X87565D2*
X88378D1*
X83103Y26472D2*
X85957D1*
X87565D2*
X88375D1*
X83103Y26276D2*
X85957D1*
X87565D2*
X88372D1*
X82100Y26079D2*
X85957D1*
X87565D2*
X88369D1*
X82100Y25882D2*
X85957D1*
X87565D2*
X88366D1*
X82097Y25686D2*
X88366D1*
X82093Y25489D2*
X88363D1*
X82090Y25292D2*
X88360D1*
X82090Y25096D2*
X88357D1*
X82087Y24899D2*
X88353D1*
X82084Y24702D2*
X88350D1*
X82084Y24506D2*
X88347D1*
X82081Y24309D2*
X88344D1*
X82078Y24112D2*
X88341D1*
X82075Y23916D2*
X88338D1*
X82075Y23719D2*
X88335D1*
X82072Y23522D2*
X88332D1*
X83109Y27412D2*
X83081Y27410D1*
X83084Y27216D1*
Y26136D1*
X82082D1*
X82051Y23450D1*
X88352Y23451D1*
X88405Y27092D1*
X85490Y27093D1*
X85406Y27142D1*
X85390Y27193D1*
Y28046D1*
X83526D1*
Y27511D1*
X83477Y27426D1*
X83426Y27411D1*
X83111D1*
X85995Y26984D2*
X87545D1*
Y25814D1*
X85975D1*
Y26984D1*
X85995D1*
X83695Y27934D2*
X85245D1*
Y26764D1*
X83675D1*
Y27934D1*
X83695D1*
X82474Y26846D2*
Y26136D1*
Y26846D2*
X83083D1*
X86760Y26984D2*
Y25815D1*
X85976Y26399D2*
X87545D1*
X84460Y27934D2*
Y26765D1*
X83676Y27349D2*
X85245D1*
X78622Y43203D2*
X78878D1*
X78622Y43007D2*
X78878D1*
X78622Y42810D2*
X78878D1*
X78622Y42613D2*
X78878D1*
X78622Y42417D2*
X78878D1*
X78622Y42220D2*
X78878D1*
X78622Y42023D2*
X78878D1*
X78622Y41827D2*
X78878D1*
X78622Y41630D2*
X78878D1*
X78625Y41433D2*
X78878D1*
X78625Y41237D2*
X81050D1*
X79512Y41040D2*
X81050D1*
X79518Y40843D2*
X81053D1*
X79518Y40647D2*
X81053D1*
X80706Y40450D2*
X81057D1*
X80706Y40253D2*
X81060D1*
X80706Y40057D2*
X81060D1*
X80706Y39860D2*
X81063D1*
X80706Y39663D2*
X81063D1*
X80706Y39467D2*
X81066D1*
X80706Y39270D2*
X81066D1*
X79518Y39073D2*
X81069D1*
X79518Y38877D2*
X81069D1*
X79518Y38680D2*
X81072D1*
X80690Y38483D2*
X81072D1*
X80690Y38287D2*
X81075D1*
X80690Y38090D2*
X81078D1*
X80690Y37893D2*
X81078D1*
X80690Y37697D2*
X81082D1*
X80690Y37500D2*
X81082D1*
X79499Y38625D2*
X80669D1*
Y37453D1*
X81103Y37454D1*
X81050Y43400D1*
X78600D1*
X78605Y41105D1*
X79401Y41100D1*
X79485Y41050D1*
X79500Y41000D1*
Y40534D1*
X80314Y40536D1*
X80686D1*
Y39264D1*
X79500D1*
Y38622D1*
X78918Y43312D2*
X80969D1*
Y41240D1*
X78898D1*
Y43312D1*
X78918D1*
X79933Y38625D2*
Y37989D1*
X80669D1*
X79933Y43311D2*
D23*
Y41240D1*
X78898Y42276D2*
X80969D1*
X79950Y40535D2*
D16*
Y39265D1*
Y39900D2*
X80685D1*
X73522Y39907D2*
X77919D1*
X73525Y39710D2*
X77919D1*
X73525Y39513D2*
X77919D1*
X73528Y39317D2*
X77919D1*
X73528Y39120D2*
X79032D1*
X73528Y38923D2*
X74732D1*
X73531Y38727D2*
X74732D1*
X73531Y38530D2*
X74732D1*
X73534Y38333D2*
X73797D1*
X73534Y38137D2*
X73797D1*
X73537Y37940D2*
X73797D1*
X73537Y37743D2*
X73797D1*
X73537Y37547D2*
X73797D1*
X73540Y37350D2*
X73797D1*
X73540Y37153D2*
X73797D1*
X73543Y36957D2*
X73797D1*
X79051Y39290D2*
X77940D1*
Y40086D1*
X73500Y40085D1*
X73512Y38601D1*
X73524Y36819D1*
X73897D1*
X74750Y36850D1*
Y36866D1*
X74636Y36863D1*
X73817D1*
Y38483D1*
X74751D1*
X74750Y38850D1*
X74799Y38934D1*
X74850Y38950D1*
X75197D1*
X75218Y38970D1*
X75304Y39019D1*
X75400Y39036D1*
X79053D1*
X79050Y39291D1*
X78650Y39900D2*
Y39290D1*
X77940Y39900D2*
X78650D1*
X74377Y38482D2*
Y36863D1*
X73817Y37673D2*
X74377D1*
X75520Y38453D2*
X75670D1*
X76882D2*
X77877D1*
X75523Y38257D2*
X75670D1*
X75523Y38060D2*
X75670D1*
X75523Y37863D2*
X75670D1*
X75523Y37667D2*
X75670D1*
X75526Y37470D2*
X75670D1*
X75526Y37273D2*
X75670D1*
X78020D2*
X79080D1*
X75526Y37077D2*
X75670D1*
X77960D2*
X80130D1*
X75526Y36880D2*
X75670D1*
X77810D2*
X80130D1*
X75529Y36683D2*
X80130D1*
X75529Y36487D2*
X80130D1*
X73703Y36290D2*
X80130D1*
X73703Y36093D2*
X80130D1*
X73703Y35897D2*
X80130D1*
X76882Y35700D2*
X80130D1*
X76882Y35503D2*
X80130D1*
X76882Y35307D2*
X80130D1*
X76882Y35110D2*
X80130D1*
X76882Y34913D2*
X80130D1*
X76882Y34717D2*
X80130D1*
X76882Y34520D2*
X80130D1*
X74973Y34127D2*
X75686D1*
X74973Y33930D2*
X75686D1*
X74973Y33733D2*
X75686D1*
X77998Y38625D2*
X79101D1*
X79100Y38650D1*
X75503D1*
X75504Y37750D1*
X75509Y36405D1*
X75461Y36320D1*
X75410Y36304D1*
X73683Y36302D1*
Y35708D1*
X73792D1*
X73791Y35808D1*
X74962Y35805D1*
X75001Y35808D1*
X76862D1*
Y34437D1*
X80151Y34438D1*
Y37253D1*
X79200Y37250D1*
X79116Y37299D1*
X79100Y37353D1*
X78004D1*
X77996Y37255D1*
X77973Y37157D1*
X77934Y37065D1*
X77882Y36980D1*
X77817Y36904D1*
X77741Y36839D1*
X77656Y36787D1*
X77564Y36749D1*
X77466Y36726D1*
X77367Y36718D1*
X77267Y36726D1*
X77170Y36750D1*
X77078Y36788D1*
X76993Y36841D1*
X76917Y36906D1*
X76863Y36970D1*
X76862Y36837D1*
X75691D1*
Y38508D1*
X76862D1*
Y38362D1*
X77371Y38363D1*
X77896Y38364D1*
X77898Y38625D1*
X77998D1*
X74962Y34139D2*
X74953Y34137D1*
Y33644D1*
X75705D1*
Y34134D1*
X75552Y34137D1*
X74972D1*
X75326Y35808D2*
Y34137D1*
X75472Y27214D2*
X76261D1*
X75244Y27017D2*
X76261D1*
X75016Y26821D2*
X76261D1*
X74785Y26624D2*
X76261D1*
X74655Y26427D2*
X76261D1*
X77988Y26034D2*
X79020D1*
X78044Y25837D2*
X79020D1*
X78035Y25641D2*
X79020D1*
X76283Y27410D2*
X76281D1*
X75684Y27411D1*
X74635Y26512D1*
Y26340D1*
X76282D1*
X76281Y27410D1*
X78981Y27412D2*
Y26110D1*
X77970D1*
X77969Y26031D1*
X77999Y25956D1*
X78022Y25859D1*
X78029Y25764D1*
X78021Y25665D1*
X77989Y25547D1*
X79039D1*
Y27411D1*
X78980D1*
X76281Y26846D2*
X76917D1*
X78346D2*
Y26110D1*
Y26846D2*
X78981D1*
X72433Y24091D2*
X77907D1*
X72433Y23894D2*
X77907D1*
X72433Y23698D2*
X77903D1*
X72433Y23501D2*
X77903D1*
X72433Y23304D2*
X73303D1*
X74934D2*
X75307D1*
X76622D2*
X77903D1*
X72433Y23107D2*
X73303D1*
X74972D2*
X75307D1*
X76622D2*
X77900D1*
X72433Y22911D2*
X73303D1*
X74972D2*
X75307D1*
X76622D2*
X77900D1*
X72433Y22714D2*
X73303D1*
X74972D2*
X75307D1*
X76622D2*
X77900D1*
X72433Y22518D2*
X73303D1*
X74972D2*
X75307D1*
X76622D2*
X77897D1*
X72433Y22321D2*
X73303D1*
X74972D2*
X75307D1*
X76622D2*
X77897D1*
X72433Y22124D2*
X73303D1*
X74972D2*
X75307D1*
X76622D2*
X77897D1*
X72433Y21927D2*
X73303D1*
X74972D2*
X75307D1*
X76622D2*
X77894D1*
X72433Y21731D2*
X73303D1*
X74972D2*
X75307D1*
X76622D2*
X77894D1*
X74972Y21534D2*
X75457D1*
X76472D2*
X77894D1*
X74972Y21338D2*
X75457D1*
X76472D2*
X77891D1*
X74972Y21141D2*
X75457D1*
X76472D2*
X77891D1*
X74972Y20944D2*
X75457D1*
X76472D2*
X77891D1*
X74972Y20747D2*
X75457D1*
X76472D2*
X77888D1*
X74972Y20551D2*
X75391D1*
X76609D2*
X77888D1*
X74972Y20354D2*
X75310D1*
X76687D2*
X77888D1*
X74972Y20157D2*
X75294D1*
X76706D2*
X77885D1*
X74972Y19961D2*
X75338D1*
X76662D2*
X77885D1*
X74972Y19764D2*
X75450D1*
X76550D2*
X77885D1*
X74968Y19567D2*
X75713D1*
X76287D2*
X77882D1*
X74968Y19371D2*
X77882D1*
X74968Y19174D2*
X77882D1*
X75293Y24242D2*
X74730D1*
X74694Y24235D1*
X72413D1*
Y21577D1*
X73324D1*
Y23224D1*
X73373Y23308D1*
X73424Y23324D1*
X74853D1*
X74937Y23275D1*
X74953Y23224D1*
X74952Y19148D1*
X77898Y19102D1*
X77906Y20201D1*
X77928Y24235D1*
X75326Y24237D1*
X75428Y23316D2*
X76601D1*
Y21543D1*
X76448D1*
X76451Y21329D1*
Y20720D1*
X76566Y20589D1*
X76616Y20503D1*
X76653Y20411D1*
X76677Y20314D1*
X76687Y20200D1*
X76679Y20100D1*
X76658Y20003D1*
X76622Y19909D1*
X76573Y19822D1*
X76512Y19743D1*
X76441Y19674D1*
X76360Y19615D1*
X76271Y19569D1*
X76176Y19536D1*
X76078Y19518D1*
X75978Y19514D1*
X75879Y19524D1*
X75782Y19549D1*
X75690Y19587D1*
X75605Y19639D1*
X75527Y19702D1*
X75460Y19776D1*
X75404Y19859D1*
X75361Y19949D1*
X75331Y20044D1*
X75316Y20143D1*
X75315Y20243D1*
X75328Y20342D1*
X75356Y20438D1*
X75397Y20529D1*
X75478Y20643D1*
Y21542D1*
X75328Y21543D1*
Y23316D1*
X75428D1*
X75014Y25129D2*
Y24243D1*
X72433Y32771D2*
X74257D1*
X72433Y32574D2*
X72538D1*
X74147D2*
X74255D1*
X72433Y32377D2*
X72538D1*
X74147D2*
X75369D1*
X72433Y32181D2*
X72538D1*
X74147D2*
X75369D1*
X72433Y31984D2*
X72538D1*
X74147D2*
X75369D1*
X72433Y31787D2*
X72538D1*
X74147D2*
X75369D1*
X72433Y31591D2*
X72538D1*
X74147D2*
X75369D1*
X72433Y31394D2*
X75369D1*
X72433Y31197D2*
X75369D1*
X72433Y31001D2*
X75369D1*
X72577Y32702D2*
X74127D1*
Y31532D1*
X72557D1*
Y32702D1*
X72577D1*
X74176Y32967D2*
X72413D1*
Y30945D1*
X75388D1*
Y32491D1*
X74377D1*
X74292Y32540D1*
X74276Y32591D1*
Y32967D1*
X74176D1*
X73342Y32702D2*
Y31533D1*
X72558Y32117D2*
X74127D1*
X72432Y30230D2*
X76320D1*
X72432Y30034D2*
X76320D1*
X72432Y29837D2*
X76320D1*
X72432Y29641D2*
X76320D1*
X72432Y29444D2*
X76320D1*
X72432Y29247D2*
X76320D1*
X72432Y29050D2*
X76320D1*
X72432Y28854D2*
X76155D1*
X72432Y28657D2*
X75908D1*
X72432Y28460D2*
X75264D1*
X72432Y28264D2*
X75058D1*
X72432Y28067D2*
X74861D1*
X72432Y27871D2*
X74664D1*
X67987Y27674D2*
X68164D1*
X69476D2*
X69592D1*
X72432D2*
X74467D1*
X67987Y27477D2*
X68164D1*
X69476D2*
X69592D1*
X72432D2*
X74270D1*
X67987Y27280D2*
X68164D1*
X69476D2*
X69592D1*
X70904D2*
X71027D1*
X72432D2*
X74074D1*
X67987Y27084D2*
X68164D1*
X69476D2*
X69592D1*
X70904D2*
X73877D1*
X67987Y26887D2*
X68164D1*
X69476D2*
X69592D1*
X70904D2*
X73708D1*
X67987Y26691D2*
X68164D1*
X69476D2*
X69592D1*
X70904D2*
X73671D1*
X67987Y26494D2*
X68164D1*
X69476D2*
X69592D1*
X70904D2*
X73671D1*
X67987Y26297D2*
X73671D1*
X67987Y26101D2*
X73671D1*
X67987Y25904D2*
X73458D1*
X67987Y25707D2*
X73458D1*
X67987Y25510D2*
X73458D1*
X67987Y25314D2*
X73458D1*
X67987Y25117D2*
X73458D1*
X67987Y24921D2*
X73458D1*
X67987Y24724D2*
X73458D1*
X67987Y24527D2*
X73458D1*
X67987Y24331D2*
X69952D1*
X69615Y27727D2*
X69613D1*
X69452D1*
X69455Y27659D1*
Y26427D1*
X68184D1*
Y27728D1*
X67967D1*
Y24281D1*
X69364Y24315D1*
X73478Y24420D1*
Y25965D1*
X73688D1*
X73689Y26722D1*
X73703Y26821D1*
X73742Y26913D1*
X73799Y26987D1*
X75223Y28411D1*
X75302Y28471D1*
X75395Y28509D1*
X75488Y28520D1*
X75760D1*
X76343Y28990D1*
X76340Y29639D1*
Y30427D1*
X72413D1*
Y27193D1*
X72364Y27109D1*
X72313Y27093D1*
X71201D1*
X71117Y27142D1*
X70978Y27417D1*
X70884Y27599D1*
Y26427D1*
X69613D1*
Y27727D1*
X70249Y27163D2*
Y26428D1*
X69613Y27163D2*
X70884D1*
X68820D2*
Y26428D1*
X68184Y27163D2*
X69455D1*
X69026Y44678D2*
X77907D1*
X68091Y44482D2*
X77907D1*
X67157Y44285D2*
X77907D1*
X66776Y44088D2*
X77907D1*
X66526Y43892D2*
X77907D1*
X66276Y43695D2*
X77907D1*
X66026Y43498D2*
X77907D1*
X65776Y43302D2*
X69673D1*
X69994D2*
X77907D1*
X65526Y43105D2*
X69192D1*
X70472D2*
X77907D1*
X65276Y42908D2*
X68995D1*
X70672D2*
X77907D1*
X65026Y42712D2*
X68873D1*
X70791D2*
X77907D1*
X64776Y42515D2*
X68807D1*
X70860D2*
X77907D1*
X64526Y42318D2*
X68779D1*
X70888D2*
X77907D1*
X64276Y42122D2*
X68789D1*
X70879D2*
X77907D1*
X64026Y41925D2*
X68839D1*
X70829D2*
X77907D1*
X63776Y41728D2*
X68936D1*
X70732D2*
X77907D1*
X63526Y41532D2*
X69095D1*
X70572D2*
X77907D1*
X63276Y41335D2*
X69382D1*
X70285D2*
X77907D1*
X63026Y41138D2*
X77907D1*
X62776Y40942D2*
X77907D1*
X62526Y40745D2*
X77907D1*
X62276Y40548D2*
X77907D1*
X62026Y40352D2*
X72986D1*
X61776Y40155D2*
X72986D1*
X61526Y39958D2*
X72986D1*
X61276Y39762D2*
X72986D1*
X61026Y39565D2*
X72986D1*
X60776Y39368D2*
X72986D1*
X60526Y39172D2*
X72986D1*
X60276Y38975D2*
X72986D1*
X60060Y38778D2*
X70923D1*
X59932Y38582D2*
X70923D1*
X59800Y38385D2*
X70923D1*
X59672Y38188D2*
X70923D1*
X59544Y37992D2*
X70923D1*
X59413Y37795D2*
X70923D1*
X59285Y37598D2*
X70923D1*
X59157Y37402D2*
X70923D1*
X59026Y37205D2*
X70923D1*
X58897Y37008D2*
X70923D1*
X58769Y36812D2*
X59807D1*
X65422D2*
X70923D1*
X58641Y36615D2*
X59807D1*
X65447D2*
X70923D1*
X58510Y36418D2*
X59807D1*
X65447D2*
X70895D1*
X58382Y36222D2*
X59807D1*
X65447D2*
X70682D1*
X58254Y36025D2*
X59807D1*
X65447D2*
X70473D1*
X58122Y35828D2*
X59807D1*
X65447D2*
X70260D1*
X57994Y35632D2*
X59807D1*
X65447D2*
X70051D1*
X57866Y35435D2*
X59807D1*
X65447D2*
X69842D1*
X57738Y35238D2*
X59807D1*
X65447D2*
X69629D1*
X57607Y35042D2*
X59807D1*
X65447D2*
X69420D1*
X57479Y34845D2*
X59807D1*
X65447D2*
X69207D1*
X57351Y34648D2*
X59807D1*
X65447D2*
X68998D1*
X57219Y34452D2*
X59807D1*
X65447D2*
X68785D1*
X57091Y34255D2*
X59807D1*
X65447D2*
X68064D1*
X56963Y34058D2*
X59807D1*
X65447D2*
X68064D1*
X56832Y33862D2*
X58185D1*
X65447D2*
X68064D1*
X56704Y33665D2*
X58004D1*
X65447D2*
X68064D1*
X56575Y33468D2*
X57823D1*
X65447D2*
X68064D1*
X56447Y33272D2*
X57642D1*
X65447D2*
X68064D1*
X56351Y33075D2*
X57461D1*
X65447D2*
X68064D1*
X56285Y32878D2*
X57276D1*
X65447D2*
X68064D1*
X56222Y32682D2*
X57095D1*
X65447D2*
X68064D1*
X56154Y32485D2*
X56914D1*
X65447D2*
X68064D1*
X56088Y32288D2*
X56732D1*
X65447D2*
X68064D1*
X56026Y32092D2*
X56551D1*
X65447D2*
X68064D1*
X65447Y31895D2*
X68064D1*
X65447Y31698D2*
X68064D1*
X65447Y31502D2*
X68064D1*
X65447Y31305D2*
X68064D1*
X65447Y31108D2*
X68064D1*
X65447Y30912D2*
X68064D1*
X65447Y30715D2*
X68064D1*
X65447Y30518D2*
X68064D1*
X65435Y30322D2*
X68064D1*
X61319Y30125D2*
X68064D1*
X61319Y29928D2*
X68064D1*
X61319Y29732D2*
X68064D1*
X61319Y29535D2*
X68064D1*
X61319Y29338D2*
X67429D1*
X61319Y29142D2*
X67429D1*
X61319Y28945D2*
X67429D1*
X61319Y28748D2*
X67429D1*
X61319Y28552D2*
X67429D1*
X61319Y28355D2*
X67429D1*
X61319Y28158D2*
X67429D1*
X61319Y27962D2*
X67429D1*
X61319Y27765D2*
X67429D1*
X70869Y42256D2*
X70857Y42117D1*
X70826Y41980D1*
X70777Y41849D1*
X70711Y41726D1*
X70629Y41613D1*
X70532Y41511D1*
X70423Y41424D1*
X70303Y41352D1*
X70174Y41298D1*
X70039Y41261D1*
X69900Y41242D1*
X69760Y41243D1*
X69622Y41262D1*
X69487Y41300D1*
X69359Y41355D1*
X69239Y41428D1*
X69130Y41515D1*
X69034Y41617D1*
X68953Y41731D1*
X68887Y41854D1*
X68839Y41986D1*
X68809Y42122D1*
X68798Y42262D1*
X68805Y42402D1*
X68832Y42539D1*
X68876Y42672D1*
X68938Y42797D1*
X69016Y42913D1*
X69110Y43017D1*
X69216Y43108D1*
X69334Y43183D1*
X69461Y43242D1*
X69594Y43284D1*
X69732Y43307D1*
X69872Y43311D1*
X70011Y43296D1*
X70147Y43263D1*
X70277Y43212D1*
X70399Y43143D1*
X70511Y43059D1*
X70611Y42961D1*
X70696Y42850D1*
X70765Y42728D1*
X70818Y42599D1*
X70852Y42463D1*
X70868Y42324D1*
X70869Y42256D1*
X56390Y31895D2*
X58270Y33930D1*
X58341Y33961D1*
X59829D1*
Y36719D1*
X59878Y36803D1*
X59929Y36819D1*
X65327D1*
X65411Y36770D1*
X65427Y36719D1*
Y30368D1*
X65378Y30284D1*
X65327Y30268D1*
X61299D1*
Y27611D1*
X67450D1*
Y29257D1*
X67498Y29341D1*
X67550Y29357D1*
X68085D1*
Y34179D1*
X68134Y34263D1*
X68185Y34279D1*
X68620D1*
X70944Y36446D1*
X70942Y38783D1*
X70991Y38867D1*
X71042Y38883D1*
X73006D1*
Y40371D1*
X73055Y40455D1*
X73106Y40471D1*
X77928D1*
Y44875D1*
X69940D1*
X66958Y44247D1*
X60074Y38831D1*
X56368Y33183D1*
X55940Y31899D1*
X56391Y31897D1*
X69833Y43311D2*
D23*
Y41240D1*
X68798Y42276D2*
X70869D1*
X77990Y44837D2*
D16*
X81006D1*
X77990Y44640D2*
X81334D1*
X77990Y44444D2*
X81662D1*
X77990Y44247D2*
X81990D1*
X77990Y44050D2*
X82318D1*
X77990Y43854D2*
X82647D1*
X82118Y43657D2*
X82975D1*
X82118Y43460D2*
X83303D1*
X82118Y43264D2*
X83631D1*
X82118Y43067D2*
X83956D1*
X82118Y42870D2*
X84284D1*
X82118Y42674D2*
X84612D1*
X82118Y42477D2*
X84940D1*
X82118Y42280D2*
X85268D1*
X82118Y42084D2*
X85596D1*
X82118Y41887D2*
X85925D1*
X82118Y41690D2*
X86253D1*
X82118Y41494D2*
X86581D1*
X82118Y41297D2*
X86906D1*
X82118Y41100D2*
X87234D1*
X82118Y40904D2*
X87562D1*
X82118Y40707D2*
X87890D1*
X82118Y40510D2*
X88087D1*
X82118Y40314D2*
X88096D1*
X82118Y40117D2*
X88106D1*
X82118Y39920D2*
X88115D1*
X82118Y39724D2*
X88125D1*
X82118Y39527D2*
X88134D1*
X82118Y39330D2*
X88143D1*
X82118Y39134D2*
X88153D1*
X82118Y38937D2*
X88162D1*
X82118Y38740D2*
X88171D1*
X82118Y38544D2*
X88181D1*
X82118Y38347D2*
X88193D1*
X82118Y38150D2*
X88203D1*
X82118Y37954D2*
X88212D1*
X82118Y37757D2*
X88221D1*
X82118Y37560D2*
X88231D1*
X82118Y37364D2*
X88240D1*
X82118Y37167D2*
X88250D1*
X82118Y36970D2*
X88259D1*
X80846Y36774D2*
X82003D1*
X82045D2*
X88268D1*
X80846Y36577D2*
X88278D1*
X80846Y36380D2*
X88287D1*
X80846Y36184D2*
X88296D1*
X80846Y35987D2*
X88306D1*
X80846Y35790D2*
X88315D1*
X80846Y35594D2*
X88325D1*
X80846Y35397D2*
X88337D1*
X80846Y35200D2*
X88346D1*
X80846Y35004D2*
X88356D1*
X80846Y34807D2*
X88365D1*
X80846Y34610D2*
X88375D1*
X80846Y34414D2*
X88384D1*
X80846Y34217D2*
X88393D1*
X80846Y34020D2*
X88403D1*
X77513Y33824D2*
X88412D1*
X77513Y33627D2*
X88421D1*
X77513Y33430D2*
X88431D1*
X77513Y33234D2*
X88440D1*
X77513Y33037D2*
X88450D1*
X77513Y32840D2*
X88459D1*
X77513Y32644D2*
X88468D1*
X77513Y32447D2*
X88478D1*
X77513Y32250D2*
X88490D1*
X77513Y32054D2*
X88500D1*
X77513Y31857D2*
X88509D1*
X77513Y31660D2*
X88518D1*
X77513Y31464D2*
X88528D1*
X77513Y31267D2*
X88537D1*
X77513Y31070D2*
X88546D1*
X77513Y30874D2*
X88556D1*
X77513Y30677D2*
X88565D1*
X77513Y30480D2*
X88575D1*
X77513Y30284D2*
X88584D1*
X77513Y30087D2*
X88593D1*
X77513Y29890D2*
X88603D1*
X77513Y29694D2*
X88612D1*
X77513Y29497D2*
X88622D1*
X77513Y29300D2*
X83625D1*
X85608D2*
X88634D1*
X87833Y29104D2*
X88643D1*
X87833Y28907D2*
X88653D1*
X87833Y28710D2*
X88662D1*
X87833Y28514D2*
X88671D1*
X87833Y28317D2*
X88681D1*
X87833Y28120D2*
X88690D1*
X83844Y29314D2*
X85490D1*
X85589Y29301D1*
X85681Y29262D1*
X85762Y29198D1*
X87713D1*
X87797Y29149D1*
X87813Y29098D1*
Y27928D1*
X88722D1*
X88685Y28622D1*
X88103Y40593D1*
X80696Y45036D1*
X78927Y45034D1*
X77969D1*
Y43805D1*
X81997D1*
X82082Y43756D1*
X82097Y43705D1*
Y36878D1*
X82048Y36793D1*
X82082Y36825D1*
X81999Y36778D1*
X80828Y36923D1*
X80827Y34020D1*
X80778Y33936D1*
X80727Y33920D1*
X77493D1*
Y29198D1*
X83471D1*
X83558Y29265D1*
X83650Y29302D1*
X83744Y29314D1*
X83844D1*
X72433Y33565D2*
X75969D1*
X74597Y33368D2*
X75969D1*
X74743Y33171D2*
X75969D1*
X74759Y32975D2*
X75969D1*
X75818Y32778D2*
X75969D1*
X75868Y32581D2*
X76003D1*
X75868Y32385D2*
X76147D1*
X75868Y32188D2*
X76319D1*
X75868Y31991D2*
X76319D1*
X75868Y31795D2*
X76319D1*
X75868Y31598D2*
X76319D1*
X75868Y31401D2*
X76319D1*
X75868Y31205D2*
X76319D1*
X75868Y31008D2*
X76319D1*
X72513Y33429D2*
X74377D1*
X74475Y33416D1*
X74566Y33376D1*
X74643Y33312D1*
X74700Y33230D1*
X74737Y33105D1*
X74739Y32952D1*
X75488Y32953D1*
X75587Y32939D1*
X75678Y32899D1*
X75755Y32836D1*
X75811Y32754D1*
X75848Y32628D1*
X75850Y31491D1*
Y30944D1*
X76340Y30945D1*
Y32210D1*
X76122Y32431D1*
X76059Y32509D1*
X76016Y32599D1*
X75990Y32733D1*
Y33759D1*
X74840Y33761D1*
X72413D1*
Y33429D1*
X72513D1*
X60366Y86264D2*
X64731D1*
X60366Y86067D2*
X64731D1*
X60366Y85870D2*
X64731D1*
X60366Y85674D2*
X64731D1*
X60366Y85477D2*
X64731D1*
X60366Y85280D2*
X64731D1*
X60366Y85084D2*
X64731D1*
X60366Y84887D2*
X64731D1*
X61671Y84690D2*
X61984D1*
X63243D2*
X64731D1*
X61671Y84494D2*
X61984D1*
X63243D2*
X64731D1*
X61671Y84297D2*
X61984D1*
X63243D2*
X64731D1*
X61671Y84100D2*
X61984D1*
X63243D2*
X64731D1*
X61671Y83904D2*
X61984D1*
X63243D2*
X64731D1*
X61671Y83707D2*
X61984D1*
X63243D2*
X64731D1*
X62023Y84745D2*
X63223D1*
Y83643D1*
X64751Y83644D1*
Y86434D1*
X60349Y86433D1*
X60346Y85560D1*
Y83644D1*
X60431D1*
X60430Y84760D1*
X61650D1*
Y83643D1*
X62003Y83645D1*
Y84745D1*
X62023D1*
X62613D2*
Y84035D1*
X62003D2*
X63222D1*
X61040Y84760D2*
Y84050D1*
X60430D2*
X61650D1*
X63243Y82930D2*
X64731D1*
X63243Y82733D2*
X64731D1*
X63243Y82536D2*
X64731D1*
X63243Y82340D2*
X64731D1*
X63243Y82143D2*
X64731D1*
X61954Y81946D2*
X64731D1*
X61954Y81750D2*
X64731D1*
X61954Y81553D2*
X64731D1*
X61954Y81356D2*
X64731D1*
X61954Y81160D2*
X64731D1*
X61954Y80963D2*
X64731D1*
X63223Y83127D2*
Y82025D1*
X62003D1*
Y83127D1*
X61934Y83126D1*
Y80786D1*
X64751D1*
Y83126D1*
X63222D1*
X62613Y82735D2*
Y82025D1*
X62003Y82735D2*
X63222D1*
X83547Y77849D2*
X83657D1*
X85265D2*
X85369D1*
X83547Y77652D2*
X83657D1*
X85265D2*
X85369D1*
X83528Y77456D2*
X83657D1*
X85265D2*
X85369D1*
X83103Y77259D2*
X83657D1*
X85265D2*
X85369D1*
X83103Y77062D2*
X83657D1*
X85265D2*
X88385D1*
X83103Y76866D2*
X83657D1*
X85265D2*
X85957D1*
X87565D2*
X88382D1*
X83103Y76669D2*
X85957D1*
X87565D2*
X88378D1*
X83103Y76472D2*
X85957D1*
X87565D2*
X88375D1*
X83103Y76276D2*
X85957D1*
X87565D2*
X88372D1*
X82100Y76079D2*
X85957D1*
X87565D2*
X88369D1*
X82100Y75882D2*
X85957D1*
X87565D2*
X88366D1*
X82097Y75686D2*
X88366D1*
X82093Y75489D2*
X88363D1*
X82090Y75292D2*
X88360D1*
X82090Y75096D2*
X88357D1*
X82087Y74899D2*
X88353D1*
X82084Y74702D2*
X88350D1*
X82084Y74506D2*
X88347D1*
X82081Y74309D2*
X88344D1*
X82078Y74112D2*
X88341D1*
X82075Y73916D2*
X88338D1*
X82075Y73719D2*
X88335D1*
X82072Y73522D2*
X88332D1*
X83109Y77412D2*
X83081Y77410D1*
X83084Y77216D1*
Y76136D1*
X82082D1*
X82051Y73450D1*
X88352Y73451D1*
X88405Y77092D1*
X85490Y77093D1*
X85406Y77142D1*
X85390Y77193D1*
Y78046D1*
X83526D1*
Y77511D1*
X83477Y77426D1*
X83426Y77411D1*
X83111D1*
X85995Y76984D2*
X87545D1*
Y75814D1*
X85975D1*
Y76984D1*
X85995D1*
X83695Y77934D2*
X85245D1*
Y76764D1*
X83675D1*
Y77934D1*
X83695D1*
X82474Y76846D2*
Y76136D1*
Y76846D2*
X83083D1*
X86760Y76984D2*
Y75815D1*
X85976Y76399D2*
X87545D1*
X84460Y77934D2*
Y76765D1*
X83676Y77349D2*
X85245D1*
X78622Y93203D2*
X78878D1*
X78622Y93007D2*
X78878D1*
X78622Y92810D2*
X78878D1*
X78622Y92613D2*
X78878D1*
X78622Y92417D2*
X78878D1*
X78622Y92220D2*
X78878D1*
X78622Y92023D2*
X78878D1*
X78622Y91827D2*
X78878D1*
X78622Y91630D2*
X78878D1*
X78625Y91433D2*
X78878D1*
X78625Y91237D2*
X81050D1*
X79512Y91040D2*
X81050D1*
X79518Y90843D2*
X81053D1*
X79518Y90647D2*
X81053D1*
X80706Y90450D2*
X81057D1*
X80706Y90253D2*
X81060D1*
X80706Y90057D2*
X81060D1*
X80706Y89860D2*
X81063D1*
X80706Y89663D2*
X81063D1*
X80706Y89467D2*
X81066D1*
X80706Y89270D2*
X81066D1*
X79518Y89073D2*
X81069D1*
X79518Y88877D2*
X81069D1*
X79518Y88680D2*
X81072D1*
X80690Y88483D2*
X81072D1*
X80690Y88287D2*
X81075D1*
X80690Y88090D2*
X81078D1*
X80690Y87893D2*
X81078D1*
X80690Y87697D2*
X81082D1*
X80690Y87500D2*
X81082D1*
X79499Y88625D2*
X80669D1*
Y87453D1*
X81103Y87454D1*
X81050Y93400D1*
X78600D1*
X78605Y91105D1*
X79401Y91100D1*
X79485Y91050D1*
X79500Y91000D1*
Y90534D1*
X80314Y90536D1*
X80686D1*
Y89264D1*
X79500D1*
Y88622D1*
X78918Y93312D2*
X80969D1*
Y91240D1*
X78898D1*
Y93312D1*
X78918D1*
X79933Y88625D2*
Y87989D1*
X80669D1*
X79933Y93311D2*
D23*
Y91240D1*
X78898Y92276D2*
X80969D1*
X79950Y90535D2*
D16*
Y89265D1*
Y89900D2*
X80685D1*
X73522Y89907D2*
X77919D1*
X73525Y89710D2*
X77919D1*
X73525Y89513D2*
X77919D1*
X73528Y89317D2*
X77919D1*
X73528Y89120D2*
X79032D1*
X73528Y88923D2*
X74732D1*
X73531Y88727D2*
X74732D1*
X73531Y88530D2*
X74732D1*
X73534Y88333D2*
X73797D1*
X73534Y88137D2*
X73797D1*
X73537Y87940D2*
X73797D1*
X73537Y87743D2*
X73797D1*
X73537Y87547D2*
X73797D1*
X73540Y87350D2*
X73797D1*
X73540Y87153D2*
X73797D1*
X73543Y86957D2*
X73797D1*
X79051Y89290D2*
X77940D1*
Y90086D1*
X73500Y90085D1*
X73512Y88601D1*
X73524Y86819D1*
X73897D1*
X74750Y86850D1*
Y86866D1*
X74636Y86863D1*
X73817D1*
Y88483D1*
X74751D1*
X74750Y88850D1*
X74799Y88934D1*
X74850Y88950D1*
X75197D1*
X75218Y88970D1*
X75304Y89019D1*
X75400Y89036D1*
X79053D1*
X79050Y89291D1*
X78650Y89900D2*
Y89290D1*
X77940Y89900D2*
X78650D1*
X74377Y88482D2*
Y86863D1*
X73817Y87673D2*
X74377D1*
X75520Y88453D2*
X75670D1*
X76882D2*
X77877D1*
X75523Y88257D2*
X75670D1*
X75523Y88060D2*
X75670D1*
X75523Y87863D2*
X75670D1*
X75523Y87667D2*
X75670D1*
X75526Y87470D2*
X75670D1*
X75526Y87273D2*
X75670D1*
X78020D2*
X79080D1*
X75526Y87077D2*
X75670D1*
X77960D2*
X80130D1*
X75526Y86880D2*
X75670D1*
X77810D2*
X80130D1*
X75529Y86683D2*
X80130D1*
X75529Y86487D2*
X80130D1*
X73703Y86290D2*
X80130D1*
X73703Y86093D2*
X80130D1*
X73703Y85897D2*
X80130D1*
X76882Y85700D2*
X80130D1*
X76882Y85503D2*
X80130D1*
X76882Y85307D2*
X80130D1*
X76882Y85110D2*
X80130D1*
X76882Y84913D2*
X80130D1*
X76882Y84717D2*
X80130D1*
X76882Y84520D2*
X80130D1*
X74973Y84127D2*
X75686D1*
X74973Y83930D2*
X75686D1*
X74973Y83733D2*
X75686D1*
X77998Y88625D2*
X79101D1*
X79100Y88650D1*
X75503D1*
X75504Y87750D1*
X75509Y86405D1*
X75461Y86320D1*
X75410Y86304D1*
X73683Y86302D1*
Y85708D1*
X73792D1*
X73791Y85808D1*
X74962Y85805D1*
X75001Y85808D1*
X76862D1*
Y84437D1*
X80151Y84438D1*
Y87253D1*
X79200Y87250D1*
X79116Y87299D1*
X79100Y87353D1*
X78004D1*
X77996Y87255D1*
X77973Y87157D1*
X77934Y87065D1*
X77882Y86980D1*
X77817Y86904D1*
X77741Y86839D1*
X77656Y86787D1*
X77564Y86749D1*
X77466Y86726D1*
X77367Y86718D1*
X77267Y86726D1*
X77170Y86750D1*
X77078Y86788D1*
X76993Y86841D1*
X76917Y86906D1*
X76863Y86970D1*
X76862Y86837D1*
X75691D1*
Y88508D1*
X76862D1*
Y88362D1*
X77371Y88364D1*
X77896D1*
X77898Y88625D1*
X77998D1*
X74962Y84139D2*
X74953Y84137D1*
Y83644D1*
X75705D1*
Y84134D1*
X75552Y84137D1*
X74972D1*
X75326Y85808D2*
Y84137D1*
X75472Y77214D2*
X76261D1*
X75244Y77017D2*
X76261D1*
X75016Y76821D2*
X76261D1*
X74785Y76624D2*
X76261D1*
X74655Y76427D2*
X76261D1*
X77988Y76034D2*
X79020D1*
X78044Y75837D2*
X79020D1*
X78035Y75641D2*
X79020D1*
X76283Y77410D2*
X76281D1*
X75684Y77411D1*
X74635Y76512D1*
Y76340D1*
X76282D1*
X76281Y77410D1*
X78981Y77412D2*
Y76110D1*
X77970D1*
X77969Y76031D1*
X77999Y75956D1*
X78022Y75859D1*
X78029Y75764D1*
X78021Y75665D1*
X77989Y75547D1*
X79039D1*
Y77411D1*
X78980D1*
X76281Y76846D2*
X76917D1*
X78346D2*
Y76110D1*
Y76846D2*
X78981D1*
X72433Y74091D2*
X77907D1*
X72433Y73894D2*
X77907D1*
X72433Y73698D2*
X77903D1*
X72433Y73501D2*
X77903D1*
X72433Y73304D2*
X73303D1*
X74934D2*
X75307D1*
X76622D2*
X77903D1*
X72433Y73108D2*
X73303D1*
X74972D2*
X75307D1*
X76622D2*
X77900D1*
X72433Y72911D2*
X73303D1*
X74972D2*
X75307D1*
X76622D2*
X77900D1*
X72433Y72714D2*
X73303D1*
X74972D2*
X75307D1*
X76622D2*
X77900D1*
X72433Y72517D2*
X73303D1*
X74972D2*
X75307D1*
X76622D2*
X77897D1*
X72433Y72321D2*
X73303D1*
X74972D2*
X75307D1*
X76622D2*
X77897D1*
X72433Y72124D2*
X73303D1*
X74972D2*
X75307D1*
X76622D2*
X77897D1*
X72433Y71927D2*
X73303D1*
X74972D2*
X75307D1*
X76622D2*
X77894D1*
X72433Y71731D2*
X73303D1*
X74972D2*
X75307D1*
X76622D2*
X77894D1*
X74972Y71534D2*
X75457D1*
X76472D2*
X77894D1*
X74972Y71337D2*
X75457D1*
X76472D2*
X77891D1*
X74972Y71141D2*
X75457D1*
X76472D2*
X77891D1*
X74972Y70944D2*
X75457D1*
X76472D2*
X77891D1*
X74972Y70748D2*
X75457D1*
X76472D2*
X77888D1*
X74972Y70551D2*
X75391D1*
X76609D2*
X77888D1*
X74972Y70354D2*
X75310D1*
X76687D2*
X77888D1*
X74972Y70157D2*
X75294D1*
X76706D2*
X77885D1*
X74972Y69961D2*
X75338D1*
X76662D2*
X77885D1*
X74972Y69764D2*
X75450D1*
X76550D2*
X77885D1*
X74968Y69567D2*
X75713D1*
X76287D2*
X77882D1*
X74968Y69371D2*
X77882D1*
X74968Y69174D2*
X77882D1*
X75293Y74242D2*
X74730D1*
X74694Y74235D1*
X72413D1*
Y71577D1*
X73324D1*
Y73224D1*
X73373Y73308D1*
X73424Y73324D1*
X74853D1*
X74937Y73275D1*
X74953Y73224D1*
X74952Y69148D1*
X77898Y69102D1*
X77906Y70200D1*
X77928Y74235D1*
X75326Y74237D1*
X75428Y73316D2*
X76601D1*
Y71543D1*
X76448D1*
X76451Y71329D1*
Y70720D1*
X76566Y70589D1*
X76616Y70503D1*
X76653Y70411D1*
X76677Y70313D1*
X76687Y70200D1*
X76679Y70100D1*
X76658Y70003D1*
X76622Y69909D1*
X76573Y69822D1*
X76512Y69743D1*
X76441Y69674D1*
X76360Y69615D1*
X76271Y69569D1*
X76176Y69536D1*
X76078Y69518D1*
X75978Y69514D1*
X75879Y69524D1*
X75782Y69549D1*
X75690Y69587D1*
X75605Y69639D1*
X75527Y69702D1*
X75460Y69776D1*
X75404Y69859D1*
X75361Y69949D1*
X75331Y70044D1*
X75316Y70143D1*
X75315Y70243D1*
X75328Y70342D1*
X75356Y70438D1*
X75397Y70529D1*
X75478Y70643D1*
Y71542D1*
X75328Y71543D1*
Y73316D1*
X75428D1*
X75014Y75129D2*
Y74243D1*
X72433Y82771D2*
X74257D1*
X72433Y82574D2*
X72538D1*
X74147D2*
X74255D1*
X72433Y82377D2*
X72538D1*
X74147D2*
X75369D1*
X72433Y82181D2*
X72538D1*
X74147D2*
X75369D1*
X72433Y81984D2*
X72538D1*
X74147D2*
X75369D1*
X72433Y81787D2*
X72538D1*
X74147D2*
X75369D1*
X72433Y81591D2*
X72538D1*
X74147D2*
X75369D1*
X72433Y81394D2*
X75369D1*
X72433Y81197D2*
X75369D1*
X72433Y81001D2*
X75369D1*
X72577Y82702D2*
X74127D1*
Y81532D1*
X72557D1*
Y82702D1*
X72577D1*
X74176Y82967D2*
X72413D1*
Y80945D1*
X75388D1*
Y82491D1*
X74377D1*
X74292Y82540D1*
X74276Y82591D1*
Y82967D1*
X74176D1*
X73342Y82702D2*
Y81533D1*
X72558Y82117D2*
X74127D1*
X72432Y80230D2*
X76320D1*
X72432Y80034D2*
X76320D1*
X72432Y79837D2*
X76320D1*
X72432Y79641D2*
X76320D1*
X72432Y79444D2*
X76320D1*
X72432Y79247D2*
X76320D1*
X72432Y79050D2*
X76320D1*
X72432Y78854D2*
X76155D1*
X72432Y78657D2*
X75908D1*
X72432Y78461D2*
X75264D1*
X72432Y78264D2*
X75058D1*
X72432Y78067D2*
X74861D1*
X72432Y77871D2*
X74664D1*
X67987Y77674D2*
X68164D1*
X69476D2*
X69592D1*
X72432D2*
X74467D1*
X67987Y77477D2*
X68164D1*
X69476D2*
X69592D1*
X72432D2*
X74270D1*
X67987Y77281D2*
X68164D1*
X69476D2*
X69592D1*
X70904D2*
X71027D1*
X72432D2*
X74074D1*
X67987Y77084D2*
X68164D1*
X69476D2*
X69592D1*
X70904D2*
X73877D1*
X67987Y76887D2*
X68164D1*
X69476D2*
X69592D1*
X70904D2*
X73708D1*
X67987Y76691D2*
X68164D1*
X69476D2*
X69592D1*
X70904D2*
X73671D1*
X67987Y76494D2*
X68164D1*
X69476D2*
X69592D1*
X70904D2*
X73671D1*
X67987Y76297D2*
X73671D1*
X67987Y76100D2*
X73671D1*
X67987Y75904D2*
X73458D1*
X67987Y75707D2*
X73458D1*
X67987Y75510D2*
X73458D1*
X67987Y75314D2*
X73458D1*
X67987Y75117D2*
X73458D1*
X67987Y74921D2*
X73458D1*
X67987Y74724D2*
X73458D1*
X67987Y74527D2*
X73458D1*
X67987Y74331D2*
X69952D1*
X69615Y77727D2*
X69613D1*
X69452D1*
X69455Y77659D1*
Y76427D1*
X68184D1*
Y77728D1*
X67967D1*
Y74281D1*
X69364Y74315D1*
X73478Y74420D1*
Y75965D1*
X73688D1*
X73689Y76722D1*
X73703Y76821D1*
X73742Y76913D1*
X73799Y76987D1*
X75223Y78411D1*
X75302Y78471D1*
X75395Y78509D1*
X75488Y78520D1*
X75760D1*
X76343Y78990D1*
X76340Y79639D1*
Y80427D1*
X72413D1*
Y77193D1*
X72364Y77109D1*
X72313Y77093D1*
X71201D1*
X71117Y77142D1*
X70978Y77417D1*
X70884Y77599D1*
Y76427D1*
X69613D1*
Y77727D1*
X70249Y77163D2*
Y76428D1*
X69613Y77163D2*
X70884D1*
X68820D2*
Y76428D1*
X68184Y77163D2*
X69455D1*
X69026Y94678D2*
X77907D1*
X68091Y94482D2*
X77907D1*
X67157Y94285D2*
X77907D1*
X66776Y94088D2*
X77907D1*
X66526Y93892D2*
X77907D1*
X66276Y93695D2*
X77907D1*
X66026Y93498D2*
X77907D1*
X65776Y93302D2*
X69673D1*
X69994D2*
X77907D1*
X65526Y93105D2*
X69192D1*
X70472D2*
X77907D1*
X65276Y92908D2*
X68995D1*
X70672D2*
X77907D1*
X65026Y92712D2*
X68873D1*
X70791D2*
X77907D1*
X64776Y92515D2*
X68807D1*
X70860D2*
X77907D1*
X64526Y92318D2*
X68779D1*
X70888D2*
X77907D1*
X64276Y92122D2*
X68789D1*
X70879D2*
X77907D1*
X64026Y91925D2*
X68839D1*
X70829D2*
X77907D1*
X63776Y91728D2*
X68936D1*
X70732D2*
X77907D1*
X63526Y91532D2*
X69095D1*
X70572D2*
X77907D1*
X63276Y91335D2*
X69382D1*
X70285D2*
X77907D1*
X63026Y91138D2*
X77907D1*
X62776Y90942D2*
X77907D1*
X62526Y90745D2*
X77907D1*
X62276Y90548D2*
X77907D1*
X62026Y90352D2*
X72986D1*
X61776Y90155D2*
X72986D1*
X61526Y89958D2*
X72986D1*
X61276Y89762D2*
X72986D1*
X61026Y89565D2*
X72986D1*
X60776Y89368D2*
X72986D1*
X60526Y89172D2*
X72986D1*
X60276Y88975D2*
X72986D1*
X60060Y88778D2*
X70923D1*
X59932Y88582D2*
X70923D1*
X59800Y88385D2*
X70923D1*
X59672Y88188D2*
X70923D1*
X59544Y87992D2*
X70923D1*
X59413Y87795D2*
X70923D1*
X59285Y87598D2*
X70923D1*
X59157Y87402D2*
X70923D1*
X59026Y87205D2*
X70923D1*
X58897Y87008D2*
X70923D1*
X58769Y86812D2*
X59807D1*
X65422D2*
X70923D1*
X58641Y86615D2*
X59807D1*
X65447D2*
X70923D1*
X58510Y86418D2*
X59807D1*
X65447D2*
X70895D1*
X58382Y86222D2*
X59807D1*
X65447D2*
X70682D1*
X58254Y86025D2*
X59807D1*
X65447D2*
X70473D1*
X58122Y85828D2*
X59807D1*
X65447D2*
X70260D1*
X57994Y85632D2*
X59807D1*
X65447D2*
X70051D1*
X57866Y85435D2*
X59807D1*
X65447D2*
X69842D1*
X57738Y85238D2*
X59807D1*
X65447D2*
X69629D1*
X57607Y85042D2*
X59807D1*
X65447D2*
X69420D1*
X57479Y84845D2*
X59807D1*
X65447D2*
X69207D1*
X57351Y84648D2*
X59807D1*
X65447D2*
X68998D1*
X57219Y84452D2*
X59807D1*
X65447D2*
X68785D1*
X57091Y84255D2*
X59807D1*
X65447D2*
X68064D1*
X56963Y84058D2*
X59807D1*
X65447D2*
X68064D1*
X56832Y83862D2*
X58185D1*
X65447D2*
X68064D1*
X56704Y83665D2*
X58004D1*
X65447D2*
X68064D1*
X56575Y83468D2*
X57823D1*
X65447D2*
X68064D1*
X56447Y83272D2*
X57642D1*
X65447D2*
X68064D1*
X56351Y83075D2*
X57461D1*
X65447D2*
X68064D1*
X56285Y82878D2*
X57276D1*
X65447D2*
X68064D1*
X56222Y82682D2*
X57095D1*
X65447D2*
X68064D1*
X56154Y82485D2*
X56914D1*
X65447D2*
X68064D1*
X56088Y82288D2*
X56732D1*
X65447D2*
X68064D1*
X56026Y82092D2*
X56551D1*
X65447D2*
X68064D1*
X65447Y81895D2*
X68064D1*
X65447Y81698D2*
X68064D1*
X65447Y81502D2*
X68064D1*
X65447Y81305D2*
X68064D1*
X65447Y81108D2*
X68064D1*
X65447Y80912D2*
X68064D1*
X65447Y80715D2*
X68064D1*
X65447Y80518D2*
X68064D1*
X65435Y80322D2*
X68064D1*
X61319Y80125D2*
X68064D1*
X61319Y79928D2*
X68064D1*
X61319Y79732D2*
X68064D1*
X61319Y79535D2*
X68064D1*
X61319Y79338D2*
X67429D1*
X61319Y79142D2*
X67429D1*
X61319Y78945D2*
X67429D1*
X61319Y78748D2*
X67429D1*
X61319Y78552D2*
X67429D1*
X61319Y78355D2*
X67429D1*
X61319Y78158D2*
X67429D1*
X61319Y77962D2*
X67429D1*
X61319Y77765D2*
X67429D1*
X70869Y92256D2*
X70857Y92117D1*
X70826Y91980D1*
X70777Y91849D1*
X70711Y91726D1*
X70629Y91612D1*
X70532Y91511D1*
X70423Y91424D1*
X70303Y91353D1*
X70174Y91298D1*
X70039Y91261D1*
X69900Y91242D1*
X69760Y91243D1*
X69622Y91262D1*
X69487Y91300D1*
X69359Y91355D1*
X69239Y91428D1*
X69130Y91515D1*
X69034Y91617D1*
X68953Y91731D1*
X68887Y91854D1*
X68839Y91986D1*
X68809Y92122D1*
X68798Y92262D1*
X68805Y92402D1*
X68832Y92539D1*
X68876Y92672D1*
X68938Y92797D1*
X69016Y92913D1*
X69110Y93017D1*
X69216Y93108D1*
X69334Y93183D1*
X69461Y93242D1*
X69594Y93284D1*
X69732Y93307D1*
X69872Y93311D1*
X70011Y93296D1*
X70147Y93263D1*
X70277Y93212D1*
X70399Y93143D1*
X70511Y93059D1*
X70611Y92961D1*
X70696Y92850D1*
X70765Y92728D1*
X70818Y92599D1*
X70852Y92463D1*
X70868Y92324D1*
X70869Y92256D1*
X56390Y81895D2*
X58270Y83930D1*
X58341Y83961D1*
X59829D1*
Y86719D1*
X59878Y86803D1*
X59929Y86819D1*
X65327D1*
X65411Y86770D1*
X65427Y86719D1*
Y80368D1*
X65378Y80284D1*
X65327Y80268D1*
X61299D1*
Y77611D1*
X67450D1*
Y79257D1*
X67498Y79341D1*
X67550Y79357D1*
X68085D1*
Y84179D1*
X68134Y84263D1*
X68185Y84279D1*
X68620D1*
X70944Y86446D1*
X70942Y88783D1*
X70991Y88867D1*
X71042Y88883D1*
X73006D1*
Y90371D1*
X73055Y90455D1*
X73106Y90471D1*
X77928D1*
Y94875D1*
X69940D1*
X66958Y94247D1*
X60074Y88831D1*
X56368Y83183D1*
X55940Y81899D1*
X56391Y81897D1*
X69833Y93311D2*
D23*
Y91240D1*
X68798Y92276D2*
X70869D1*
X77990Y94837D2*
D16*
X81006D1*
X77990Y94640D2*
X81334D1*
X77990Y94444D2*
X81662D1*
X77990Y94247D2*
X81990D1*
X77990Y94050D2*
X82318D1*
X77990Y93854D2*
X82647D1*
X82118Y93657D2*
X82975D1*
X82118Y93460D2*
X83303D1*
X82118Y93264D2*
X83631D1*
X82118Y93067D2*
X83956D1*
X82118Y92870D2*
X84284D1*
X82118Y92674D2*
X84612D1*
X82118Y92477D2*
X84940D1*
X82118Y92280D2*
X85268D1*
X82118Y92084D2*
X85596D1*
X82118Y91887D2*
X85925D1*
X82118Y91690D2*
X86253D1*
X82118Y91494D2*
X86581D1*
X82118Y91297D2*
X86906D1*
X82118Y91100D2*
X87234D1*
X82118Y90904D2*
X87562D1*
X82118Y90707D2*
X87890D1*
X82118Y90510D2*
X88087D1*
X82118Y90314D2*
X88096D1*
X82118Y90117D2*
X88106D1*
X82118Y89920D2*
X88115D1*
X82118Y89724D2*
X88125D1*
X82118Y89527D2*
X88134D1*
X82118Y89330D2*
X88143D1*
X82118Y89134D2*
X88153D1*
X82118Y88937D2*
X88162D1*
X82118Y88740D2*
X88171D1*
X82118Y88544D2*
X88181D1*
X82118Y88347D2*
X88193D1*
X82118Y88150D2*
X88203D1*
X82118Y87954D2*
X88212D1*
X82118Y87757D2*
X88221D1*
X82118Y87560D2*
X88231D1*
X82118Y87364D2*
X88240D1*
X82118Y87167D2*
X88250D1*
X82118Y86970D2*
X88259D1*
X80846Y86774D2*
X82003D1*
X82045D2*
X88268D1*
X80846Y86577D2*
X88278D1*
X80846Y86380D2*
X88287D1*
X80846Y86184D2*
X88296D1*
X80846Y85987D2*
X88306D1*
X80846Y85790D2*
X88315D1*
X80846Y85594D2*
X88325D1*
X80846Y85397D2*
X88337D1*
X80846Y85200D2*
X88346D1*
X80846Y85004D2*
X88356D1*
X80846Y84807D2*
X88365D1*
X80846Y84610D2*
X88375D1*
X80846Y84414D2*
X88384D1*
X80846Y84217D2*
X88393D1*
X80846Y84020D2*
X88403D1*
X77513Y83824D2*
X88412D1*
X77513Y83627D2*
X88421D1*
X77513Y83430D2*
X88431D1*
X77513Y83234D2*
X88440D1*
X77513Y83037D2*
X88450D1*
X77513Y82840D2*
X88459D1*
X77513Y82644D2*
X88468D1*
X77513Y82447D2*
X88478D1*
X77513Y82250D2*
X88490D1*
X77513Y82054D2*
X88500D1*
X77513Y81857D2*
X88509D1*
X77513Y81660D2*
X88518D1*
X77513Y81464D2*
X88528D1*
X77513Y81267D2*
X88537D1*
X77513Y81070D2*
X88546D1*
X77513Y80874D2*
X88556D1*
X77513Y80677D2*
X88565D1*
X77513Y80480D2*
X88575D1*
X77513Y80284D2*
X88584D1*
X77513Y80087D2*
X88593D1*
X77513Y79890D2*
X88603D1*
X77513Y79694D2*
X88612D1*
X77513Y79497D2*
X88622D1*
X77513Y79300D2*
X83625D1*
X85608D2*
X88634D1*
X87833Y79104D2*
X88643D1*
X87833Y78907D2*
X88653D1*
X87833Y78710D2*
X88662D1*
X87833Y78514D2*
X88671D1*
X87833Y78317D2*
X88681D1*
X87833Y78120D2*
X88690D1*
X83844Y79314D2*
X85490D1*
X85589Y79301D1*
X85681Y79262D1*
X85762Y79198D1*
X87713D1*
X87797Y79149D1*
X87813Y79098D1*
Y77928D1*
X88722D1*
X88685Y78622D1*
X88103Y90593D1*
X80696Y95036D1*
X78927Y95034D1*
X77969D1*
Y93805D1*
X81997D1*
X82082Y93756D1*
X82097Y93705D1*
Y86878D1*
X82048Y86793D1*
X82082Y86825D1*
X81999Y86778D1*
X80828Y86923D1*
X80827Y84020D1*
X80778Y83936D1*
X80727Y83920D1*
X77493D1*
Y79198D1*
X83471D1*
X83558Y79265D1*
X83650Y79302D1*
X83744Y79314D1*
X83844D1*
X72433Y83565D2*
X75969D1*
X74597Y83368D2*
X75969D1*
X74743Y83171D2*
X75969D1*
X74759Y82975D2*
X75969D1*
X75818Y82778D2*
X75969D1*
X75868Y82581D2*
X76003D1*
X75868Y82385D2*
X76147D1*
X75868Y82188D2*
X76319D1*
X75868Y81991D2*
X76319D1*
X75868Y81795D2*
X76319D1*
X75868Y81598D2*
X76319D1*
X75868Y81401D2*
X76319D1*
X75868Y81205D2*
X76319D1*
X75868Y81008D2*
X76319D1*
X72513Y83429D2*
X74377D1*
X74475Y83416D1*
X74566Y83376D1*
X74643Y83312D1*
X74700Y83230D1*
X74737Y83105D1*
X74739Y82952D1*
X75488Y82953D1*
X75587Y82939D1*
X75678Y82899D1*
X75755Y82836D1*
X75811Y82754D1*
X75848Y82628D1*
X75850Y81491D1*
Y80944D1*
X76340Y80945D1*
Y82210D1*
X76122Y82431D1*
X76059Y82509D1*
X76016Y82599D1*
X75990Y82733D1*
Y83759D1*
X74840Y83761D1*
X72413D1*
Y83429D1*
X72513D1*
X10366Y86264D2*
X14731D1*
X10366Y86067D2*
X14731D1*
X10366Y85870D2*
X14731D1*
X10366Y85674D2*
X14731D1*
X10366Y85477D2*
X14731D1*
X10366Y85280D2*
X14731D1*
X10366Y85084D2*
X14731D1*
X10366Y84887D2*
X14731D1*
X11671Y84690D2*
X11984D1*
X13243D2*
X14731D1*
X11671Y84494D2*
X11984D1*
X13243D2*
X14731D1*
X11671Y84297D2*
X11984D1*
X13243D2*
X14731D1*
X11671Y84100D2*
X11984D1*
X13243D2*
X14731D1*
X11671Y83904D2*
X11984D1*
X13243D2*
X14731D1*
X11671Y83707D2*
X11984D1*
X13243D2*
X14731D1*
X12023Y84745D2*
X13223D1*
Y83643D1*
X14751Y83644D1*
Y86434D1*
X10349Y86433D1*
X10346Y85560D1*
Y83644D1*
X10431D1*
X10430Y84760D1*
X11650D1*
Y83643D1*
X12003Y83645D1*
Y84745D1*
X12023D1*
X12613D2*
Y84035D1*
X12003D2*
X13222D1*
X11040Y84759D2*
Y84050D1*
X10431D2*
X11650D1*
X13243Y82930D2*
X14731D1*
X13243Y82733D2*
X14731D1*
X13243Y82536D2*
X14731D1*
X13243Y82340D2*
X14731D1*
X13243Y82143D2*
X14731D1*
X11954Y81946D2*
X14731D1*
X11954Y81750D2*
X14731D1*
X11954Y81553D2*
X14731D1*
X11954Y81356D2*
X14731D1*
X11954Y81160D2*
X14731D1*
X11954Y80963D2*
X14731D1*
X13223Y83127D2*
Y82025D1*
X12003D1*
Y83127D1*
X11934Y83126D1*
Y80786D1*
X14751D1*
Y83126D1*
X13222D1*
X12613Y82735D2*
Y82025D1*
X12003Y82735D2*
X13222D1*
X33547Y77849D2*
X33657D1*
X35265D2*
X35369D1*
X33547Y77652D2*
X33657D1*
X35265D2*
X35369D1*
X33528Y77456D2*
X33657D1*
X35265D2*
X35369D1*
X33103Y77259D2*
X33657D1*
X35265D2*
X35369D1*
X33103Y77062D2*
X33657D1*
X35265D2*
X38385D1*
X33103Y76866D2*
X33657D1*
X35265D2*
X35957D1*
X37565D2*
X38382D1*
X33103Y76669D2*
X35957D1*
X37565D2*
X38378D1*
X33103Y76472D2*
X35957D1*
X37565D2*
X38375D1*
X33103Y76276D2*
X35957D1*
X37565D2*
X38372D1*
X32100Y76079D2*
X35957D1*
X37565D2*
X38369D1*
X32100Y75882D2*
X35957D1*
X37565D2*
X38366D1*
X32097Y75686D2*
X38366D1*
X32093Y75489D2*
X38363D1*
X32090Y75292D2*
X38360D1*
X32090Y75096D2*
X38357D1*
X32087Y74899D2*
X38353D1*
X32084Y74702D2*
X38350D1*
X32084Y74506D2*
X38347D1*
X32081Y74309D2*
X38344D1*
X32078Y74112D2*
X38341D1*
X32075Y73916D2*
X38338D1*
X32075Y73719D2*
X38335D1*
X32072Y73522D2*
X38332D1*
X33109Y77412D2*
X33081Y77410D1*
X33084Y77216D1*
Y76136D1*
X32082D1*
X32051Y73450D1*
X38352Y73451D1*
X38405Y77092D1*
X35490Y77093D1*
X35406Y77142D1*
X35390Y77193D1*
Y78046D1*
X33526D1*
Y77511D1*
X33477Y77426D1*
X33426Y77411D1*
X33111D1*
X35995Y76984D2*
X37545D1*
Y75814D1*
X35975D1*
Y76984D1*
X35995D1*
X33695Y77934D2*
X35245D1*
Y76764D1*
X33675D1*
Y77934D1*
X33695D1*
X32474Y76846D2*
Y76136D1*
Y76846D2*
X33083D1*
X36760Y76984D2*
Y75815D1*
X35976Y76399D2*
X37545D1*
X34460Y77934D2*
Y76765D1*
X33676Y77349D2*
X35245D1*
X28622Y93203D2*
X28878D1*
X28622Y93007D2*
X28878D1*
X28622Y92810D2*
X28878D1*
X28622Y92613D2*
X28878D1*
X28622Y92417D2*
X28878D1*
X28622Y92220D2*
X28878D1*
X28622Y92023D2*
X28878D1*
X28622Y91827D2*
X28878D1*
X28622Y91630D2*
X28878D1*
X28625Y91433D2*
X28878D1*
X28625Y91237D2*
X31050D1*
X29512Y91040D2*
X31050D1*
X29518Y90843D2*
X31053D1*
X29518Y90647D2*
X31053D1*
X30706Y90450D2*
X31057D1*
X30706Y90253D2*
X31060D1*
X30706Y90057D2*
X31060D1*
X30706Y89860D2*
X31063D1*
X30706Y89663D2*
X31063D1*
X30706Y89467D2*
X31066D1*
X30706Y89270D2*
X31066D1*
X29518Y89073D2*
X31069D1*
X29518Y88877D2*
X31069D1*
X29518Y88680D2*
X31072D1*
X30690Y88483D2*
X31072D1*
X30690Y88287D2*
X31075D1*
X30690Y88090D2*
X31078D1*
X30690Y87893D2*
X31078D1*
X30690Y87697D2*
X31082D1*
X30690Y87500D2*
X31082D1*
X29499Y88625D2*
X30669D1*
Y87453D1*
X31103Y87454D1*
X31050Y93400D1*
X28600D1*
X28605Y91105D1*
X29401Y91100D1*
X29485Y91050D1*
X29500Y91000D1*
Y90534D1*
X30314Y90536D1*
X30686D1*
Y89264D1*
X29500D1*
Y88622D1*
X28918Y93312D2*
X30969D1*
Y91240D1*
X28898D1*
Y93312D1*
X28918D1*
X29933Y88625D2*
Y87989D1*
X30669D1*
X29933Y93311D2*
D23*
Y91240D1*
X28898Y92276D2*
X30969D1*
X29950Y90535D2*
D16*
Y89265D1*
Y89900D2*
X30685D1*
X23522Y89907D2*
X27919D1*
X23525Y89710D2*
X27919D1*
X23525Y89513D2*
X27919D1*
X23528Y89317D2*
X27919D1*
X23528Y89120D2*
X29032D1*
X23528Y88923D2*
X24732D1*
X23531Y88727D2*
X24732D1*
X23531Y88530D2*
X24732D1*
X23534Y88333D2*
X23797D1*
X23534Y88137D2*
X23797D1*
X23537Y87940D2*
X23797D1*
X23537Y87743D2*
X23797D1*
X23537Y87547D2*
X23797D1*
X23540Y87350D2*
X23797D1*
X23540Y87153D2*
X23797D1*
X23543Y86957D2*
X23797D1*
X29051Y89290D2*
X27940D1*
Y90086D1*
X23500Y90085D1*
X23512Y88601D1*
X23524Y86819D1*
X23897D1*
X24750Y86850D1*
Y86866D1*
X24637Y86863D1*
X23817D1*
Y88483D1*
X24751D1*
X24750Y88850D1*
X24799Y88934D1*
X24850Y88950D1*
X25197D1*
X25218Y88970D1*
X25304Y89019D1*
X25400Y89036D1*
X29053D1*
X29050Y89291D1*
X28650Y89900D2*
Y89290D1*
X27940Y89900D2*
X28650D1*
X24377Y88482D2*
Y86863D1*
X23817Y87673D2*
X24377D1*
X25520Y88453D2*
X25670D1*
X26882D2*
X27877D1*
X25523Y88257D2*
X25670D1*
X25523Y88060D2*
X25670D1*
X25523Y87863D2*
X25670D1*
X25523Y87667D2*
X25670D1*
X25526Y87470D2*
X25670D1*
X25526Y87273D2*
X25670D1*
X28020D2*
X29080D1*
X25526Y87077D2*
X25670D1*
X27960D2*
X30130D1*
X25526Y86880D2*
X25670D1*
X27810D2*
X30130D1*
X25529Y86683D2*
X30130D1*
X25529Y86487D2*
X30130D1*
X23703Y86290D2*
X30130D1*
X23703Y86093D2*
X30130D1*
X23703Y85897D2*
X30130D1*
X26882Y85700D2*
X30130D1*
X26882Y85503D2*
X30130D1*
X26882Y85307D2*
X30130D1*
X26882Y85110D2*
X30130D1*
X26882Y84913D2*
X30130D1*
X26882Y84717D2*
X30130D1*
X26882Y84520D2*
X30130D1*
X24973Y84127D2*
X25686D1*
X24973Y83930D2*
X25686D1*
X24973Y83733D2*
X25686D1*
X27998Y88625D2*
X29101D1*
X29100Y88650D1*
X25503D1*
X25504Y87750D1*
X25509Y86405D1*
X25461Y86320D1*
X25410Y86304D1*
X23683Y86302D1*
Y85708D1*
X23792D1*
X23791Y85808D1*
X24962Y85805D1*
X25001Y85808D1*
X26862D1*
Y84437D1*
X30151Y84438D1*
Y87253D1*
X29200Y87250D1*
X29116Y87299D1*
X29100Y87353D1*
X28004D1*
X27996Y87255D1*
X27973Y87157D1*
X27935Y87065D1*
X27882Y86980D1*
X27817Y86904D1*
X27741Y86839D1*
X27656Y86787D1*
X27564Y86749D1*
X27466Y86726D1*
X27367Y86718D1*
X27267Y86726D1*
X27170Y86750D1*
X27078Y86788D1*
X26993Y86841D1*
X26917Y86906D1*
X26863Y86970D1*
X26862Y86837D1*
X25691D1*
Y88508D1*
X26862D1*
Y88362D1*
X27371Y88363D1*
X27896Y88364D1*
X27898Y88625D1*
X27998D1*
X24962Y84139D2*
X24953Y84137D1*
Y83644D1*
X25705D1*
Y84134D1*
X25552Y84137D1*
X24972D1*
X25327Y85808D2*
Y84137D1*
X25472Y77214D2*
X26261D1*
X25244Y77017D2*
X26261D1*
X25016Y76821D2*
X26261D1*
X24785Y76624D2*
X26261D1*
X24655Y76427D2*
X26261D1*
X27988Y76034D2*
X29020D1*
X28044Y75837D2*
X29020D1*
X28035Y75641D2*
X29020D1*
X26283Y77410D2*
X26281D1*
X25684Y77411D1*
X24635Y76512D1*
Y76340D1*
X26282D1*
X26281Y77410D1*
X28981Y77412D2*
Y76110D1*
X27970D1*
X27969Y76031D1*
X27999Y75956D1*
X28022Y75859D1*
X28029Y75764D1*
X28021Y75665D1*
X27989Y75547D1*
X29040D1*
Y77411D1*
X28980D1*
X26281Y76846D2*
X26917D1*
X28346D2*
Y76110D1*
Y76846D2*
X28981D1*
X22433Y74091D2*
X27907D1*
X22433Y73894D2*
X27907D1*
X22433Y73697D2*
X27903D1*
X22433Y73501D2*
X27903D1*
X22433Y73304D2*
X23303D1*
X24934D2*
X25307D1*
X26622D2*
X27903D1*
X22433Y73107D2*
X23303D1*
X24972D2*
X25307D1*
X26622D2*
X27900D1*
X22433Y72911D2*
X23303D1*
X24972D2*
X25307D1*
X26622D2*
X27900D1*
X22433Y72714D2*
X23303D1*
X24972D2*
X25307D1*
X26622D2*
X27900D1*
X22433Y72517D2*
X23303D1*
X24972D2*
X25307D1*
X26622D2*
X27897D1*
X22433Y72321D2*
X23303D1*
X24972D2*
X25307D1*
X26622D2*
X27897D1*
X22433Y72124D2*
X23303D1*
X24972D2*
X25307D1*
X26622D2*
X27897D1*
X22433Y71927D2*
X23303D1*
X24972D2*
X25307D1*
X26622D2*
X27894D1*
X22433Y71731D2*
X23303D1*
X24972D2*
X25307D1*
X26622D2*
X27894D1*
X24972Y71534D2*
X25457D1*
X26472D2*
X27894D1*
X24972Y71337D2*
X25457D1*
X26472D2*
X27891D1*
X24972Y71141D2*
X25457D1*
X26472D2*
X27891D1*
X24972Y70944D2*
X25457D1*
X26472D2*
X27891D1*
X24972Y70747D2*
X25457D1*
X26472D2*
X27888D1*
X24972Y70551D2*
X25391D1*
X26609D2*
X27888D1*
X24972Y70354D2*
X25310D1*
X26687D2*
X27888D1*
X24972Y70157D2*
X25294D1*
X26706D2*
X27885D1*
X24972Y69961D2*
X25338D1*
X26662D2*
X27885D1*
X24972Y69764D2*
X25450D1*
X26550D2*
X27885D1*
X24968Y69567D2*
X25713D1*
X26287D2*
X27882D1*
X24968Y69371D2*
X27882D1*
X24968Y69174D2*
X27882D1*
X25293Y74242D2*
X24730D1*
X24694Y74235D1*
X22413D1*
Y71577D1*
X23324D1*
Y73224D1*
X23373Y73308D1*
X23424Y73324D1*
X24853D1*
X24937Y73275D1*
X24953Y73224D1*
X24952Y69148D1*
X27898Y69102D1*
X27906Y70200D1*
X27928Y74235D1*
X25326Y74237D1*
X25428Y73316D2*
X26601D1*
Y71542D1*
X26448D1*
X26451Y71329D1*
Y70720D1*
X26566Y70589D1*
X26616Y70503D1*
X26654Y70411D1*
X26677Y70313D1*
X26687Y70200D1*
X26679Y70100D1*
X26658Y70003D1*
X26622Y69909D1*
X26573Y69822D1*
X26512Y69743D1*
X26441Y69673D1*
X26360Y69615D1*
X26271Y69569D1*
X26177Y69536D1*
X26078Y69518D1*
X25979Y69514D1*
X25879Y69524D1*
X25782Y69549D1*
X25690Y69587D1*
X25605Y69639D1*
X25527Y69702D1*
X25460Y69776D1*
X25404Y69859D1*
X25361Y69949D1*
X25331Y70044D1*
X25316Y70143D1*
X25315Y70243D1*
X25328Y70342D1*
X25356Y70438D1*
X25397Y70529D1*
X25478Y70643D1*
Y71542D1*
X25328D1*
Y73316D1*
X25428D1*
X25014Y75129D2*
Y74243D1*
X22433Y82771D2*
X24257D1*
X22433Y82574D2*
X22538D1*
X24147D2*
X24255D1*
X22433Y82377D2*
X22538D1*
X24147D2*
X25369D1*
X22433Y82181D2*
X22538D1*
X24147D2*
X25369D1*
X22433Y81984D2*
X22538D1*
X24147D2*
X25369D1*
X22433Y81787D2*
X22538D1*
X24147D2*
X25369D1*
X22433Y81591D2*
X22538D1*
X24147D2*
X25369D1*
X22433Y81394D2*
X25369D1*
X22433Y81197D2*
X25369D1*
X22433Y81001D2*
X25369D1*
X22577Y82702D2*
X24127D1*
Y81532D1*
X22557D1*
Y82702D1*
X22577D1*
X24177Y82967D2*
X22413D1*
Y80945D1*
X25388D1*
Y82491D1*
X24377D1*
X24292Y82540D1*
X24277Y82591D1*
Y82967D1*
X24177D1*
X23342Y82702D2*
Y81533D1*
X22558Y82117D2*
X24127D1*
X22432Y80230D2*
X26321D1*
X22432Y80034D2*
X26321D1*
X22432Y79837D2*
X26321D1*
X22432Y79640D2*
X26321D1*
X22432Y79444D2*
X26321D1*
X22432Y79247D2*
X26321D1*
X22432Y79050D2*
X26321D1*
X22432Y78854D2*
X26155D1*
X22432Y78657D2*
X25908D1*
X22432Y78460D2*
X25264D1*
X22432Y78264D2*
X25058D1*
X22432Y78067D2*
X24861D1*
X22432Y77870D2*
X24664D1*
X17987Y77674D2*
X18164D1*
X19476D2*
X19592D1*
X22432D2*
X24467D1*
X17987Y77477D2*
X18164D1*
X19476D2*
X19592D1*
X22432D2*
X24271D1*
X17987Y77280D2*
X18164D1*
X19476D2*
X19592D1*
X20904D2*
X21027D1*
X22432D2*
X24074D1*
X17987Y77084D2*
X18164D1*
X19476D2*
X19592D1*
X20904D2*
X23877D1*
X17987Y76887D2*
X18164D1*
X19476D2*
X19592D1*
X20904D2*
X23708D1*
X17987Y76690D2*
X18164D1*
X19476D2*
X19592D1*
X20904D2*
X23671D1*
X17987Y76494D2*
X18164D1*
X19476D2*
X19592D1*
X20904D2*
X23671D1*
X17987Y76297D2*
X23671D1*
X17987Y76100D2*
X23671D1*
X17987Y75904D2*
X23458D1*
X17987Y75707D2*
X23458D1*
X17987Y75510D2*
X23458D1*
X17987Y75314D2*
X23458D1*
X17987Y75117D2*
X23458D1*
X17987Y74920D2*
X23458D1*
X17987Y74724D2*
X23458D1*
X17987Y74527D2*
X23458D1*
X17987Y74330D2*
X19952D1*
X19615Y77727D2*
X19613D1*
X19452D1*
X19455Y77659D1*
Y76427D1*
X18184D1*
Y77728D1*
X17967D1*
Y74281D1*
X19364Y74315D1*
X23478Y74420D1*
Y75965D1*
X23688D1*
X23689Y76722D1*
X23703Y76821D1*
X23742Y76913D1*
X23799Y76987D1*
X25223Y78411D1*
X25302Y78471D1*
X25395Y78509D1*
X25488Y78520D1*
X25760D1*
X26343Y78990D1*
X26340Y79639D1*
Y80427D1*
X22413D1*
Y77193D1*
X22364Y77109D1*
X22313Y77093D1*
X21201D1*
X21117Y77142D1*
X20978Y77417D1*
X20884Y77599D1*
Y76427D1*
X19613D1*
Y77727D1*
X20249Y77163D2*
Y76428D1*
X19613Y77163D2*
X20884D1*
X18820D2*
Y76428D1*
X18184Y77163D2*
X19455D1*
X19026Y94678D2*
X27907D1*
X18091Y94482D2*
X27907D1*
X17157Y94285D2*
X27907D1*
X16776Y94088D2*
X27907D1*
X16526Y93892D2*
X27907D1*
X16276Y93695D2*
X27907D1*
X16026Y93498D2*
X27907D1*
X15776Y93302D2*
X19673D1*
X19994D2*
X27907D1*
X15526Y93105D2*
X19192D1*
X20472D2*
X27907D1*
X15276Y92908D2*
X18995D1*
X20672D2*
X27907D1*
X15026Y92712D2*
X18873D1*
X20791D2*
X27907D1*
X14776Y92515D2*
X18807D1*
X20860D2*
X27907D1*
X14526Y92318D2*
X18779D1*
X20888D2*
X27907D1*
X14276Y92122D2*
X18789D1*
X20879D2*
X27907D1*
X14026Y91925D2*
X18839D1*
X20829D2*
X27907D1*
X13776Y91728D2*
X18936D1*
X20732D2*
X27907D1*
X13526Y91532D2*
X19095D1*
X20572D2*
X27907D1*
X13276Y91335D2*
X19382D1*
X20285D2*
X27907D1*
X13026Y91138D2*
X27907D1*
X12776Y90942D2*
X27907D1*
X12526Y90745D2*
X27907D1*
X12276Y90548D2*
X27907D1*
X12026Y90352D2*
X22986D1*
X11776Y90155D2*
X22986D1*
X11526Y89958D2*
X22986D1*
X11276Y89762D2*
X22986D1*
X11026Y89565D2*
X22986D1*
X10776Y89368D2*
X22986D1*
X10526Y89172D2*
X22986D1*
X10276Y88975D2*
X22986D1*
X10060Y88778D2*
X20923D1*
X9932Y88582D2*
X20923D1*
X9801Y88385D2*
X20923D1*
X9672Y88188D2*
X20923D1*
X9544Y87992D2*
X20923D1*
X9413Y87795D2*
X20923D1*
X9285Y87598D2*
X20923D1*
X9157Y87402D2*
X20923D1*
X9026Y87205D2*
X20923D1*
X8897Y87008D2*
X20923D1*
X8769Y86812D2*
X9807D1*
X15422D2*
X20923D1*
X8641Y86615D2*
X9807D1*
X15447D2*
X20923D1*
X8510Y86418D2*
X9807D1*
X15447D2*
X20895D1*
X8382Y86222D2*
X9807D1*
X15447D2*
X20682D1*
X8254Y86025D2*
X9807D1*
X15447D2*
X20473D1*
X8122Y85828D2*
X9807D1*
X15447D2*
X20261D1*
X7994Y85632D2*
X9807D1*
X15447D2*
X20051D1*
X7866Y85435D2*
X9807D1*
X15447D2*
X19842D1*
X7738Y85238D2*
X9807D1*
X15447D2*
X19629D1*
X7607Y85042D2*
X9807D1*
X15447D2*
X19420D1*
X7479Y84845D2*
X9807D1*
X15447D2*
X19207D1*
X7351Y84648D2*
X9807D1*
X15447D2*
X18998D1*
X7219Y84452D2*
X9807D1*
X15447D2*
X18786D1*
X7091Y84255D2*
X9807D1*
X15447D2*
X18064D1*
X6963Y84058D2*
X9807D1*
X15447D2*
X18064D1*
X6832Y83862D2*
X8186D1*
X15447D2*
X18064D1*
X6704Y83665D2*
X8004D1*
X15447D2*
X18064D1*
X6576Y83468D2*
X7823D1*
X15447D2*
X18064D1*
X6447Y83272D2*
X7642D1*
X15447D2*
X18064D1*
X6351Y83075D2*
X7461D1*
X15447D2*
X18064D1*
X6285Y82878D2*
X7276D1*
X15447D2*
X18064D1*
X6222Y82682D2*
X7095D1*
X15447D2*
X18064D1*
X6154Y82485D2*
X6914D1*
X15447D2*
X18064D1*
X6088Y82288D2*
X6732D1*
X15447D2*
X18064D1*
X6026Y82092D2*
X6551D1*
X15447D2*
X18064D1*
X15447Y81895D2*
X18064D1*
X15447Y81698D2*
X18064D1*
X15447Y81502D2*
X18064D1*
X15447Y81305D2*
X18064D1*
X15447Y81108D2*
X18064D1*
X15447Y80912D2*
X18064D1*
X15447Y80715D2*
X18064D1*
X15447Y80518D2*
X18064D1*
X15435Y80322D2*
X18064D1*
X11319Y80125D2*
X18064D1*
X11319Y79928D2*
X18064D1*
X11319Y79732D2*
X18064D1*
X11319Y79535D2*
X18064D1*
X11319Y79338D2*
X17429D1*
X11319Y79142D2*
X17429D1*
X11319Y78945D2*
X17429D1*
X11319Y78748D2*
X17429D1*
X11319Y78552D2*
X17429D1*
X11319Y78355D2*
X17429D1*
X11319Y78158D2*
X17429D1*
X11319Y77962D2*
X17429D1*
X11319Y77765D2*
X17429D1*
X20869Y92256D2*
X20857Y92117D1*
X20826Y91980D1*
X20777Y91849D1*
X20711Y91726D1*
X20629Y91612D1*
X20532Y91511D1*
X20423Y91424D1*
X20303Y91352D1*
X20174Y91298D1*
X20039Y91261D1*
X19900Y91242D1*
X19760Y91243D1*
X19622Y91262D1*
X19487Y91300D1*
X19359Y91355D1*
X19239Y91428D1*
X19130Y91515D1*
X19034Y91617D1*
X18953Y91731D1*
X18887Y91854D1*
X18839Y91986D1*
X18809Y92122D1*
X18798Y92262D1*
X18805Y92402D1*
X18832Y92539D1*
X18876Y92672D1*
X18938Y92797D1*
X19016Y92913D1*
X19110Y93017D1*
X19216Y93108D1*
X19334Y93183D1*
X19461Y93242D1*
X19594Y93284D1*
X19732Y93307D1*
X19872Y93311D1*
X20011Y93296D1*
X20147Y93263D1*
X20277Y93212D1*
X20399Y93143D1*
X20511Y93059D1*
X20611Y92961D1*
X20696Y92850D1*
X20765Y92728D1*
X20818Y92599D1*
X20852Y92463D1*
X20868Y92324D1*
X20869Y92256D1*
X6390Y81895D2*
X8270Y83930D1*
X8341Y83961D1*
X9829D1*
Y86719D1*
X9878Y86803D1*
X9929Y86819D1*
X15327D1*
X15411Y86770D1*
X15427Y86719D1*
Y80368D1*
X15378Y80284D1*
X15327Y80268D1*
X11299D1*
Y77611D1*
X17450D1*
Y79257D1*
X17499Y79341D1*
X17550Y79357D1*
X18085D1*
Y84179D1*
X18134Y84263D1*
X18185Y84279D1*
X18620D1*
X20944Y86446D1*
X20942Y88783D1*
X20991Y88867D1*
X21042Y88883D1*
X23006D1*
Y90371D1*
X23055Y90455D1*
X23106Y90471D1*
X27928D1*
Y94875D1*
X19940D1*
X16958Y94247D1*
X10074Y88831D1*
X6368Y83183D1*
X5940Y81899D1*
X6391Y81897D1*
X19833Y93311D2*
D23*
Y91240D1*
X18798Y92276D2*
X20869D1*
X27990Y94837D2*
D16*
X31006D1*
X27990Y94640D2*
X31334D1*
X27990Y94444D2*
X31662D1*
X27990Y94247D2*
X31990D1*
X27990Y94050D2*
X32318D1*
X27990Y93854D2*
X32647D1*
X32118Y93657D2*
X32975D1*
X32118Y93460D2*
X33303D1*
X32118Y93264D2*
X33631D1*
X32118Y93067D2*
X33956D1*
X32118Y92870D2*
X34284D1*
X32118Y92674D2*
X34612D1*
X32118Y92477D2*
X34940D1*
X32118Y92280D2*
X35268D1*
X32118Y92084D2*
X35597D1*
X32118Y91887D2*
X35925D1*
X32118Y91690D2*
X36253D1*
X32118Y91494D2*
X36581D1*
X32118Y91297D2*
X36906D1*
X32118Y91100D2*
X37234D1*
X32118Y90904D2*
X37562D1*
X32118Y90707D2*
X37890D1*
X32118Y90510D2*
X38087D1*
X32118Y90314D2*
X38097D1*
X32118Y90117D2*
X38106D1*
X32118Y89920D2*
X38115D1*
X32118Y89724D2*
X38125D1*
X32118Y89527D2*
X38134D1*
X32118Y89330D2*
X38143D1*
X32118Y89134D2*
X38153D1*
X32118Y88937D2*
X38162D1*
X32118Y88740D2*
X38172D1*
X32118Y88544D2*
X38181D1*
X32118Y88347D2*
X38193D1*
X32118Y88150D2*
X38203D1*
X32118Y87954D2*
X38212D1*
X32118Y87757D2*
X38222D1*
X32118Y87560D2*
X38231D1*
X32118Y87364D2*
X38240D1*
X32118Y87167D2*
X38250D1*
X32118Y86970D2*
X38259D1*
X30846Y86774D2*
X32003D1*
X32045D2*
X38268D1*
X30846Y86577D2*
X38278D1*
X30846Y86380D2*
X38287D1*
X30846Y86184D2*
X38297D1*
X30846Y85987D2*
X38306D1*
X30846Y85790D2*
X38315D1*
X30846Y85594D2*
X38325D1*
X30846Y85397D2*
X38337D1*
X30846Y85200D2*
X38347D1*
X30846Y85004D2*
X38356D1*
X30846Y84807D2*
X38365D1*
X30846Y84610D2*
X38375D1*
X30846Y84414D2*
X38384D1*
X30846Y84217D2*
X38393D1*
X30846Y84020D2*
X38403D1*
X27513Y83824D2*
X38412D1*
X27513Y83627D2*
X38422D1*
X27513Y83430D2*
X38431D1*
X27513Y83234D2*
X38440D1*
X27513Y83037D2*
X38450D1*
X27513Y82840D2*
X38459D1*
X27513Y82644D2*
X38468D1*
X27513Y82447D2*
X38478D1*
X27513Y82250D2*
X38490D1*
X27513Y82054D2*
X38500D1*
X27513Y81857D2*
X38509D1*
X27513Y81660D2*
X38518D1*
X27513Y81464D2*
X38528D1*
X27513Y81267D2*
X38537D1*
X27513Y81070D2*
X38547D1*
X27513Y80874D2*
X38556D1*
X27513Y80677D2*
X38565D1*
X27513Y80480D2*
X38575D1*
X27513Y80284D2*
X38584D1*
X27513Y80087D2*
X38593D1*
X27513Y79890D2*
X38603D1*
X27513Y79694D2*
X38612D1*
X27513Y79497D2*
X38622D1*
X27513Y79300D2*
X33625D1*
X35608D2*
X38634D1*
X37833Y79104D2*
X38643D1*
X37833Y78907D2*
X38653D1*
X37833Y78710D2*
X38662D1*
X37833Y78514D2*
X38672D1*
X37833Y78317D2*
X38681D1*
X37833Y78120D2*
X38690D1*
X33844Y79314D2*
X35490D1*
X35589Y79301D1*
X35681Y79262D1*
X35762Y79198D1*
X37713D1*
X37797Y79149D1*
X37813Y79098D1*
Y77928D1*
X38722D1*
X38685Y78622D1*
X38103Y90593D1*
X30696Y95036D1*
X28927Y95034D1*
X27969D1*
Y93805D1*
X31997D1*
X32082Y93756D1*
X32097Y93705D1*
Y86878D1*
X32048Y86793D1*
X32082Y86825D1*
X31999Y86778D1*
X30828Y86923D1*
X30827Y84020D1*
X30778Y83936D1*
X30727Y83920D1*
X27493D1*
Y79198D1*
X33471D1*
X33558Y79265D1*
X33650Y79302D1*
X33744Y79314D1*
X33844D1*
X22433Y83565D2*
X25969D1*
X24597Y83368D2*
X25969D1*
X24743Y83171D2*
X25969D1*
X24759Y82975D2*
X25969D1*
X25818Y82778D2*
X25969D1*
X25868Y82581D2*
X26003D1*
X25868Y82385D2*
X26147D1*
X25868Y82188D2*
X26319D1*
X25868Y81991D2*
X26319D1*
X25868Y81795D2*
X26319D1*
X25868Y81598D2*
X26319D1*
X25868Y81401D2*
X26319D1*
X25868Y81205D2*
X26319D1*
X25868Y81008D2*
X26319D1*
X22513Y83429D2*
X24377D1*
X24475Y83416D1*
X24566Y83376D1*
X24643Y83312D1*
X24700Y83230D1*
X24737Y83105D1*
X24739Y82952D1*
X25488Y82953D1*
X25587Y82939D1*
X25678Y82899D1*
X25755Y82836D1*
X25811Y82754D1*
X25848Y82628D1*
X25850Y81491D1*
Y80944D1*
X26340Y80945D1*
Y82210D1*
X26122Y82431D1*
X26059Y82509D1*
X26016Y82599D1*
X25990Y82733D1*
Y83759D1*
X24840Y83761D1*
X22413D1*
Y83429D1*
X22513D1*
D28*
X23771Y28531D3*
Y27231D3*
D29*
X13610Y31071D3*
Y29371D3*
D30*
X16150Y23100D3*
Y25000D3*
D31*
X17103Y32182D3*
X18403D3*
D28*
X20631Y13607D3*
Y12307D3*
D31*
X15709Y10431D3*
X17009D3*
D28*
X35800Y26950D3*
Y25650D3*
D32*
X37000Y37050D3*
D33*
Y34510D3*
D28*
X62613Y34035D3*
Y32735D3*
Y84035D3*
Y82735D3*
X12613Y84035D3*
Y82735D3*
D31*
X79933Y37989D3*
X78633D3*
X79933Y87989D3*
X78633D3*
X29933D3*
X28633D3*
D28*
X76917Y28146D3*
Y26846D3*
Y78146D3*
Y76846D3*
X26917Y78146D3*
Y76846D3*
X70249Y28463D3*
Y27163D3*
Y78463D3*
Y77163D3*
X20249Y78463D3*
Y77163D3*
D34*
X13600Y23062D3*
Y26338D3*
D28*
X82474Y28146D3*
Y26846D3*
Y78146D3*
Y76846D3*
X32474Y78146D3*
Y76846D3*
X69296Y31639D3*
Y32939D3*
Y81639D3*
Y82939D3*
X19296Y81639D3*
Y82939D3*
D35*
X79933Y42276D3*
D36*
X69833D3*
D35*
X79933Y92276D3*
D36*
X69833D3*
D35*
X29933D3*
D36*
X19833D3*
G36*
X10060Y37254D2*
X11263Y38456D1*
X12465Y37254D1*
X11263Y36052D1*
X10060Y37254D1*
G37*
D37*
X13059Y39050D3*
D35*
X25850Y19700D3*
D36*
Y17700D3*
Y15700D3*
X27850D3*
Y17700D3*
Y19700D3*
D38*
X20350Y6500D3*
X22350D3*
X24350D3*
X26350D3*
X28350D3*
X30350D3*
D39*
X6976Y22966D3*
D37*
Y25506D3*
D38*
X30316Y43296D3*
X28316D3*
X26316D3*
X24316D3*
X22316D3*
X20316D3*
D40*
X43017Y19640D3*
Y21640D3*
Y23640D3*
Y25640D3*
Y27640D3*
Y29640D3*
X56912Y29892D3*
Y27892D3*
Y25892D3*
Y23892D3*
Y21892D3*
Y19892D3*
Y79892D3*
Y77892D3*
Y75892D3*
Y73892D3*
Y71892D3*
Y69892D3*
X6912Y79892D3*
Y77892D3*
Y75892D3*
Y73892D3*
Y71892D3*
Y69892D3*
X93050Y20150D3*
Y22150D3*
Y24150D3*
Y26150D3*
Y28150D3*
Y30150D3*
Y70150D3*
Y72150D3*
Y74150D3*
Y76150D3*
Y78150D3*
Y80150D3*
X43050Y70150D3*
Y72150D3*
Y74150D3*
Y76150D3*
Y78150D3*
Y80150D3*
D41*
X9500Y33000D3*
Y28300D3*
D43*
X25711Y33294D3*
X27611D3*
X26661Y35594D3*
X30198Y33258D3*
X32098D3*
X31148Y35558D3*
X21800Y33300D3*
X23700D3*
X22750Y35600D3*
D44*
X9200Y16306D3*
Y18206D3*
X6900Y17256D3*
X71042Y33067D3*
Y31167D3*
X73342Y32117D3*
X71042Y83067D3*
Y81167D3*
X73342Y82117D3*
X21042Y83067D3*
Y81167D3*
X23342Y82117D3*
X86760Y26399D3*
Y28299D3*
X84460Y27349D3*
X86760Y76399D3*
Y78299D3*
X84460Y77349D3*
X36760Y76399D3*
Y78299D3*
X34460Y77349D3*
D28*
X22501Y27231D3*
Y28531D3*
X21072D3*
Y27231D3*
X26350Y39200D3*
Y40500D3*
X22450Y39300D3*
Y40600D3*
X30250Y39400D3*
Y40700D3*
D31*
X33137Y29337D3*
X34437D3*
D28*
X35800Y30300D3*
Y29000D3*
X61040Y32750D3*
Y34050D3*
Y82750D3*
Y84050D3*
X11040Y82750D3*
Y84050D3*
X71995Y35608D3*
Y36908D3*
Y85608D3*
Y86908D3*
X21995Y85608D3*
Y86908D3*
X81045Y28146D3*
Y26846D3*
Y78146D3*
Y76846D3*
X31045Y78146D3*
Y76846D3*
D31*
X79950Y39900D3*
X78650D3*
X79950Y89900D3*
X78650D3*
X29950D3*
X28650D3*
D28*
X79775Y26876D3*
Y28176D3*
Y76876D3*
Y78176D3*
X29775Y76876D3*
Y78176D3*
X78346Y28146D3*
Y26846D3*
Y78146D3*
Y76846D3*
X28346Y78146D3*
Y76846D3*
X68820Y28463D3*
Y27163D3*
Y78463D3*
Y77163D3*
X18820Y78463D3*
Y77163D3*
X73756Y14794D3*
Y16094D3*
Y64794D3*
Y66094D3*
X23756Y64794D3*
Y66094D3*
X75012Y14809D3*
Y16109D3*
Y64809D3*
Y66109D3*
X25012Y64809D3*
Y66109D3*
X76282Y14809D3*
Y16109D3*
Y64809D3*
Y66109D3*
X26282Y64809D3*
Y66109D3*
D45*
X16150Y27261D3*
X17100D3*
X18050D3*
Y29961D3*
X17100D3*
X16150D3*
D46*
X15709Y13924D3*
Y12974D3*
Y12024D3*
X18409D3*
Y13924D3*
D47*
X29961Y23781D3*
X30461D3*
X30961D3*
X31461D3*
X31961D3*
D48*
X32861Y24681D3*
Y25181D3*
Y25681D3*
Y26181D3*
Y26681D3*
D47*
X31961Y27581D3*
X31461D3*
X30961D3*
X30461D3*
X29961D3*
D48*
X29061Y26681D3*
Y26181D3*
Y25681D3*
Y25181D3*
Y24681D3*
D49*
X30961Y25681D3*
D45*
X75964Y25129D3*
X75014D3*
X74064D3*
Y22429D3*
X75964D3*
Y75129D3*
X75014D3*
X74064D3*
Y72429D3*
X75964D3*
X25964Y75129D3*
X25014D3*
X24064D3*
Y72429D3*
X25964D3*
X74377Y34973D3*
X75326D3*
X76276D3*
Y37673D3*
X74377D3*
Y84973D3*
X75326D3*
X76276D3*
Y87673D3*
X74377D3*
X24377Y84973D3*
X25327D3*
X26277D3*
Y87673D3*
X24377D3*
M02*
