G04 DipTrace 2.4.0.2*
%INTop.gtl*%
%MOMM*%
%ADD14C,0.2*%
%ADD15C,0.152*%
%ADD16C,0.3*%
%ADD17C,1.0*%
%ADD18C,0.6*%
%ADD19C,0.8*%
%ADD20C,0.7*%
%ADD21C,0.5*%
%ADD22C,0.33*%
%ADD23R,0.7X0.9*%
%ADD24R,1.0X1.1*%
%ADD25R,1.3X1.5*%
%ADD26R,0.9X0.7*%
%ADD27R,1.5X1.5*%
%ADD29C,1.5*%
%ADD31C,1.7*%
%ADD32R,1.0X2.0*%
%ADD33R,1.7X1.7*%
%ADD34R,2.0X1.0*%
%ADD36R,0.65X1.05*%
%ADD37R,0.6X1.1*%
%ADD38R,1.1X0.6*%
%ADD39O,0.3X0.85*%
%ADD40O,0.85X0.3*%
%ADD41R,2.45X2.45*%
%ADD42R,1.05X0.65*%
%ADD43R,1.35X1.0*%
%FSLAX53Y53*%
G04*
G71*
G90*
G75*
G01*
%LNTop*%
%LPD*%
X33688Y79225D2*
D14*
Y77289D1*
X34135Y76843D1*
X27102Y67587D2*
D15*
X27514D1*
X28578Y66523D1*
Y64777D1*
X27784Y63983D1*
X24768D1*
X22704Y66047D1*
Y71127D1*
X23497Y71921D1*
Y72715D1*
X25403Y74620D1*
Y76049D1*
X27149Y76208D2*
X27467D1*
X27826Y76568D1*
X28313D1*
X9050Y66206D2*
X12225D1*
X17147Y71127D1*
X22704D1*
X25715Y23339D2*
D16*
Y21597D1*
X25720Y21592D1*
X75414Y72079D2*
D14*
Y70810D1*
X25102Y69587D2*
D15*
Y72097D1*
X27467Y74462D1*
X28207D1*
X28313Y74568D1*
X32113Y75568D2*
D17*
X30213D1*
X31948Y83158D2*
X32901D1*
X33023Y83035D1*
X27461Y83194D2*
X28419D1*
X28578Y83035D1*
X23333Y83194D2*
X24133D1*
X24291Y83035D1*
X42867Y69540D2*
X44931D1*
X46360Y70969D1*
Y71921D1*
X47471Y73033D1*
X51917D1*
X52869Y72080D1*
Y70969D1*
X54298Y69540D1*
X56360D1*
X56362Y69542D1*
Y71542D2*
Y69542D1*
X42867Y71540D2*
Y69540D1*
X22383Y85494D2*
D15*
Y87007D1*
X22069Y87322D1*
X73514Y72079D2*
Y70815D1*
X73191Y70492D1*
Y65729D1*
X73206Y65744D1*
X74447D1*
X74462Y65759D1*
X75732D1*
X19067Y32532D2*
X20419D1*
X20880Y32071D1*
Y30247D1*
X20020Y29387D1*
X18591D1*
X25715Y26039D2*
X26673D1*
Y25879D1*
X20957Y29213D2*
Y29387D1*
X20020D1*
X26511Y85494D2*
Y86689D1*
X25879Y87322D1*
X11647Y61182D2*
D18*
X13178Y62713D1*
Y61924D1*
X15559D1*
Y63824D2*
X14289D1*
D17*
X13178Y62713D1*
X21751Y37816D2*
D15*
Y39057D1*
X27149Y38422D2*
Y38898D1*
X28419D1*
X26349D1*
X26033Y38581D1*
X24133Y35881D2*
X22386D1*
X21751Y36516D1*
X20880Y33971D2*
X19206D1*
X19067Y33832D1*
X20880Y33971D2*
Y34693D1*
X21751Y35564D1*
Y36516D1*
X36594Y29213D2*
Y29453D1*
X36199Y29848D1*
X33341D1*
X32865Y29372D1*
X32547D1*
X32245Y29070D1*
X30657D1*
X30483Y28896D1*
X30642D1*
X30801Y29054D1*
X29531Y29084D2*
X28132D1*
X28117Y29069D1*
X26688D1*
Y34279D1*
X26197Y34770D1*
Y35717D1*
X26033Y35881D1*
X26688Y29069D2*
X25259D1*
X23815Y27625D1*
Y26039D1*
X30801Y27754D2*
X29560D1*
X29531Y27784D1*
X23815Y23339D2*
Y21433D1*
X23497Y21116D1*
Y17018D1*
X24768D1*
X26038D1*
X6750Y67156D2*
D19*
X6194D1*
X4445Y68905D1*
Y74620D1*
X5239Y75414D1*
X6818D1*
X6826Y75406D1*
X29213Y77468D2*
D15*
X29065D1*
X28419Y78113D1*
Y81924D1*
X29531D1*
X30007Y82400D1*
Y83116D1*
X30048Y83158D1*
X28419Y81924D2*
X25561D1*
Y83194D1*
Y81924D2*
X21910D1*
X21433Y82400D1*
Y83194D1*
X16353Y82082D2*
Y79863D1*
X16350Y79861D1*
X78083Y87639D2*
X76818D1*
X76043D1*
X75727Y87323D1*
X76818Y87639D2*
Y87004D1*
X71445Y87798D2*
Y86558D1*
X73826Y84623D2*
X72080D1*
X71445Y85258D1*
X68746Y82589D2*
Y82717D1*
X70492D1*
Y84305D1*
X71445Y85258D1*
X68746Y81289D2*
X69540D1*
Y80971D1*
X69699Y80812D1*
X70487D1*
X70492Y80817D1*
X68270Y78113D2*
X69699D1*
X70492Y80817D2*
Y79701D1*
X70175D1*
X69699Y79225D1*
Y78113D1*
X70334D1*
X70969Y77478D1*
X76843Y75414D2*
X76208Y74779D1*
X75414D1*
X86210Y77949D2*
X85580D1*
X84940Y78590D1*
X83194D1*
X82876Y78272D1*
X82400D1*
X81924Y77796D1*
X80495D1*
X79225Y77826D2*
X77826D1*
X77796Y77796D1*
X76367D1*
Y81924D1*
X75890Y82400D1*
Y84459D1*
X75727Y84623D1*
X73514Y74779D2*
Y76372D1*
X74938Y77796D1*
X76367D1*
X80495Y76496D2*
X79254D1*
X79225Y76526D1*
X25102Y65587D2*
X24751D1*
X23339Y67000D1*
Y71127D1*
X23974Y71763D1*
Y72556D1*
X26197Y74779D1*
Y77319D1*
X27784Y78907D1*
X30642Y81765D2*
Y78431D1*
X30166Y77954D1*
Y77468D1*
X30213D1*
X32388Y79225D2*
Y81765D1*
X28640Y54933D2*
Y57535D1*
X31277Y60173D1*
Y73604D1*
X31213Y73668D1*
X42867Y77540D2*
X44552D1*
X44931Y77161D1*
Y75573D1*
X45566Y74938D1*
X53187D1*
X54298Y76049D1*
Y76843D1*
X54933Y77478D1*
X56298D1*
X56362Y77542D1*
X30713Y73668D2*
Y61514D1*
X26673Y57474D1*
Y54966D1*
X26640Y54933D1*
X56362Y75542D2*
X54744D1*
X53663Y74462D1*
X45249D1*
X44296Y75414D1*
X42993D1*
X42867Y75540D1*
X24640Y54933D2*
Y57504D1*
X30166Y63030D1*
Y73620D1*
X30213Y73668D1*
X42867Y73540D2*
X45279D1*
X45566Y73827D1*
X54775D1*
X55092Y73509D1*
X56329D1*
X56362Y73542D1*
X29213Y72874D2*
Y73668D1*
X30998Y85458D2*
Y85854D1*
X29531Y87322D1*
X75255Y26197D2*
X76208D1*
X76367Y26038D1*
X70651Y30166D2*
Y30324D1*
X69857Y29531D1*
X69540D1*
X70334Y32235D2*
X69058D1*
X68587Y32706D1*
X70334Y32235D2*
Y31277D1*
X69699Y30642D1*
Y29689D1*
X69540Y29531D1*
X68111Y29560D2*
X69510D1*
X69540Y29531D1*
X77925Y39057D2*
X76843D1*
X75884D1*
X75568Y38740D1*
X71286Y37975D2*
Y38580D1*
X71763Y39057D1*
X76843Y38580D2*
Y39057D1*
X73668Y36040D2*
X71921D1*
X71286Y36675D1*
Y35881D1*
X70334Y34929D1*
Y34135D1*
X68716D1*
X68587Y34006D1*
X81765Y29244D2*
X80367D1*
X80336Y29213D1*
X81765Y29244D2*
Y29531D1*
X82241Y30007D1*
X85893D1*
X86052Y29848D1*
Y29367D1*
X79066Y29243D2*
X77667D1*
X77637Y29213D1*
X76208D1*
Y33500D1*
X75732Y33976D1*
Y35876D1*
X75568Y36040D1*
X73355Y26197D2*
Y27948D1*
X74620Y29213D1*
X76208D1*
X80336Y27913D2*
X79096D1*
X79066Y27943D1*
X73355Y23496D2*
Y21756D1*
X73033Y21433D1*
Y17177D1*
X74303D1*
X75573D1*
X29713Y73668D2*
Y73168D1*
X29848Y73033D1*
Y72556D1*
X29213Y71921D1*
X17306Y80812D2*
Y79866D1*
X17300Y79861D1*
X29713Y77468D2*
D14*
Y78783D1*
D20*
Y79860D1*
X39533D2*
X39853Y79540D1*
X42867D1*
X39533Y79860D2*
D17*
Y66206D1*
X30640Y57312D1*
D21*
Y54933D1*
X42867Y79540D2*
D17*
X45092D1*
X46201Y78431D1*
Y76049D1*
X52711D1*
X53187Y76526D1*
Y78113D1*
X54616Y79542D1*
X56362D1*
D20*
X25403Y76049D3*
X27149Y76208D3*
X26673Y25879D3*
X20957Y29213D3*
X11647Y61182D3*
X21751Y39057D3*
X27149Y38422D3*
X76818Y87004D3*
X71445Y87798D3*
X70969Y77478D3*
X76843Y75414D3*
X27784Y78907D3*
X30642Y81765D3*
X32388D3*
X29213Y72874D3*
X76367Y26038D3*
X70651Y30166D3*
X71763Y39057D3*
X76843Y38580D3*
X29213Y71921D3*
X17306Y80812D3*
X29713Y79860D3*
X39533D3*
D3*
X18417Y75573D3*
Y74779D3*
Y73985D3*
X20322Y81289D3*
Y80495D3*
Y79701D3*
X24291Y83035D3*
X28578D3*
X33023D3*
X12543Y73350D3*
X21751Y79542D3*
X23021D3*
X13654Y73350D3*
X14765D3*
X15718D3*
X10955Y69063D3*
Y68270D3*
Y67476D3*
X8573Y73350D3*
X9685D3*
X10796D3*
X11749D3*
X33817Y76049D3*
Y75414D3*
Y74779D3*
X34135Y76843D3*
X33500D3*
X21116Y64618D3*
X20322D3*
X19528D3*
X18893D3*
X18099D3*
X18258Y60331D3*
X18893D3*
X19528D3*
X20163D3*
Y60966D3*
X19528D3*
X18893D3*
X18258D3*
X63348Y85575D3*
Y84781D3*
Y83988D3*
X60490Y84781D3*
X63348Y82400D3*
Y81606D3*
Y80971D3*
X62237D3*
X82082Y72556D3*
X83035D3*
X83988D3*
X84940D3*
X76367Y88909D3*
X75573D3*
X77161Y84781D3*
X78748D3*
X74779Y83511D3*
X74462Y81924D3*
Y81289D3*
X73826Y80971D3*
X75414Y70810D3*
X76843Y71763D3*
Y72715D3*
X75097Y76049D3*
X77954Y75573D3*
X76684Y23021D3*
X72239Y72556D3*
X72398Y71763D3*
X75097Y79225D3*
X73350Y78113D3*
X76684Y24450D3*
X70492Y75414D3*
X72239Y24450D3*
Y23339D3*
X70810Y25720D3*
X74938Y30483D3*
X75255Y22069D3*
X73509Y40327D3*
X74462D3*
X75573D3*
X76684D3*
X81924Y25879D3*
X82717D3*
X83670D3*
X84464D3*
X85416D3*
X86210D3*
X77954Y26355D3*
X63348Y37151D3*
X75097Y27784D3*
X63348Y36358D3*
Y35564D3*
Y34929D3*
X61125Y36358D3*
X61443Y32230D3*
X62078D3*
X62713D3*
X63348D3*
Y32865D3*
Y33659D3*
X73985Y33023D3*
Y32388D3*
X74620Y34929D3*
X76684Y36040D3*
X77637D3*
X78748Y35881D3*
X25085Y34770D3*
X27149Y35722D3*
X27784D3*
X28578D3*
X29213D3*
X26990Y23021D3*
Y23815D3*
X22862Y22704D3*
Y23656D3*
X25403Y30324D3*
X22069Y26990D3*
X20957Y25561D3*
X27467Y26990D3*
X25561Y27149D3*
X32547Y25561D3*
X33659D3*
X34611D3*
X35722D3*
X36834D3*
X24609Y32865D3*
Y32071D3*
X26673Y40168D3*
X25561D3*
X24450D3*
X25720Y21592D3*
X13813Y34929D3*
Y35564D3*
Y36199D3*
Y36834D3*
X13336Y33659D3*
X13971D3*
Y32865D3*
Y32230D3*
X13336D3*
X12701D3*
X12066D3*
X77796Y81289D3*
X80653Y81130D3*
X83670D3*
X87004Y80971D3*
Y83511D3*
X86845Y85575D3*
Y87480D3*
Y89544D3*
X81130Y83353D3*
Y84781D3*
X82082Y86369D3*
Y90973D3*
Y92243D3*
X77478Y32865D3*
X80336Y32706D3*
X83353D3*
X86687Y32547D3*
Y35087D3*
X86528Y37151D3*
Y39057D3*
Y41121D3*
X80812Y34929D3*
X81765Y36358D3*
Y37945D3*
Y42549D3*
Y43820D3*
X27943Y32706D3*
X30801Y32547D3*
X33817D3*
X37151Y32388D3*
Y34929D3*
X36993Y36993D3*
Y38898D3*
X31277Y34770D3*
X32230Y36199D3*
Y37786D3*
X17879Y77340D2*
D14*
X19692D1*
X20951D2*
X21120D1*
X17879Y77144D2*
X19692D1*
X20951D2*
X21120D1*
X17879Y76947D2*
X19692D1*
X20951D2*
X21120D1*
X17879Y76750D2*
X19692D1*
X20951D2*
X21120D1*
X19166Y76554D2*
X19692D1*
X20951D2*
X21120D1*
X19173Y76357D2*
X23536D1*
X19173Y76160D2*
X23536D1*
X23557Y76421D2*
X22411D1*
Y77538D1*
X22361Y77521D1*
Y76421D1*
X21141D1*
Y77538D1*
X20934Y77537D1*
X20932Y77301D1*
Y76421D1*
X19712D1*
Y77538D1*
X17859Y77537D1*
X17860Y76625D1*
X19052Y76626D1*
X19136Y76577D1*
X19152Y76526D1*
Y75990D1*
X23556D1*
Y76419D1*
X23021Y77131D2*
Y76421D1*
X22412Y77131D2*
X23021D1*
X21751D2*
Y76421D1*
X21141Y77131D2*
X22361D1*
X20322D2*
Y76421D1*
X19713Y77131D2*
X20932D1*
X17300Y77161D2*
X17860D1*
X21077Y79880D2*
X23536D1*
X21077Y79684D2*
X23536D1*
X21077Y79487D2*
X23536D1*
X21077Y79290D2*
X23536D1*
X22431Y79141D2*
X23557D1*
X23556Y80077D1*
X21057D1*
Y78054D1*
X21142D1*
X21141Y79141D1*
X22361D1*
Y78054D1*
X22411Y78061D1*
Y79141D1*
X22431D1*
X23021Y79140D2*
Y78431D1*
X22412D2*
X23021D1*
X21751Y79140D2*
Y78431D1*
X21141D2*
X22361D1*
X13638Y79722D2*
X13852D1*
X13638Y79525D2*
X13852D1*
X13638Y79328D2*
X13852D1*
X18060D2*
X20680D1*
X13638Y79132D2*
X13852D1*
X18060D2*
X19692D1*
X13638Y78935D2*
X13852D1*
X18060D2*
X19692D1*
X13638Y78738D2*
X13852D1*
X18060D2*
X19692D1*
X13638Y78542D2*
X19692D1*
X12028Y78345D2*
X19692D1*
X15988Y78148D2*
X19692D1*
X15998Y76182D2*
X18614D1*
X15998Y75985D2*
X18614D1*
X18229Y75788D2*
X18614D1*
X18229Y75592D2*
X18614D1*
X18229Y75395D2*
X18614D1*
X18229Y75198D2*
X18614D1*
X18229Y75002D2*
X18614D1*
X18229Y74805D2*
X18614D1*
X18229Y74608D2*
X18614D1*
X18229Y74412D2*
X18614D1*
X18229Y74215D2*
X18614D1*
X18229Y74018D2*
X18614D1*
X18229Y73822D2*
X18614D1*
X16473Y73625D2*
X18614D1*
X13620Y79919D2*
Y78461D1*
X12100D1*
Y79919D1*
X12008Y79918D1*
Y78213D1*
X15877D1*
X15961Y78164D1*
X15977Y78113D1*
Y77973D1*
X16270Y77971D1*
X16731D1*
X16738Y77996D1*
X16815Y78053D1*
X19714Y78054D1*
X19712Y78501D1*
Y79141D1*
X20699D1*
X20698Y79442D1*
X18041D1*
Y78748D1*
X17992Y78664D1*
X17941Y78648D1*
X13971D1*
X13887Y78697D1*
X13871Y78748D1*
Y79918D1*
X13618D1*
X16435Y75789D2*
X18210D1*
Y73769D1*
X16452D1*
X16453Y73609D1*
X18634D1*
Y76267D1*
X16829D1*
X16745Y76316D1*
X16730Y76351D1*
X15976D1*
X15977Y75832D1*
X16356Y75830D1*
X16396Y75820D1*
X12860Y79271D2*
Y78461D1*
X12100Y79271D2*
X13620D1*
X17300Y75789D2*
Y73770D1*
Y74779D2*
X18210D1*
X20322Y79140D2*
Y78431D1*
X19713D2*
X20322D1*
X16350Y77970D2*
Y76351D1*
X9616Y82019D2*
D15*
X13881D1*
X9616Y81873D2*
X13881D1*
X9616Y81726D2*
X12111D1*
X13609D2*
X13881D1*
X9616Y81579D2*
X9714D1*
X11560D2*
X12111D1*
X13609D2*
X13881D1*
X9616Y81433D2*
X9714D1*
X11560D2*
X12111D1*
X13609D2*
X13881D1*
X9616Y81286D2*
X9714D1*
X11560D2*
X12111D1*
X13609D2*
X13881D1*
X9616Y81139D2*
X9714D1*
X11560D2*
X12111D1*
X13609D2*
X13881D1*
X9616Y80993D2*
X9714D1*
X11560D2*
X12111D1*
X13609D2*
X13881D1*
X9616Y80846D2*
X9714D1*
X11560D2*
X12111D1*
X13609D2*
X15786D1*
X9616Y80699D2*
X9714D1*
X11560D2*
X12111D1*
X13609D2*
X15786D1*
X9616Y80553D2*
X9714D1*
X11560D2*
X12111D1*
X13609D2*
X14854D1*
X9616Y80406D2*
X9714D1*
X11560D2*
X12111D1*
X13609D2*
X14854D1*
X9616Y80259D2*
X9714D1*
X11560D2*
X12111D1*
X13609D2*
X14854D1*
X14537Y80113D2*
X14854D1*
X14537Y79966D2*
X14854D1*
X14537Y79819D2*
X14854D1*
X14537Y79673D2*
X14854D1*
X14537Y79526D2*
X14854D1*
X14537Y79379D2*
X14854D1*
X12142Y81754D2*
X13593D1*
Y80252D1*
X14448D1*
X14511Y80215D1*
X14523Y80177D1*
Y79300D1*
X14867Y79303D1*
Y80644D1*
X15802D1*
Y80896D1*
X13971D1*
X13908Y80933D1*
X13896Y80971D1*
Y82166D1*
X9601D1*
Y80252D1*
X9729Y80253D1*
Y81704D1*
X11545D1*
Y80252D1*
X12125D1*
X12127Y80368D1*
Y81754D1*
X12142D1*
X12860D2*
D14*
Y80971D1*
X12127D2*
X13593D1*
X10637Y81704D2*
Y80971D1*
X9730D2*
X11545D1*
X15400Y80643D2*
Y79861D1*
X14868D2*
X15400D1*
X9805Y78700D2*
X11469D1*
X9805Y78504D2*
X11469D1*
X9805Y78307D2*
X11469D1*
X9805Y78111D2*
X11469D1*
X9805Y77914D2*
X11469D1*
X9805Y77717D2*
X11469D1*
X9805Y77520D2*
X14819D1*
X9805Y77324D2*
X14819D1*
X9805Y77127D2*
X12082D1*
X13641D2*
X14819D1*
X9805Y76930D2*
X12082D1*
X13641D2*
X14819D1*
X9805Y76734D2*
X12082D1*
X13641D2*
X14819D1*
X9805Y76537D2*
X12082D1*
X13641D2*
X14819D1*
X9805Y76341D2*
X12082D1*
X13641D2*
X15598D1*
X12120Y77289D2*
X13620D1*
Y76307D1*
X15618Y76308D1*
Y76349D1*
X15280Y76351D1*
X14840D1*
Y77696D1*
X11590D1*
X11506Y77745D1*
X11490Y77796D1*
Y78711D1*
X9784D1*
X9785Y76308D1*
X12100Y76309D1*
Y77289D1*
X12120D1*
X12860D2*
Y76479D1*
X12100D2*
X13620D1*
X10637Y79471D2*
Y78711D1*
X15400Y77161D2*
Y76351D1*
X14841Y77161D2*
X15400D1*
X13638Y75435D2*
X14470D1*
X13638Y75238D2*
X14470D1*
X13638Y75042D2*
X14470D1*
X13638Y74845D2*
X14470D1*
X13638Y74648D2*
X14470D1*
X13638Y74452D2*
X14470D1*
X13638Y74255D2*
X14470D1*
X13638Y74058D2*
X14470D1*
X12028Y73862D2*
X14470D1*
X12028Y73665D2*
X16073D1*
X12028Y73468D2*
X16073D1*
X12028Y73272D2*
X16073D1*
X12028Y73075D2*
X16073D1*
X16095Y73769D2*
X14490D1*
Y75632D1*
X14071D1*
Y75573D1*
X14023Y75489D1*
X13971Y75473D1*
X13620Y75469D1*
Y73969D1*
X12100D1*
Y75473D1*
X12008D1*
Y72974D1*
X16094D1*
Y73771D1*
X15400Y74779D2*
Y73770D1*
X14491Y74779D2*
X15400D1*
X12860D2*
Y73969D1*
X12100Y74779D2*
X13620D1*
X18384Y82262D2*
X19566D1*
X18384Y82065D2*
X19566D1*
X18384Y81869D2*
X20678D1*
X18384Y81672D2*
X20678D1*
X18384Y81475D2*
X20678D1*
X17718Y81279D2*
X20678D1*
X17872Y81082D2*
X20678D1*
X18059Y80885D2*
X20678D1*
X18059Y80689D2*
X20678D1*
X18059Y80492D2*
X20678D1*
X18059Y80295D2*
X20678D1*
X18059Y80099D2*
X20678D1*
X18059Y79902D2*
X20678D1*
X18059Y79705D2*
X20678D1*
X18059Y79509D2*
X20678D1*
X18059Y79312D2*
X20678D1*
X18059Y79115D2*
X19694D1*
X18059Y78919D2*
X19694D1*
X18059Y78722D2*
X19694D1*
X18059Y78525D2*
X19694D1*
X18059Y78329D2*
X19694D1*
X18059Y78132D2*
X19694D1*
X18363Y82459D2*
Y81472D1*
X17246D1*
X17247Y81418D1*
X17331Y81422D1*
X17430Y81409D1*
X17526Y81381D1*
X17616Y81337D1*
X17697Y81280D1*
X17768Y81210D1*
X17827Y81129D1*
X17856Y81070D1*
X17941Y81071D1*
X18025Y81022D1*
X18041Y80971D1*
Y78054D1*
X19713D1*
X19712Y79141D1*
X20699D1*
X20698Y81982D1*
X19687D1*
X19603Y82031D1*
X19587Y82082D1*
Y82459D1*
X18365D1*
X17653Y82082D2*
Y81473D1*
Y82082D2*
X18363D1*
X20322Y79140D2*
Y78431D1*
X19713D2*
X20322D1*
X5498Y73847D2*
X5696D1*
X7955D2*
X11786D1*
X5486Y73651D2*
X5696D1*
X7955D2*
X11786D1*
X5473Y73454D2*
X5696D1*
X7955D2*
X11786D1*
X5464Y73257D2*
X5696D1*
X7955D2*
X11786D1*
X5452Y73061D2*
X5696D1*
X7955D2*
X11786D1*
X5439Y72864D2*
X5696D1*
X7955D2*
X11786D1*
X5426Y72667D2*
X5696D1*
X7955D2*
X11786D1*
X5414Y72471D2*
X5696D1*
X7955D2*
X11786D1*
X5402Y72274D2*
X5696D1*
X7955D2*
X11786D1*
X5389Y72077D2*
X5696D1*
X7955D2*
X11786D1*
X5377Y71881D2*
X5696D1*
X7955D2*
X11786D1*
X5736Y73976D2*
X7936D1*
Y71756D1*
X5716D1*
Y73976D1*
X5736D1*
X11807Y71804D2*
Y74044D1*
X5492D1*
X5346Y71702D1*
X7439Y71704D1*
X11807D1*
Y71804D1*
X6826Y73976D2*
D22*
Y71757D1*
X5717Y72866D2*
X7936D1*
X10439Y69402D2*
D14*
X11627D1*
X10439Y69205D2*
X11627D1*
X10439Y69009D2*
X11627D1*
X10436Y68812D2*
X11627D1*
X9855Y68615D2*
X11627D1*
X9855Y68419D2*
X11627D1*
X9855Y68222D2*
X11627D1*
X9855Y68025D2*
X11627D1*
X9855Y67829D2*
X11627D1*
X9855Y67632D2*
X11627D1*
X8535Y67435D2*
X11627D1*
X10439Y67239D2*
X11627D1*
X10439Y67042D2*
X11627D1*
X8514Y68691D2*
X9835D1*
Y67521D1*
X8514D1*
X8515Y67417D1*
X10320D1*
X10404Y67368D1*
X10420Y67317D1*
Y66941D1*
X11649D1*
Y69599D1*
X10420D1*
Y68905D1*
X10371Y68820D1*
X10320Y68805D1*
X8515D1*
Y68689D1*
X9050Y68690D2*
Y67521D1*
Y68106D2*
X9834D1*
X10977Y88613D2*
X11055D1*
X11168D2*
X11276D1*
X11637Y88219D2*
X11715D1*
X11834Y88023D2*
X11934D1*
X12031Y87826D2*
X12153D1*
X12227Y87629D2*
X12375D1*
X12424Y87433D2*
X12594D1*
X12581Y87236D2*
X12812D1*
X9406Y87039D2*
X9656D1*
X12568D2*
X13034D1*
X9209Y86843D2*
X9834D1*
X12390D2*
X13253D1*
X9170Y86646D2*
X10031D1*
X12193D2*
X13472D1*
X9170Y86449D2*
X10228D1*
X11996D2*
X13694D1*
X9170Y86253D2*
X10425D1*
X11799D2*
X13912D1*
X9170Y86056D2*
X10622D1*
X11602D2*
X14009D1*
X9170Y85859D2*
X10819D1*
X11409D2*
X14009D1*
X9170Y85663D2*
X14009D1*
X9170Y85466D2*
X14009D1*
X9170Y85269D2*
X14009D1*
X9170Y85073D2*
X14009D1*
X9170Y84876D2*
X14009D1*
X9170Y84679D2*
X14009D1*
X9170Y84483D2*
X14009D1*
X9170Y84286D2*
X14009D1*
X9170Y84089D2*
X14009D1*
X9170Y83893D2*
X14009D1*
X9170Y83696D2*
X14009D1*
X9170Y83499D2*
X14009D1*
X9170Y83303D2*
X14009D1*
X9170Y83106D2*
X14009D1*
X9170Y82909D2*
X14009D1*
X9170Y82713D2*
X14009D1*
X9170Y82516D2*
X14009D1*
X9170Y82319D2*
X14009D1*
X9741Y87352D2*
X10959Y88566D1*
X11030Y88602D1*
X11108Y88616D1*
X11187Y88605D1*
X11259Y88571D1*
X11339Y88497D1*
X12524Y87307D1*
X12561Y87236D1*
X12575Y87158D1*
X12564Y87079D1*
X12529Y87007D1*
X12456Y86928D1*
X11266Y85742D1*
X11195Y85705D1*
X11117Y85692D1*
X11038Y85703D1*
X10966Y85737D1*
X10886Y85810D1*
X9701Y87000D1*
X9664Y87071D1*
X9650Y87150D1*
X9661Y87228D1*
X9696Y87300D1*
X9727Y87338D1*
X9741Y87352D1*
X10796Y88450D2*
X9150Y86804D1*
Y82182D1*
X14030D1*
Y86167D1*
X11118Y88772D1*
X10796Y88450D1*
X11112Y88615D2*
D22*
Y85692D1*
X9651Y87154D2*
X12574D1*
X33462Y76070D2*
D14*
X34331D1*
X33462Y75873D2*
X34331D1*
X33443Y75677D2*
X34331D1*
X33437Y75480D2*
X34331D1*
X33462Y75283D2*
X34331D1*
X33462Y75087D2*
X34331D1*
X33462Y74890D2*
X34331D1*
X33462Y74693D2*
X34331D1*
X34330Y76267D2*
X34193Y76236D1*
X34093Y76234D1*
X33994Y76249D1*
X33938Y76268D1*
X33699Y76267D1*
X33558Y76236D1*
X33443Y76237D1*
X33441Y75890D1*
Y75732D1*
X33392Y75647D1*
X33341Y75632D1*
X32794D1*
X32796Y75528D1*
X32794Y75514D1*
X33341D1*
X33425Y75465D1*
X33441Y75414D1*
Y74562D1*
X34352D1*
Y76267D1*
X34337D1*
X32113Y75568D2*
X32798D1*
X32825Y76864D2*
X34332D1*
X32856Y76667D2*
X34332D1*
X32856Y76471D2*
X33063D1*
X32825Y76274D2*
X33063D1*
X32819Y76077D2*
X33063D1*
X33619Y76624D2*
X33743Y76655D1*
X33843Y76659D1*
X33942Y76646D1*
X34011Y76626D1*
X34352D1*
Y77061D1*
X32806D1*
Y76757D1*
X32840Y76645D1*
X32846Y76568D1*
X32835Y76469D1*
X32806Y76383D1*
X32804Y76205D1*
X32791Y76143D1*
X32798Y76048D1*
X32791Y75990D1*
X33082D1*
Y76526D1*
X33131Y76610D1*
X33182Y76626D1*
X33617D1*
X32113Y76068D2*
X32798D1*
X14250Y62099D2*
X14731D1*
X14250Y61902D2*
X14731D1*
X14250Y61705D2*
X14731D1*
X14250Y61509D2*
X14731D1*
X14250Y61312D2*
X15915D1*
X14250Y61115D2*
X15915D1*
X14250Y60919D2*
X14831D1*
X14250Y60722D2*
X14831D1*
X14250Y60525D2*
X14831D1*
X14250Y60329D2*
X14831D1*
X14250Y60132D2*
X14831D1*
X14250Y59935D2*
X14831D1*
X14869Y60941D2*
X15936D1*
X15935Y61362D1*
X15809Y61364D1*
X14749D1*
Y62296D1*
X14230Y62295D1*
Y59796D1*
X14852D1*
X14849Y59861D1*
Y60941D1*
X14869D1*
X15559D2*
Y60331D1*
X14850D2*
X15559D1*
Y61924D2*
Y61365D1*
X14750Y61924D2*
X15559D1*
X16387Y63051D2*
X19407D1*
X16387Y62855D2*
X19407D1*
X16387Y62658D2*
X19407D1*
X16447Y62461D2*
X17382D1*
X19137D2*
X19851D1*
X16472Y62265D2*
X17382D1*
X19137D2*
X19851D1*
X16472Y62068D2*
X17382D1*
X19137D2*
X19851D1*
X16472Y61871D2*
X17382D1*
X19137D2*
X19851D1*
X16472Y61675D2*
X17382D1*
X19137D2*
X19851D1*
X16472Y61478D2*
X17382D1*
X19137D2*
X20997D1*
X16472Y61281D2*
X20997D1*
X16472Y61085D2*
X20997D1*
X17587Y60888D2*
X20997D1*
X17587Y60691D2*
X20997D1*
X17587Y60495D2*
X20997D1*
X17587Y60298D2*
X20997D1*
X17587Y60101D2*
X20997D1*
X21017Y61497D2*
X19871D1*
Y62614D1*
X19528Y62613D1*
X19444Y62662D1*
X19428Y62713D1*
Y63248D1*
X16369D1*
Y62494D1*
X16395Y62486D1*
X16452Y62409D1*
X16453Y60942D1*
X17569Y60941D1*
Y59954D1*
X21016Y59955D1*
Y61496D1*
X17501Y62532D2*
X19117D1*
Y61316D1*
X17401D1*
Y62532D1*
X17501D1*
X20481Y62207D2*
Y61497D1*
X19871Y62207D2*
X20481D1*
X16859Y60941D2*
Y60331D1*
X17569D1*
X15559Y62874D2*
X16369D1*
X17743Y64798D2*
X21473D1*
X17743Y64601D2*
X21473D1*
X17743Y64404D2*
X21473D1*
X19088Y64208D2*
X19852D1*
X21110D2*
X21473D1*
X19088Y64011D2*
X19852D1*
X21110D2*
X21473D1*
X19088Y63814D2*
X19852D1*
X21110D2*
X21473D1*
X19088Y63618D2*
X19852D1*
X21110D2*
X21473D1*
X21110Y63421D2*
X21473D1*
X21110Y63224D2*
X21473D1*
X21110Y63028D2*
X21473D1*
X19891Y64217D2*
X21091D1*
Y62971D1*
X21492Y62972D1*
Y64994D1*
X17723D1*
Y64385D1*
X19069Y64384D1*
Y63606D1*
X19848Y63605D1*
X19871Y63617D1*
Y64217D1*
X19891D1*
X20481Y64216D2*
Y63507D1*
X21091D1*
X18259Y64384D2*
Y63824D1*
X19069D1*
X59816Y85914D2*
X64181D1*
X59816Y85717D2*
X64181D1*
X59816Y85520D2*
X64181D1*
X59816Y85324D2*
X64181D1*
X59816Y85127D2*
X64181D1*
X59816Y84930D2*
X64181D1*
X59816Y84734D2*
X64181D1*
X59816Y84537D2*
X64181D1*
X61121Y84340D2*
X61434D1*
X62693D2*
X64181D1*
X61121Y84144D2*
X61434D1*
X62693D2*
X64181D1*
X61121Y83947D2*
X61434D1*
X62693D2*
X64181D1*
X61121Y83750D2*
X61434D1*
X62693D2*
X64181D1*
X61121Y83554D2*
X61434D1*
X62693D2*
X64181D1*
X61121Y83357D2*
X61434D1*
X62693D2*
X64181D1*
X61473Y84395D2*
X62673D1*
Y83293D1*
X64200Y83294D1*
Y86110D1*
X59796D1*
Y83294D1*
X59881D1*
X59880Y84410D1*
X61100D1*
Y83293D1*
X61453Y83295D1*
Y84395D1*
X61473D1*
X62063D2*
Y83685D1*
X61453D2*
X62672D1*
X60490Y84409D2*
Y83700D1*
X59881D2*
X61100D1*
X62693Y82580D2*
X64181D1*
X62693Y82383D2*
X64181D1*
X62693Y82186D2*
X64181D1*
X62693Y81990D2*
X64181D1*
X62693Y81793D2*
X64181D1*
X61404Y81596D2*
X64181D1*
X61404Y81400D2*
X64181D1*
X61404Y81203D2*
X64181D1*
X61404Y81006D2*
X64181D1*
X61404Y80810D2*
X64181D1*
X61404Y80613D2*
X64181D1*
X62673Y82777D2*
Y81675D1*
X61453D1*
Y82777D1*
X61384Y82776D1*
Y80436D1*
X64200D1*
Y82776D1*
X62672D1*
X62063Y82385D2*
Y81675D1*
X61453Y82385D2*
X62672D1*
X82997Y77499D2*
X83103D1*
X84716D2*
X84820D1*
X82997Y77302D2*
X83103D1*
X84716D2*
X84820D1*
X82978Y77106D2*
X83107D1*
X84716D2*
X84820D1*
X82553Y76909D2*
X83107D1*
X84716D2*
X84820D1*
X82553Y76712D2*
X83107D1*
X84716D2*
X87838D1*
X82553Y76516D2*
X83107D1*
X84716D2*
X85407D1*
X87016D2*
X87838D1*
X82553Y76319D2*
X85407D1*
X87016D2*
X87838D1*
X82553Y76122D2*
X85407D1*
X87016D2*
X87838D1*
X82553Y75926D2*
X85407D1*
X87016D2*
X87838D1*
X81567Y75729D2*
X85407D1*
X87016D2*
X87838D1*
X81567Y75532D2*
X85407D1*
X87016D2*
X87838D1*
X81567Y75336D2*
X87838D1*
X81567Y75139D2*
X87838D1*
X81567Y74942D2*
X87838D1*
X81567Y74746D2*
X87838D1*
X81567Y74549D2*
X87838D1*
X81567Y74352D2*
X87838D1*
X81567Y74156D2*
X87838D1*
X81567Y73959D2*
X87838D1*
X81567Y73762D2*
X87838D1*
X81567Y73566D2*
X87838D1*
X81567Y73369D2*
X87838D1*
X81567Y73172D2*
X87838D1*
X81567Y72976D2*
X87838D1*
X81567Y72779D2*
X87838D1*
X81567Y72582D2*
X87838D1*
X81567Y72386D2*
X87838D1*
X81567Y72189D2*
X87838D1*
X82534Y77061D2*
Y75786D1*
X81547D1*
Y72180D1*
X87857D1*
Y76743D1*
X84940D1*
X84856Y76792D1*
X84840Y76843D1*
Y77696D1*
X82976D1*
Y77161D1*
X82927Y77076D1*
X82876Y77061D1*
X82536D1*
X85445Y76634D2*
X86995D1*
Y75464D1*
X85425D1*
Y76634D1*
X85445D1*
X83145Y77584D2*
X84695D1*
Y76414D1*
X83125D1*
Y77584D1*
X83145D1*
X81924Y76496D2*
Y75786D1*
Y76496D2*
X82533D1*
X86210Y76634D2*
Y75465D1*
X85426Y76049D2*
X86995D1*
X83910Y77584D2*
Y76415D1*
X83126Y76999D2*
X84695D1*
X78074Y92741D2*
X78355D1*
X80413D2*
X80532D1*
X78074Y92544D2*
X78355D1*
X80413D2*
X80532D1*
X78074Y92347D2*
X78355D1*
X80413D2*
X80532D1*
X78074Y92151D2*
X78355D1*
X80413D2*
X80532D1*
X78074Y91954D2*
X78355D1*
X80413D2*
X80532D1*
X78074Y91757D2*
X78355D1*
X80413D2*
X80532D1*
X78074Y91561D2*
X78355D1*
X80413D2*
X80532D1*
X78074Y91364D2*
X78355D1*
X80413D2*
X80532D1*
X78074Y91167D2*
X78355D1*
X80413D2*
X80532D1*
X78074Y90971D2*
X78355D1*
X80413D2*
X80532D1*
X78074Y90774D2*
X80533D1*
X78867Y90577D2*
X80533D1*
X78867Y90381D2*
X80533D1*
X78867Y90184D2*
X80533D1*
X78867Y89987D2*
X80533D1*
X78867Y89791D2*
X80533D1*
X78867Y89594D2*
X80533D1*
X80114Y89397D2*
X80533D1*
X80114Y89201D2*
X80533D1*
X80114Y89004D2*
X80533D1*
X80114Y88807D2*
X80533D1*
X80114Y88611D2*
X80533D1*
X80114Y88414D2*
X80533D1*
X80114Y88217D2*
X80533D1*
X80114Y88021D2*
X80533D1*
X80114Y87824D2*
X80533D1*
X80114Y87627D2*
X80533D1*
X80114Y87431D2*
X80533D1*
X80114Y87234D2*
X80533D1*
X78848Y88249D2*
X80093D1*
Y87104D1*
X80553D1*
Y92937D1*
X78587Y92939D1*
X78054Y92937D1*
Y90756D1*
X78748D1*
X78833Y90707D1*
X78848Y90656D1*
Y89521D1*
X79013Y89519D1*
X80093D1*
Y88299D1*
X78848D1*
Y88246D1*
X78393Y92936D2*
X80393D1*
Y90916D1*
X78373D1*
Y92936D1*
X78393D1*
X79383Y88249D2*
Y87639D1*
X80093D1*
X79383Y92936D2*
D22*
Y90916D1*
X78374Y91926D2*
X80393D1*
X79383Y89519D2*
D14*
Y88300D1*
Y88909D2*
X80093D1*
X72994Y89248D2*
X77352D1*
X72994Y89051D2*
X77352D1*
X72994Y88854D2*
X77352D1*
X72994Y88658D2*
X77352D1*
X72994Y88461D2*
X77352D1*
X72994Y88264D2*
X74659D1*
X72994Y88068D2*
X73246D1*
X74405D2*
X74659D1*
X72994Y87871D2*
X73246D1*
X74405D2*
X74659D1*
X72994Y87674D2*
X73246D1*
X74405D2*
X74659D1*
X72994Y87478D2*
X73246D1*
X74405D2*
X74659D1*
X72994Y87281D2*
X73246D1*
X74405D2*
X74659D1*
X72994Y87084D2*
X73246D1*
X74405D2*
X74659D1*
X72994Y86888D2*
X73246D1*
X74405D2*
X74659D1*
X72994Y86691D2*
X73246D1*
X74405D2*
X74659D1*
X72994Y86494D2*
X74659D1*
X77373Y88374D2*
Y89445D1*
X72974Y89444D1*
Y86469D1*
X74679D1*
Y88274D1*
X74728Y88359D1*
X74779Y88374D1*
X77376D1*
X73287Y88133D2*
X74386D1*
Y86513D1*
X73266D1*
Y88133D1*
X73287D1*
X77374Y88909D2*
X78083D1*
X73826Y88132D2*
Y86513D1*
X73267Y87323D2*
X74386D1*
X77757Y86707D2*
X79580D1*
X77757Y86511D2*
X79580D1*
X77757Y86314D2*
X79580D1*
X77757Y86117D2*
X79580D1*
X73153Y85921D2*
X79580D1*
X73153Y85724D2*
X79580D1*
X73153Y85527D2*
X79580D1*
X76307Y85331D2*
X79580D1*
X76307Y85134D2*
X79580D1*
X76307Y84937D2*
X79580D1*
X76307Y84741D2*
X79580D1*
X76307Y84544D2*
X79580D1*
X76307Y84347D2*
X79580D1*
X76307Y84151D2*
X79580D1*
X74423Y83757D2*
X75136D1*
X74423Y83561D2*
X75136D1*
X74423Y83364D2*
X75136D1*
X73367Y85433D2*
X74386Y85430D1*
X74377Y85433D1*
X76287D1*
Y84086D1*
X78155Y84088D1*
X79601D1*
Y86904D1*
X77737D1*
Y86052D1*
X77688Y85967D1*
X77637Y85952D1*
X73133D1*
Y85358D1*
X73267D1*
X73266Y85433D1*
X73367D1*
X75156Y83813D2*
X74402D1*
X74403Y83294D1*
X75155D1*
Y83816D1*
X74776Y85432D2*
Y83813D1*
X74922Y76864D2*
X75736D1*
X74694Y76667D2*
X75736D1*
X74466Y76471D2*
X75736D1*
X74235Y76274D2*
X75736D1*
X74105Y76077D2*
X75736D1*
X77438Y75684D2*
X78470D1*
X77469Y75487D2*
X78470D1*
X77460Y75291D2*
X78470D1*
X75757Y75990D2*
Y77061D1*
X75134D1*
X74085Y76162D1*
Y75990D1*
X75757D1*
X78406Y77061D2*
Y75786D1*
X77419D1*
Y75612D1*
X77439Y75546D1*
X77453Y75414D1*
X77445Y75315D1*
X77419Y75197D1*
X78490D1*
Y77061D1*
X78405D1*
X75757Y76496D2*
X76367D1*
X77796D2*
Y75786D1*
Y76496D2*
X78405D1*
X74253Y73938D2*
X74660D1*
X71883Y73741D2*
X77357D1*
X71883Y73544D2*
X77357D1*
X71883Y73347D2*
X77357D1*
X71883Y73151D2*
X77357D1*
X71883Y72954D2*
X72753D1*
X74384D2*
X77357D1*
X71883Y72758D2*
X72753D1*
X74422D2*
X74835D1*
X75993D2*
X77357D1*
X71883Y72561D2*
X72753D1*
X74422D2*
X74835D1*
X75993D2*
X77357D1*
X71883Y72364D2*
X72753D1*
X74422D2*
X74835D1*
X75993D2*
X77357D1*
X71883Y72168D2*
X72753D1*
X74422D2*
X74835D1*
X75993D2*
X77357D1*
X71883Y71971D2*
X72753D1*
X74422D2*
X74835D1*
X75993D2*
X77357D1*
X71883Y71774D2*
X72753D1*
X74422D2*
X74835D1*
X75993D2*
X77357D1*
X71883Y71578D2*
X72753D1*
X74422D2*
X74835D1*
X75993D2*
X77357D1*
X71883Y71381D2*
X72753D1*
X74422D2*
X74835D1*
X75993D2*
X77357D1*
X74422Y71184D2*
X74913D1*
X75915D2*
X77357D1*
X74422Y70987D2*
X74810D1*
X76018D2*
X77357D1*
X74422Y70791D2*
X74785D1*
X76043D2*
X77357D1*
X74422Y70594D2*
X74825D1*
X76003D2*
X77357D1*
X74422Y70397D2*
X74944D1*
X75884D2*
X77357D1*
X76016Y70710D2*
X75992Y70614D1*
X75952Y70522D1*
X75898Y70438D1*
X75830Y70364D1*
X75752Y70302D1*
X75700Y70273D1*
X77378Y70275D1*
Y73885D1*
X74779D1*
X74695Y73934D1*
X74664Y73969D1*
X74242D1*
X74235Y73944D1*
X74158Y73886D1*
X71863Y73885D1*
Y71227D1*
X72774D1*
Y72874D1*
X72823Y72958D1*
X72874Y72974D1*
X74303D1*
X74387Y72925D1*
X74403Y72874D1*
Y70275D1*
X75125D1*
X75010Y70353D1*
X74941Y70425D1*
X74884Y70508D1*
X74842Y70598D1*
X74815Y70694D1*
X74804Y70794D1*
X74810Y70893D1*
X74832Y70991D1*
X74869Y71083D1*
X74921Y71169D1*
X75017Y71270D1*
X74854Y71269D1*
Y72889D1*
X75974D1*
Y71269D1*
X75815D1*
X75877Y71207D1*
X75936Y71126D1*
X75980Y71037D1*
X76010Y70942D1*
X76024Y70810D1*
X76016Y70710D1*
X74464Y74779D2*
Y73969D1*
X71883Y82421D2*
X73707D1*
X71883Y82224D2*
X71988D1*
X73597D2*
X73705D1*
X71883Y82027D2*
X71988D1*
X73597D2*
X74819D1*
X71883Y81831D2*
X71988D1*
X73597D2*
X74819D1*
X71883Y81634D2*
X71988D1*
X73597D2*
X74819D1*
X71883Y81437D2*
X71988D1*
X73597D2*
X74819D1*
X71883Y81241D2*
X71988D1*
X73597D2*
X74819D1*
X71883Y81044D2*
X74819D1*
X71883Y80847D2*
X74819D1*
X71883Y80651D2*
X74819D1*
X72027Y82352D2*
X73577D1*
Y81182D1*
X72007D1*
Y82352D1*
X72027D1*
X73627Y82617D2*
X71863D1*
Y80595D1*
X74838D1*
Y82141D1*
X73826D1*
X73742Y82190D1*
X73727Y82241D1*
Y82617D1*
X73627D1*
X72792Y82352D2*
Y81183D1*
X72008Y81767D2*
X73577D1*
X71882Y79880D2*
X75770D1*
X71882Y79684D2*
X75770D1*
X71882Y79487D2*
X75770D1*
X71882Y79290D2*
X75770D1*
X71882Y79094D2*
X75770D1*
X71882Y78897D2*
X75770D1*
X71882Y78700D2*
X75770D1*
X71882Y78504D2*
X75602D1*
X71882Y78307D2*
X75358D1*
X71882Y78111D2*
X74802D1*
X71882Y77914D2*
X74561D1*
X71882Y77717D2*
X74364D1*
X71882Y77520D2*
X74167D1*
X67437Y77324D2*
X67639D1*
X68898D2*
X69067D1*
X71882D2*
X73971D1*
X67437Y77127D2*
X67639D1*
X68898D2*
X69067D1*
X71882D2*
X73774D1*
X67437Y76930D2*
X67639D1*
X68898D2*
X69067D1*
X70329D2*
X70477D1*
X71882D2*
X73577D1*
X67437Y76734D2*
X67639D1*
X68898D2*
X69067D1*
X70329D2*
X73380D1*
X67437Y76537D2*
X67639D1*
X68898D2*
X69067D1*
X70329D2*
X73202D1*
X67437Y76341D2*
X67639D1*
X68898D2*
X69067D1*
X70329D2*
X73158D1*
X67437Y76144D2*
X67639D1*
X68898D2*
X69067D1*
X70329D2*
X73158D1*
X67437Y75947D2*
X73158D1*
X67437Y75751D2*
X73158D1*
X67437Y75554D2*
X72933D1*
X67437Y75357D2*
X72933D1*
X67437Y75160D2*
X72933D1*
X67437Y74964D2*
X72933D1*
X67437Y74767D2*
X72933D1*
X67437Y74570D2*
X72933D1*
X67437Y74374D2*
X72933D1*
X67437Y74177D2*
X72933D1*
X67437Y73980D2*
X69402D1*
X70309Y77305D2*
Y76103D1*
X69089D1*
Y77379D1*
X68880Y77378D1*
Y76103D1*
X67660D1*
Y77379D1*
X67417Y77378D1*
Y73931D1*
X68814Y73965D1*
X72953Y74071D1*
X72954Y75589D1*
X73176D1*
X73178Y76372D1*
X73193Y76471D1*
X73241Y76567D1*
X73418Y76751D1*
X74700Y78033D1*
X74780Y78092D1*
X74883Y78127D1*
X75138Y78132D1*
X75160D1*
X75793Y78640D1*
X75790Y79289D1*
Y80077D1*
X71863D1*
Y76843D1*
X71814Y76759D1*
X71763Y76743D1*
X70651D1*
X70567Y76792D1*
X70428Y77067D1*
X70309Y77304D1*
X69699Y76813D2*
Y76104D1*
X69089Y76813D2*
X70308D1*
X68270D2*
Y76104D1*
X67660Y76813D2*
X68879D1*
X59657Y37331D2*
X64022D1*
X59657Y37134D2*
X64022D1*
X59657Y36938D2*
X64022D1*
X59657Y36741D2*
X64022D1*
X59657Y36544D2*
X64022D1*
X59657Y36348D2*
X64022D1*
X59657Y36151D2*
X64022D1*
X59657Y35954D2*
X64022D1*
X60962Y35758D2*
X61288D1*
X62550D2*
X64022D1*
X60962Y35561D2*
X61288D1*
X62550D2*
X64022D1*
X60962Y35364D2*
X61288D1*
X62550D2*
X64022D1*
X60962Y35168D2*
X61288D1*
X62550D2*
X64022D1*
X60962Y34971D2*
X61288D1*
X62550D2*
X64022D1*
X60962Y34774D2*
X61288D1*
X62550D2*
X64022D1*
X61329Y35797D2*
X62529D1*
Y34711D1*
X64042D1*
Y37528D1*
X59637D1*
Y34711D1*
X59722D1*
X59721Y35827D1*
X60941D1*
Y34710D1*
X61309Y34711D1*
Y35797D1*
X61329D1*
X61919D2*
Y35087D1*
X61309D2*
X62529D1*
X60331Y35827D2*
Y35117D1*
X59722D2*
X60941D1*
X62550Y33997D2*
X64022D1*
X62550Y33800D2*
X64022D1*
X62550Y33604D2*
X64022D1*
X62550Y33407D2*
X64022D1*
X62550Y33210D2*
X64022D1*
X61245Y33014D2*
X64022D1*
X61245Y32817D2*
X64022D1*
X61245Y32620D2*
X64022D1*
X61245Y32424D2*
X64022D1*
X61245Y32227D2*
X64022D1*
X61245Y32030D2*
X64022D1*
X62529Y34194D2*
Y33077D1*
X61309D1*
Y34194D1*
X61225D1*
Y31853D1*
X64042D1*
Y34194D1*
X62526D1*
X61919Y33787D2*
Y33078D1*
X61309Y33787D2*
X62529D1*
X82838Y28916D2*
X82945D1*
X84557D2*
X84661D1*
X82838Y28720D2*
X82945D1*
X84557D2*
X84661D1*
X82819Y28523D2*
X82948D1*
X84557D2*
X84661D1*
X82394Y28326D2*
X82948D1*
X84557D2*
X84661D1*
X82394Y28130D2*
X82948D1*
X84557D2*
X87679D1*
X82394Y27933D2*
X82948D1*
X84557D2*
X85248D1*
X86857D2*
X87679D1*
X82394Y27736D2*
X85248D1*
X86857D2*
X87679D1*
X82394Y27540D2*
X85248D1*
X86857D2*
X87679D1*
X82394Y27343D2*
X85248D1*
X86857D2*
X87679D1*
X81409Y27146D2*
X85248D1*
X86857D2*
X87679D1*
X81409Y26950D2*
X85248D1*
X86857D2*
X87679D1*
X81409Y26753D2*
X87679D1*
X81409Y26556D2*
X87679D1*
X81409Y26360D2*
X87679D1*
X81409Y26163D2*
X87679D1*
X81409Y25966D2*
X87679D1*
X81409Y25770D2*
X87679D1*
X81409Y25573D2*
X87679D1*
X81409Y25376D2*
X87679D1*
X82375Y28478D2*
Y27234D1*
X81388D1*
X81389Y25344D1*
X87698D1*
Y28160D1*
X84781D1*
X84697Y28209D1*
X84681Y28260D1*
Y29113D1*
X82817D1*
Y28578D1*
X82768Y28494D1*
X82717Y28478D1*
X82377D1*
X85287Y28052D2*
X86837D1*
Y26882D1*
X85267D1*
Y28052D1*
X85287D1*
X82987Y29002D2*
X84537D1*
Y27832D1*
X82967D1*
Y29002D1*
X82987D1*
X81765Y27944D2*
Y27234D1*
Y27944D2*
X82374D1*
X86052Y28051D2*
Y26882D1*
X85267Y27467D2*
X86836D1*
X83752Y29001D2*
Y27832D1*
X82967Y28417D2*
X84536D1*
X77916Y44158D2*
X78196D1*
X80255D2*
X80373D1*
X77916Y43961D2*
X78196D1*
X80255D2*
X80373D1*
X77916Y43765D2*
X78196D1*
X80255D2*
X80373D1*
X77916Y43568D2*
X78196D1*
X80255D2*
X80373D1*
X77916Y43371D2*
X78196D1*
X80255D2*
X80373D1*
X77916Y43175D2*
X78196D1*
X80255D2*
X80373D1*
X77916Y42978D2*
X78196D1*
X80255D2*
X80373D1*
X77916Y42781D2*
X78196D1*
X80255D2*
X80373D1*
X77916Y42585D2*
X78196D1*
X80255D2*
X80373D1*
X77916Y42388D2*
X78196D1*
X80255D2*
X80373D1*
X77916Y42191D2*
X80374D1*
X78708Y41995D2*
X80374D1*
X78708Y41798D2*
X80374D1*
X78708Y41601D2*
X80374D1*
X78708Y41405D2*
X80374D1*
X78708Y41208D2*
X80374D1*
X78708Y41011D2*
X80374D1*
X79983Y40815D2*
X80374D1*
X79983Y40618D2*
X80374D1*
X79983Y40421D2*
X80374D1*
X79983Y40225D2*
X80374D1*
X79983Y40028D2*
X80374D1*
X79983Y39831D2*
X80374D1*
X79955Y39635D2*
X80374D1*
X79955Y39438D2*
X80374D1*
X79955Y39241D2*
X80374D1*
X79955Y39045D2*
X80374D1*
X79955Y38848D2*
X80374D1*
X79955Y38651D2*
X80374D1*
X78689Y39667D2*
X79935D1*
Y38521D1*
X80395Y38522D1*
Y44355D1*
X78428Y44356D1*
X77896Y44355D1*
Y42173D1*
X78590D1*
X78674Y42124D1*
X78689Y42073D1*
Y40939D1*
X78964Y40937D1*
X79964D1*
Y39717D1*
X78689D1*
Y39664D1*
X78235Y44353D2*
X80235D1*
Y42333D1*
X78215D1*
Y44353D1*
X78235D1*
X79225Y39666D2*
Y39057D1*
X79934D1*
X79225Y44353D2*
D22*
Y42334D1*
X78215Y43343D2*
X80234D1*
X79254Y40936D2*
D14*
Y39717D1*
Y40327D2*
X79964D1*
X72835Y40665D2*
X77225D1*
X72835Y40468D2*
X77225D1*
X72835Y40272D2*
X77225D1*
X72835Y40075D2*
X77225D1*
X72835Y39878D2*
X77225D1*
X72835Y39682D2*
X74500D1*
X72835Y39485D2*
X73087D1*
X74246D2*
X74500D1*
X72835Y39288D2*
X73087D1*
X74246D2*
X74500D1*
X72835Y39092D2*
X73087D1*
X74246D2*
X74500D1*
X72835Y38895D2*
X73087D1*
X74246D2*
X74500D1*
X72835Y38698D2*
X73087D1*
X74246D2*
X74500D1*
X72835Y38502D2*
X73087D1*
X74246D2*
X74500D1*
X72835Y38305D2*
X73087D1*
X74246D2*
X74500D1*
X72835Y38108D2*
X73087D1*
X74246D2*
X74500D1*
X72835Y37912D2*
X74500D1*
X77244Y39791D2*
Y40862D1*
X72815D1*
Y37886D1*
X74520D1*
Y39692D1*
X74569Y39776D1*
X74620Y39792D1*
X77242D1*
X73128Y39550D2*
X74228D1*
Y37930D1*
X73108D1*
Y39550D1*
X73128D1*
X77245Y40327D2*
X77954D1*
X73668Y39550D2*
Y37930D1*
X73108Y38740D2*
X74227D1*
X77599Y38125D2*
X79421D1*
X77599Y37928D2*
X79421D1*
X77599Y37732D2*
X79421D1*
X77599Y37535D2*
X79421D1*
X72994Y37338D2*
X79421D1*
X72994Y37142D2*
X79421D1*
X72994Y36945D2*
X79421D1*
X76149Y36748D2*
X79421D1*
X76149Y36552D2*
X79421D1*
X76149Y36355D2*
X79421D1*
X76149Y36158D2*
X79421D1*
X76149Y35962D2*
X79421D1*
X76149Y35765D2*
X79421D1*
X76149Y35568D2*
X79421D1*
X74264Y35175D2*
X74977D1*
X74264Y34978D2*
X74977D1*
X74264Y34782D2*
X74977D1*
X73208Y36850D2*
X74228Y36847D1*
X74218Y36850D1*
X76128D1*
Y35503D1*
X77997Y35505D1*
X79442D1*
Y38322D1*
X77578D1*
Y37469D1*
X77529Y37385D1*
X77478Y37369D1*
X72974D1*
Y36775D1*
X73108D1*
Y36850D1*
X73208D1*
X74997Y35230D2*
X74243D1*
X74244Y34711D1*
X74997D1*
Y35233D1*
X74618Y36850D2*
Y35230D1*
X74094Y25355D2*
X74501D1*
X71724Y25158D2*
X77198D1*
X71724Y24962D2*
X77198D1*
X71724Y24765D2*
X77198D1*
X71724Y24568D2*
X77198D1*
X71724Y24372D2*
X72595D1*
X74225D2*
X77198D1*
X71724Y24175D2*
X72595D1*
X74263D2*
X74595D1*
X75916D2*
X77198D1*
X71724Y23978D2*
X72595D1*
X74263D2*
X74501D1*
X76013D2*
X77198D1*
X71724Y23782D2*
X72595D1*
X74263D2*
X74501D1*
X76013D2*
X77198D1*
X71724Y23585D2*
X72595D1*
X74263D2*
X74501D1*
X76013D2*
X77198D1*
X71724Y23388D2*
X72595D1*
X74263D2*
X74501D1*
X76013D2*
X77198D1*
X71724Y23192D2*
X72595D1*
X74263D2*
X74501D1*
X76013D2*
X77198D1*
X71724Y22995D2*
X72595D1*
X74263D2*
X74501D1*
X76013D2*
X77198D1*
X71724Y22798D2*
X72595D1*
X74263D2*
X74501D1*
X76013D2*
X77198D1*
X74263Y22602D2*
X74501D1*
X76013D2*
X77198D1*
X74263Y22405D2*
X74501D1*
X76013D2*
X77198D1*
X74263Y22208D2*
X74501D1*
X76013D2*
X77198D1*
X74263Y22012D2*
X74501D1*
X76013D2*
X77198D1*
X74263Y21815D2*
X74501D1*
X76013D2*
X77198D1*
X74263Y21618D2*
X74501D1*
X76013D2*
X77198D1*
X74263Y21422D2*
X74563D1*
X75947D2*
X77198D1*
X74263Y21225D2*
X77198D1*
X74263Y21028D2*
X77198D1*
X74263Y20832D2*
X77198D1*
X74522Y25387D2*
X74084D1*
X74076Y25361D1*
X73999Y25304D1*
X71704Y25303D1*
Y22645D1*
X72615D1*
Y24291D1*
X72664Y24376D1*
X72715Y24391D1*
X74144D1*
X74228Y24342D1*
X74244Y24291D1*
Y20740D1*
X77219D1*
Y25303D1*
X74620D1*
X74536Y25352D1*
X74577Y25314D1*
X74795Y24306D2*
X75815D1*
Y24222D1*
X75906Y24166D1*
X75966Y24087D1*
X75992Y23974D1*
Y21592D1*
X75973Y21495D1*
X75918Y21411D1*
X75837Y21355D1*
X75732Y21332D1*
X74779D1*
X74682Y21351D1*
X74598Y21405D1*
X74541Y21487D1*
X74519Y21592D1*
Y23974D1*
X74538Y24071D1*
X74592Y24155D1*
X74666Y24208D1*
X74695Y24287D1*
Y24306D1*
X74795D1*
X74305Y26197D2*
Y25387D1*
X71724Y33838D2*
X73548D1*
X71724Y33642D2*
X71829D1*
X73438D2*
X73546D1*
X71724Y33445D2*
X71829D1*
X73438D2*
X74660D1*
X71724Y33248D2*
X71829D1*
X73438D2*
X74660D1*
X71724Y33051D2*
X71829D1*
X73438D2*
X74660D1*
X71724Y32855D2*
X71829D1*
X73438D2*
X74660D1*
X71724Y32658D2*
X71829D1*
X73438D2*
X74660D1*
X71724Y32462D2*
X74660D1*
X71724Y32265D2*
X74660D1*
X71724Y32068D2*
X74660D1*
X71869Y33770D2*
X73419D1*
Y32600D1*
X71849D1*
Y33770D1*
X71869D1*
X73468Y34035D2*
X71704D1*
Y32012D1*
X74679D1*
Y33559D1*
X73668D1*
X73583Y33607D1*
X73568Y33659D1*
Y34035D1*
X73468D1*
X72634Y33769D2*
Y32600D1*
X71849Y33185D2*
X73418D1*
X71724Y34791D2*
X75377D1*
X71724Y34594D2*
X75377D1*
X71724Y34397D2*
X75377D1*
X73939Y34201D2*
X75377D1*
X73949Y34004D2*
X75377D1*
X75011Y33807D2*
X75421D1*
X75058Y33611D2*
X75602D1*
X75058Y33414D2*
X75612D1*
X75058Y33217D2*
X75612D1*
X75058Y33021D2*
X75612D1*
X75058Y32824D2*
X75612D1*
X75058Y32627D2*
X75612D1*
X75058Y32431D2*
X75612D1*
X75058Y32234D2*
X75612D1*
X75058Y32037D2*
X75612D1*
X75049Y31841D2*
X75612D1*
X71724Y31644D2*
X75612D1*
X71724Y31447D2*
X75612D1*
X71724Y31251D2*
X75612D1*
X71724Y31054D2*
X75612D1*
X71724Y30857D2*
X75612D1*
X71724Y30661D2*
X75612D1*
X71724Y30464D2*
X75612D1*
X71724Y30267D2*
X75612D1*
X71724Y30071D2*
X75612D1*
X71724Y29874D2*
X74327D1*
X71724Y29677D2*
X74130D1*
X71724Y29481D2*
X73934D1*
X71724Y29284D2*
X73737D1*
X71724Y29087D2*
X73540D1*
X71724Y28891D2*
X73343D1*
X67278Y28694D2*
X67480D1*
X68739D2*
X68909D1*
X71724D2*
X73146D1*
X67278Y28497D2*
X67480D1*
X68739D2*
X68909D1*
X70171D2*
X70243D1*
X71724D2*
X72949D1*
X67278Y28301D2*
X67480D1*
X68739D2*
X68909D1*
X70171D2*
X70340D1*
X71724D2*
X72752D1*
X67278Y28104D2*
X67480D1*
X68739D2*
X68909D1*
X70171D2*
X72555D1*
X67278Y27907D2*
X67480D1*
X68739D2*
X68909D1*
X70171D2*
X72437D1*
X67278Y27711D2*
X67480D1*
X68739D2*
X68909D1*
X70171D2*
X72437D1*
X67278Y27514D2*
X72437D1*
X67278Y27317D2*
X72437D1*
X67278Y27121D2*
X72437D1*
X67278Y26924D2*
X72437D1*
X67278Y26727D2*
X72437D1*
X67278Y26531D2*
X72437D1*
X67278Y26334D2*
X72437D1*
X67278Y26137D2*
X72437D1*
X67278Y25941D2*
X72437D1*
X67278Y25744D2*
X72437D1*
X67278Y25547D2*
X72437D1*
X67278Y25351D2*
X72437D1*
X70150Y28722D2*
Y27521D1*
X68930D1*
Y28796D1*
X68722D1*
X68721Y27550D1*
X67501D1*
Y28796D1*
X67258D1*
Y25344D1*
X72456D1*
X72458Y27946D1*
X72486Y28014D1*
X74394Y29920D1*
X74462Y29948D1*
X75632D1*
Y33601D1*
X75494Y33738D1*
X75435Y33819D1*
X75400Y33921D1*
X75396Y34176D1*
Y34985D1*
X74032Y34987D1*
X71704D1*
Y34395D1*
X73668D1*
X73765Y34376D1*
X73849Y34322D1*
X73905Y34240D1*
X73928Y34135D1*
Y33919D1*
X74779D1*
X74877Y33900D1*
X74960Y33845D1*
X75017Y33764D1*
X75039Y33659D1*
Y31912D1*
X75020Y31815D1*
X74966Y31731D1*
X74884Y31674D1*
X74779Y31652D1*
X71701D1*
X71704Y31087D1*
Y28260D1*
X71655Y28176D1*
X71604Y28160D1*
X70492D1*
X70408Y28209D1*
X70269Y28484D1*
X70150Y28722D1*
X69540Y28231D2*
Y27521D1*
X68930Y28231D2*
X70149D1*
X68111Y28260D2*
Y27551D1*
X67501Y28260D2*
X68721D1*
X27587Y45746D2*
X30666D1*
X27587Y45549D2*
X31053D1*
X27587Y45352D2*
X31438D1*
X27587Y45156D2*
X31825D1*
X27587Y44959D2*
X32209D1*
X27587Y44762D2*
X32594D1*
X31715Y44566D2*
X32981D1*
X31715Y44369D2*
X33366D1*
X31715Y44172D2*
X33753D1*
X31715Y43976D2*
X34138D1*
X31715Y43779D2*
X34525D1*
X31715Y43582D2*
X34909D1*
X31715Y43386D2*
X35297D1*
X31715Y43189D2*
X35681D1*
X31715Y42992D2*
X36066D1*
X31715Y42796D2*
X36453D1*
X31715Y42599D2*
X36838D1*
X31715Y42402D2*
X37225D1*
X31715Y42206D2*
X37609D1*
X31715Y42009D2*
X37997D1*
X31715Y41812D2*
X38300D1*
X31715Y41616D2*
X38300D1*
X31715Y41419D2*
X38300D1*
X31715Y41222D2*
X38300D1*
X31715Y41026D2*
X38300D1*
X31715Y40829D2*
X38300D1*
X31715Y40632D2*
X38300D1*
X31715Y40436D2*
X38300D1*
X31715Y40239D2*
X38300D1*
X31715Y40042D2*
X38300D1*
X31715Y39846D2*
X38300D1*
X31715Y39649D2*
X38300D1*
X31715Y39452D2*
X38300D1*
X31715Y39256D2*
X38300D1*
X31715Y39059D2*
X38300D1*
X31715Y38862D2*
X38300D1*
X31715Y38666D2*
X38300D1*
X31715Y38469D2*
X38300D1*
X31715Y38272D2*
X38300D1*
X31715Y38076D2*
X38300D1*
X31712Y37879D2*
X38300D1*
X30443Y37682D2*
X38300D1*
X30443Y37486D2*
X38300D1*
X30443Y37289D2*
X38300D1*
X30443Y37092D2*
X38300D1*
X30443Y36896D2*
X38300D1*
X30443Y36699D2*
X38300D1*
X30443Y36502D2*
X38300D1*
X30443Y36306D2*
X38300D1*
X30443Y36109D2*
X38300D1*
X30443Y35912D2*
X38300D1*
X30443Y35716D2*
X38300D1*
X30443Y35519D2*
X38300D1*
X30443Y35322D2*
X38300D1*
X30443Y35126D2*
X38300D1*
X30443Y34929D2*
X38300D1*
X27110Y34732D2*
X38300D1*
X27110Y34536D2*
X38300D1*
X27110Y34339D2*
X38300D1*
X27110Y34142D2*
X38300D1*
X27110Y33946D2*
X38300D1*
X27110Y33749D2*
X38300D1*
X27110Y33552D2*
X38300D1*
X27110Y33356D2*
X38300D1*
X27110Y33159D2*
X38300D1*
X27110Y32962D2*
X38300D1*
X27110Y32766D2*
X38300D1*
X27110Y32569D2*
X38300D1*
X27110Y32372D2*
X38300D1*
X27110Y32176D2*
X38300D1*
X27110Y31979D2*
X38300D1*
X27110Y31782D2*
X38300D1*
X27110Y31586D2*
X38300D1*
X27110Y31389D2*
X38300D1*
X27110Y31192D2*
X38300D1*
X27110Y30996D2*
X38300D1*
X27110Y30799D2*
X38300D1*
X27110Y30602D2*
X38300D1*
X27110Y30406D2*
X38300D1*
X27110Y30209D2*
X38300D1*
X37431Y30012D2*
X38300D1*
X37431Y29816D2*
X38300D1*
X37431Y29619D2*
X38300D1*
X37431Y29422D2*
X38300D1*
X37431Y29226D2*
X38300D1*
X37431Y29029D2*
X38300D1*
X33441Y30184D2*
X36199D1*
X36297Y30169D1*
X36398Y30118D1*
X36490Y30107D1*
X37310D1*
X37395Y30058D1*
X37410Y30007D1*
Y28837D1*
X38322D1*
Y41854D1*
X30301Y45942D1*
X27567D1*
Y44713D1*
X31595D1*
X31679Y44664D1*
X31695Y44613D1*
Y37945D1*
X31646Y37861D1*
X31595Y37845D1*
X30424D1*
Y34929D1*
X30375Y34844D1*
X30324Y34829D1*
X27090D1*
Y30107D1*
X33125D1*
X33184Y30145D1*
X33286Y30180D1*
X33441Y30184D1*
X74582Y28123D2*
X75578D1*
X76836D2*
X77009D1*
X74582Y27926D2*
X75578D1*
X76836D2*
X77009D1*
X74582Y27729D2*
X75578D1*
X76836D2*
X77009D1*
X74582Y27533D2*
X75578D1*
X76836D2*
X77009D1*
X74582Y27336D2*
X75578D1*
X76836D2*
X77009D1*
X76011Y27139D2*
X78312D1*
X76011Y26943D2*
X78312D1*
X76011Y26746D2*
X78312D1*
X76718Y26549D2*
X78312D1*
X76818Y28320D2*
Y27203D1*
X75975Y27200D1*
X75990Y27149D1*
Y26533D1*
X76015Y26536D1*
X76101Y26587D1*
X76195Y26623D1*
X76292Y26643D1*
X76392Y26647D1*
X76491Y26635D1*
X76587Y26607D1*
X76677Y26563D1*
X76759Y26505D1*
X76810Y26455D1*
X78331D1*
Y28319D1*
X78246D1*
X78247Y27203D1*
X77027D1*
Y28320D1*
X76815Y28319D1*
X75598Y27249D2*
Y28320D1*
X74562Y28319D1*
Y27249D1*
X75596D1*
X76208Y27913D2*
Y27203D1*
X75598Y27913D2*
X76818D1*
X77637D2*
Y27203D1*
X77027Y27913D2*
X78246D1*
X74899Y22497D2*
X75611D1*
X74899Y22300D2*
X75611D1*
X74899Y22104D2*
X75611D1*
X74899Y21907D2*
X75611D1*
X74899Y21710D2*
X75611D1*
X75632Y22686D2*
X74879D1*
Y21692D1*
X75632D1*
Y22689D1*
X75255Y23496D2*
Y22687D1*
X10122Y37172D2*
X14487D1*
X10122Y36976D2*
X14487D1*
X10122Y36779D2*
X14487D1*
X10122Y36582D2*
X14487D1*
X10122Y36386D2*
X14487D1*
X10122Y36189D2*
X14487D1*
X10122Y35992D2*
X14487D1*
X10122Y35796D2*
X14487D1*
X11427Y35599D2*
X11753D1*
X13014D2*
X14487D1*
X11427Y35402D2*
X11753D1*
X13014D2*
X14487D1*
X11427Y35206D2*
X11753D1*
X13014D2*
X14487D1*
X11427Y35009D2*
X11753D1*
X13014D2*
X14487D1*
X11427Y34812D2*
X11753D1*
X13014D2*
X14487D1*
X11427Y34616D2*
X11753D1*
X13014D2*
X14487D1*
X11794Y35639D2*
X12994D1*
Y34552D1*
X14507D1*
Y37369D1*
X10102D1*
Y34552D1*
X10187D1*
X10186Y35669D1*
X11406D1*
Y34552D1*
X11774D1*
Y35639D1*
X11794D1*
X12384Y35638D2*
Y34929D1*
X11774D2*
X12993D1*
X10796Y35668D2*
Y34959D1*
X10187D2*
X11406D1*
X13015Y33838D2*
X14487D1*
X13015Y33642D2*
X14487D1*
X13015Y33445D2*
X14487D1*
X13015Y33248D2*
X14487D1*
X13015Y33051D2*
X14487D1*
X11710Y32855D2*
X14487D1*
X11710Y32658D2*
X14487D1*
X11710Y32462D2*
X14487D1*
X11710Y32265D2*
X14487D1*
X11710Y32068D2*
X14487D1*
X11710Y31871D2*
X14487D1*
X12994Y34036D2*
Y32919D1*
X11774D1*
Y34036D1*
X11690Y34035D1*
Y31695D1*
X14507D1*
Y34035D1*
X12991D1*
X12384Y33629D2*
Y32919D1*
X11774Y33629D2*
X12993D1*
X33303Y28758D2*
X33488D1*
X33303Y28561D2*
X33488D1*
X33284Y28364D2*
X33488D1*
X32875Y28168D2*
X33488D1*
X32875Y27971D2*
X33488D1*
X35097D2*
X38144D1*
X32875Y27774D2*
X33488D1*
X35097D2*
X35788D1*
X37397D2*
X38144D1*
X32875Y27578D2*
X35788D1*
X37397D2*
X38144D1*
X32875Y27381D2*
X35788D1*
X37397D2*
X38144D1*
X32875Y27184D2*
X35788D1*
X37397D2*
X38144D1*
X31873Y26988D2*
X35788D1*
X37397D2*
X38144D1*
X31873Y26791D2*
X35788D1*
X37397D2*
X38144D1*
X31873Y26594D2*
X38144D1*
X31873Y26398D2*
X38144D1*
X31873Y26201D2*
X38144D1*
X31873Y26004D2*
X38144D1*
X31873Y25808D2*
X38144D1*
X31873Y25611D2*
X38144D1*
X31873Y25414D2*
X38144D1*
X31873Y25218D2*
X38144D1*
X32855Y28319D2*
Y27060D1*
X31853D1*
Y25185D1*
X38163D1*
Y28002D1*
X35246D1*
X35162Y28051D1*
X35146Y28102D1*
Y28954D1*
X33282D1*
Y28419D1*
X33233Y28335D1*
X33182Y28319D1*
X32854D1*
X35829Y27898D2*
X37379D1*
Y26728D1*
X35809D1*
Y27898D1*
X35829D1*
X33529Y28848D2*
X35079D1*
Y27678D1*
X33509D1*
Y28848D1*
X33529D1*
X32245Y27770D2*
Y27060D1*
Y27770D2*
X32855D1*
X36594Y27898D2*
Y26728D1*
X35809Y27313D2*
X37378D1*
X34294Y28848D2*
Y27678D1*
X33509Y28263D2*
X35078D1*
X28380Y43999D2*
X28661D1*
X30720D2*
X30838D1*
X28380Y43803D2*
X28661D1*
X30720D2*
X30838D1*
X28380Y43606D2*
X28661D1*
X30720D2*
X30838D1*
X28380Y43409D2*
X28661D1*
X30720D2*
X30838D1*
X28380Y43213D2*
X28661D1*
X30720D2*
X30838D1*
X28380Y43016D2*
X28661D1*
X30720D2*
X30838D1*
X28380Y42819D2*
X28661D1*
X30720D2*
X30838D1*
X28380Y42623D2*
X28661D1*
X30720D2*
X30838D1*
X28380Y42426D2*
X28661D1*
X30720D2*
X30838D1*
X28380Y42229D2*
X28661D1*
X30720D2*
X30838D1*
X28380Y42033D2*
X30839D1*
X29173Y41836D2*
X30839D1*
X29173Y41639D2*
X30839D1*
X29173Y41443D2*
X30839D1*
X29173Y41246D2*
X30839D1*
X29173Y41049D2*
X30839D1*
X29173Y40853D2*
X30839D1*
X30435Y40656D2*
X30839D1*
X30435Y40459D2*
X30839D1*
X30435Y40263D2*
X30839D1*
X30435Y40066D2*
X30839D1*
X30435Y39869D2*
X30839D1*
X30435Y39673D2*
X30839D1*
X30448Y39476D2*
X30839D1*
X30448Y39279D2*
X30839D1*
X30448Y39083D2*
X30839D1*
X30448Y38886D2*
X30839D1*
X30448Y38689D2*
X30839D1*
X30448Y38493D2*
X30839D1*
X29154Y39508D2*
X30429D1*
Y38362D1*
X30859Y38363D1*
Y44196D1*
X28893Y44197D1*
X28360Y44196D1*
Y42014D1*
X29054D1*
X29139Y41965D1*
X29154Y41914D1*
Y40793D1*
X30414D1*
Y39573D1*
X29154D1*
Y39505D1*
X28699Y44195D2*
X30699D1*
Y42175D1*
X28679D1*
Y44195D1*
X28699D1*
X29719Y39507D2*
Y38898D1*
X30429D1*
X29689Y44194D2*
D22*
Y42175D1*
X28680Y43185D2*
X30699D1*
X29704Y40792D2*
D14*
Y39573D1*
Y40183D2*
X30414D1*
X23300Y40506D2*
X27674D1*
X23300Y40310D2*
X27674D1*
X23300Y40113D2*
X27674D1*
X23300Y39916D2*
X27674D1*
X23300Y39720D2*
X27674D1*
X23300Y39523D2*
X24965D1*
X23300Y39326D2*
X23552D1*
X24711D2*
X24965D1*
X23300Y39130D2*
X23552D1*
X24711D2*
X24965D1*
X23300Y38933D2*
X23552D1*
X24711D2*
X24965D1*
X23300Y38736D2*
X23552D1*
X24711D2*
X24965D1*
X23300Y38540D2*
X23552D1*
X24711D2*
X24965D1*
X23300Y38343D2*
X23552D1*
X24711D2*
X24965D1*
X23300Y38146D2*
X23552D1*
X24711D2*
X24965D1*
X23300Y37950D2*
X23552D1*
X24711D2*
X24965D1*
X23300Y37753D2*
X24965D1*
X27694Y39653D2*
Y40704D1*
X23280Y40703D1*
Y37728D1*
X24985D1*
Y39533D1*
X25034Y39617D1*
X25085Y39633D1*
X27694D1*
Y39653D1*
X23593Y39391D2*
X24693D1*
Y37771D1*
X23573D1*
Y39391D1*
X23593D1*
X27695Y40183D2*
X28404D1*
X24133Y39391D2*
Y37772D1*
X23573Y38581D2*
X24692D1*
X28063Y37966D2*
X29886D1*
X28063Y37769D2*
X29886D1*
X28063Y37573D2*
X29886D1*
X28063Y37376D2*
X29886D1*
X23459Y37179D2*
X29886D1*
X23459Y36983D2*
X29886D1*
X23459Y36786D2*
X29886D1*
X26613Y36589D2*
X29886D1*
X26613Y36393D2*
X29886D1*
X26613Y36196D2*
X29886D1*
X26613Y35999D2*
X29886D1*
X26613Y35803D2*
X29886D1*
X26613Y35606D2*
X29886D1*
X26613Y35409D2*
X29886D1*
X24729Y35016D2*
X25442D1*
X24729Y34819D2*
X25442D1*
X24729Y34623D2*
X25442D1*
X23673Y36691D2*
X24693Y36688D1*
X24683Y36691D1*
X26593D1*
Y35344D1*
X28461Y35346D1*
X29907D1*
Y38163D1*
X28043D1*
Y37310D1*
X27994Y37226D1*
X27943Y37210D1*
X23439D1*
Y36616D1*
X23573D1*
Y36691D1*
X23673D1*
X25462Y35071D2*
X24708D1*
X24709Y34552D1*
X25461D1*
Y35074D1*
X25083Y36691D2*
Y35072D1*
X24559Y25196D2*
X24966D1*
X22189Y24999D2*
X27663D1*
X22189Y24803D2*
X27663D1*
X22189Y24606D2*
X27663D1*
X22189Y24409D2*
X27663D1*
X22189Y24213D2*
X23059D1*
X24846D2*
X27663D1*
X22189Y24016D2*
X23059D1*
X24887D2*
X25135D1*
X26293D2*
X27663D1*
X22189Y23819D2*
X23059D1*
X24887D2*
X25135D1*
X26293D2*
X27663D1*
X22189Y23623D2*
X23059D1*
X24887D2*
X25135D1*
X26293D2*
X27663D1*
X22189Y23426D2*
X23059D1*
X24887D2*
X25135D1*
X26293D2*
X27663D1*
X22189Y23229D2*
X23059D1*
X24887D2*
X25135D1*
X26293D2*
X27663D1*
X22189Y23033D2*
X23059D1*
X24887D2*
X25135D1*
X26293D2*
X27663D1*
X22189Y22836D2*
X23059D1*
X24887D2*
X25135D1*
X26293D2*
X27663D1*
X22189Y22639D2*
X23059D1*
X24887D2*
X25135D1*
X26293D2*
X27663D1*
X24887Y22443D2*
X25284D1*
X26143D2*
X27663D1*
X24887Y22246D2*
X25284D1*
X26143D2*
X27663D1*
X24887Y22049D2*
X25284D1*
X26143D2*
X27663D1*
X24887Y21853D2*
X25150D1*
X26290D2*
X27663D1*
X24887Y21656D2*
X25094D1*
X26346D2*
X27663D1*
X24887Y21459D2*
X25106D1*
X26334D2*
X27663D1*
X24887Y21263D2*
X25188D1*
X26253D2*
X27663D1*
X24887Y21066D2*
X25391D1*
X26049D2*
X27663D1*
X24887Y20869D2*
X27663D1*
X26322Y21493D2*
X26298Y21396D1*
X26258Y21304D1*
X26204Y21220D1*
X26137Y21146D1*
X26058Y21084D1*
X25971Y21036D1*
X25877Y21003D1*
X25778Y20985D1*
X25678Y20984D1*
X25580Y20999D1*
X25485Y21030D1*
X25396Y21076D1*
X25316Y21135D1*
X25247Y21207D1*
X25190Y21290D1*
X25148Y21380D1*
X25121Y21477D1*
X25110Y21576D1*
X25116Y21676D1*
X25138Y21773D1*
X25175Y21866D1*
X25227Y21951D1*
X25304Y22037D1*
X25305Y22532D1*
X25155Y22529D1*
Y24149D1*
X26275D1*
Y22529D1*
X26122D1*
X26125Y22048D1*
X26183Y21990D1*
X26242Y21909D1*
X26286Y21819D1*
X26316Y21724D1*
X26330Y21592D1*
X26322Y21493D1*
X24987Y25229D2*
X24548D1*
X24541Y25202D1*
X24464Y25145D1*
X22169Y25144D1*
Y22486D1*
X23080D1*
Y24133D1*
X23129Y24217D1*
X23180Y24233D1*
X24768D1*
X24852Y24184D1*
X24868Y24133D1*
Y20740D1*
X27684D1*
Y25144D1*
X25085D1*
X25001Y25193D1*
X25042Y25155D1*
X24765Y26039D2*
Y25229D1*
X22189Y33679D2*
X24013D1*
X22189Y33483D2*
X22375D1*
X22189Y33286D2*
X22375D1*
X23984D2*
X25125D1*
X22189Y33089D2*
X22375D1*
X23984D2*
X25125D1*
X22189Y32893D2*
X22375D1*
X23984D2*
X25125D1*
X22189Y32696D2*
X22375D1*
X23984D2*
X25125D1*
X22189Y32499D2*
X22375D1*
X23984D2*
X25125D1*
X22189Y32303D2*
X25125D1*
X22189Y32106D2*
X25125D1*
X22189Y31909D2*
X25125D1*
X22415Y33606D2*
X23965D1*
Y32436D1*
X22395D1*
Y33606D1*
X22415D1*
X23933Y33876D2*
X22169D1*
Y31853D1*
X25144D1*
Y33400D1*
X24133D1*
X24048Y33449D1*
X24033Y33500D1*
Y33876D1*
X23933D1*
X23180Y33605D2*
Y32436D1*
X22395Y33021D2*
X23965D1*
X22029Y34791D2*
X25842D1*
X22029Y34594D2*
X25889D1*
X22029Y34397D2*
X26073D1*
X24282Y34201D2*
X26077D1*
X24410Y34004D2*
X26077D1*
X24413Y33807D2*
X26077D1*
X25498Y33611D2*
X26077D1*
X25523Y33414D2*
X26077D1*
X25523Y33217D2*
X26077D1*
X25523Y33021D2*
X26077D1*
X25523Y32824D2*
X26077D1*
X25523Y32627D2*
X26077D1*
X25523Y32431D2*
X26077D1*
X25523Y32234D2*
X26077D1*
X25523Y32037D2*
X26077D1*
X25523Y31841D2*
X26077D1*
X25501Y31644D2*
X26077D1*
X22029Y31447D2*
X26077D1*
X22029Y31251D2*
X26077D1*
X22029Y31054D2*
X26077D1*
X22029Y30857D2*
X26077D1*
X22029Y30661D2*
X26077D1*
X22029Y30464D2*
X26077D1*
X22029Y30267D2*
X26077D1*
X22029Y30071D2*
X26077D1*
X22029Y29874D2*
X24795D1*
X22029Y29677D2*
X24614D1*
X22029Y29481D2*
X24430D1*
X22029Y29284D2*
X24248D1*
X22029Y29087D2*
X24067D1*
X22029Y28891D2*
X23886D1*
X22029Y28694D2*
X23705D1*
X17743Y28497D2*
X17961D1*
X19220D2*
X19389D1*
X22029D2*
X23523D1*
X17743Y28301D2*
X17961D1*
X19220D2*
X19389D1*
X20648D2*
X20727D1*
X22029D2*
X23342D1*
X17743Y28104D2*
X17961D1*
X19220D2*
X19389D1*
X20648D2*
X20823D1*
X22029D2*
X23161D1*
X17743Y27907D2*
X17961D1*
X19220D2*
X19389D1*
X20648D2*
X22980D1*
X17743Y27711D2*
X17961D1*
X19220D2*
X19389D1*
X20648D2*
X22902D1*
X17743Y27514D2*
X17961D1*
X19220D2*
X19389D1*
X20648D2*
X22902D1*
X17743Y27317D2*
X22902D1*
X17743Y27121D2*
X22902D1*
X17743Y26924D2*
X22902D1*
X17743Y26727D2*
X22902D1*
X17743Y26531D2*
X22902D1*
X17743Y26334D2*
X22902D1*
X17743Y26137D2*
X22902D1*
X17743Y25941D2*
X22902D1*
X17743Y25744D2*
X22902D1*
X17743Y25547D2*
X22902D1*
X17743Y25351D2*
X22902D1*
X20630Y28534D2*
Y27377D1*
X19410D1*
Y28637D1*
X19201D1*
Y27377D1*
X17981D1*
Y28637D1*
X17723D1*
Y25185D1*
X22921D1*
X22923Y27787D1*
X22948Y27852D1*
X24856Y29917D1*
X24926Y29948D1*
X26097D1*
Y34395D1*
X25959Y34532D1*
X25900Y34612D1*
X25865Y34715D1*
X25861Y34970D1*
Y34986D1*
X24397Y34987D1*
X22010D1*
Y34228D1*
X22069Y34236D1*
X24133D1*
X24230Y34217D1*
X24313Y34163D1*
X24370Y34081D1*
X24393Y33976D1*
Y33760D1*
X25244D1*
X25341Y33741D1*
X25425Y33687D1*
X25482Y33605D1*
X25504Y33500D1*
Y31753D1*
X25485Y31656D1*
X25431Y31572D1*
X25349Y31516D1*
X25244Y31493D1*
X24803D1*
X24667Y31464D1*
X24567Y31462D1*
X24468Y31477D1*
X24418Y31494D1*
X22074D1*
X22010Y31487D1*
Y28102D1*
X21961Y28017D1*
X21910Y28002D1*
X20957D1*
X20873Y28051D1*
X20734Y28325D1*
X20629Y28535D1*
X20020Y28087D2*
Y27377D1*
X19410Y28087D2*
X20629D1*
X18591D2*
Y27377D1*
X17981Y28087D2*
X19200D1*
X25046Y27964D2*
X26058D1*
X27317D2*
X27486D1*
X25046Y27767D2*
X26058D1*
X27317D2*
X27486D1*
X25046Y27570D2*
X26058D1*
X27317D2*
X27486D1*
X25046Y27374D2*
X26058D1*
X27317D2*
X27486D1*
X25046Y27177D2*
X26058D1*
X27317D2*
X27486D1*
X26476Y26980D2*
X28777D1*
X26476Y26784D2*
X28777D1*
X26476Y26587D2*
X28777D1*
X27026Y26390D2*
X28777D1*
X27298Y28161D2*
Y27059D1*
X26427D1*
X26454Y27004D1*
X26455Y26450D1*
X26598Y26484D1*
X26698Y26488D1*
X26797Y26476D1*
X26893Y26448D1*
X26983Y26404D1*
X27065Y26347D1*
X27116Y26296D1*
X28796D1*
Y28160D1*
X28727Y28159D1*
Y27059D1*
X27507D1*
Y28161D1*
X27299Y28160D1*
X26078Y27090D2*
X26073Y28160D1*
X25026D1*
Y27090D1*
X26079D1*
X26688Y27769D2*
Y27060D1*
X26078Y27769D2*
X27297D1*
X28117D2*
Y27060D1*
X27507Y27769D2*
X28726D1*
X68475Y94328D2*
X77357D1*
X67541Y94132D2*
X77357D1*
X66607Y93935D2*
X77357D1*
X66210Y93738D2*
X77357D1*
X65941Y93542D2*
X77357D1*
X65672Y93345D2*
X77357D1*
X65407Y93148D2*
X77357D1*
X65138Y92952D2*
X77357D1*
X64869Y92755D2*
X68686D1*
X69879D2*
X77357D1*
X64600Y92558D2*
X68476D1*
X70091D2*
X77357D1*
X64332Y92362D2*
X68351D1*
X70213D2*
X77357D1*
X64063Y92165D2*
X68282D1*
X70285D2*
X77357D1*
X63797Y91968D2*
X68254D1*
X70313D2*
X77357D1*
X63529Y91772D2*
X68267D1*
X70300D2*
X77357D1*
X63260Y91575D2*
X68317D1*
X70251D2*
X77357D1*
X62991Y91378D2*
X68414D1*
X70151D2*
X77357D1*
X62722Y91182D2*
X68582D1*
X69985D2*
X77357D1*
X62457Y90985D2*
X68898D1*
X69669D2*
X77357D1*
X62188Y90788D2*
X77357D1*
X61919Y90592D2*
X77357D1*
X61651Y90395D2*
X77357D1*
X61382Y90198D2*
X77357D1*
X61113Y90002D2*
X72436D1*
X60847Y89805D2*
X72436D1*
X60579Y89608D2*
X72436D1*
X60310Y89412D2*
X72436D1*
X60041Y89215D2*
X72436D1*
X59772Y89018D2*
X72436D1*
X59507Y88822D2*
X72436D1*
X59282Y88625D2*
X72436D1*
X59163Y88428D2*
X70373D1*
X59047Y88232D2*
X70373D1*
X58932Y88035D2*
X70373D1*
X58813Y87838D2*
X70373D1*
X58697Y87642D2*
X70373D1*
X58579Y87445D2*
X70373D1*
X58463Y87248D2*
X70373D1*
X58344Y87052D2*
X70373D1*
X58229Y86855D2*
X70373D1*
X58113Y86658D2*
X70373D1*
X57994Y86462D2*
X59257D1*
X64872D2*
X70373D1*
X57879Y86265D2*
X59257D1*
X64897D2*
X70373D1*
X57760Y86068D2*
X59257D1*
X64897D2*
X70345D1*
X57644Y85872D2*
X59257D1*
X64897D2*
X70132D1*
X57529Y85675D2*
X59257D1*
X64897D2*
X69923D1*
X57410Y85478D2*
X59257D1*
X64897D2*
X69711D1*
X57294Y85282D2*
X59257D1*
X64897D2*
X69501D1*
X57175Y85085D2*
X59257D1*
X64897D2*
X69292D1*
X57060Y84888D2*
X59257D1*
X64897D2*
X69079D1*
X56941Y84692D2*
X59257D1*
X64897D2*
X68870D1*
X56825Y84495D2*
X59257D1*
X64897D2*
X68657D1*
X56710Y84298D2*
X59257D1*
X64897D2*
X68448D1*
X56591Y84102D2*
X59257D1*
X64897D2*
X68236D1*
X56476Y83905D2*
X59257D1*
X64897D2*
X67514D1*
X56357Y83708D2*
X59257D1*
X64897D2*
X67514D1*
X56241Y83512D2*
X57636D1*
X64897D2*
X67514D1*
X56122Y83315D2*
X57454D1*
X64897D2*
X67514D1*
X56007Y83118D2*
X57273D1*
X64897D2*
X67514D1*
X55891Y82922D2*
X57092D1*
X64897D2*
X67514D1*
X55800Y82725D2*
X56910D1*
X64897D2*
X67514D1*
X55735Y82528D2*
X56726D1*
X64897D2*
X67514D1*
X55672Y82332D2*
X56545D1*
X64897D2*
X67514D1*
X55604Y82135D2*
X56364D1*
X64897D2*
X67514D1*
X55538Y81938D2*
X56182D1*
X64897D2*
X67514D1*
X55476Y81742D2*
X56001D1*
X64897D2*
X67514D1*
X64897Y81545D2*
X67514D1*
X64897Y81348D2*
X67514D1*
X64897Y81152D2*
X67514D1*
X64897Y80955D2*
X67514D1*
X64897Y80758D2*
X67514D1*
X64897Y80562D2*
X67514D1*
X64897Y80365D2*
X67514D1*
X64897Y80168D2*
X67514D1*
X64885Y79972D2*
X67514D1*
X60769Y79775D2*
X67514D1*
X60769Y79578D2*
X67514D1*
X60769Y79382D2*
X67514D1*
X60769Y79185D2*
X67514D1*
X60769Y78988D2*
X66879D1*
X60769Y78792D2*
X66879D1*
X60769Y78595D2*
X66879D1*
X60769Y78398D2*
X66879D1*
X60769Y78202D2*
X66879D1*
X60769Y78005D2*
X66879D1*
X60769Y77808D2*
X66879D1*
X60769Y77612D2*
X66879D1*
X60769Y77415D2*
X66879D1*
X70293Y91906D2*
X70281Y91767D1*
X70249Y91630D1*
X70199Y91500D1*
X70131Y91377D1*
X70047Y91265D1*
X69949Y91166D1*
X69837Y91081D1*
X69715Y91013D1*
X69585Y90962D1*
X69449Y90930D1*
X69310Y90916D1*
X69170Y90922D1*
X69032Y90948D1*
X68900Y90992D1*
X68774Y91054D1*
X68659Y91132D1*
X68555Y91226D1*
X68465Y91334D1*
X68391Y91452D1*
X68334Y91580D1*
X68296Y91714D1*
X68276Y91853D1*
Y91993D1*
X68294Y92131D1*
X68332Y92266D1*
X68388Y92394D1*
X68462Y92513D1*
X68551Y92621D1*
X68654Y92716D1*
X68769Y92795D1*
X68894Y92858D1*
X69027Y92903D1*
X69164Y92929D1*
X69304Y92936D1*
X69443Y92923D1*
X69579Y92892D1*
X69710Y92841D1*
X69832Y92774D1*
X69944Y92690D1*
X70043Y92591D1*
X70128Y92480D1*
X70196Y92358D1*
X70247Y92227D1*
X70280Y92091D1*
X70293Y91952D1*
Y91906D1*
X55840Y81545D2*
X57720Y83580D1*
X57791Y83611D1*
X59279D1*
Y86369D1*
X59328Y86453D1*
X59379Y86469D1*
X64777D1*
X64861Y86420D1*
X64877Y86369D1*
Y80018D1*
X64828Y79934D1*
X64777Y79918D1*
X60749D1*
Y77261D1*
X66900D1*
Y78907D1*
X66949Y78991D1*
X67000Y79007D1*
X67535D1*
Y83829D1*
X67584Y83913D1*
X67635Y83929D1*
X68070D1*
X70394Y86096D1*
X70392Y88433D1*
X70441Y88517D1*
X70492Y88533D1*
X72456D1*
Y90021D1*
X72505Y90105D1*
X72556Y90121D1*
X77378D1*
Y94525D1*
X69390D1*
X66408Y93897D1*
X59296Y88682D1*
X55818Y82833D1*
X55390Y81549D1*
X55841Y81547D1*
X69283Y92936D2*
D22*
Y90916D1*
X68274Y91926D2*
X70293D1*
X77440Y94487D2*
D14*
X80518D1*
X77440Y94290D2*
X80906D1*
X77440Y94094D2*
X81290D1*
X77440Y93897D2*
X81678D1*
X77440Y93700D2*
X82062D1*
X77440Y93504D2*
X82447D1*
X81568Y93307D2*
X82834D1*
X81568Y93110D2*
X83218D1*
X81568Y92914D2*
X83606D1*
X81568Y92717D2*
X83990D1*
X81568Y92520D2*
X84378D1*
X81568Y92324D2*
X84762D1*
X81568Y92127D2*
X85150D1*
X81568Y91930D2*
X85534D1*
X81568Y91734D2*
X85918D1*
X81568Y91537D2*
X86306D1*
X81568Y91340D2*
X86690D1*
X81568Y91144D2*
X87078D1*
X81568Y90947D2*
X87462D1*
X81568Y90750D2*
X87850D1*
X81568Y90554D2*
X88153D1*
X81568Y90357D2*
X88153D1*
X81568Y90160D2*
X88153D1*
X81568Y89964D2*
X88153D1*
X81568Y89767D2*
X88153D1*
X81568Y89570D2*
X88153D1*
X81568Y89374D2*
X88153D1*
X81568Y89177D2*
X88153D1*
X81568Y88980D2*
X88153D1*
X81568Y88784D2*
X88153D1*
X81568Y88587D2*
X88153D1*
X81568Y88390D2*
X88153D1*
X81568Y88194D2*
X88153D1*
X81568Y87997D2*
X88153D1*
X81568Y87800D2*
X88153D1*
X81568Y87604D2*
X88153D1*
X81568Y87407D2*
X88153D1*
X81568Y87210D2*
X88153D1*
X81568Y87014D2*
X88153D1*
X81568Y86817D2*
X88153D1*
X81568Y86620D2*
X88153D1*
X80296Y86424D2*
X81453D1*
X81495D2*
X88153D1*
X80296Y86227D2*
X88153D1*
X80296Y86030D2*
X88153D1*
X80296Y85834D2*
X88153D1*
X80296Y85637D2*
X88153D1*
X80296Y85440D2*
X88153D1*
X80296Y85244D2*
X88153D1*
X80296Y85047D2*
X88153D1*
X80296Y84850D2*
X88153D1*
X80296Y84654D2*
X88153D1*
X80296Y84457D2*
X88153D1*
X80296Y84260D2*
X88153D1*
X80296Y84064D2*
X88153D1*
X80296Y83867D2*
X88153D1*
X80296Y83670D2*
X88153D1*
X76963Y83474D2*
X88153D1*
X76963Y83277D2*
X88153D1*
X76963Y83080D2*
X88153D1*
X76963Y82884D2*
X88153D1*
X76963Y82687D2*
X88153D1*
X76963Y82490D2*
X88153D1*
X76963Y82294D2*
X88153D1*
X76963Y82097D2*
X88153D1*
X76963Y81900D2*
X88153D1*
X76963Y81704D2*
X88153D1*
X76963Y81507D2*
X88153D1*
X76963Y81310D2*
X88153D1*
X76963Y81114D2*
X88153D1*
X76963Y80917D2*
X88153D1*
X76963Y80720D2*
X88153D1*
X76963Y80524D2*
X88153D1*
X76963Y80327D2*
X88153D1*
X76963Y80130D2*
X88153D1*
X76963Y79934D2*
X88153D1*
X76963Y79737D2*
X88153D1*
X76963Y79540D2*
X88153D1*
X76963Y79344D2*
X88153D1*
X76963Y79147D2*
X88153D1*
X76963Y78950D2*
X88153D1*
X87283Y78754D2*
X88153D1*
X87283Y78557D2*
X88153D1*
X87283Y78360D2*
X88153D1*
X87283Y78164D2*
X88153D1*
X87283Y77967D2*
X88153D1*
X87283Y77770D2*
X88153D1*
X83294Y78925D2*
X84940D1*
X85039Y78911D1*
X85139Y78860D1*
X85243Y78848D1*
X87163D1*
X87247Y78799D1*
X87263Y78748D1*
Y77578D1*
X88174D1*
Y90595D1*
X80154Y94683D1*
X77419Y94684D1*
Y93455D1*
X81447D1*
X81532Y93406D1*
X81547Y93355D1*
Y86528D1*
X81498Y86443D1*
X81532Y86475D1*
X81449Y86428D1*
X80278Y86573D1*
X80277Y83670D1*
X80228Y83586D1*
X80177Y83570D1*
X76943D1*
Y78848D1*
X82977D1*
X83036Y78886D1*
X83138Y78921D1*
X83294Y78925D1*
X71883Y83215D2*
X75535D1*
X71883Y83018D2*
X75535D1*
X74106Y82821D2*
X75535D1*
X74106Y82625D2*
X75535D1*
X75212Y82428D2*
X75535D1*
X75215Y82231D2*
X75582D1*
X75215Y82035D2*
X75760D1*
X75215Y81838D2*
X75769D1*
X75215Y81641D2*
X75769D1*
X75215Y81445D2*
X75769D1*
X75215Y81248D2*
X75769D1*
X75215Y81051D2*
X75769D1*
X75215Y80855D2*
X75769D1*
X75215Y80658D2*
X75769D1*
X74263Y82499D2*
X74387Y82529D1*
X74487Y82533D1*
X74586Y82521D1*
X74655Y82500D1*
X75097D1*
X75181Y82451D1*
X75197Y82400D1*
Y80595D1*
X75790D1*
Y82025D1*
X75653Y82162D1*
X75594Y82242D1*
X75559Y82345D1*
X75554Y82600D1*
Y83409D1*
X74190Y83411D1*
X71863D1*
Y82976D1*
X73985D1*
X74070Y82927D1*
X74085Y82876D1*
Y82500D1*
X74263D1*
X68317Y45746D2*
X77199D1*
X67382Y45549D2*
X77199D1*
X66448Y45352D2*
X77199D1*
X66051Y45156D2*
X77199D1*
X65782Y44959D2*
X77199D1*
X65514Y44762D2*
X77199D1*
X65248Y44566D2*
X77199D1*
X64979Y44369D2*
X77199D1*
X64710Y44172D2*
X68527D1*
X69720D2*
X77199D1*
X64442Y43976D2*
X68317D1*
X69932D2*
X77199D1*
X64173Y43779D2*
X68192D1*
X70054D2*
X77199D1*
X63904Y43582D2*
X68124D1*
X70126D2*
X77199D1*
X63639Y43386D2*
X68095D1*
X70154D2*
X77199D1*
X63370Y43189D2*
X68108D1*
X70142D2*
X77199D1*
X63101Y42992D2*
X68158D1*
X70092D2*
X77199D1*
X62832Y42796D2*
X68255D1*
X69992D2*
X77199D1*
X62564Y42599D2*
X68424D1*
X69826D2*
X77199D1*
X62298Y42402D2*
X68739D1*
X69510D2*
X77199D1*
X62029Y42206D2*
X77199D1*
X61760Y42009D2*
X77199D1*
X61492Y41812D2*
X77199D1*
X61223Y41616D2*
X77199D1*
X60954Y41419D2*
X72277D1*
X60689Y41222D2*
X72277D1*
X60420Y41026D2*
X72277D1*
X60151Y40829D2*
X72277D1*
X59882Y40632D2*
X72277D1*
X59614Y40436D2*
X72277D1*
X59348Y40239D2*
X72277D1*
X59123Y40042D2*
X72277D1*
X59004Y39846D2*
X70214D1*
X58889Y39649D2*
X70214D1*
X58773Y39452D2*
X70214D1*
X58654Y39256D2*
X70214D1*
X58539Y39059D2*
X70214D1*
X58420Y38862D2*
X70214D1*
X58304Y38666D2*
X70214D1*
X58185Y38469D2*
X70214D1*
X58070Y38272D2*
X70214D1*
X57954Y38076D2*
X70214D1*
X57835Y37879D2*
X59099D1*
X64714D2*
X70214D1*
X57720Y37682D2*
X59099D1*
X64739D2*
X70214D1*
X57601Y37486D2*
X59099D1*
X64739D2*
X70186D1*
X57485Y37289D2*
X59099D1*
X64739D2*
X69974D1*
X57370Y37092D2*
X59099D1*
X64739D2*
X69764D1*
X57251Y36896D2*
X59099D1*
X64739D2*
X69552D1*
X57135Y36699D2*
X59099D1*
X64739D2*
X69342D1*
X57017Y36502D2*
X59099D1*
X64739D2*
X69133D1*
X56901Y36306D2*
X59099D1*
X64739D2*
X68920D1*
X56782Y36109D2*
X59099D1*
X64739D2*
X68711D1*
X56667Y35912D2*
X59099D1*
X64739D2*
X68499D1*
X56551Y35716D2*
X59099D1*
X64739D2*
X68289D1*
X56432Y35519D2*
X59099D1*
X64739D2*
X68077D1*
X56317Y35322D2*
X59099D1*
X64739D2*
X67355D1*
X56198Y35126D2*
X59099D1*
X64739D2*
X67355D1*
X56082Y34929D2*
X57477D1*
X64739D2*
X67355D1*
X55964Y34732D2*
X57295D1*
X64739D2*
X67355D1*
X55848Y34536D2*
X57114D1*
X64739D2*
X67355D1*
X55732Y34339D2*
X56933D1*
X64739D2*
X67355D1*
X55642Y34142D2*
X56752D1*
X64739D2*
X67355D1*
X55576Y33946D2*
X56567D1*
X64739D2*
X67355D1*
X55514Y33749D2*
X56386D1*
X64739D2*
X67355D1*
X55445Y33552D2*
X56205D1*
X64739D2*
X67355D1*
X55379Y33356D2*
X56024D1*
X64739D2*
X67355D1*
X55317Y33159D2*
X55842D1*
X64739D2*
X67355D1*
X64739Y32962D2*
X67355D1*
X64739Y32766D2*
X67355D1*
X64739Y32569D2*
X67355D1*
X64739Y32372D2*
X67355D1*
X64739Y32176D2*
X67355D1*
X64739Y31979D2*
X67355D1*
X64739Y31782D2*
X67355D1*
X64739Y31586D2*
X67355D1*
X64726Y31389D2*
X67355D1*
X60610Y31192D2*
X67355D1*
X60610Y30996D2*
X67355D1*
X60610Y30799D2*
X67355D1*
X60610Y30602D2*
X67355D1*
X60610Y30406D2*
X66720D1*
X60610Y30209D2*
X66720D1*
X60610Y30012D2*
X66720D1*
X60610Y29816D2*
X66720D1*
X60610Y29619D2*
X66720D1*
X60610Y29422D2*
X66720D1*
X60610Y29226D2*
X66720D1*
X60610Y29029D2*
X66720D1*
X60610Y28832D2*
X66720D1*
X70134Y43323D2*
X70122Y43184D1*
X70090Y43048D1*
X70040Y42917D1*
X69973Y42795D1*
X69889Y42683D1*
X69790Y42584D1*
X69679Y42499D1*
X69557Y42430D1*
X69426Y42379D1*
X69290Y42347D1*
X69151Y42334D1*
X69011Y42340D1*
X68874Y42365D1*
X68741Y42409D1*
X68616Y42471D1*
X68500Y42550D1*
X68396Y42644D1*
X68307Y42751D1*
X68233Y42870D1*
X68176Y42997D1*
X68137Y43132D1*
X68117Y43270D1*
Y43410D1*
X68136Y43549D1*
X68174Y43684D1*
X68230Y43812D1*
X68303Y43931D1*
X68392Y44039D1*
X68495Y44133D1*
X68610Y44213D1*
X68735Y44275D1*
X68868Y44320D1*
X69005Y44346D1*
X69145Y44353D1*
X69284Y44341D1*
X69421Y44309D1*
X69551Y44259D1*
X69674Y44191D1*
X69785Y44107D1*
X69885Y44008D1*
X69969Y43897D1*
X70038Y43775D1*
X70089Y43645D1*
X70121Y43509D1*
X70134Y43369D1*
Y43323D1*
X55681Y32962D2*
X57562Y34997D1*
X57632Y35029D1*
X59120D1*
Y37786D1*
X59169Y37871D1*
X59220Y37886D1*
X64618D1*
X64702Y37837D1*
X64718Y37786D1*
Y31436D1*
X64669Y31351D1*
X64618Y31336D1*
X60590D1*
Y28678D1*
X66741D1*
Y30324D1*
X66790Y30409D1*
X66841Y30424D1*
X67376D1*
Y35246D1*
X67425Y35331D1*
X67476Y35346D1*
X67912D1*
X70235Y37514D1*
X70234Y39850D1*
X70283Y39935D1*
X70334Y39950D1*
X72298D1*
Y41438D1*
X72347Y41522D1*
X72398Y41538D1*
X77219D1*
Y45942D1*
X69231D1*
X66249Y45314D1*
X59137Y40099D1*
X55659Y34251D1*
X55231Y32966D1*
X55683Y32965D1*
X69125Y44353D2*
D22*
Y42334D1*
X68115Y43343D2*
X70134D1*
X77122Y45904D2*
D14*
X80201D1*
X77122Y45708D2*
X80588D1*
X77122Y45511D2*
X80973D1*
X77122Y45314D2*
X81360D1*
X77122Y45118D2*
X81745D1*
X77122Y44921D2*
X82129D1*
X81250Y44724D2*
X82516D1*
X81250Y44528D2*
X82901D1*
X81250Y44331D2*
X83288D1*
X81250Y44134D2*
X83673D1*
X81250Y43938D2*
X84060D1*
X81250Y43741D2*
X84445D1*
X81250Y43544D2*
X84832D1*
X81250Y43348D2*
X85216D1*
X81250Y43151D2*
X85601D1*
X81250Y42954D2*
X85988D1*
X81250Y42758D2*
X86373D1*
X81250Y42561D2*
X86760D1*
X81250Y42364D2*
X87145D1*
X81250Y42168D2*
X87532D1*
X81250Y41971D2*
X87835D1*
X81250Y41774D2*
X87835D1*
X81250Y41578D2*
X87835D1*
X81250Y41381D2*
X87835D1*
X81250Y41184D2*
X87835D1*
X81250Y40988D2*
X87835D1*
X81250Y40791D2*
X87835D1*
X81250Y40594D2*
X87835D1*
X81250Y40398D2*
X87835D1*
X81250Y40201D2*
X87835D1*
X81250Y40004D2*
X87835D1*
X81250Y39808D2*
X87835D1*
X81250Y39611D2*
X87835D1*
X81250Y39414D2*
X87835D1*
X81250Y39218D2*
X87835D1*
X81250Y39021D2*
X87835D1*
X81250Y38824D2*
X87835D1*
X81250Y38628D2*
X87835D1*
X81250Y38431D2*
X87835D1*
X81250Y38234D2*
X87835D1*
X81247Y38038D2*
X87835D1*
X79978Y37841D2*
X87835D1*
X79978Y37644D2*
X87835D1*
X79978Y37448D2*
X87835D1*
X79978Y37251D2*
X87835D1*
X79978Y37054D2*
X87835D1*
X79978Y36858D2*
X87835D1*
X79978Y36661D2*
X87835D1*
X79978Y36464D2*
X87835D1*
X79978Y36268D2*
X87835D1*
X79978Y36071D2*
X87835D1*
X79978Y35874D2*
X87835D1*
X79978Y35678D2*
X87835D1*
X79978Y35481D2*
X87835D1*
X79978Y35284D2*
X87835D1*
X79978Y35088D2*
X87835D1*
X76646Y34891D2*
X87835D1*
X76646Y34694D2*
X87835D1*
X76646Y34498D2*
X87835D1*
X76646Y34301D2*
X87835D1*
X76646Y34104D2*
X87835D1*
X76646Y33908D2*
X87835D1*
X76646Y33711D2*
X87835D1*
X76646Y33514D2*
X87835D1*
X76646Y33318D2*
X87835D1*
X76646Y33121D2*
X87835D1*
X76646Y32924D2*
X87835D1*
X76646Y32728D2*
X87835D1*
X76646Y32531D2*
X87835D1*
X76646Y32334D2*
X87835D1*
X76646Y32138D2*
X87835D1*
X76646Y31941D2*
X87835D1*
X76646Y31744D2*
X87835D1*
X76646Y31548D2*
X87835D1*
X76646Y31351D2*
X87835D1*
X76646Y31154D2*
X87835D1*
X76646Y30958D2*
X87835D1*
X76646Y30761D2*
X87835D1*
X76646Y30564D2*
X87835D1*
X76646Y30368D2*
X87835D1*
X86966Y30171D2*
X87835D1*
X86966Y29974D2*
X87835D1*
X86966Y29778D2*
X87835D1*
X86966Y29581D2*
X87835D1*
X86966Y29384D2*
X87835D1*
X86966Y29188D2*
X87835D1*
X82341Y30343D2*
X85893D1*
X85991Y30328D1*
X86092Y30277D1*
X86126Y30266D1*
X86845D1*
X86930Y30217D1*
X86945Y30166D1*
Y28996D1*
X87857D1*
Y42012D1*
X79836Y46101D1*
X77102D1*
Y44872D1*
X81130D1*
X81214Y44823D1*
X81230Y44772D1*
Y38104D1*
X81181Y38020D1*
X81130Y38004D1*
X79960D1*
Y35087D1*
X79911Y35003D1*
X79860Y34987D1*
X76626D1*
Y30266D1*
X82029D1*
X82084Y30304D1*
X82186Y30338D1*
X82341Y30343D1*
X18782Y45587D2*
X27663D1*
X17847Y45390D2*
X27663D1*
X16913Y45194D2*
X27663D1*
X16516Y44997D2*
X27663D1*
X16247Y44800D2*
X27663D1*
X15978Y44604D2*
X27663D1*
X15713Y44407D2*
X27663D1*
X15444Y44210D2*
X27663D1*
X15175Y44014D2*
X18992D1*
X20185D2*
X27663D1*
X14907Y43817D2*
X18782D1*
X20397D2*
X27663D1*
X14638Y43620D2*
X18657D1*
X20519D2*
X27663D1*
X14369Y43424D2*
X18588D1*
X20591D2*
X27663D1*
X14103Y43227D2*
X18560D1*
X20619D2*
X27663D1*
X13835Y43030D2*
X18573D1*
X20607D2*
X27663D1*
X13566Y42834D2*
X18623D1*
X20557D2*
X27663D1*
X13297Y42637D2*
X18720D1*
X20457D2*
X27663D1*
X13028Y42440D2*
X18888D1*
X20291D2*
X27663D1*
X12763Y42244D2*
X19204D1*
X19975D2*
X27663D1*
X12494Y42047D2*
X27663D1*
X12225Y41850D2*
X27663D1*
X11957Y41654D2*
X27663D1*
X11688Y41457D2*
X27663D1*
X11419Y41260D2*
X22742D1*
X11153Y41064D2*
X22742D1*
X10885Y40867D2*
X22742D1*
X10616Y40670D2*
X22742D1*
X10347Y40474D2*
X22742D1*
X10078Y40277D2*
X22742D1*
X9813Y40080D2*
X22742D1*
X9588Y39884D2*
X22742D1*
X9469Y39687D2*
X20679D1*
X9353Y39490D2*
X20679D1*
X9238Y39294D2*
X20679D1*
X9119Y39097D2*
X20679D1*
X9003Y38900D2*
X20679D1*
X8885Y38704D2*
X20679D1*
X8769Y38507D2*
X20679D1*
X8650Y38310D2*
X20679D1*
X8535Y38114D2*
X20679D1*
X8419Y37917D2*
X20679D1*
X8300Y37720D2*
X9563D1*
X15178D2*
X20679D1*
X8185Y37524D2*
X9563D1*
X15203D2*
X20679D1*
X8066Y37327D2*
X9563D1*
X15203D2*
X20651D1*
X7950Y37130D2*
X9563D1*
X15203D2*
X20438D1*
X7835Y36934D2*
X9563D1*
X15203D2*
X20229D1*
X7716Y36737D2*
X9563D1*
X15203D2*
X20017D1*
X7600Y36540D2*
X9563D1*
X15203D2*
X19807D1*
X7482Y36344D2*
X9563D1*
X15203D2*
X19598D1*
X7366Y36147D2*
X9563D1*
X15203D2*
X19385D1*
X7247Y35950D2*
X9563D1*
X15203D2*
X19176D1*
X7132Y35754D2*
X9563D1*
X15203D2*
X18963D1*
X7016Y35557D2*
X9563D1*
X15203D2*
X18754D1*
X6897Y35360D2*
X9563D1*
X15203D2*
X18542D1*
X6782Y35164D2*
X9563D1*
X15203D2*
X17820D1*
X6663Y34967D2*
X9563D1*
X15203D2*
X17820D1*
X6547Y34770D2*
X7942D1*
X15203D2*
X17820D1*
X6428Y34574D2*
X7760D1*
X15203D2*
X17820D1*
X6313Y34377D2*
X7579D1*
X15203D2*
X17820D1*
X6197Y34180D2*
X7398D1*
X15203D2*
X17820D1*
X6107Y33984D2*
X7217D1*
X15203D2*
X17820D1*
X6041Y33787D2*
X7032D1*
X15203D2*
X17820D1*
X5978Y33590D2*
X6851D1*
X15203D2*
X17820D1*
X5910Y33394D2*
X6670D1*
X15203D2*
X17820D1*
X5844Y33197D2*
X6488D1*
X15203D2*
X17820D1*
X5782Y33000D2*
X6307D1*
X15203D2*
X17820D1*
X15203Y32804D2*
X17820D1*
X15203Y32607D2*
X17820D1*
X15203Y32410D2*
X17820D1*
X15203Y32214D2*
X17820D1*
X15203Y32017D2*
X17820D1*
X15203Y31820D2*
X17820D1*
X15203Y31624D2*
X17820D1*
X15203Y31427D2*
X17820D1*
X15191Y31230D2*
X17820D1*
X11075Y31034D2*
X17820D1*
X11075Y30837D2*
X17820D1*
X11075Y30640D2*
X17820D1*
X11075Y30444D2*
X17820D1*
X11075Y30247D2*
X17185D1*
X11075Y30050D2*
X17185D1*
X11075Y29854D2*
X17185D1*
X11075Y29657D2*
X17185D1*
X11075Y29460D2*
X17185D1*
X11075Y29264D2*
X17185D1*
X11075Y29067D2*
X17185D1*
X11075Y28870D2*
X17185D1*
X11075Y28674D2*
X17185D1*
X20599Y43165D2*
X20587Y43025D1*
X20555Y42889D1*
X20505Y42758D1*
X20437Y42636D1*
X20353Y42524D1*
X20255Y42425D1*
X20143Y42340D1*
X20021Y42272D1*
X19891Y42221D1*
X19755Y42188D1*
X19616Y42175D1*
X19476Y42181D1*
X19339Y42206D1*
X19206Y42250D1*
X19080Y42312D1*
X18965Y42391D1*
X18861Y42485D1*
X18771Y42592D1*
X18697Y42711D1*
X18640Y42839D1*
X18602Y42973D1*
X18582Y43112D1*
Y43251D1*
X18601Y43390D1*
X18638Y43525D1*
X18695Y43653D1*
X18768Y43772D1*
X18857Y43880D1*
X18960Y43974D1*
X19075Y44054D1*
X19200Y44117D1*
X19333Y44161D1*
X19470Y44187D1*
X19610Y44194D1*
X19749Y44182D1*
X19885Y44150D1*
X20016Y44100D1*
X20138Y44032D1*
X20250Y43948D1*
X20349Y43850D1*
X20434Y43738D1*
X20502Y43616D1*
X20553Y43486D1*
X20586Y43350D1*
X20599Y43211D1*
Y43165D1*
X6146Y32804D2*
X8026Y34839D1*
X8097Y34870D1*
X9585D1*
Y37628D1*
X9634Y37712D1*
X9685Y37728D1*
X15083D1*
X15167Y37679D1*
X15183Y37628D1*
Y31277D1*
X15134Y31193D1*
X15083Y31177D1*
X11055D1*
Y28519D1*
X17206D1*
Y30166D1*
X17255Y30250D1*
X17306Y30266D1*
X17841D1*
Y35087D1*
X17890Y35172D1*
X17941Y35187D1*
X18376D1*
X20700Y37355D1*
X20698Y39692D1*
X20747Y39776D1*
X20798Y39792D1*
X22762D1*
Y41279D1*
X22811Y41364D1*
X22862Y41379D1*
X27684D1*
Y45784D1*
X19696D1*
X16714Y45155D1*
X9602Y39941D1*
X6124Y34092D1*
X5696Y32808D1*
X6147Y32806D1*
X19589Y44194D2*
D22*
Y42175D1*
X18580Y43185D2*
X20599D1*
D23*
X23021Y78431D3*
Y77131D3*
D24*
X12860Y80971D3*
Y79271D3*
D25*
X15400Y74779D3*
X17300D3*
D26*
X16353Y82082D3*
X17653D3*
D23*
X20481Y63507D3*
Y62207D3*
D26*
X15559Y60331D3*
X16859D3*
D23*
X62063Y83685D3*
Y82385D3*
D26*
X79383Y87639D3*
X78083D3*
D23*
X76367Y77796D3*
Y76496D3*
X69699Y78113D3*
Y76813D3*
X12384Y34929D3*
Y33629D3*
D26*
X29719Y38898D3*
X28419D3*
D23*
X26688Y29069D3*
Y27769D3*
X20020Y29387D3*
Y28087D3*
D24*
X12860Y74779D3*
Y76479D3*
D23*
X81924Y77796D3*
Y76496D3*
X68746Y81289D3*
Y82589D3*
D27*
X79383Y91926D3*
D29*
X69283D3*
D23*
X32245Y29070D3*
Y27770D3*
X19067Y32532D3*
Y33832D3*
D27*
X29689Y43185D3*
D29*
X19589D3*
G36*
X9910Y87154D2*
X11112Y88356D1*
X12315Y87154D1*
X11112Y85952D1*
X9910Y87154D1*
G37*
D31*
X12909Y88950D3*
D27*
X25102Y69587D3*
D29*
Y67587D3*
Y65587D3*
X27102D3*
Y67587D3*
Y69587D3*
D32*
X20640Y54933D3*
X22640D3*
X24640D3*
X26640D3*
X28640D3*
X30640D3*
D33*
X6826Y72866D3*
D31*
Y75406D3*
D32*
X30166Y93196D3*
X28166D3*
X26166D3*
X24166D3*
X22166D3*
X20166D3*
D34*
X91926Y70175D3*
Y72175D3*
Y74175D3*
Y76175D3*
Y78175D3*
Y80175D3*
X7303Y30324D3*
Y28324D3*
Y26324D3*
Y24324D3*
Y22324D3*
Y20324D3*
X43185Y20640D3*
Y22640D3*
Y24640D3*
Y26640D3*
Y28640D3*
Y30640D3*
X56521Y30642D3*
Y28642D3*
Y26642D3*
Y24642D3*
Y22642D3*
Y20642D3*
D36*
X21433Y83194D3*
X23333D3*
X22383Y85494D3*
D23*
X21751Y77131D3*
Y78431D3*
X20322D3*
Y77131D3*
X25879Y87322D3*
Y88622D3*
X22069Y87322D3*
Y88622D3*
X60490Y82400D3*
Y83700D3*
X71445Y85258D3*
Y86558D3*
X80495Y77796D3*
Y76496D3*
D26*
X79383Y88909D3*
X78083D3*
D23*
X73206Y64444D3*
Y65744D3*
X79225Y76526D3*
Y77826D3*
X74462Y64459D3*
Y65759D3*
X77796Y77796D3*
Y76496D3*
X68270Y78113D3*
Y76813D3*
X10796Y33659D3*
Y34959D3*
X21751Y36516D3*
Y37816D3*
X30801Y29054D3*
Y27754D3*
D26*
X29704Y40183D3*
X28404D3*
D23*
X23497Y15718D3*
Y17018D3*
X29531Y27784D3*
Y29084D3*
X24768Y15718D3*
Y17018D3*
X28117Y29069D3*
Y27769D3*
X18591Y29387D3*
Y28087D3*
D37*
X15400Y77161D3*
X16350D3*
X17300D3*
Y79861D3*
X16350D3*
X15400D3*
D38*
X15559Y63824D3*
Y62874D3*
Y61924D3*
X18259D3*
Y63824D3*
D39*
X29213Y73668D3*
X29713D3*
X30213D3*
X30713D3*
X31213D3*
D40*
X32113Y74568D3*
Y75068D3*
Y75568D3*
Y76068D3*
Y76568D3*
D39*
X31213Y77468D3*
X30713D3*
X30213D3*
X29713D3*
X29213D3*
D40*
X28313Y76568D3*
Y76068D3*
Y75568D3*
Y75068D3*
Y74568D3*
D41*
X30213Y75568D3*
D37*
X75414Y74779D3*
X74464D3*
X73514D3*
Y72079D3*
X75414D3*
X73826Y84623D3*
X74776D3*
X75727D3*
Y87323D3*
X73826D3*
X25715Y26039D3*
X24765D3*
X23815D3*
Y23339D3*
X25715D3*
X24133Y35881D3*
X25083D3*
X26033D3*
Y38581D3*
X24133D3*
D23*
X29531Y87322D3*
Y88622D3*
X61919Y35087D3*
Y33787D3*
D26*
X79225Y39057D3*
X77925D3*
D23*
X76208Y29213D3*
Y27913D3*
X69540Y29531D3*
Y28231D3*
X81765Y29244D3*
Y27944D3*
X68587Y32706D3*
Y34006D3*
D27*
X79225Y43343D3*
D29*
X69125D3*
D34*
X92243Y20957D3*
Y22957D3*
Y24957D3*
Y26957D3*
Y28957D3*
Y30957D3*
D23*
X60331Y33817D3*
Y35117D3*
X71286Y36675D3*
Y37975D3*
X80336Y29213D3*
Y27913D3*
D26*
X79254Y40327D3*
X77954D3*
D23*
X73033Y15877D3*
Y17177D3*
X79066Y27943D3*
Y29243D3*
X74303Y15877D3*
Y17177D3*
X77637Y29213D3*
Y27913D3*
X68111Y29560D3*
Y28260D3*
D37*
X75255Y26197D3*
X74305D3*
X73355D3*
Y23496D3*
X75255D3*
X73668Y36040D3*
X74618D3*
X75568D3*
Y38740D3*
X73668D3*
D23*
X75732Y64459D3*
Y65759D3*
X26038Y15718D3*
Y17018D3*
X75573Y15877D3*
Y17177D3*
D34*
X56362Y79542D3*
Y77542D3*
Y75542D3*
Y73542D3*
Y71542D3*
Y69542D3*
D42*
X86210Y76049D3*
Y77949D3*
X83910Y76999D3*
X70492Y82717D3*
Y80817D3*
X72792Y81767D3*
X36594Y27313D3*
Y29213D3*
X34294Y28263D3*
X20880Y33971D3*
Y32071D3*
X23180Y33021D3*
X86052Y27467D3*
Y29367D3*
X83752Y28417D3*
X70334Y34135D3*
Y32235D3*
X72634Y33185D3*
D43*
X10637Y80971D3*
Y79471D3*
D26*
X32388Y79225D3*
X33688D3*
D42*
X9050Y66206D3*
Y68106D3*
X6750Y67156D3*
D36*
X25561Y83194D3*
X27461D3*
X26511Y85494D3*
X30048Y83158D3*
X31948D3*
X30998Y85458D3*
D34*
X42867Y69540D3*
Y71540D3*
Y73540D3*
Y75540D3*
Y77540D3*
Y79540D3*
M02*
