G04 DipTrace 2.4.0.2*
%INTopMask.gts*%
%MOMM*%
%ADD49R,1.554X1.204*%
%ADD51R,1.254X0.854*%
%ADD53R,2.654X2.654*%
%ADD55O,1.054X0.504*%
%ADD57O,0.504X1.054*%
%ADD59R,1.304X0.804*%
%ADD61R,0.804X1.304*%
%ADD63R,0.854X1.254*%
%ADD65R,2.204X1.204*%
%ADD67R,1.904X1.904*%
%ADD69R,1.204X2.204*%
%ADD71C,1.904*%
%ADD75C,1.704*%
%ADD79R,1.704X1.704*%
%ADD81R,1.104X0.904*%
%ADD83R,1.504X1.704*%
%ADD85R,1.204X1.304*%
%ADD87R,0.904X1.104*%
%FSLAX53Y53*%
G04*
G71*
G90*
G75*
G01*
%LNTopMask*%
%LPD*%
D87*
X23021Y78431D3*
Y77131D3*
D85*
X12860Y80971D3*
Y79271D3*
D83*
X15400Y74779D3*
X17300D3*
D81*
X16353Y82082D3*
X17653D3*
D87*
X20481Y63507D3*
Y62207D3*
D81*
X15559Y60331D3*
X16859D3*
D87*
X62063Y83685D3*
Y82385D3*
D81*
X79383Y87639D3*
X78083D3*
D87*
X76367Y77796D3*
Y76496D3*
X69699Y78113D3*
Y76813D3*
X12384Y34929D3*
Y33629D3*
D81*
X29719Y38898D3*
X28419D3*
D87*
X26688Y29069D3*
Y27769D3*
X20020Y29387D3*
Y28087D3*
D85*
X12860Y74779D3*
Y76479D3*
D87*
X81924Y77796D3*
Y76496D3*
X68746Y81289D3*
Y82589D3*
D79*
X79383Y91926D3*
D75*
X69283D3*
D87*
X32245Y29070D3*
Y27770D3*
X19067Y32532D3*
Y33832D3*
D79*
X29689Y43185D3*
D75*
X19589D3*
G36*
X9766Y87154D2*
X11112Y88500D1*
X12459Y87154D1*
X11112Y85807D1*
X9766Y87154D1*
G37*
D71*
X12909Y88950D3*
D79*
X25102Y69587D3*
D75*
Y67587D3*
Y65587D3*
X27102D3*
Y67587D3*
Y69587D3*
D69*
X20640Y54933D3*
X22640D3*
X24640D3*
X26640D3*
X28640D3*
X30640D3*
D67*
X6826Y72866D3*
D71*
Y75406D3*
D69*
X30166Y93196D3*
X28166D3*
X26166D3*
X24166D3*
X22166D3*
X20166D3*
D65*
X91926Y70175D3*
Y72175D3*
Y74175D3*
Y76175D3*
Y78175D3*
Y80175D3*
X7303Y30324D3*
Y28324D3*
Y26324D3*
Y24324D3*
Y22324D3*
Y20324D3*
X43185Y20640D3*
Y22640D3*
Y24640D3*
Y26640D3*
Y28640D3*
Y30640D3*
X56521Y30642D3*
Y28642D3*
Y26642D3*
Y24642D3*
Y22642D3*
Y20642D3*
D63*
X21433Y83194D3*
X23333D3*
X22383Y85494D3*
D87*
X21751Y77131D3*
Y78431D3*
X20322D3*
Y77131D3*
X25879Y87322D3*
Y88622D3*
X22069Y87322D3*
Y88622D3*
X60490Y82400D3*
Y83700D3*
X71445Y85258D3*
Y86558D3*
X80495Y77796D3*
Y76496D3*
D81*
X79383Y88909D3*
X78083D3*
D87*
X73206Y64444D3*
Y65744D3*
X79225Y76526D3*
Y77826D3*
X74462Y64459D3*
Y65759D3*
X77796Y77796D3*
Y76496D3*
X68270Y78113D3*
Y76813D3*
X10796Y33659D3*
Y34959D3*
X21751Y36516D3*
Y37816D3*
X30801Y29054D3*
Y27754D3*
D81*
X29704Y40183D3*
X28404D3*
D87*
X23497Y15718D3*
Y17018D3*
X29531Y27784D3*
Y29084D3*
X24768Y15718D3*
Y17018D3*
X28117Y29069D3*
Y27769D3*
X18591Y29387D3*
Y28087D3*
D61*
X15400Y77161D3*
X16350D3*
X17300D3*
Y79861D3*
X16350D3*
X15400D3*
D59*
X15559Y63824D3*
Y62874D3*
Y61924D3*
X18259D3*
Y63824D3*
D57*
X29213Y73668D3*
X29713D3*
X30213D3*
X30713D3*
X31213D3*
D55*
X32113Y74568D3*
Y75068D3*
Y75568D3*
Y76068D3*
Y76568D3*
D57*
X31213Y77468D3*
X30713D3*
X30213D3*
X29713D3*
X29213D3*
D55*
X28313Y76568D3*
Y76068D3*
Y75568D3*
Y75068D3*
Y74568D3*
D53*
X30213Y75568D3*
D61*
X75414Y74779D3*
X74464D3*
X73514D3*
Y72079D3*
X75414D3*
X73826Y84623D3*
X74776D3*
X75727D3*
Y87323D3*
X73826D3*
X25715Y26039D3*
X24765D3*
X23815D3*
Y23339D3*
X25715D3*
X24133Y35881D3*
X25083D3*
X26033D3*
Y38581D3*
X24133D3*
D87*
X29531Y87322D3*
Y88622D3*
X61919Y35087D3*
Y33787D3*
D81*
X79225Y39057D3*
X77925D3*
D87*
X76208Y29213D3*
Y27913D3*
X69540Y29531D3*
Y28231D3*
X81765Y29244D3*
Y27944D3*
X68587Y32706D3*
Y34006D3*
D79*
X79225Y43343D3*
D75*
X69125D3*
D65*
X92243Y20957D3*
Y22957D3*
Y24957D3*
Y26957D3*
Y28957D3*
Y30957D3*
D87*
X60331Y33817D3*
Y35117D3*
X71286Y36675D3*
Y37975D3*
X80336Y29213D3*
Y27913D3*
D81*
X79254Y40327D3*
X77954D3*
D87*
X73033Y15877D3*
Y17177D3*
X79066Y27943D3*
Y29243D3*
X74303Y15877D3*
Y17177D3*
X77637Y29213D3*
Y27913D3*
X68111Y29560D3*
Y28260D3*
D61*
X75255Y26197D3*
X74305D3*
X73355D3*
Y23496D3*
X75255D3*
X73668Y36040D3*
X74618D3*
X75568D3*
Y38740D3*
X73668D3*
D87*
X75732Y64459D3*
Y65759D3*
X26038Y15718D3*
Y17018D3*
X75573Y15877D3*
Y17177D3*
D65*
X56362Y79542D3*
Y77542D3*
Y75542D3*
Y73542D3*
Y71542D3*
Y69542D3*
D51*
X86210Y76049D3*
Y77949D3*
X83910Y76999D3*
X70492Y82717D3*
Y80817D3*
X72792Y81767D3*
X36594Y27313D3*
Y29213D3*
X34294Y28263D3*
X20880Y33971D3*
Y32071D3*
X23180Y33021D3*
X86052Y27467D3*
Y29367D3*
X83752Y28417D3*
X70334Y34135D3*
Y32235D3*
X72634Y33185D3*
D49*
X10637Y80971D3*
Y79471D3*
D81*
X32388Y79225D3*
X33688D3*
D51*
X9050Y66206D3*
Y68106D3*
X6750Y67156D3*
D63*
X25561Y83194D3*
X27461D3*
X26511Y85494D3*
X30048Y83158D3*
X31948D3*
X30998Y85458D3*
D65*
X42867Y69540D3*
Y71540D3*
Y73540D3*
Y75540D3*
Y77540D3*
Y79540D3*
M02*
