G04 DipTrace 2.4.0.2*
%INTopPaste.gbr*%
%MOMM*%
%ADD56R,2.246X2.246*%
%ADD58O,0.646X0.096*%
%ADD60O,0.096X0.646*%
%ADD62R,0.896X0.396*%
%ADD64R,0.396X0.896*%
%ADD66R,0.846X0.446*%
%ADD68R,0.446X0.846*%
%ADD70R,5.496X1.396*%
%ADD72R,1.796X0.796*%
%ADD76R,0.796X1.796*%
%ADD84R,1.015X0.71*%
%ADD90R,0.696X0.496*%
%ADD92R,1.296X1.096*%
%ADD94R,0.796X0.896*%
%ADD96R,0.496X0.696*%
%FSLAX53Y53*%
G04*
G71*
G90*
G75*
G01*
%LNTopPaste*%
%LPD*%
D96*
X23771Y28531D3*
Y27231D3*
D94*
X13610Y31071D3*
Y29371D3*
D92*
X16150Y23100D3*
Y25000D3*
D90*
X17103Y32182D3*
X18403D3*
D96*
X20631Y13607D3*
Y12307D3*
D90*
X15709Y10431D3*
X17009D3*
D96*
X35800Y26950D3*
Y25650D3*
X62613Y34035D3*
Y32735D3*
Y84035D3*
Y82735D3*
X12613Y84035D3*
Y82735D3*
D90*
X79933Y37989D3*
X78633D3*
X79933Y87989D3*
X78633D3*
X29933D3*
X28633D3*
D96*
X76917Y28146D3*
Y26846D3*
Y78146D3*
Y76846D3*
X26917Y78146D3*
Y76846D3*
X70249Y28463D3*
Y27163D3*
Y78463D3*
Y77163D3*
X20249Y78463D3*
Y77163D3*
D84*
X13600Y23062D3*
Y26338D3*
D96*
X82474Y28146D3*
Y26846D3*
Y78146D3*
Y76846D3*
X32474Y78146D3*
Y76846D3*
X69296Y31639D3*
Y32939D3*
Y81639D3*
Y82939D3*
X19296Y81639D3*
Y82939D3*
D76*
X20350Y6500D3*
X22350D3*
X24350D3*
X26350D3*
X28350D3*
X30350D3*
X30316Y43296D3*
X28316D3*
X26316D3*
X24316D3*
X22316D3*
X20316D3*
D72*
X43017Y19640D3*
Y21640D3*
Y23640D3*
Y25640D3*
Y27640D3*
Y29640D3*
X56912Y29892D3*
Y27892D3*
Y25892D3*
Y23892D3*
Y21892D3*
Y19892D3*
Y79892D3*
Y77892D3*
Y75892D3*
Y73892D3*
Y71892D3*
Y69892D3*
X6912Y79892D3*
Y77892D3*
Y75892D3*
Y73892D3*
Y71892D3*
Y69892D3*
X93050Y20150D3*
Y22150D3*
Y24150D3*
Y26150D3*
Y28150D3*
Y30150D3*
Y70150D3*
Y72150D3*
Y74150D3*
Y76150D3*
Y78150D3*
Y80150D3*
X43050Y70150D3*
Y72150D3*
Y74150D3*
Y76150D3*
Y78150D3*
Y80150D3*
D70*
X9500Y33000D3*
Y28300D3*
D68*
X25711Y33294D3*
X27611D3*
X26661Y35594D3*
X30198Y33258D3*
X32098D3*
X31148Y35558D3*
X21800Y33300D3*
X23700D3*
X22750Y35600D3*
D66*
X9200Y16306D3*
Y18206D3*
X6900Y17256D3*
X71042Y33067D3*
Y31167D3*
X73342Y32117D3*
X71042Y83067D3*
Y81167D3*
X73342Y82117D3*
X21042Y83067D3*
Y81167D3*
X23342Y82117D3*
X86760Y26399D3*
Y28299D3*
X84460Y27349D3*
X86760Y76399D3*
Y78299D3*
X84460Y77349D3*
X36760Y76399D3*
Y78299D3*
X34460Y77349D3*
D96*
X22501Y27231D3*
Y28531D3*
X21072D3*
Y27231D3*
X26350Y39200D3*
Y40500D3*
X22450Y39300D3*
Y40600D3*
X30250Y39400D3*
Y40700D3*
D90*
X33137Y29337D3*
X34437D3*
D96*
X35800Y30300D3*
Y29000D3*
X61040Y32750D3*
Y34050D3*
Y82750D3*
Y84050D3*
X11040Y82750D3*
Y84050D3*
X71995Y35608D3*
Y36908D3*
Y85608D3*
Y86908D3*
X21995Y85608D3*
Y86908D3*
X81045Y28146D3*
Y26846D3*
Y78146D3*
Y76846D3*
X31045Y78146D3*
Y76846D3*
D90*
X79950Y39900D3*
X78650D3*
X79950Y89900D3*
X78650D3*
X29950D3*
X28650D3*
D96*
X79775Y26876D3*
Y28176D3*
Y76876D3*
Y78176D3*
X29775Y76876D3*
Y78176D3*
X78346Y28146D3*
Y26846D3*
Y78146D3*
Y76846D3*
X28346Y78146D3*
Y76846D3*
X68820Y28463D3*
Y27163D3*
Y78463D3*
Y77163D3*
X18820Y78463D3*
Y77163D3*
X73756Y14794D3*
Y16094D3*
Y64794D3*
Y66094D3*
X23756Y64794D3*
Y66094D3*
X75012Y14809D3*
Y16109D3*
Y64809D3*
Y66109D3*
X25012Y64809D3*
Y66109D3*
X76282Y14809D3*
Y16109D3*
Y64809D3*
Y66109D3*
X26282Y64809D3*
Y66109D3*
D64*
X16150Y27261D3*
X17100D3*
X18050D3*
Y29961D3*
X17100D3*
X16150D3*
D62*
X15709Y13924D3*
Y12974D3*
Y12024D3*
X18409D3*
Y13924D3*
D60*
X29961Y23781D3*
X30461D3*
X30961D3*
X31461D3*
X31961D3*
D58*
X32861Y24681D3*
Y25181D3*
Y25681D3*
Y26181D3*
Y26681D3*
D60*
X31961Y27581D3*
X31461D3*
X30961D3*
X30461D3*
X29961D3*
D58*
X29061Y26681D3*
Y26181D3*
Y25681D3*
Y25181D3*
Y24681D3*
D56*
X30961Y25681D3*
D64*
X75964Y25129D3*
X75014D3*
X74064D3*
Y22429D3*
X75964D3*
Y75129D3*
X75014D3*
X74064D3*
Y72429D3*
X75964D3*
X25964Y75129D3*
X25014D3*
X24064D3*
Y72429D3*
X25964D3*
X74377Y34973D3*
X75326D3*
X76276D3*
Y37673D3*
X74377D3*
Y84973D3*
X75326D3*
X76276D3*
Y87673D3*
X74377D3*
X24377Y84973D3*
X25327D3*
X26277D3*
Y87673D3*
X24377D3*
M02*
