G04 DipTrace 2.4.0.2*
%INTopSilk.gto*%
%MOMM*%
%ADD10C,0.25*%
%ADD15C,0.7*%
%ADD25C,0.152*%
%ADD41O,0.391X0.392*%
%ADD92C,0.196*%
%ADD94C,0.157*%
%FSLAX53Y53*%
G04*
G71*
G90*
G75*
G01*
%LNTopSilk*%
%LPD*%
X16799Y22049D2*
D10*
X15501D1*
X62363Y34885D2*
X62863D1*
X80783Y38239D2*
Y37739D1*
X76667Y28996D2*
X77167D1*
X69999Y29313D2*
X70498D1*
X12970Y22240D2*
X14170Y22220D1*
X82224Y28895D2*
X82723D1*
X69546Y30889D2*
X69046D1*
X77435Y43426D2*
Y41126D1*
X72331D1*
X76587Y43426D2*
Y41126D1*
X72331Y43426D2*
Y41126D1*
X77435Y43426D2*
X72331D1*
X9466Y37254D2*
X13059Y40846D1*
X14855Y39050D1*
X11262Y35457D1*
X9466Y37254D1*
X29050Y20900D2*
X24650D1*
Y14500D1*
X29050D1*
Y20900D1*
X20350Y5000D2*
Y4500D1*
X22350Y5000D2*
Y4500D1*
X24350Y5000D2*
Y4500D1*
X26350Y5000D2*
Y4500D1*
X28350Y5000D2*
Y4500D1*
X30349Y5000D2*
Y4500D1*
D15*
X19100Y6450D3*
X5706Y21696D2*
D10*
X8246D1*
Y26777D1*
X5706D1*
Y21696D1*
X30316Y44796D2*
Y45296D1*
X28316Y44796D2*
Y45296D1*
X26316Y44796D2*
Y45296D1*
X24316Y44796D2*
Y45296D1*
X22316Y44796D2*
Y45296D1*
X20317Y44796D2*
Y45296D1*
D15*
X31565Y43346D3*
X44517Y19639D2*
D10*
X45017D1*
X44517Y21640D2*
X45017D1*
X44517Y23640D2*
X45017D1*
X44517Y25640D2*
X45017D1*
X44517Y27640D2*
X45017D1*
X44517Y29639D2*
X45017D1*
D15*
X43067Y18390D3*
X55413Y29892D2*
D10*
X54912D1*
X55413Y27892D2*
X54912D1*
X55413Y25892D2*
X54912D1*
X55413Y23892D2*
X54912D1*
X55413Y21892D2*
X54912D1*
X55413Y19893D2*
X54912D1*
D15*
X56862Y31142D3*
X94550Y20150D2*
D10*
X95050D1*
X94550Y22150D2*
X95050D1*
X94550Y24150D2*
X95050D1*
X94550Y26150D2*
X95050D1*
X94550Y28150D2*
X95050D1*
X94550Y30149D2*
X95050D1*
D15*
X93100Y18900D3*
D41*
X24928Y32920D3*
X25162Y34194D2*
D10*
X28161D1*
Y34694D1*
X25162D1*
Y34194D1*
D41*
X29415Y32884D3*
X29648Y34158D2*
D10*
X32648D1*
Y34658D1*
X29648D1*
Y34158D1*
D41*
X21016Y32926D3*
X21250Y34200D2*
D10*
X24250D1*
Y34700D1*
X21250D1*
Y34200D1*
D41*
X9573Y15522D3*
X8300Y15756D2*
D10*
Y18756D1*
X7800D1*
Y15756D1*
X8300D1*
D41*
X70669Y33851D3*
X71942Y33617D2*
D10*
Y30617D1*
X72442D1*
Y33617D1*
X71942D1*
D41*
X87134Y25616D3*
X85860Y25849D2*
D10*
Y28849D1*
X85360D1*
Y25849D1*
X85860D1*
D41*
X15467Y26838D3*
X15600Y28212D2*
D10*
X18600D1*
X15600Y29011D2*
X18600D1*
Y28212D2*
Y29011D1*
X15600Y28212D2*
Y29011D1*
D41*
X15287Y14608D3*
X16660Y14474D2*
D10*
Y11474D1*
X17460Y14474D2*
Y11474D1*
X16660D2*
X17460D1*
X16660Y14474D2*
X17460D1*
X29461Y23680D2*
X28961Y24180D1*
X32961Y23680D2*
Y24180D1*
Y23680D2*
X32461D1*
X32961Y27180D2*
Y27681D1*
X32461D1*
X28961D2*
X29462D1*
X28961D2*
Y27180D1*
X29956Y23095D3*
D41*
X76648Y25551D3*
X76514Y24178D2*
D10*
X73514D1*
X76514Y23378D2*
X73514D1*
Y24178D2*
Y23378D1*
X76514Y24178D2*
Y23378D1*
D41*
X73693Y34550D3*
X73827Y35924D2*
D10*
X76826D1*
X73827Y36723D2*
X76826D1*
Y35924D2*
Y36723D1*
X73827Y35924D2*
Y36723D1*
X62363Y84885D2*
X62863D1*
X80783Y88239D2*
Y87739D1*
X76667Y78996D2*
X77167D1*
X69999Y79313D2*
X70498D1*
X82224Y78895D2*
X82723D1*
X69546Y80889D2*
X69046D1*
X77435Y93426D2*
Y91126D1*
X72331D1*
X76587Y93426D2*
Y91126D1*
X72331Y93426D2*
Y91126D1*
X77435Y93426D2*
X72331D1*
X55413Y79892D2*
X54912D1*
X55413Y77892D2*
X54912D1*
X55413Y75892D2*
X54912D1*
X55413Y73892D2*
X54912D1*
X55413Y71892D2*
X54912D1*
X55413Y69893D2*
X54912D1*
D15*
X56862Y81142D3*
X94550Y70150D2*
D10*
X95050D1*
X94550Y72150D2*
X95050D1*
X94550Y74150D2*
X95050D1*
X94550Y76150D2*
X95050D1*
X94550Y78150D2*
X95050D1*
X94550Y80149D2*
X95050D1*
D15*
X93100Y68900D3*
D41*
X70669Y83851D3*
X71942Y83617D2*
D10*
Y80617D1*
X72442D1*
Y83617D1*
X71942D1*
D41*
X87134Y75616D3*
X85860Y75849D2*
D10*
Y78849D1*
X85360D1*
Y75849D1*
X85860D1*
D41*
X76648Y75551D3*
X76514Y74178D2*
D10*
X73514D1*
X76514Y73378D2*
X73514D1*
Y74178D2*
Y73378D1*
X76514Y74178D2*
Y73378D1*
D41*
X73693Y84550D3*
X73827Y85924D2*
D10*
X76826D1*
X73827Y86723D2*
X76826D1*
Y85924D2*
Y86723D1*
X73827Y85924D2*
Y86723D1*
X12363Y84885D2*
X12863D1*
X30783Y88239D2*
Y87739D1*
X26667Y78996D2*
X27167D1*
X19999Y79313D2*
X20498D1*
X32224Y78895D2*
X32723D1*
X19546Y80889D2*
X19046D1*
X27435Y93426D2*
Y91126D1*
X22331D1*
X26587Y93426D2*
Y91126D1*
X22331Y93426D2*
Y91126D1*
X27435Y93426D2*
X22331D1*
X5413Y79892D2*
X4912D1*
X5413Y77892D2*
X4912D1*
X5413Y75892D2*
X4912D1*
X5413Y73892D2*
X4912D1*
X5413Y71892D2*
X4912D1*
X5413Y69893D2*
X4912D1*
D15*
X6862Y81142D3*
X44550Y70150D2*
D10*
X45050D1*
X44550Y72150D2*
X45050D1*
X44550Y74150D2*
X45050D1*
X44550Y76150D2*
X45050D1*
X44550Y78150D2*
X45050D1*
X44550Y80149D2*
X45050D1*
D15*
X43100Y68900D3*
D41*
X20669Y83851D3*
X21942Y83617D2*
D10*
Y80617D1*
X22442D1*
Y83617D1*
X21942D1*
D41*
X37134Y75616D3*
X35860Y75849D2*
D10*
Y78849D1*
X35360D1*
Y75849D1*
X35860D1*
D41*
X26648Y75551D3*
X26514Y74178D2*
D10*
X23514D1*
X26514Y73378D2*
X23514D1*
Y74178D2*
Y73378D1*
X26514Y74178D2*
Y73378D1*
D41*
X23693Y84550D3*
X23827Y85924D2*
D10*
X26826D1*
X23827Y86723D2*
X26826D1*
Y85924D2*
Y86723D1*
X23827Y85924D2*
Y86723D1*
X50450Y24750D2*
D25*
G02X50450Y24750I24500J0D01*
G01*
X53900Y24775D2*
X53951Y26249D1*
X54105Y27715D1*
X54360Y29167D1*
X54715Y30598D1*
X55169Y32000D1*
X55720Y33367D1*
X56364Y34693D1*
X57099Y35970D1*
X57920Y37192D1*
X58825Y38354D1*
X59808Y39450D1*
X60865Y40474D1*
X61990Y41422D1*
X63179Y42288D1*
X64425Y43070D1*
X65722Y43762D1*
X67065Y44362D1*
X68445Y44866D1*
X69858Y45272D1*
X71295Y45579D1*
X72750Y45784D1*
X74215Y45887D1*
X75685D1*
X77150Y45784D1*
X78605Y45579D1*
X80042Y45272D1*
X81455Y44866D1*
X82835Y44362D1*
X84178Y43762D1*
X85475Y43070D1*
X86721Y42288D1*
X87910Y41422D1*
X89035Y40474D1*
X90092Y39450D1*
X91075Y38354D1*
X91980Y37192D1*
X92801Y35970D1*
X93536Y34693D1*
X94180Y33367D1*
X94731Y32000D1*
X95185Y30598D1*
X95540Y29167D1*
X95795Y27715D1*
X95949Y26249D1*
X96000Y24775D1*
X95949Y23301D1*
X95795Y21835D1*
X95540Y20383D1*
X95185Y18952D1*
X94731Y17550D1*
X94180Y16183D1*
X93536Y14857D1*
X92801Y13580D1*
X91980Y12358D1*
X91075Y11196D1*
X90092Y10100D1*
X89035Y9076D1*
X87910Y8128D1*
X86721Y7262D1*
X85475Y6480D1*
X84178Y5788D1*
X82835Y5188D1*
X81455Y4684D1*
X80042Y4278D1*
X78605Y3971D1*
X77150Y3766D1*
X75685Y3663D1*
X74215D1*
X72750Y3766D1*
X71295Y3971D1*
X69858Y4278D1*
X68445Y4684D1*
X67065Y5188D1*
X65722Y5788D1*
X64425Y6480D1*
X63179Y7262D1*
X61990Y8128D1*
X60865Y9076D1*
X59808Y10100D1*
X58825Y11196D1*
X57920Y12358D1*
X57099Y13580D1*
X56364Y14857D1*
X55720Y16183D1*
X55169Y17550D1*
X54715Y18952D1*
X54360Y20383D1*
X54105Y21835D1*
X53951Y23301D1*
X53900Y24775D1*
X50000Y50000D2*
X100000D1*
Y0D1*
X50000D1*
Y50000D1*
X450Y24750D2*
G02X450Y24750I24500J0D01*
G01*
X3900Y24775D2*
X3951Y26249D1*
X4105Y27715D1*
X4360Y29167D1*
X4715Y30598D1*
X5169Y32000D1*
X5720Y33367D1*
X6364Y34693D1*
X7099Y35970D1*
X7920Y37192D1*
X8825Y38354D1*
X9808Y39450D1*
X10865Y40474D1*
X11990Y41422D1*
X13179Y42288D1*
X14425Y43070D1*
X15722Y43762D1*
X17065Y44362D1*
X18445Y44866D1*
X19858Y45272D1*
X21295Y45579D1*
X22750Y45784D1*
X24215Y45887D1*
X25685D1*
X27150Y45784D1*
X28605Y45579D1*
X30042Y45272D1*
X31455Y44866D1*
X32835Y44362D1*
X34178Y43762D1*
X35475Y43070D1*
X36721Y42288D1*
X37910Y41422D1*
X39035Y40474D1*
X40092Y39450D1*
X41075Y38354D1*
X41980Y37192D1*
X42801Y35970D1*
X43536Y34693D1*
X44180Y33367D1*
X44731Y32000D1*
X45185Y30598D1*
X45540Y29167D1*
X45795Y27715D1*
X45949Y26249D1*
X46000Y24775D1*
X45949Y23301D1*
X45795Y21835D1*
X45540Y20383D1*
X45185Y18952D1*
X44731Y17550D1*
X44180Y16183D1*
X43536Y14857D1*
X42801Y13580D1*
X41980Y12358D1*
X41075Y11196D1*
X40092Y10100D1*
X39035Y9076D1*
X37910Y8128D1*
X36721Y7262D1*
X35475Y6480D1*
X34178Y5788D1*
X32835Y5188D1*
X31455Y4684D1*
X30042Y4278D1*
X28605Y3971D1*
X27150Y3766D1*
X25685Y3663D1*
X24215D1*
X22750Y3766D1*
X21295Y3971D1*
X19858Y4278D1*
X18445Y4684D1*
X17065Y5188D1*
X15722Y5788D1*
X14425Y6480D1*
X13179Y7262D1*
X11990Y8128D1*
X10865Y9076D1*
X9808Y10100D1*
X8825Y11196D1*
X7920Y12358D1*
X7099Y13580D1*
X6364Y14857D1*
X5720Y16183D1*
X5169Y17550D1*
X4715Y18952D1*
X4360Y20383D1*
X4105Y21835D1*
X3951Y23301D1*
X3900Y24775D1*
X0Y50000D2*
X50000D1*
Y0D1*
X0D1*
Y50000D1*
X50450Y74750D2*
G02X50450Y74750I24500J0D01*
G01*
X53900Y74775D2*
X53951Y76249D1*
X54105Y77715D1*
X54360Y79167D1*
X54715Y80598D1*
X55169Y82000D1*
X55720Y83367D1*
X56364Y84693D1*
X57099Y85970D1*
X57920Y87192D1*
X58825Y88354D1*
X59808Y89450D1*
X60865Y90474D1*
X61990Y91422D1*
X63179Y92288D1*
X64425Y93070D1*
X65722Y93762D1*
X67065Y94362D1*
X68445Y94866D1*
X69858Y95272D1*
X71295Y95579D1*
X72750Y95784D1*
X74215Y95887D1*
X75685D1*
X77150Y95784D1*
X78605Y95579D1*
X80042Y95272D1*
X81455Y94866D1*
X82835Y94362D1*
X84178Y93762D1*
X85475Y93070D1*
X86721Y92288D1*
X87910Y91422D1*
X89035Y90474D1*
X90092Y89450D1*
X91075Y88354D1*
X91980Y87192D1*
X92801Y85970D1*
X93536Y84693D1*
X94180Y83367D1*
X94731Y82000D1*
X95185Y80598D1*
X95540Y79167D1*
X95795Y77715D1*
X95949Y76249D1*
X96000Y74775D1*
X95949Y73301D1*
X95795Y71835D1*
X95540Y70383D1*
X95185Y68952D1*
X94731Y67550D1*
X94180Y66183D1*
X93536Y64857D1*
X92801Y63580D1*
X91980Y62358D1*
X91075Y61196D1*
X90092Y60100D1*
X89035Y59076D1*
X87910Y58128D1*
X86721Y57262D1*
X85475Y56480D1*
X84178Y55788D1*
X82835Y55188D1*
X81455Y54684D1*
X80042Y54278D1*
X78605Y53971D1*
X77150Y53766D1*
X75685Y53663D1*
X74215D1*
X72750Y53766D1*
X71295Y53971D1*
X69858Y54278D1*
X68445Y54684D1*
X67065Y55188D1*
X65722Y55788D1*
X64425Y56480D1*
X63179Y57262D1*
X61990Y58128D1*
X60865Y59076D1*
X59808Y60100D1*
X58825Y61196D1*
X57920Y62358D1*
X57099Y63580D1*
X56364Y64857D1*
X55720Y66183D1*
X55169Y67550D1*
X54715Y68952D1*
X54360Y70383D1*
X54105Y71835D1*
X53951Y73301D1*
X53900Y74775D1*
X50000Y100000D2*
X100000D1*
Y50000D1*
X50000D1*
Y100000D1*
X450Y74750D2*
G02X450Y74750I24500J0D01*
G01*
X3900Y74775D2*
X3951Y76249D1*
X4105Y77715D1*
X4360Y79167D1*
X4715Y80598D1*
X5169Y82000D1*
X5720Y83367D1*
X6364Y84693D1*
X7099Y85970D1*
X7920Y87192D1*
X8825Y88354D1*
X9808Y89450D1*
X10865Y90474D1*
X11990Y91422D1*
X13179Y92288D1*
X14425Y93070D1*
X15722Y93762D1*
X17065Y94362D1*
X18445Y94866D1*
X19858Y95272D1*
X21295Y95579D1*
X22750Y95784D1*
X24215Y95887D1*
X25685D1*
X27150Y95784D1*
X28605Y95579D1*
X30042Y95272D1*
X31455Y94866D1*
X32835Y94362D1*
X34178Y93762D1*
X35475Y93070D1*
X36721Y92288D1*
X37910Y91422D1*
X39035Y90474D1*
X40092Y89450D1*
X41075Y88354D1*
X41980Y87192D1*
X42801Y85970D1*
X43536Y84693D1*
X44180Y83367D1*
X44731Y82000D1*
X45185Y80598D1*
X45540Y79167D1*
X45795Y77715D1*
X45949Y76249D1*
X46000Y74775D1*
X45949Y73301D1*
X45795Y71835D1*
X45540Y70383D1*
X45185Y68952D1*
X44731Y67550D1*
X44180Y66183D1*
X43536Y64857D1*
X42801Y63580D1*
X41980Y62358D1*
X41075Y61196D1*
X40092Y60100D1*
X39035Y59076D1*
X37910Y58128D1*
X36721Y57262D1*
X35475Y56480D1*
X34178Y55788D1*
X32835Y55188D1*
X31455Y54684D1*
X30042Y54278D1*
X28605Y53971D1*
X27150Y53766D1*
X25685Y53663D1*
X24215D1*
X22750Y53766D1*
X21295Y53971D1*
X19858Y54278D1*
X18445Y54684D1*
X17065Y55188D1*
X15722Y55788D1*
X14425Y56480D1*
X13179Y57262D1*
X11990Y58128D1*
X10865Y59076D1*
X9808Y60100D1*
X8825Y61196D1*
X7920Y62358D1*
X7099Y63580D1*
X6364Y64857D1*
X5720Y66183D1*
X5169Y67550D1*
X4715Y68952D1*
X4360Y70383D1*
X4105Y71835D1*
X3951Y73301D1*
X3900Y74775D1*
X0Y100000D2*
X50000D1*
Y50000D1*
X0D1*
Y100000D1*
X23459Y21589D2*
D92*
Y22256D1*
X23945Y21892D1*
Y22075D1*
X24005Y22195D1*
X24066Y22256D1*
X24248Y22317D1*
X24369D1*
X24551Y22256D1*
X24673Y22135D1*
X24734Y21952D1*
Y21770D1*
X24673Y21589D1*
X24612Y21528D1*
X24491Y21467D1*
X24612Y22770D2*
X24673Y22710D1*
X24734Y22770D1*
X24673Y22832D1*
X24612Y22770D1*
X23459Y23346D2*
Y24013D1*
X23945Y23649D1*
Y23832D1*
X24005Y23952D1*
X24066Y24013D1*
X24248Y24075D1*
X24369D1*
X24551Y24013D1*
X24673Y23892D1*
X24734Y23710D1*
Y23527D1*
X24673Y23346D1*
X24612Y23286D1*
X24491Y23224D1*
X23883Y24467D2*
X25159D1*
X24066D2*
X23945Y24589D1*
X23883Y24710D1*
Y24892D1*
X23945Y25014D1*
X24066Y25135D1*
X24248Y25197D1*
X24370D1*
X24551Y25135D1*
X24673Y25014D1*
X24734Y24892D1*
Y24710D1*
X24673Y24589D1*
X24551Y24467D1*
X23458Y26379D2*
Y25589D1*
X24734D1*
X24066D2*
Y26075D1*
X15773Y30990D2*
X14498D1*
X15347Y30382D1*
Y31293D1*
X15651Y31746D2*
X15712Y31685D1*
X15773Y31746D1*
X15712Y31807D1*
X15651Y31746D1*
X15773Y32442D2*
X14498Y33050D1*
Y32200D1*
X14922Y33442D2*
X15530D1*
X15711Y33503D1*
X15773Y33625D1*
Y33807D1*
X15711Y33928D1*
X15530Y34111D1*
X14922D2*
X15773D1*
X14497Y35293D2*
Y34503D1*
X15773D1*
X15105D2*
Y34989D1*
X15895Y17819D2*
X15833Y17942D1*
X15652Y18124D1*
X16927D1*
X15652Y19245D2*
Y18638D1*
X16198Y18578D1*
X16138Y18638D1*
X16076Y18821D1*
Y19002D1*
X16138Y19184D1*
X16258Y19307D1*
X16441Y19367D1*
X16562D1*
X16744Y19307D1*
X16866Y19184D1*
X16927Y19002D1*
Y18821D1*
X16866Y18638D1*
X16804Y18578D1*
X16684Y18516D1*
X16076Y19759D2*
X16684D1*
X16865Y19819D1*
X16927Y19942D1*
Y20124D1*
X16865Y20245D1*
X16684Y20427D1*
X16076D2*
X16927D1*
X15651Y21610D2*
Y20820D1*
X16927D1*
X16258D2*
Y21305D1*
X18319Y33442D2*
X17045D1*
X17894Y32834D1*
Y33745D1*
X18319Y34380D2*
X17045Y34988D1*
Y34137D1*
X17468Y35380D2*
X18319D1*
X17711D2*
X17529Y35563D1*
X17468Y35685D1*
Y35866D1*
X17529Y35988D1*
X17711Y36048D1*
X18319D1*
X17043Y37231D2*
Y36440D1*
X18319D1*
X17651D2*
Y36926D1*
X21549Y11483D2*
X21488Y11605D1*
X21307Y11788D1*
X22581D1*
X21731Y12180D2*
X22338D1*
X22519Y12240D1*
X22581Y12362D1*
Y12545D1*
X22519Y12665D1*
X22338Y12848D1*
X21731D2*
X22581D1*
X21305Y14030D2*
Y13240D1*
X22581D1*
X21913D2*
Y13726D1*
X12086Y10709D2*
X12208Y10771D1*
X12391Y10952D1*
Y9677D1*
X12783Y10528D2*
Y9920D1*
X12843Y9739D1*
X12966Y9677D1*
X13148D1*
X13269Y9739D1*
X13451Y9920D1*
Y10528D2*
Y9677D1*
X14634Y10954D2*
X13844D1*
Y9677D1*
Y10346D2*
X14329D1*
X61992Y36358D2*
X62052Y36175D1*
X62235Y36053D1*
X62538Y35993D1*
X62721D1*
X63024Y36053D1*
X63206Y36175D1*
X63267Y36358D1*
Y36479D1*
X63206Y36661D1*
X63024Y36782D1*
X62721Y36844D1*
X62538D1*
X62235Y36782D1*
X62052Y36661D1*
X61992Y36479D1*
Y36358D1*
X62235Y36782D2*
X63024Y36053D1*
X63145Y37296D2*
X63206Y37236D1*
X63267Y37296D1*
X63206Y37358D1*
X63145Y37296D1*
X62235Y37750D2*
X62173Y37872D1*
X61992Y38055D1*
X63267D1*
X62416Y38447D2*
X63024D1*
X63205Y38507D1*
X63267Y38629D1*
Y38812D1*
X63205Y38933D1*
X63024Y39115D1*
X62416D2*
X63267D1*
X61991Y40298D2*
Y39507D1*
X63267D1*
X62599D2*
Y39993D1*
X81875Y38526D2*
X81997Y38588D1*
X82179Y38769D1*
Y37494D1*
X82937Y38769D2*
X82754Y38708D1*
X82632Y38526D1*
X82572Y38223D1*
Y38040D1*
X82632Y37737D1*
X82754Y37554D1*
X82937Y37494D1*
X83057D1*
X83240Y37554D1*
X83361Y37737D1*
X83422Y38040D1*
Y38223D1*
X83361Y38526D1*
X83240Y38708D1*
X83057Y38769D1*
X82937D1*
X83361Y38526D2*
X82632Y37737D1*
X83814Y38345D2*
Y37494D1*
Y38102D2*
X83997Y38284D1*
X84119Y38345D1*
X84300D1*
X84422Y38284D1*
X84483Y38102D1*
Y37494D1*
X85665Y38770D2*
X84875D1*
Y37494D1*
Y38162D2*
X85361D1*
X75987Y29869D2*
X76048Y29686D1*
X76230Y29564D1*
X76533Y29504D1*
X76716D1*
X77019Y29564D1*
X77202Y29686D1*
X77262Y29869D1*
Y29989D1*
X77202Y30172D1*
X77019Y30293D1*
X76716Y30354D1*
X76533D1*
X76230Y30293D1*
X76048Y30172D1*
X75987Y29989D1*
Y29869D1*
X76230Y30293D2*
X77019Y29564D1*
X77140Y30807D2*
X77202Y30747D1*
X77262Y30807D1*
X77202Y30869D1*
X77140Y30807D1*
X76230Y31261D2*
X76168Y31383D1*
X75987Y31565D1*
X77262D1*
X76411Y31958D2*
X77019D1*
X77200Y32018D1*
X77262Y32140D1*
Y32323D1*
X77200Y32443D1*
X77019Y32626D1*
X76411D2*
X77262D1*
X75986Y33808D2*
Y33018D1*
X77262D1*
X76594D2*
Y33504D1*
X69678Y21352D2*
Y20746D1*
X70224Y20685D1*
X70164Y20746D1*
X70102Y20928D1*
Y21109D1*
X70164Y21292D1*
X70284Y21414D1*
X70467Y21474D1*
X70587D1*
X70770Y21414D1*
X70892Y21292D1*
X70952Y21109D1*
Y20928D1*
X70892Y20746D1*
X70830Y20685D1*
X70710Y20623D1*
X69678Y22231D2*
X69738Y22049D1*
X69921Y21927D1*
X70224Y21866D1*
X70406D1*
X70710Y21927D1*
X70892Y22049D1*
X70952Y22231D1*
Y22352D1*
X70892Y22535D1*
X70710Y22655D1*
X70406Y22717D1*
X70224D1*
X69921Y22655D1*
X69738Y22535D1*
X69678Y22352D1*
Y22231D1*
X69921Y22655D2*
X70710Y21927D1*
X69678Y23474D2*
X69738Y23292D1*
X69921Y23170D1*
X70224Y23109D1*
X70406D1*
X70710Y23170D1*
X70892Y23292D1*
X70952Y23474D1*
Y23595D1*
X70892Y23777D1*
X70710Y23898D1*
X70406Y23960D1*
X70224D1*
X69921Y23898D1*
X69738Y23777D1*
X69678Y23595D1*
Y23474D1*
X69921Y23898D2*
X70710Y23170D1*
X70102Y24352D2*
X71378D1*
X70284D2*
X70164Y24474D1*
X70102Y24595D1*
Y24777D1*
X70164Y24900D1*
X70284Y25020D1*
X70467Y25082D1*
X70589D1*
X70770Y25020D1*
X70892Y24900D1*
X70952Y24777D1*
Y24595D1*
X70892Y24474D1*
X70770Y24352D1*
X69676Y26265D2*
Y25474D1*
X70952D1*
X70284D2*
Y25960D1*
X12960Y19934D2*
X14236D1*
Y20359D1*
X14174Y20542D1*
X14054Y20664D1*
X13932Y20724D1*
X13751Y20785D1*
X13446D1*
X13263Y20724D1*
X13143Y20664D1*
X13021Y20542D1*
X12960Y20359D1*
Y19934D1*
X13204Y21177D2*
X13143Y21299D1*
X12962Y21481D1*
X14236D1*
X81851Y22345D2*
X83127D1*
Y22770D1*
X83066Y22952D1*
X82945Y23075D1*
X82823Y23135D1*
X82642Y23195D1*
X82337D1*
X82155Y23135D1*
X82034Y23075D1*
X81912Y22952D1*
X81851Y22770D1*
Y22345D1*
X82096Y23587D2*
X82034Y23710D1*
X81853Y23892D1*
X83127D1*
X81853Y24649D2*
X81913Y24467D1*
X82096Y24345D1*
X82399Y24284D1*
X82581D1*
X82885Y24345D1*
X83067Y24467D1*
X83127Y24649D1*
Y24770D1*
X83067Y24952D1*
X82885Y25073D1*
X82581Y25135D1*
X82399D1*
X82096Y25073D1*
X81913Y24952D1*
X81853Y24770D1*
Y24649D1*
X82096Y25073D2*
X82885Y24345D1*
X82096Y25527D2*
X82034Y25649D1*
X81853Y25832D1*
X83127D1*
X67086Y30122D2*
X68362D1*
Y30548D1*
X68300Y30730D1*
X68180Y30852D1*
X68058Y30913D1*
X67876Y30973D1*
X67572D1*
X67389Y30913D1*
X67269Y30852D1*
X67146Y30730D1*
X67086Y30548D1*
Y30122D1*
X67330Y31365D2*
X67269Y31487D1*
X67088Y31670D1*
X68362D1*
X67088Y32427D2*
X67148Y32244D1*
X67330Y32122D1*
X67634Y32062D1*
X67816D1*
X68119Y32122D1*
X68302Y32244D1*
X68362Y32427D1*
Y32548D1*
X68302Y32730D1*
X68119Y32851D1*
X67816Y32913D1*
X67634D1*
X67330Y32851D1*
X67148Y32730D1*
X67088Y32548D1*
Y32427D1*
X67330Y32851D2*
X68119Y32122D1*
X67391Y33367D2*
X67330D1*
X67208Y33427D1*
X67148Y33487D1*
X67088Y33610D1*
Y33852D1*
X67148Y33973D1*
X67208Y34033D1*
X67330Y34095D1*
X67451D1*
X67573Y34033D1*
X67754Y33913D1*
X68362Y33305D1*
Y34156D1*
X72867Y45286D2*
Y44010D1*
X73292D1*
X73475Y44071D1*
X73597Y44192D1*
X73657Y44314D1*
X73717Y44495D1*
Y44800D1*
X73657Y44983D1*
X73597Y45103D1*
X73475Y45225D1*
X73292Y45286D1*
X72867D1*
X74110Y45041D2*
X74232Y45103D1*
X74414Y45284D1*
Y44010D1*
X75171Y45284D2*
X74989Y45224D1*
X74867Y45041D1*
X74806Y44738D1*
Y44556D1*
X74867Y44253D1*
X74989Y44070D1*
X75171Y44010D1*
X75292D1*
X75475Y44070D1*
X75595Y44253D1*
X75657Y44556D1*
Y44738D1*
X75595Y45041D1*
X75475Y45224D1*
X75292Y45284D1*
X75171D1*
X75595Y45041D2*
X74867Y44253D1*
X76171Y45284D2*
X76838D1*
X76475Y44799D1*
X76657D1*
X76778Y44738D1*
X76838Y44678D1*
X76900Y44495D1*
Y44375D1*
X76838Y44192D1*
X76717Y44070D1*
X76535Y44010D1*
X76352D1*
X76171Y44070D1*
X76111Y44132D1*
X76049Y44253D1*
X15767Y40740D2*
Y39768D1*
X15707Y39586D1*
X15645Y39525D1*
X15524Y39464D1*
X15402D1*
X15281Y39525D1*
X15221Y39586D1*
X15159Y39768D1*
Y39889D1*
X16159Y40495D2*
X16281Y40557D1*
X16464Y40738D1*
Y39464D1*
X26532Y22760D2*
Y21788D1*
X26472Y21606D1*
X26410Y21546D1*
X26290Y21484D1*
X26167D1*
X26047Y21546D1*
X25986Y21606D1*
X25925Y21788D1*
Y21909D1*
X26986Y22455D2*
Y22516D1*
X27047Y22638D1*
X27107Y22698D1*
X27229Y22758D1*
X27472D1*
X27593Y22698D1*
X27653Y22638D1*
X27715Y22516D1*
Y22395D1*
X27653Y22273D1*
X27533Y22092D1*
X26925Y21484D1*
X27775D1*
X18132Y8860D2*
Y7888D1*
X18072Y7706D1*
X18010Y7646D1*
X17890Y7584D1*
X17767D1*
X17647Y7646D1*
X17586Y7706D1*
X17525Y7888D1*
Y8009D1*
X18647Y8858D2*
X19314D1*
X18950Y8373D1*
X19133D1*
X19253Y8312D1*
X19314Y8252D1*
X19375Y8070D1*
Y7949D1*
X19314Y7766D1*
X19193Y7644D1*
X19010Y7584D1*
X18828D1*
X18647Y7644D1*
X18586Y7706D1*
X18525Y7827D1*
X5994Y29636D2*
Y28665D1*
X5933Y28482D1*
X5871Y28422D1*
X5751Y28360D1*
X5629D1*
X5508Y28422D1*
X5447Y28482D1*
X5386Y28665D1*
Y28785D1*
X6994Y28360D2*
Y29635D1*
X6386Y28785D1*
X7297D1*
X32148Y42506D2*
Y41535D1*
X32088Y41352D1*
X32026Y41292D1*
X31905Y41230D1*
X31783D1*
X31662Y41292D1*
X31602Y41352D1*
X31540Y41535D1*
Y41655D1*
X33269Y42505D2*
X32662D1*
X32602Y41958D1*
X32662Y42019D1*
X32845Y42081D1*
X33026D1*
X33209Y42019D1*
X33331Y41898D1*
X33391Y41716D1*
Y41595D1*
X33331Y41412D1*
X33209Y41290D1*
X33026Y41230D1*
X32845D1*
X32662Y41290D1*
X32602Y41352D1*
X32540Y41473D1*
X41080Y17950D2*
Y16978D1*
X41020Y16796D1*
X40958Y16735D1*
X40838Y16674D1*
X40715D1*
X40595Y16735D1*
X40534Y16796D1*
X40473Y16978D1*
Y17099D1*
X42201Y17767D2*
X42141Y17888D1*
X41958Y17948D1*
X41838D1*
X41655Y17888D1*
X41533Y17705D1*
X41473Y17402D1*
Y17099D1*
X41533Y16856D1*
X41655Y16734D1*
X41838Y16674D1*
X41898D1*
X42079Y16734D1*
X42201Y16856D1*
X42262Y17039D1*
Y17099D1*
X42201Y17281D1*
X42079Y17402D1*
X41898Y17463D1*
X41838D1*
X41655Y17402D1*
X41533Y17281D1*
X41473Y17099D1*
X56898Y18702D2*
Y17731D1*
X56837Y17548D1*
X56776Y17488D1*
X56655Y17426D1*
X56533D1*
X56412Y17488D1*
X56352Y17548D1*
X56290Y17731D1*
Y17851D1*
X57290Y18458D2*
X57412Y18519D1*
X57595Y18701D1*
Y17426D1*
X58352Y18701D2*
X58169Y18640D1*
X58047Y18458D1*
X57987Y18154D1*
Y17972D1*
X58047Y17669D1*
X58169Y17486D1*
X58352Y17426D1*
X58472D1*
X58655Y17486D1*
X58776Y17669D1*
X58837Y17972D1*
Y18154D1*
X58776Y18458D1*
X58655Y18640D1*
X58472Y18701D1*
X58352D1*
X58776Y18458D2*
X58047Y17669D1*
X59230Y18458D2*
X59352Y18519D1*
X59534Y18701D1*
Y17426D1*
X88613Y19160D2*
Y18188D1*
X88552Y18006D1*
X88491Y17946D1*
X88370Y17884D1*
X88248D1*
X88127Y17946D1*
X88067Y18006D1*
X88005Y18188D1*
Y18309D1*
X89005Y18916D2*
X89127Y18977D1*
X89309Y19158D1*
Y17884D1*
X90067Y19158D2*
X89884Y19098D1*
X89762Y18916D1*
X89702Y18612D1*
Y18430D1*
X89762Y18127D1*
X89884Y17944D1*
X90067Y17884D1*
X90187D1*
X90370Y17944D1*
X90491Y18127D1*
X90552Y18430D1*
Y18612D1*
X90491Y18916D1*
X90370Y19098D1*
X90187Y19158D1*
X90067D1*
X90491Y18916D2*
X89762Y18127D1*
X91006Y18855D2*
Y18916D1*
X91067Y19038D1*
X91127Y19098D1*
X91249Y19158D1*
X91492D1*
X91613Y19098D1*
X91673Y19038D1*
X91735Y18916D1*
Y18795D1*
X91673Y18673D1*
X91552Y18492D1*
X90944Y17884D1*
X91795D1*
X11328Y33755D2*
Y32479D1*
X12056D1*
X12448Y33510D2*
X12570Y33572D1*
X12753Y33753D1*
Y32479D1*
X25977Y37979D2*
X25856Y37920D1*
X25734Y37798D1*
X25674Y37675D1*
X25612Y37493D1*
Y37190D1*
X25674Y37007D1*
X25734Y36886D1*
X25856Y36764D1*
X25977Y36704D1*
X26220D1*
X26342Y36764D1*
X26463Y36886D1*
X26523Y37007D1*
X26585Y37190D1*
Y37493D1*
X26523Y37675D1*
X26463Y37798D1*
X26342Y37920D1*
X26220Y37979D1*
X25977D1*
X26160Y36947D2*
X26523Y36582D1*
X26977Y37734D2*
X27099Y37796D1*
X27282Y37977D1*
Y36703D1*
X30191Y37943D2*
X30070Y37884D1*
X29948Y37761D1*
X29887Y37639D1*
X29826Y37457D1*
Y37154D1*
X29887Y36971D1*
X29948Y36850D1*
X30070Y36728D1*
X30191Y36668D1*
X30434D1*
X30556Y36728D1*
X30676Y36850D1*
X30737Y36971D1*
X30799Y37154D1*
Y37457D1*
X30737Y37639D1*
X30676Y37761D1*
X30556Y37884D1*
X30434Y37943D1*
X30191D1*
X30373Y36911D2*
X30737Y36546D1*
X31252Y37638D2*
Y37698D1*
X31313Y37820D1*
X31373Y37881D1*
X31495Y37941D1*
X31738D1*
X31859Y37881D1*
X31919Y37820D1*
X31981Y37698D1*
Y37578D1*
X31919Y37455D1*
X31799Y37274D1*
X31191Y36666D1*
X32041D1*
X21793Y37985D2*
X21672Y37926D1*
X21550Y37804D1*
X21489Y37682D1*
X21428Y37499D1*
Y37196D1*
X21489Y37013D1*
X21550Y36893D1*
X21672Y36771D1*
X21793Y36710D1*
X22035D1*
X22158Y36771D1*
X22278Y36893D1*
X22339Y37013D1*
X22400Y37196D1*
Y37499D1*
X22339Y37682D1*
X22278Y37804D1*
X22158Y37926D1*
X22035Y37985D1*
X21793D1*
X21975Y36953D2*
X22339Y36588D1*
X22915Y37983D2*
X23582D1*
X23218Y37498D1*
X23400D1*
X23521Y37437D1*
X23582Y37377D1*
X23643Y37195D1*
Y37074D1*
X23582Y36891D1*
X23461Y36769D1*
X23278Y36709D1*
X23096D1*
X22915Y36769D1*
X22854Y36831D1*
X22793Y36952D1*
X7329Y20616D2*
X7208Y20557D1*
X7086Y20434D1*
X7026Y20312D1*
X6964Y20130D1*
Y19827D1*
X7026Y19644D1*
X7086Y19523D1*
X7208Y19401D1*
X7329Y19341D1*
X7572D1*
X7694Y19401D1*
X7815Y19523D1*
X7875Y19644D1*
X7937Y19827D1*
Y20130D1*
X7875Y20312D1*
X7815Y20434D1*
X7694Y20557D1*
X7572Y20616D1*
X7329D1*
X7512Y19584D2*
X7875Y19219D1*
X9058Y20614D2*
X8451D1*
X8391Y20068D1*
X8451Y20128D1*
X8634Y20190D1*
X8815D1*
X8997Y20128D1*
X9119Y20008D1*
X9180Y19825D1*
Y19704D1*
X9119Y19522D1*
X8997Y19400D1*
X8815Y19339D1*
X8634D1*
X8451Y19400D1*
X8391Y19462D1*
X8329Y19582D1*
X72900Y27876D2*
X72959Y27755D1*
X73081Y27633D1*
X73203Y27573D1*
X73385Y27511D1*
X73689D1*
X73871Y27573D1*
X73992Y27633D1*
X74114Y27755D1*
X74174Y27876D1*
Y28119D1*
X74114Y28241D1*
X73992Y28362D1*
X73871Y28422D1*
X73689Y28484D1*
X73385D1*
X73203Y28422D1*
X73081Y28362D1*
X72959Y28241D1*
X72900Y28119D1*
Y27876D1*
X73932Y28058D2*
X74297Y28422D1*
X73144Y28876D2*
X73082Y28998D1*
X72901Y29180D1*
X74176D1*
X72901Y29938D2*
X72962Y29755D1*
X73144Y29633D1*
X73447Y29573D1*
X73630D1*
X73933Y29633D1*
X74115Y29755D1*
X74176Y29938D1*
Y30058D1*
X74115Y30241D1*
X73933Y30362D1*
X73630Y30423D1*
X73447D1*
X73144Y30362D1*
X72962Y30241D1*
X72901Y30058D1*
Y29938D1*
X73144Y30362D2*
X73933Y29633D1*
X73144Y30816D2*
X73082Y30938D1*
X72901Y31120D1*
X74176D1*
X85251Y29709D2*
X85310Y29588D1*
X85432Y29466D1*
X85554Y29405D1*
X85736Y29344D1*
X86040D1*
X86222Y29405D1*
X86343Y29466D1*
X86465Y29588D1*
X86525Y29709D1*
Y29951D1*
X86465Y30074D1*
X86343Y30194D1*
X86222Y30255D1*
X86040Y30316D1*
X85736D1*
X85554Y30255D1*
X85432Y30194D1*
X85310Y30074D1*
X85251Y29951D1*
Y29709D1*
X86283Y29891D2*
X86648Y30255D1*
X85495Y30709D2*
X85433Y30831D1*
X85252Y31013D1*
X86527D1*
X85252Y31770D2*
X85313Y31588D1*
X85495Y31466D1*
X85798Y31405D1*
X85981D1*
X86284Y31466D1*
X86466Y31588D1*
X86527Y31770D1*
Y31891D1*
X86466Y32074D1*
X86284Y32194D1*
X85981Y32256D1*
X85798D1*
X85495Y32194D1*
X85313Y32074D1*
X85252Y31891D1*
Y31770D1*
X85495Y32194D2*
X86284Y31466D1*
X85555Y32710D2*
X85495D1*
X85373Y32770D1*
X85313Y32831D1*
X85252Y32953D1*
Y33196D1*
X85313Y33317D1*
X85373Y33377D1*
X85495Y33439D1*
X85616D1*
X85738Y33377D1*
X85919Y33256D1*
X86527Y32648D1*
Y33499D1*
X22073Y22236D2*
X22011Y22358D1*
X21830Y22541D1*
X23105D1*
Y23904D2*
X21829D1*
X23105Y23418D1*
X21829Y22933D1*
X23105D1*
X21829Y25085D2*
Y24296D1*
X23105D1*
Y25085D1*
X22437Y24296D2*
Y24782D1*
X22132Y26389D2*
X22011Y26328D1*
X21889Y26206D1*
X21829Y26085D1*
Y25842D1*
X21889Y25720D1*
X22011Y25600D1*
X22132Y25538D1*
X22315Y25477D1*
X22619D1*
X22800Y25538D1*
X22922Y25600D1*
X23043Y25720D1*
X23105Y25842D1*
Y26085D1*
X23043Y26206D1*
X22922Y26328D1*
X22800Y26389D1*
X22619D1*
Y26085D1*
X20535Y23079D2*
X20474Y23201D1*
X20293Y23384D1*
X21567D1*
X20535Y23776D2*
X20474Y23898D1*
X20293Y24081D1*
X21567D1*
X20293Y25202D2*
Y24595D1*
X20839Y24535D1*
X20778Y24595D1*
X20717Y24778D1*
Y24959D1*
X20778Y25141D1*
X20899Y25263D1*
X21082Y25324D1*
X21202D1*
X21385Y25263D1*
X21507Y25141D1*
X21567Y24959D1*
Y24778D1*
X21507Y24595D1*
X21445Y24535D1*
X21324Y24473D1*
X20291Y25716D2*
X21567D1*
X20717Y26324D2*
X21324Y25716D1*
X21082Y25959D2*
X21567Y26384D1*
X24445Y38244D2*
X24384D1*
X24262Y38304D1*
X24202Y38364D1*
X24142Y38486D1*
Y38729D1*
X24202Y38850D1*
X24262Y38910D1*
X24384Y38972D1*
X24505D1*
X24627Y38910D1*
X24808Y38790D1*
X25416Y38182D1*
Y39032D1*
X24142Y39790D2*
X24202Y39607D1*
X24384Y39485D1*
X24688Y39425D1*
X24870D1*
X25173Y39485D1*
X25356Y39607D1*
X25416Y39790D1*
Y39910D1*
X25356Y40093D1*
X25173Y40214D1*
X24870Y40275D1*
X24688D1*
X24384Y40214D1*
X24202Y40093D1*
X24142Y39910D1*
Y39790D1*
X24384Y40214D2*
X25173Y39485D1*
X24142Y41033D2*
X24202Y40850D1*
X24384Y40728D1*
X24688Y40668D1*
X24870D1*
X25173Y40728D1*
X25356Y40850D1*
X25416Y41033D1*
Y41153D1*
X25356Y41336D1*
X25173Y41456D1*
X24870Y41518D1*
X24688D1*
X24384Y41456D1*
X24202Y41336D1*
X24142Y41153D1*
Y41033D1*
X24384Y41456D2*
X25173Y40728D1*
X20545Y38344D2*
X20484D1*
X20362Y38404D1*
X20302Y38464D1*
X20242Y38586D1*
Y38829D1*
X20302Y38950D1*
X20362Y39010D1*
X20484Y39072D1*
X20605D1*
X20727Y39010D1*
X20908Y38890D1*
X21516Y38282D1*
Y39132D1*
X20242Y39890D2*
X20302Y39707D1*
X20484Y39585D1*
X20788Y39525D1*
X20970D1*
X21273Y39585D1*
X21456Y39707D1*
X21516Y39890D1*
Y40010D1*
X21456Y40193D1*
X21273Y40314D1*
X20970Y40375D1*
X20788D1*
X20484Y40314D1*
X20302Y40193D1*
X20242Y40010D1*
Y39890D1*
X20484Y40314D2*
X21273Y39585D1*
X20242Y41133D2*
X20302Y40950D1*
X20484Y40828D1*
X20788Y40768D1*
X20970D1*
X21273Y40828D1*
X21456Y40950D1*
X21516Y41133D1*
Y41253D1*
X21456Y41436D1*
X21273Y41556D1*
X20970Y41618D1*
X20788D1*
X20484Y41556D1*
X20302Y41436D1*
X20242Y41253D1*
Y41133D1*
X20484Y41556D2*
X21273Y40828D1*
X28345Y38444D2*
X28284D1*
X28162Y38504D1*
X28102Y38564D1*
X28042Y38686D1*
Y38929D1*
X28102Y39050D1*
X28162Y39110D1*
X28284Y39172D1*
X28405D1*
X28527Y39110D1*
X28708Y38990D1*
X29316Y38382D1*
Y39232D1*
X28042Y39990D2*
X28102Y39807D1*
X28284Y39685D1*
X28588Y39625D1*
X28770D1*
X29073Y39685D1*
X29256Y39807D1*
X29316Y39990D1*
Y40110D1*
X29256Y40293D1*
X29073Y40414D1*
X28770Y40475D1*
X28588D1*
X28284Y40414D1*
X28102Y40293D1*
X28042Y40110D1*
Y39990D1*
X28284Y40414D2*
X29073Y39685D1*
X28042Y41233D2*
X28102Y41050D1*
X28284Y40928D1*
X28588Y40868D1*
X28770D1*
X29073Y40928D1*
X29256Y41050D1*
X29316Y41233D1*
Y41353D1*
X29256Y41536D1*
X29073Y41656D1*
X28770Y41718D1*
X28588D1*
X28284Y41656D1*
X28102Y41536D1*
X28042Y41353D1*
Y41233D1*
X28284Y41656D2*
X29073Y40928D1*
X32483Y31303D2*
X32605Y31365D1*
X32787Y31546D1*
Y30271D1*
X33545Y31546D2*
X33362Y31485D1*
X33240Y31303D1*
X33180Y31000D1*
Y30817D1*
X33240Y30514D1*
X33362Y30332D1*
X33545Y30271D1*
X33665D1*
X33848Y30332D1*
X33968Y30514D1*
X34030Y30817D1*
Y31000D1*
X33968Y31303D1*
X33848Y31485D1*
X33665Y31546D1*
X33545D1*
X33968Y31303D2*
X33240Y30514D1*
X34422Y31547D2*
Y30271D1*
X35030Y31122D2*
X34422Y30514D1*
X34665Y30757D2*
X35091Y30271D1*
X60261Y36660D2*
Y36053D1*
X60807Y35993D1*
X60746Y36053D1*
X60684Y36236D1*
X60685Y36417D1*
X60746Y36599D1*
X60867Y36721D1*
X61050Y36782D1*
X61170D1*
X61353Y36721D1*
X61475Y36599D1*
X61535Y36417D1*
Y36236D1*
X61475Y36053D1*
X61413Y35993D1*
X61292Y35931D1*
X60261Y37539D2*
X60321Y37356D1*
X60503Y37234D1*
X60807Y37174D1*
X60989D1*
X61292Y37234D1*
X61475Y37356D1*
X61535Y37539D1*
Y37660D1*
X61475Y37842D1*
X61292Y37963D1*
X60989Y38025D1*
X60807D1*
X60503Y37963D1*
X60321Y37842D1*
X60261Y37660D1*
Y37539D1*
X60503Y37963D2*
X61292Y37234D1*
X70249Y36510D2*
X70188D1*
X70066Y36571D1*
X70006Y36631D1*
X69945Y36753D1*
Y36996D1*
X70006Y37117D1*
X70066Y37177D1*
X70188Y37239D1*
X70309D1*
X70431Y37177D1*
X70612Y37056D1*
X71220Y36449D1*
Y37299D1*
Y38663D2*
X69944D1*
X71220Y38177D1*
X69944Y37691D1*
X71220D1*
X69944Y39844D2*
Y39055D1*
X71220D1*
Y39844D1*
X70552Y39055D2*
Y39541D1*
X70247Y41147D2*
X70126Y41087D1*
X70004Y40965D1*
X69944Y40844D1*
Y40601D1*
X70004Y40479D1*
X70126Y40358D1*
X70247Y40297D1*
X70430Y40236D1*
X70734D1*
X70915Y40297D1*
X71037Y40358D1*
X71158Y40479D1*
X71220Y40601D1*
Y40844D1*
X71158Y40965D1*
X71037Y41087D1*
X70915Y41147D1*
X70734D1*
Y40844D1*
X80833Y29526D2*
Y30193D1*
X81318Y29830D1*
Y30012D1*
X81379Y30133D1*
X81439Y30193D1*
X81622Y30255D1*
X81742D1*
X81925Y30193D1*
X82047Y30073D1*
X82107Y29890D1*
Y29708D1*
X82047Y29526D1*
X81985Y29466D1*
X81864Y29404D1*
X80833Y30769D2*
Y31436D1*
X81318Y31073D1*
Y31255D1*
X81379Y31376D1*
X81439Y31436D1*
X81622Y31498D1*
X81742D1*
X81925Y31436D1*
X82047Y31315D1*
X82107Y31133D1*
Y30950D1*
X82047Y30769D1*
X81985Y30709D1*
X81864Y30647D1*
X81136Y31952D2*
X81076D1*
X80953Y32012D1*
X80893Y32073D1*
X80833Y32195D1*
Y32438D1*
X80893Y32558D1*
X80953Y32619D1*
X81076Y32680D1*
X81196D1*
X81318Y32619D1*
X81499Y32498D1*
X82107Y31890D1*
Y32741D1*
X80831Y33133D2*
X82107D1*
X81257Y33741D2*
X81864Y33133D1*
X81622Y33376D2*
X82107Y33801D1*
X81688Y41122D2*
X81810Y41184D1*
X81992Y41365D1*
Y40090D1*
X82749Y41365D2*
X82567Y41304D1*
X82445Y41122D1*
X82384Y40819D1*
Y40636D1*
X82445Y40333D1*
X82567Y40150D1*
X82749Y40090D1*
X82870D1*
X83053Y40150D1*
X83173Y40333D1*
X83235Y40636D1*
Y40819D1*
X83173Y41122D1*
X83053Y41304D1*
X82870Y41365D1*
X82749D1*
X83173Y41122D2*
X82445Y40333D1*
X83992Y41365D2*
X83810Y41304D1*
X83688Y41122D1*
X83627Y40819D1*
Y40636D1*
X83688Y40333D1*
X83810Y40150D1*
X83992Y40090D1*
X84113D1*
X84296Y40150D1*
X84416Y40333D1*
X84478Y40636D1*
Y40819D1*
X84416Y41122D1*
X84296Y41304D1*
X84113Y41365D1*
X83992D1*
X84416Y41122D2*
X83688Y40333D1*
X84870Y41366D2*
Y40090D1*
X85478Y40941D2*
X84870Y40333D1*
X85113Y40576D2*
X85538Y40090D1*
X79254Y29601D2*
Y30268D1*
X79740Y29904D1*
Y30087D1*
X79800Y30207D1*
X79860Y30268D1*
X80043Y30329D1*
X80163D1*
X80346Y30268D1*
X80468Y30147D1*
X80528Y29964D1*
Y29782D1*
X80468Y29601D1*
X80406Y29540D1*
X80286Y29479D1*
X79254Y30844D2*
Y31511D1*
X79740Y31147D1*
Y31329D1*
X79800Y31450D1*
X79860Y31511D1*
X80043Y31572D1*
X80163D1*
X80346Y31511D1*
X80468Y31390D1*
X80528Y31207D1*
Y31025D1*
X80468Y30844D1*
X80406Y30783D1*
X80286Y30722D1*
X79557Y32026D2*
X79497D1*
X79375Y32087D1*
X79314Y32147D1*
X79254Y32269D1*
Y32512D1*
X79314Y32633D1*
X79375Y32693D1*
X79497Y32755D1*
X79617D1*
X79740Y32693D1*
X79921Y32572D1*
X80528Y31964D1*
Y32815D1*
X79252Y33207D2*
X80528D1*
X79678Y33815D2*
X80286Y33207D1*
X80043Y33450D2*
X80528Y33876D1*
X77675Y29618D2*
Y30285D1*
X78161Y29921D1*
Y30103D1*
X78221Y30224D1*
X78281Y30285D1*
X78464Y30346D1*
X78585D1*
X78767Y30285D1*
X78889Y30164D1*
X78950Y29981D1*
Y29799D1*
X78889Y29618D1*
X78827Y29557D1*
X78707Y29496D1*
X77675Y30861D2*
Y31527D1*
X78161Y31164D1*
Y31346D1*
X78221Y31467D1*
X78281Y31527D1*
X78464Y31589D1*
X78585D1*
X78767Y31527D1*
X78889Y31407D1*
X78950Y31224D1*
Y31042D1*
X78889Y30861D1*
X78827Y30800D1*
X78707Y30738D1*
X77978Y32043D2*
X77918D1*
X77796Y32103D1*
X77735Y32164D1*
X77675Y32286D1*
Y32529D1*
X77735Y32650D1*
X77796Y32710D1*
X77918Y32772D1*
X78038D1*
X78161Y32710D1*
X78342Y32589D1*
X78950Y31981D1*
Y32832D1*
X77673Y33224D2*
X78950D1*
X78099Y33832D2*
X78707Y33224D1*
X78464Y33467D2*
X78950Y33892D1*
X68083Y24629D2*
X68021Y24751D1*
X67840Y24934D1*
X69115D1*
X67839Y25326D2*
X69115Y26177D1*
X67839D2*
X69115Y25326D1*
X72786Y11824D2*
Y11218D1*
X73332Y11158D1*
X73271Y11218D1*
X73210Y11401D1*
Y11582D1*
X73271Y11764D1*
X73392Y11886D1*
X73575Y11947D1*
X73695D1*
X73878Y11886D1*
X74000Y11764D1*
X74060Y11582D1*
Y11401D1*
X74000Y11218D1*
X73938Y11158D1*
X73817Y11096D1*
X72786Y12704D2*
X72846Y12521D1*
X73028Y12399D1*
X73332Y12339D1*
X73514D1*
X73817Y12399D1*
X74000Y12521D1*
X74060Y12704D1*
Y12825D1*
X74000Y13007D1*
X73817Y13128D1*
X73514Y13190D1*
X73332D1*
X73028Y13128D1*
X72846Y13007D1*
X72786Y12825D1*
Y12704D1*
X73028Y13128D2*
X73817Y12399D1*
X73495Y16849D2*
Y17395D1*
X73433Y17578D1*
X73373Y17639D1*
X73252Y17700D1*
X73130D1*
X73009Y17639D1*
X72947Y17578D1*
X72887Y17395D1*
Y16849D1*
X74163D1*
X73495Y17274D2*
X74163Y17700D1*
X72887Y18092D2*
X74163Y18943D1*
X72887D2*
X74163Y18092D1*
X73131Y19335D2*
X73070Y19457D1*
X72889Y19640D1*
X74163D1*
X74541Y11751D2*
Y11145D1*
X75087Y11085D1*
X75027Y11145D1*
X74965Y11327D1*
Y11509D1*
X75027Y11691D1*
X75147Y11813D1*
X75330Y11874D1*
X75450D1*
X75633Y11813D1*
X75755Y11691D1*
X75815Y11509D1*
Y11327D1*
X75755Y11145D1*
X75693Y11085D1*
X75573Y11023D1*
X74541Y12631D2*
X74601Y12448D1*
X74784Y12326D1*
X75087Y12266D1*
X75269D1*
X75573Y12326D1*
X75755Y12448D1*
X75815Y12631D1*
Y12751D1*
X75755Y12934D1*
X75573Y13055D1*
X75269Y13116D1*
X75087D1*
X74784Y13055D1*
X74601Y12934D1*
X74541Y12751D1*
Y12631D1*
X74784Y13055D2*
X75573Y12326D1*
X75050Y16891D2*
Y17437D1*
X74988Y17620D1*
X74928Y17681D1*
X74807Y17742D1*
X74685D1*
X74564Y17681D1*
X74503Y17620D1*
X74442Y17437D1*
Y16891D1*
X75718D1*
X75050Y17316D2*
X75718Y17742D1*
X74442Y18134D2*
X75718Y18985D1*
X74442D2*
X75718Y18134D1*
X74747Y19439D2*
X74687D1*
X74564Y19499D1*
X74504Y19559D1*
X74444Y19681D1*
Y19924D1*
X74504Y20045D1*
X74564Y20105D1*
X74687Y20167D1*
X74807D1*
X74929Y20105D1*
X75111Y19985D1*
X75718Y19377D1*
Y20228D1*
X76311Y11739D2*
Y11133D1*
X76857Y11073D1*
X76797Y11133D1*
X76735Y11315D1*
Y11497D1*
X76797Y11679D1*
X76917Y11801D1*
X77100Y11862D1*
X77221D1*
X77403Y11801D1*
X77525Y11679D1*
X77586Y11497D1*
Y11315D1*
X77525Y11133D1*
X77463Y11073D1*
X77343Y11011D1*
X76311Y12619D2*
X76371Y12436D1*
X76554Y12314D1*
X76857Y12254D1*
X77040D1*
X77343Y12314D1*
X77525Y12436D1*
X77586Y12619D1*
Y12739D1*
X77525Y12922D1*
X77343Y13043D1*
X77040Y13104D1*
X76857D1*
X76554Y13043D1*
X76371Y12922D1*
X76311Y12739D1*
Y12619D1*
X76554Y13043D2*
X77343Y12314D1*
X76770Y16841D2*
Y17387D1*
X76709Y17570D1*
X76648Y17631D1*
X76527Y17692D1*
X76405D1*
X76285Y17631D1*
X76223Y17570D1*
X76162Y17387D1*
Y16841D1*
X77439D1*
X76770Y17266D2*
X77439Y17692D1*
X76162Y18084D2*
X77439Y18935D1*
X76162D2*
X77439Y18084D1*
X76164Y19449D2*
Y20116D1*
X76650Y19752D1*
Y19935D1*
X76710Y20055D1*
X76770Y20116D1*
X76953Y20178D1*
X77074D1*
X77256Y20116D1*
X77378Y19995D1*
X77439Y19813D1*
Y19630D1*
X77378Y19449D1*
X77316Y19389D1*
X77196Y19327D1*
X18861Y30465D2*
Y29554D1*
X18921Y29372D1*
X19044Y29251D1*
X19226Y29189D1*
X19347D1*
X19529Y29251D1*
X19651Y29372D1*
X19712Y29554D1*
Y30465D1*
X20104Y30221D2*
X20226Y30283D1*
X20409Y30464D1*
Y29189D1*
X15978Y16663D2*
Y15752D1*
X16039Y15570D1*
X16161Y15449D1*
X16343Y15387D1*
X16464D1*
X16647Y15449D1*
X16769Y15570D1*
X16829Y15752D1*
Y16663D1*
X17283Y16359D2*
Y16419D1*
X17343Y16541D1*
X17404Y16601D1*
X17526Y16662D1*
X17769D1*
X17890Y16601D1*
X17950Y16541D1*
X18012Y16419D1*
Y16298D1*
X17950Y16176D1*
X17829Y15995D1*
X17221Y15387D1*
X18072D1*
X29915Y29865D2*
Y28954D1*
X29975Y28772D1*
X30097Y28651D1*
X30280Y28589D1*
X30400D1*
X30583Y28651D1*
X30705Y28772D1*
X30765Y28954D1*
Y29865D1*
X31280Y29864D2*
X31946D1*
X31583Y29378D1*
X31765D1*
X31886Y29318D1*
X31946Y29258D1*
X32008Y29075D1*
Y28954D1*
X31946Y28772D1*
X31826Y28650D1*
X31643Y28589D1*
X31461D1*
X31280Y28650D1*
X31219Y28711D1*
X31157Y28832D1*
X71654Y22069D2*
X72565D1*
X72748Y22130D1*
X72869Y22252D1*
X72930Y22434D1*
Y22555D1*
X72869Y22738D1*
X72748Y22860D1*
X72565Y22920D1*
X71654D1*
X71899Y23312D2*
X71837Y23434D1*
X71656Y23617D1*
X72930D1*
X71656Y24374D2*
X71716Y24192D1*
X71899Y24069D1*
X72202Y24009D1*
X72384D1*
X72688Y24069D1*
X72870Y24192D1*
X72930Y24374D1*
Y24495D1*
X72870Y24677D1*
X72688Y24798D1*
X72384Y24860D1*
X72202D1*
X71899Y24798D1*
X71716Y24677D1*
X71656Y24495D1*
Y24374D1*
X71899Y24798D2*
X72688Y24069D1*
X71899Y25252D2*
X71837Y25374D1*
X71656Y25557D1*
X72930D1*
X77673Y36878D2*
Y35967D1*
X77733Y35785D1*
X77855Y35664D1*
X78038Y35602D1*
X78158D1*
X78341Y35664D1*
X78463Y35785D1*
X78523Y35967D1*
Y36878D1*
X78915Y36634D2*
X79038Y36696D1*
X79220Y36877D1*
Y35602D1*
X79977Y36877D2*
X79795Y36817D1*
X79673Y36634D1*
X79612Y36331D1*
Y36148D1*
X79673Y35845D1*
X79795Y35663D1*
X79977Y35602D1*
X80098D1*
X80280Y35663D1*
X80401Y35845D1*
X80463Y36148D1*
Y36331D1*
X80401Y36634D1*
X80280Y36817D1*
X80098Y36877D1*
X79977D1*
X80401Y36634D2*
X79673Y35845D1*
X80917Y36574D2*
Y36634D1*
X80977Y36756D1*
X81038Y36817D1*
X81160Y36877D1*
X81403D1*
X81523Y36817D1*
X81584Y36756D1*
X81645Y36634D1*
Y36513D1*
X81584Y36391D1*
X81463Y36210D1*
X80855Y35602D1*
X81706D1*
X61992Y86358D2*
X62052Y86175D1*
X62235Y86053D1*
X62538Y85993D1*
X62721D1*
X63024Y86053D1*
X63206Y86175D1*
X63267Y86358D1*
Y86479D1*
X63206Y86661D1*
X63024Y86782D1*
X62721Y86844D1*
X62538D1*
X62235Y86782D1*
X62052Y86661D1*
X61992Y86479D1*
Y86358D1*
X62235Y86782D2*
X63024Y86053D1*
X63145Y87296D2*
X63206Y87236D1*
X63267Y87296D1*
X63206Y87358D1*
X63145Y87296D1*
X62235Y87750D2*
X62173Y87872D1*
X61992Y88055D1*
X63267D1*
X62416Y88447D2*
X63024D1*
X63205Y88507D1*
X63267Y88629D1*
Y88812D1*
X63205Y88933D1*
X63024Y89115D1*
X62416D2*
X63267D1*
X61991Y90298D2*
Y89507D1*
X63267D1*
X62599D2*
Y89993D1*
X81875Y88526D2*
X81997Y88588D1*
X82179Y88769D1*
Y87494D1*
X82937Y88769D2*
X82754Y88708D1*
X82632Y88526D1*
X82572Y88223D1*
Y88040D1*
X82632Y87737D1*
X82754Y87554D1*
X82937Y87494D1*
X83057D1*
X83240Y87554D1*
X83361Y87737D1*
X83422Y88040D1*
Y88223D1*
X83361Y88526D1*
X83240Y88708D1*
X83057Y88769D1*
X82937D1*
X83361Y88526D2*
X82632Y87737D1*
X83814Y88345D2*
Y87494D1*
Y88102D2*
X83997Y88284D1*
X84119Y88345D1*
X84300D1*
X84422Y88284D1*
X84483Y88102D1*
Y87494D1*
X85665Y88770D2*
X84875D1*
Y87494D1*
Y88162D2*
X85361D1*
X75987Y79869D2*
X76048Y79686D1*
X76230Y79564D1*
X76533Y79504D1*
X76716D1*
X77019Y79564D1*
X77202Y79686D1*
X77262Y79869D1*
Y79989D1*
X77202Y80172D1*
X77019Y80293D1*
X76716Y80354D1*
X76533D1*
X76230Y80293D1*
X76048Y80172D1*
X75987Y79989D1*
Y79869D1*
X76230Y80293D2*
X77019Y79564D1*
X77140Y80807D2*
X77202Y80747D1*
X77262Y80807D1*
X77202Y80869D1*
X77140Y80807D1*
X76230Y81261D2*
X76168Y81383D1*
X75987Y81565D1*
X77262D1*
X76411Y81958D2*
X77019D1*
X77200Y82018D1*
X77262Y82140D1*
Y82323D1*
X77200Y82443D1*
X77019Y82626D1*
X76411D2*
X77262D1*
X75986Y83808D2*
Y83018D1*
X77262D1*
X76594D2*
Y83504D1*
X69678Y71352D2*
Y70746D1*
X70224Y70685D1*
X70164Y70746D1*
X70102Y70928D1*
Y71109D1*
X70164Y71292D1*
X70284Y71414D1*
X70467Y71474D1*
X70587D1*
X70770Y71414D1*
X70892Y71292D1*
X70952Y71109D1*
Y70928D1*
X70892Y70746D1*
X70830Y70685D1*
X70710Y70623D1*
X69678Y72231D2*
X69738Y72049D1*
X69921Y71927D1*
X70224Y71866D1*
X70406D1*
X70710Y71927D1*
X70892Y72049D1*
X70952Y72231D1*
Y72352D1*
X70892Y72535D1*
X70710Y72655D1*
X70406Y72717D1*
X70224D1*
X69921Y72655D1*
X69738Y72535D1*
X69678Y72352D1*
Y72231D1*
X69921Y72655D2*
X70710Y71927D1*
X69678Y73474D2*
X69738Y73292D1*
X69921Y73170D1*
X70224Y73109D1*
X70406D1*
X70710Y73170D1*
X70892Y73292D1*
X70952Y73474D1*
Y73595D1*
X70892Y73777D1*
X70710Y73898D1*
X70406Y73960D1*
X70224D1*
X69921Y73898D1*
X69738Y73777D1*
X69678Y73595D1*
Y73474D1*
X69921Y73898D2*
X70710Y73170D1*
X70102Y74352D2*
X71378D1*
X70284D2*
X70164Y74474D1*
X70102Y74595D1*
Y74777D1*
X70164Y74900D1*
X70284Y75020D1*
X70467Y75082D1*
X70589D1*
X70770Y75020D1*
X70892Y74900D1*
X70952Y74777D1*
Y74595D1*
X70892Y74474D1*
X70770Y74352D1*
X69676Y76265D2*
Y75474D1*
X70952D1*
X70284D2*
Y75960D1*
X81851Y72345D2*
X83127D1*
Y72770D1*
X83066Y72952D1*
X82945Y73075D1*
X82823Y73135D1*
X82642Y73195D1*
X82337D1*
X82155Y73135D1*
X82034Y73075D1*
X81912Y72952D1*
X81851Y72770D1*
Y72345D1*
X82096Y73587D2*
X82034Y73710D1*
X81853Y73892D1*
X83127D1*
X81853Y74649D2*
X81913Y74467D1*
X82096Y74345D1*
X82399Y74284D1*
X82581D1*
X82885Y74345D1*
X83067Y74467D1*
X83127Y74649D1*
Y74770D1*
X83067Y74952D1*
X82885Y75073D1*
X82581Y75135D1*
X82399D1*
X82096Y75073D1*
X81913Y74952D1*
X81853Y74770D1*
Y74649D1*
X82096Y75073D2*
X82885Y74345D1*
X82096Y75527D2*
X82034Y75649D1*
X81853Y75832D1*
X83127D1*
X67086Y80122D2*
X68362D1*
Y80548D1*
X68300Y80730D1*
X68180Y80852D1*
X68058Y80913D1*
X67876Y80973D1*
X67572D1*
X67389Y80913D1*
X67269Y80852D1*
X67146Y80730D1*
X67086Y80548D1*
Y80122D1*
X67330Y81365D2*
X67269Y81487D1*
X67088Y81670D1*
X68362D1*
X67088Y82427D2*
X67148Y82244D1*
X67330Y82122D1*
X67634Y82062D1*
X67816D1*
X68119Y82122D1*
X68302Y82244D1*
X68362Y82427D1*
Y82548D1*
X68302Y82730D1*
X68119Y82851D1*
X67816Y82913D1*
X67634D1*
X67330Y82851D1*
X67148Y82730D1*
X67088Y82548D1*
Y82427D1*
X67330Y82851D2*
X68119Y82122D1*
X67391Y83367D2*
X67330D1*
X67208Y83427D1*
X67148Y83487D1*
X67088Y83610D1*
Y83852D1*
X67148Y83973D1*
X67208Y84033D1*
X67330Y84095D1*
X67451D1*
X67573Y84033D1*
X67754Y83913D1*
X68362Y83305D1*
Y84156D1*
X72867Y95286D2*
Y94010D1*
X73292D1*
X73475Y94071D1*
X73597Y94192D1*
X73657Y94314D1*
X73717Y94495D1*
Y94800D1*
X73657Y94983D1*
X73597Y95103D1*
X73475Y95225D1*
X73292Y95286D1*
X72867D1*
X74110Y95041D2*
X74232Y95103D1*
X74414Y95284D1*
Y94010D1*
X75171Y95284D2*
X74989Y95224D1*
X74867Y95041D1*
X74806Y94738D1*
Y94556D1*
X74867Y94253D1*
X74989Y94070D1*
X75171Y94010D1*
X75292D1*
X75475Y94070D1*
X75595Y94253D1*
X75657Y94556D1*
Y94738D1*
X75595Y95041D1*
X75475Y95224D1*
X75292Y95284D1*
X75171D1*
X75595Y95041D2*
X74867Y94253D1*
X76171Y95284D2*
X76838D1*
X76475Y94799D1*
X76657D1*
X76778Y94738D1*
X76838Y94678D1*
X76900Y94495D1*
Y94375D1*
X76838Y94192D1*
X76717Y94070D1*
X76535Y94010D1*
X76352D1*
X76171Y94070D1*
X76111Y94132D1*
X76049Y94253D1*
X56898Y68702D2*
Y67731D1*
X56837Y67548D1*
X56776Y67488D1*
X56655Y67426D1*
X56533D1*
X56412Y67488D1*
X56352Y67548D1*
X56290Y67731D1*
Y67851D1*
X57290Y68458D2*
X57412Y68519D1*
X57595Y68701D1*
Y67426D1*
X58352Y68701D2*
X58169Y68640D1*
X58047Y68458D1*
X57987Y68154D1*
Y67972D1*
X58047Y67669D1*
X58169Y67486D1*
X58352Y67426D1*
X58472D1*
X58655Y67486D1*
X58776Y67669D1*
X58837Y67972D1*
Y68154D1*
X58776Y68458D1*
X58655Y68640D1*
X58472Y68701D1*
X58352D1*
X58776Y68458D2*
X58047Y67669D1*
X59230Y68458D2*
X59352Y68519D1*
X59534Y68701D1*
Y67426D1*
X88613Y69160D2*
Y68188D1*
X88552Y68006D1*
X88491Y67946D1*
X88370Y67884D1*
X88248D1*
X88127Y67946D1*
X88067Y68006D1*
X88005Y68188D1*
Y68309D1*
X89005Y68916D2*
X89127Y68977D1*
X89309Y69158D1*
Y67884D1*
X90067Y69158D2*
X89884Y69098D1*
X89762Y68916D1*
X89702Y68612D1*
Y68430D1*
X89762Y68127D1*
X89884Y67944D1*
X90067Y67884D1*
X90187D1*
X90370Y67944D1*
X90491Y68127D1*
X90552Y68430D1*
Y68612D1*
X90491Y68916D1*
X90370Y69098D1*
X90187Y69158D1*
X90067D1*
X90491Y68916D2*
X89762Y68127D1*
X91006Y68855D2*
Y68916D1*
X91067Y69038D1*
X91127Y69098D1*
X91249Y69158D1*
X91492D1*
X91613Y69098D1*
X91673Y69038D1*
X91735Y68916D1*
Y68795D1*
X91673Y68673D1*
X91552Y68492D1*
X90944Y67884D1*
X91795D1*
X72900Y77876D2*
X72959Y77755D1*
X73081Y77633D1*
X73203Y77573D1*
X73385Y77511D1*
X73689D1*
X73871Y77573D1*
X73992Y77633D1*
X74114Y77755D1*
X74174Y77876D1*
Y78119D1*
X74114Y78241D1*
X73992Y78362D1*
X73871Y78422D1*
X73689Y78484D1*
X73385D1*
X73203Y78422D1*
X73081Y78362D1*
X72959Y78241D1*
X72900Y78119D1*
Y77876D1*
X73932Y78058D2*
X74297Y78422D1*
X73144Y78876D2*
X73082Y78998D1*
X72901Y79180D1*
X74176D1*
X72901Y79938D2*
X72962Y79755D1*
X73144Y79633D1*
X73447Y79573D1*
X73630D1*
X73933Y79633D1*
X74115Y79755D1*
X74176Y79938D1*
Y80058D1*
X74115Y80241D1*
X73933Y80362D1*
X73630Y80423D1*
X73447D1*
X73144Y80362D1*
X72962Y80241D1*
X72901Y80058D1*
Y79938D1*
X73144Y80362D2*
X73933Y79633D1*
X73144Y80816D2*
X73082Y80938D1*
X72901Y81120D1*
X74176D1*
X85251Y79709D2*
X85310Y79588D1*
X85432Y79466D1*
X85554Y79405D1*
X85736Y79344D1*
X86040D1*
X86222Y79405D1*
X86343Y79466D1*
X86465Y79588D1*
X86525Y79709D1*
Y79951D1*
X86465Y80074D1*
X86343Y80194D1*
X86222Y80255D1*
X86040Y80316D1*
X85736D1*
X85554Y80255D1*
X85432Y80194D1*
X85310Y80074D1*
X85251Y79951D1*
Y79709D1*
X86283Y79891D2*
X86648Y80255D1*
X85495Y80709D2*
X85433Y80831D1*
X85252Y81013D1*
X86527D1*
X85252Y81770D2*
X85313Y81588D1*
X85495Y81466D1*
X85798Y81405D1*
X85981D1*
X86284Y81466D1*
X86466Y81588D1*
X86527Y81770D1*
Y81891D1*
X86466Y82074D1*
X86284Y82194D1*
X85981Y82256D1*
X85798D1*
X85495Y82194D1*
X85313Y82074D1*
X85252Y81891D1*
Y81770D1*
X85495Y82194D2*
X86284Y81466D1*
X85555Y82710D2*
X85495D1*
X85373Y82770D1*
X85313Y82831D1*
X85252Y82953D1*
Y83196D1*
X85313Y83317D1*
X85373Y83377D1*
X85495Y83439D1*
X85616D1*
X85738Y83377D1*
X85919Y83256D1*
X86527Y82648D1*
Y83499D1*
X60261Y86660D2*
Y86053D1*
X60807Y85993D1*
X60746Y86053D1*
X60684Y86236D1*
X60685Y86417D1*
X60746Y86599D1*
X60867Y86721D1*
X61050Y86782D1*
X61170D1*
X61353Y86721D1*
X61475Y86599D1*
X61535Y86417D1*
Y86236D1*
X61475Y86053D1*
X61413Y85993D1*
X61292Y85931D1*
X60261Y87539D2*
X60321Y87356D1*
X60503Y87234D1*
X60807Y87174D1*
X60989D1*
X61292Y87234D1*
X61475Y87356D1*
X61535Y87539D1*
Y87660D1*
X61475Y87842D1*
X61292Y87963D1*
X60989Y88025D1*
X60807D1*
X60503Y87963D1*
X60321Y87842D1*
X60261Y87660D1*
Y87539D1*
X60503Y87963D2*
X61292Y87234D1*
X70249Y86510D2*
X70188D1*
X70066Y86571D1*
X70006Y86631D1*
X69945Y86753D1*
Y86996D1*
X70006Y87117D1*
X70066Y87177D1*
X70188Y87239D1*
X70309D1*
X70431Y87177D1*
X70612Y87056D1*
X71220Y86449D1*
Y87299D1*
Y88663D2*
X69944D1*
X71220Y88177D1*
X69944Y87691D1*
X71220D1*
X69944Y89844D2*
Y89055D1*
X71220D1*
Y89844D1*
X70552Y89055D2*
Y89541D1*
X70247Y91147D2*
X70126Y91087D1*
X70004Y90965D1*
X69944Y90844D1*
Y90601D1*
X70004Y90479D1*
X70126Y90358D1*
X70247Y90297D1*
X70430Y90236D1*
X70734D1*
X70915Y90297D1*
X71037Y90358D1*
X71158Y90479D1*
X71220Y90601D1*
Y90844D1*
X71158Y90965D1*
X71037Y91087D1*
X70915Y91147D1*
X70734D1*
Y90844D1*
X80833Y79526D2*
Y80193D1*
X81318Y79830D1*
Y80012D1*
X81379Y80133D1*
X81439Y80193D1*
X81622Y80255D1*
X81742D1*
X81925Y80193D1*
X82047Y80073D1*
X82107Y79890D1*
Y79708D1*
X82047Y79526D1*
X81985Y79466D1*
X81864Y79404D1*
X80833Y80769D2*
Y81436D1*
X81318Y81073D1*
Y81255D1*
X81379Y81376D1*
X81439Y81436D1*
X81622Y81498D1*
X81742D1*
X81925Y81436D1*
X82047Y81315D1*
X82107Y81133D1*
Y80950D1*
X82047Y80769D1*
X81985Y80709D1*
X81864Y80647D1*
X81136Y81952D2*
X81076D1*
X80953Y82012D1*
X80893Y82073D1*
X80833Y82195D1*
Y82438D1*
X80893Y82558D1*
X80953Y82619D1*
X81076Y82680D1*
X81196D1*
X81318Y82619D1*
X81499Y82498D1*
X82107Y81890D1*
Y82741D1*
X80831Y83133D2*
X82107D1*
X81257Y83741D2*
X81864Y83133D1*
X81622Y83376D2*
X82107Y83801D1*
X81688Y91122D2*
X81810Y91184D1*
X81992Y91365D1*
Y90090D1*
X82749Y91365D2*
X82567Y91304D1*
X82445Y91122D1*
X82384Y90819D1*
Y90636D1*
X82445Y90333D1*
X82567Y90150D1*
X82749Y90090D1*
X82870D1*
X83053Y90150D1*
X83173Y90333D1*
X83235Y90636D1*
Y90819D1*
X83173Y91122D1*
X83053Y91304D1*
X82870Y91365D1*
X82749D1*
X83173Y91122D2*
X82445Y90333D1*
X83992Y91365D2*
X83810Y91304D1*
X83688Y91122D1*
X83627Y90819D1*
Y90636D1*
X83688Y90333D1*
X83810Y90150D1*
X83992Y90090D1*
X84113D1*
X84296Y90150D1*
X84416Y90333D1*
X84478Y90636D1*
Y90819D1*
X84416Y91122D1*
X84296Y91304D1*
X84113Y91365D1*
X83992D1*
X84416Y91122D2*
X83688Y90333D1*
X84870Y91366D2*
Y90090D1*
X85478Y90941D2*
X84870Y90333D1*
X85113Y90576D2*
X85538Y90090D1*
X79254Y79601D2*
Y80268D1*
X79740Y79904D1*
Y80087D1*
X79800Y80207D1*
X79860Y80268D1*
X80043Y80329D1*
X80163D1*
X80346Y80268D1*
X80468Y80147D1*
X80528Y79964D1*
Y79782D1*
X80468Y79601D1*
X80406Y79540D1*
X80286Y79479D1*
X79254Y80844D2*
Y81511D1*
X79740Y81147D1*
Y81329D1*
X79800Y81450D1*
X79860Y81511D1*
X80043Y81572D1*
X80163D1*
X80346Y81511D1*
X80468Y81390D1*
X80528Y81207D1*
Y81025D1*
X80468Y80844D1*
X80406Y80783D1*
X80286Y80722D1*
X79557Y82026D2*
X79497D1*
X79375Y82087D1*
X79314Y82147D1*
X79254Y82269D1*
Y82512D1*
X79314Y82633D1*
X79375Y82693D1*
X79497Y82755D1*
X79617D1*
X79740Y82693D1*
X79921Y82572D1*
X80528Y81964D1*
Y82815D1*
X79252Y83207D2*
X80528D1*
X79678Y83815D2*
X80286Y83207D1*
X80043Y83450D2*
X80528Y83876D1*
X77675Y79618D2*
Y80285D1*
X78161Y79921D1*
Y80103D1*
X78221Y80224D1*
X78281Y80285D1*
X78464Y80346D1*
X78585D1*
X78767Y80285D1*
X78889Y80164D1*
X78950Y79981D1*
Y79799D1*
X78889Y79618D1*
X78827Y79557D1*
X78707Y79496D1*
X77675Y80861D2*
Y81527D1*
X78161Y81164D1*
Y81346D1*
X78221Y81467D1*
X78281Y81527D1*
X78464Y81589D1*
X78585D1*
X78767Y81527D1*
X78889Y81407D1*
X78950Y81224D1*
Y81042D1*
X78889Y80861D1*
X78827Y80800D1*
X78707Y80738D1*
X77978Y82043D2*
X77918D1*
X77796Y82103D1*
X77735Y82164D1*
X77675Y82286D1*
Y82529D1*
X77735Y82650D1*
X77796Y82710D1*
X77918Y82772D1*
X78038D1*
X78161Y82710D1*
X78342Y82589D1*
X78950Y81981D1*
Y82832D1*
X77673Y83224D2*
X78950D1*
X78099Y83832D2*
X78707Y83224D1*
X78464Y83467D2*
X78950Y83892D1*
X68083Y74629D2*
X68021Y74751D1*
X67840Y74934D1*
X69115D1*
X67839Y75326D2*
X69115Y76177D1*
X67839D2*
X69115Y75326D1*
X72786Y61824D2*
Y61218D1*
X73332Y61158D1*
X73271Y61218D1*
X73210Y61401D1*
Y61582D1*
X73271Y61764D1*
X73392Y61886D1*
X73575Y61947D1*
X73695D1*
X73878Y61886D1*
X74000Y61764D1*
X74060Y61582D1*
Y61401D1*
X74000Y61218D1*
X73938Y61158D1*
X73817Y61096D1*
X72786Y62704D2*
X72846Y62521D1*
X73028Y62399D1*
X73332Y62339D1*
X73514D1*
X73817Y62399D1*
X74000Y62521D1*
X74060Y62704D1*
Y62825D1*
X74000Y63007D1*
X73817Y63128D1*
X73514Y63190D1*
X73332D1*
X73028Y63128D1*
X72846Y63007D1*
X72786Y62825D1*
Y62704D1*
X73028Y63128D2*
X73817Y62399D1*
X73495Y66849D2*
Y67395D1*
X73433Y67578D1*
X73373Y67639D1*
X73252Y67700D1*
X73130D1*
X73009Y67639D1*
X72947Y67578D1*
X72887Y67395D1*
Y66849D1*
X74163D1*
X73495Y67274D2*
X74163Y67700D1*
X72887Y68092D2*
X74163Y68943D1*
X72887D2*
X74163Y68092D1*
X73131Y69335D2*
X73070Y69457D1*
X72889Y69640D1*
X74163D1*
X74541Y61751D2*
Y61145D1*
X75087Y61085D1*
X75027Y61145D1*
X74965Y61327D1*
Y61509D1*
X75027Y61691D1*
X75147Y61813D1*
X75330Y61874D1*
X75450D1*
X75633Y61813D1*
X75755Y61691D1*
X75815Y61509D1*
Y61327D1*
X75755Y61145D1*
X75693Y61085D1*
X75573Y61023D1*
X74541Y62631D2*
X74601Y62448D1*
X74784Y62326D1*
X75087Y62266D1*
X75269D1*
X75573Y62326D1*
X75755Y62448D1*
X75815Y62631D1*
Y62751D1*
X75755Y62934D1*
X75573Y63055D1*
X75269Y63116D1*
X75087D1*
X74784Y63055D1*
X74601Y62934D1*
X74541Y62751D1*
Y62631D1*
X74784Y63055D2*
X75573Y62326D1*
X75050Y66891D2*
Y67437D1*
X74988Y67620D1*
X74928Y67681D1*
X74807Y67742D1*
X74685D1*
X74564Y67681D1*
X74503Y67620D1*
X74442Y67437D1*
Y66891D1*
X75718D1*
X75050Y67316D2*
X75718Y67742D1*
X74442Y68134D2*
X75718Y68985D1*
X74442D2*
X75718Y68134D1*
X74747Y69439D2*
X74687D1*
X74564Y69499D1*
X74504Y69559D1*
X74444Y69681D1*
Y69924D1*
X74504Y70045D1*
X74564Y70105D1*
X74687Y70167D1*
X74807D1*
X74929Y70105D1*
X75111Y69985D1*
X75718Y69377D1*
Y70228D1*
X76311Y61739D2*
Y61133D1*
X76857Y61073D1*
X76797Y61133D1*
X76735Y61315D1*
Y61497D1*
X76797Y61679D1*
X76917Y61801D1*
X77100Y61862D1*
X77221D1*
X77403Y61801D1*
X77525Y61679D1*
X77586Y61497D1*
Y61315D1*
X77525Y61133D1*
X77463Y61073D1*
X77343Y61011D1*
X76311Y62619D2*
X76371Y62436D1*
X76554Y62314D1*
X76857Y62254D1*
X77040D1*
X77343Y62314D1*
X77525Y62436D1*
X77586Y62619D1*
Y62739D1*
X77525Y62922D1*
X77343Y63043D1*
X77040Y63104D1*
X76857D1*
X76554Y63043D1*
X76371Y62922D1*
X76311Y62739D1*
Y62619D1*
X76554Y63043D2*
X77343Y62314D1*
X76770Y66841D2*
Y67387D1*
X76709Y67570D1*
X76648Y67631D1*
X76527Y67692D1*
X76405D1*
X76285Y67631D1*
X76223Y67570D1*
X76162Y67387D1*
Y66841D1*
X77439D1*
X76770Y67266D2*
X77439Y67692D1*
X76162Y68084D2*
X77439Y68935D1*
X76162D2*
X77439Y68084D1*
X76164Y69449D2*
Y70116D1*
X76650Y69752D1*
Y69935D1*
X76710Y70055D1*
X76770Y70116D1*
X76953Y70178D1*
X77074D1*
X77256Y70116D1*
X77378Y69995D1*
X77439Y69813D1*
Y69630D1*
X77378Y69449D1*
X77316Y69389D1*
X77196Y69327D1*
X71654Y72069D2*
X72565D1*
X72748Y72130D1*
X72869Y72252D1*
X72930Y72434D1*
Y72555D1*
X72869Y72738D1*
X72748Y72860D1*
X72565Y72920D1*
X71654D1*
X71899Y73312D2*
X71837Y73434D1*
X71656Y73617D1*
X72930D1*
X71656Y74374D2*
X71716Y74192D1*
X71899Y74069D1*
X72202Y74009D1*
X72384D1*
X72688Y74069D1*
X72870Y74192D1*
X72930Y74374D1*
Y74495D1*
X72870Y74677D1*
X72688Y74798D1*
X72384Y74860D1*
X72202D1*
X71899Y74798D1*
X71716Y74677D1*
X71656Y74495D1*
Y74374D1*
X71899Y74798D2*
X72688Y74069D1*
X71899Y75252D2*
X71837Y75374D1*
X71656Y75557D1*
X72930D1*
X77673Y86878D2*
Y85967D1*
X77733Y85785D1*
X77855Y85664D1*
X78038Y85602D1*
X78158D1*
X78341Y85664D1*
X78463Y85785D1*
X78523Y85967D1*
Y86878D1*
X78915Y86634D2*
X79038Y86696D1*
X79220Y86877D1*
Y85602D1*
X79977Y86877D2*
X79795Y86817D1*
X79673Y86634D1*
X79612Y86331D1*
Y86148D1*
X79673Y85845D1*
X79795Y85663D1*
X79977Y85602D1*
X80098D1*
X80280Y85663D1*
X80401Y85845D1*
X80463Y86148D1*
Y86331D1*
X80401Y86634D1*
X80280Y86817D1*
X80098Y86877D1*
X79977D1*
X80401Y86634D2*
X79673Y85845D1*
X80917Y86574D2*
Y86634D1*
X80977Y86756D1*
X81038Y86817D1*
X81160Y86877D1*
X81403D1*
X81523Y86817D1*
X81584Y86756D1*
X81645Y86634D1*
Y86513D1*
X81584Y86391D1*
X81463Y86210D1*
X80855Y85602D1*
X81706D1*
X11992Y86358D2*
X12052Y86175D1*
X12235Y86053D1*
X12538Y85993D1*
X12721D1*
X13024Y86053D1*
X13206Y86175D1*
X13267Y86358D1*
Y86479D1*
X13206Y86661D1*
X13024Y86782D1*
X12721Y86844D1*
X12538D1*
X12235Y86782D1*
X12052Y86661D1*
X11992Y86479D1*
Y86358D1*
X12235Y86782D2*
X13024Y86053D1*
X13145Y87296D2*
X13206Y87236D1*
X13267Y87296D1*
X13206Y87358D1*
X13145Y87296D1*
X12235Y87750D2*
X12173Y87872D1*
X11992Y88055D1*
X13267D1*
X12416Y88447D2*
X13024D1*
X13205Y88507D1*
X13267Y88629D1*
Y88812D1*
X13205Y88933D1*
X13024Y89115D1*
X12416D2*
X13267D1*
X11991Y90298D2*
Y89507D1*
X13267D1*
X12599D2*
Y89993D1*
X31875Y88526D2*
X31997Y88588D1*
X32179Y88769D1*
Y87494D1*
X32937Y88769D2*
X32754Y88708D1*
X32632Y88526D1*
X32572Y88223D1*
Y88040D1*
X32632Y87737D1*
X32754Y87554D1*
X32937Y87494D1*
X33057D1*
X33240Y87554D1*
X33361Y87737D1*
X33422Y88040D1*
Y88223D1*
X33361Y88526D1*
X33240Y88708D1*
X33057Y88769D1*
X32937D1*
X33361Y88526D2*
X32632Y87737D1*
X33814Y88345D2*
Y87494D1*
Y88102D2*
X33997Y88284D1*
X34119Y88345D1*
X34300D1*
X34422Y88284D1*
X34483Y88102D1*
Y87494D1*
X35665Y88770D2*
X34875D1*
Y87494D1*
Y88162D2*
X35361D1*
X25987Y79869D2*
X26048Y79686D1*
X26230Y79564D1*
X26533Y79504D1*
X26716D1*
X27019Y79564D1*
X27202Y79686D1*
X27262Y79869D1*
Y79989D1*
X27202Y80172D1*
X27019Y80293D1*
X26716Y80354D1*
X26533D1*
X26230Y80293D1*
X26048Y80172D1*
X25987Y79989D1*
Y79869D1*
X26230Y80293D2*
X27019Y79564D1*
X27140Y80807D2*
X27202Y80747D1*
X27262Y80807D1*
X27202Y80869D1*
X27140Y80807D1*
X26230Y81261D2*
X26168Y81383D1*
X25987Y81565D1*
X27262D1*
X26411Y81958D2*
X27019D1*
X27200Y82018D1*
X27262Y82140D1*
Y82323D1*
X27200Y82443D1*
X27019Y82626D1*
X26411D2*
X27262D1*
X25986Y83808D2*
Y83018D1*
X27262D1*
X26594D2*
Y83504D1*
X19678Y71352D2*
Y70746D1*
X20224Y70685D1*
X20164Y70746D1*
X20102Y70928D1*
Y71109D1*
X20164Y71292D1*
X20284Y71414D1*
X20467Y71474D1*
X20587D1*
X20770Y71414D1*
X20892Y71292D1*
X20952Y71109D1*
Y70928D1*
X20892Y70746D1*
X20830Y70685D1*
X20710Y70623D1*
X19678Y72231D2*
X19738Y72049D1*
X19921Y71927D1*
X20224Y71866D1*
X20406D1*
X20710Y71927D1*
X20892Y72049D1*
X20952Y72231D1*
Y72352D1*
X20892Y72535D1*
X20710Y72655D1*
X20406Y72717D1*
X20224D1*
X19921Y72655D1*
X19738Y72535D1*
X19678Y72352D1*
Y72231D1*
X19921Y72655D2*
X20710Y71927D1*
X19678Y73474D2*
X19738Y73292D1*
X19921Y73170D1*
X20224Y73109D1*
X20406D1*
X20710Y73170D1*
X20892Y73292D1*
X20952Y73474D1*
Y73595D1*
X20892Y73777D1*
X20710Y73898D1*
X20406Y73960D1*
X20224D1*
X19921Y73898D1*
X19738Y73777D1*
X19678Y73595D1*
Y73474D1*
X19921Y73898D2*
X20710Y73170D1*
X20102Y74352D2*
X21378D1*
X20284D2*
X20164Y74474D1*
X20102Y74595D1*
Y74777D1*
X20164Y74900D1*
X20284Y75020D1*
X20467Y75082D1*
X20589D1*
X20770Y75020D1*
X20892Y74900D1*
X20952Y74777D1*
Y74595D1*
X20892Y74474D1*
X20770Y74352D1*
X19676Y76265D2*
Y75474D1*
X20952D1*
X20284D2*
Y75960D1*
X31851Y72345D2*
X33127D1*
Y72770D1*
X33066Y72952D1*
X32945Y73075D1*
X32823Y73135D1*
X32642Y73195D1*
X32337D1*
X32155Y73135D1*
X32034Y73075D1*
X31912Y72952D1*
X31851Y72770D1*
Y72345D1*
X32096Y73587D2*
X32034Y73710D1*
X31853Y73892D1*
X33127D1*
X31853Y74649D2*
X31913Y74467D1*
X32096Y74345D1*
X32399Y74284D1*
X32581D1*
X32885Y74345D1*
X33067Y74467D1*
X33127Y74649D1*
Y74770D1*
X33067Y74952D1*
X32885Y75073D1*
X32581Y75135D1*
X32399D1*
X32096Y75073D1*
X31913Y74952D1*
X31853Y74770D1*
Y74649D1*
X32096Y75073D2*
X32885Y74345D1*
X32096Y75527D2*
X32034Y75649D1*
X31853Y75832D1*
X33127D1*
X17086Y80122D2*
X18362D1*
Y80548D1*
X18300Y80730D1*
X18180Y80852D1*
X18058Y80913D1*
X17876Y80973D1*
X17572D1*
X17389Y80913D1*
X17269Y80852D1*
X17146Y80730D1*
X17086Y80548D1*
Y80122D1*
X17330Y81365D2*
X17269Y81487D1*
X17088Y81670D1*
X18362D1*
X17088Y82427D2*
X17148Y82244D1*
X17330Y82122D1*
X17634Y82062D1*
X17816D1*
X18119Y82122D1*
X18302Y82244D1*
X18362Y82427D1*
Y82548D1*
X18302Y82730D1*
X18119Y82851D1*
X17816Y82913D1*
X17634D1*
X17330Y82851D1*
X17148Y82730D1*
X17088Y82548D1*
Y82427D1*
X17330Y82851D2*
X18119Y82122D1*
X17391Y83367D2*
X17330D1*
X17208Y83427D1*
X17148Y83487D1*
X17088Y83610D1*
Y83852D1*
X17148Y83973D1*
X17208Y84033D1*
X17330Y84095D1*
X17451D1*
X17573Y84033D1*
X17754Y83913D1*
X18362Y83305D1*
Y84156D1*
X22867Y95286D2*
Y94010D1*
X23292D1*
X23475Y94071D1*
X23597Y94192D1*
X23657Y94314D1*
X23717Y94495D1*
Y94800D1*
X23657Y94983D1*
X23597Y95103D1*
X23475Y95225D1*
X23292Y95286D1*
X22867D1*
X24110Y95041D2*
X24232Y95103D1*
X24414Y95284D1*
Y94010D1*
X25171Y95284D2*
X24989Y95224D1*
X24867Y95041D1*
X24806Y94738D1*
Y94556D1*
X24867Y94253D1*
X24989Y94070D1*
X25171Y94010D1*
X25292D1*
X25475Y94070D1*
X25595Y94253D1*
X25657Y94556D1*
Y94738D1*
X25595Y95041D1*
X25475Y95224D1*
X25292Y95284D1*
X25171D1*
X25595Y95041D2*
X24867Y94253D1*
X26171Y95284D2*
X26838D1*
X26475Y94799D1*
X26657D1*
X26778Y94738D1*
X26838Y94678D1*
X26900Y94495D1*
Y94375D1*
X26838Y94192D1*
X26717Y94070D1*
X26535Y94010D1*
X26352D1*
X26171Y94070D1*
X26111Y94132D1*
X26049Y94253D1*
X6898Y68702D2*
Y67731D1*
X6837Y67548D1*
X6776Y67488D1*
X6655Y67426D1*
X6533D1*
X6412Y67488D1*
X6352Y67548D1*
X6290Y67731D1*
Y67851D1*
X7290Y68458D2*
X7412Y68519D1*
X7595Y68701D1*
Y67426D1*
X8352Y68701D2*
X8169Y68640D1*
X8047Y68458D1*
X7987Y68154D1*
Y67972D1*
X8047Y67669D1*
X8169Y67486D1*
X8352Y67426D1*
X8472D1*
X8655Y67486D1*
X8776Y67669D1*
X8837Y67972D1*
Y68154D1*
X8776Y68458D1*
X8655Y68640D1*
X8472Y68701D1*
X8352D1*
X8776Y68458D2*
X8047Y67669D1*
X9230Y68458D2*
X9352Y68519D1*
X9534Y68701D1*
Y67426D1*
X38613Y69160D2*
Y68188D1*
X38552Y68006D1*
X38491Y67946D1*
X38370Y67884D1*
X38248D1*
X38127Y67946D1*
X38067Y68006D1*
X38005Y68188D1*
Y68309D1*
X39005Y68916D2*
X39127Y68977D1*
X39309Y69158D1*
Y67884D1*
X40067Y69158D2*
X39884Y69098D1*
X39762Y68916D1*
X39702Y68612D1*
Y68430D1*
X39762Y68127D1*
X39884Y67944D1*
X40067Y67884D1*
X40187D1*
X40370Y67944D1*
X40491Y68127D1*
X40552Y68430D1*
Y68612D1*
X40491Y68916D1*
X40370Y69098D1*
X40187Y69158D1*
X40067D1*
X40491Y68916D2*
X39762Y68127D1*
X41006Y68855D2*
Y68916D1*
X41067Y69038D1*
X41127Y69098D1*
X41249Y69158D1*
X41492D1*
X41613Y69098D1*
X41673Y69038D1*
X41735Y68916D1*
Y68795D1*
X41673Y68673D1*
X41552Y68492D1*
X40944Y67884D1*
X41795D1*
X22900Y77876D2*
X22959Y77755D1*
X23081Y77633D1*
X23203Y77573D1*
X23385Y77511D1*
X23689D1*
X23871Y77573D1*
X23992Y77633D1*
X24114Y77755D1*
X24174Y77876D1*
Y78119D1*
X24114Y78241D1*
X23992Y78362D1*
X23871Y78422D1*
X23689Y78484D1*
X23385D1*
X23203Y78422D1*
X23081Y78362D1*
X22959Y78241D1*
X22900Y78119D1*
Y77876D1*
X23932Y78058D2*
X24297Y78422D1*
X23144Y78876D2*
X23082Y78998D1*
X22901Y79180D1*
X24176D1*
X22901Y79938D2*
X22962Y79755D1*
X23144Y79633D1*
X23447Y79573D1*
X23630D1*
X23933Y79633D1*
X24115Y79755D1*
X24176Y79938D1*
Y80058D1*
X24115Y80241D1*
X23933Y80362D1*
X23630Y80423D1*
X23447D1*
X23144Y80362D1*
X22962Y80241D1*
X22901Y80058D1*
Y79938D1*
X23144Y80362D2*
X23933Y79633D1*
X23144Y80816D2*
X23082Y80938D1*
X22901Y81120D1*
X24176D1*
X35251Y79709D2*
X35310Y79588D1*
X35432Y79466D1*
X35554Y79405D1*
X35736Y79344D1*
X36040D1*
X36222Y79405D1*
X36343Y79466D1*
X36465Y79588D1*
X36525Y79709D1*
Y79951D1*
X36465Y80074D1*
X36343Y80194D1*
X36222Y80255D1*
X36040Y80316D1*
X35736D1*
X35554Y80255D1*
X35432Y80194D1*
X35310Y80074D1*
X35251Y79951D1*
Y79709D1*
X36283Y79891D2*
X36648Y80255D1*
X35495Y80709D2*
X35433Y80831D1*
X35252Y81013D1*
X36527D1*
X35252Y81770D2*
X35313Y81588D1*
X35495Y81466D1*
X35798Y81405D1*
X35981D1*
X36284Y81466D1*
X36466Y81588D1*
X36527Y81770D1*
Y81891D1*
X36466Y82074D1*
X36284Y82194D1*
X35981Y82256D1*
X35798D1*
X35495Y82194D1*
X35313Y82074D1*
X35252Y81891D1*
Y81770D1*
X35495Y82194D2*
X36284Y81466D1*
X35555Y82710D2*
X35495D1*
X35373Y82770D1*
X35313Y82831D1*
X35252Y82953D1*
Y83196D1*
X35313Y83317D1*
X35373Y83377D1*
X35495Y83439D1*
X35616D1*
X35738Y83377D1*
X35919Y83256D1*
X36527Y82648D1*
Y83499D1*
X10261Y86660D2*
Y86053D1*
X10807Y85993D1*
X10746Y86053D1*
X10684Y86236D1*
X10685Y86417D1*
X10746Y86599D1*
X10867Y86721D1*
X11050Y86782D1*
X11170D1*
X11353Y86721D1*
X11475Y86599D1*
X11535Y86417D1*
Y86236D1*
X11475Y86053D1*
X11413Y85993D1*
X11292Y85931D1*
X10261Y87539D2*
X10321Y87356D1*
X10503Y87234D1*
X10807Y87174D1*
X10989D1*
X11292Y87234D1*
X11475Y87356D1*
X11535Y87539D1*
Y87660D1*
X11475Y87842D1*
X11292Y87963D1*
X10989Y88025D1*
X10807D1*
X10503Y87963D1*
X10321Y87842D1*
X10261Y87660D1*
Y87539D1*
X10503Y87963D2*
X11292Y87234D1*
X20249Y86510D2*
X20188D1*
X20066Y86571D1*
X20006Y86631D1*
X19945Y86753D1*
Y86996D1*
X20006Y87117D1*
X20066Y87177D1*
X20188Y87239D1*
X20309D1*
X20431Y87177D1*
X20612Y87056D1*
X21220Y86449D1*
Y87299D1*
Y88663D2*
X19944D1*
X21220Y88177D1*
X19944Y87691D1*
X21220D1*
X19944Y89844D2*
Y89055D1*
X21220D1*
Y89844D1*
X20552Y89055D2*
Y89541D1*
X20247Y91147D2*
X20126Y91087D1*
X20004Y90965D1*
X19944Y90844D1*
Y90601D1*
X20004Y90479D1*
X20126Y90358D1*
X20247Y90297D1*
X20430Y90236D1*
X20734D1*
X20915Y90297D1*
X21037Y90358D1*
X21158Y90479D1*
X21220Y90601D1*
Y90844D1*
X21158Y90965D1*
X21037Y91087D1*
X20915Y91147D1*
X20734D1*
Y90844D1*
X30833Y79526D2*
Y80193D1*
X31318Y79830D1*
Y80012D1*
X31379Y80133D1*
X31439Y80193D1*
X31622Y80255D1*
X31742D1*
X31925Y80193D1*
X32047Y80073D1*
X32107Y79890D1*
Y79708D1*
X32047Y79526D1*
X31985Y79466D1*
X31864Y79404D1*
X30833Y80769D2*
Y81436D1*
X31318Y81073D1*
Y81255D1*
X31379Y81376D1*
X31439Y81436D1*
X31622Y81498D1*
X31742D1*
X31925Y81436D1*
X32047Y81315D1*
X32107Y81133D1*
Y80950D1*
X32047Y80769D1*
X31985Y80709D1*
X31864Y80647D1*
X31136Y81952D2*
X31076D1*
X30953Y82012D1*
X30893Y82073D1*
X30833Y82195D1*
Y82438D1*
X30893Y82558D1*
X30953Y82619D1*
X31076Y82680D1*
X31196D1*
X31318Y82619D1*
X31499Y82498D1*
X32107Y81890D1*
Y82741D1*
X30831Y83133D2*
X32107D1*
X31257Y83741D2*
X31864Y83133D1*
X31622Y83376D2*
X32107Y83801D1*
X31688Y91122D2*
X31810Y91184D1*
X31992Y91365D1*
Y90090D1*
X32749Y91365D2*
X32567Y91304D1*
X32445Y91122D1*
X32384Y90819D1*
Y90636D1*
X32445Y90333D1*
X32567Y90150D1*
X32749Y90090D1*
X32870D1*
X33053Y90150D1*
X33173Y90333D1*
X33235Y90636D1*
Y90819D1*
X33173Y91122D1*
X33053Y91304D1*
X32870Y91365D1*
X32749D1*
X33173Y91122D2*
X32445Y90333D1*
X33992Y91365D2*
X33810Y91304D1*
X33688Y91122D1*
X33627Y90819D1*
Y90636D1*
X33688Y90333D1*
X33810Y90150D1*
X33992Y90090D1*
X34113D1*
X34296Y90150D1*
X34416Y90333D1*
X34478Y90636D1*
Y90819D1*
X34416Y91122D1*
X34296Y91304D1*
X34113Y91365D1*
X33992D1*
X34416Y91122D2*
X33688Y90333D1*
X34870Y91366D2*
Y90090D1*
X35478Y90941D2*
X34870Y90333D1*
X35113Y90576D2*
X35538Y90090D1*
X29254Y79601D2*
Y80268D1*
X29740Y79904D1*
Y80087D1*
X29800Y80207D1*
X29860Y80268D1*
X30043Y80329D1*
X30163D1*
X30346Y80268D1*
X30468Y80147D1*
X30528Y79964D1*
Y79782D1*
X30468Y79601D1*
X30406Y79540D1*
X30286Y79479D1*
X29254Y80844D2*
Y81511D1*
X29740Y81147D1*
Y81329D1*
X29800Y81450D1*
X29860Y81511D1*
X30043Y81572D1*
X30163D1*
X30346Y81511D1*
X30468Y81390D1*
X30528Y81207D1*
Y81025D1*
X30468Y80844D1*
X30406Y80783D1*
X30286Y80722D1*
X29557Y82026D2*
X29497D1*
X29375Y82087D1*
X29314Y82147D1*
X29254Y82269D1*
Y82512D1*
X29314Y82633D1*
X29375Y82693D1*
X29497Y82755D1*
X29617D1*
X29740Y82693D1*
X29921Y82572D1*
X30528Y81964D1*
Y82815D1*
X29252Y83207D2*
X30528D1*
X29678Y83815D2*
X30286Y83207D1*
X30043Y83450D2*
X30528Y83876D1*
X27675Y79618D2*
Y80285D1*
X28161Y79921D1*
Y80103D1*
X28221Y80224D1*
X28281Y80285D1*
X28464Y80346D1*
X28585D1*
X28767Y80285D1*
X28889Y80164D1*
X28950Y79981D1*
Y79799D1*
X28889Y79618D1*
X28827Y79557D1*
X28707Y79496D1*
X27675Y80861D2*
Y81527D1*
X28161Y81164D1*
Y81346D1*
X28221Y81467D1*
X28281Y81527D1*
X28464Y81589D1*
X28585D1*
X28767Y81527D1*
X28889Y81407D1*
X28950Y81224D1*
Y81042D1*
X28889Y80861D1*
X28827Y80800D1*
X28707Y80738D1*
X27978Y82043D2*
X27918D1*
X27796Y82103D1*
X27735Y82164D1*
X27675Y82286D1*
Y82529D1*
X27735Y82650D1*
X27796Y82710D1*
X27918Y82772D1*
X28038D1*
X28161Y82710D1*
X28342Y82589D1*
X28950Y81981D1*
Y82832D1*
X27673Y83224D2*
X28950D1*
X28099Y83832D2*
X28707Y83224D1*
X28464Y83467D2*
X28950Y83892D1*
X18083Y74629D2*
X18021Y74751D1*
X17840Y74934D1*
X19115D1*
X17839Y75326D2*
X19115Y76177D1*
X17839D2*
X19115Y75326D1*
X22786Y61824D2*
Y61218D1*
X23332Y61158D1*
X23271Y61218D1*
X23210Y61401D1*
Y61582D1*
X23271Y61764D1*
X23392Y61886D1*
X23575Y61947D1*
X23695D1*
X23878Y61886D1*
X24000Y61764D1*
X24060Y61582D1*
Y61401D1*
X24000Y61218D1*
X23938Y61158D1*
X23817Y61096D1*
X22786Y62704D2*
X22846Y62521D1*
X23028Y62399D1*
X23332Y62339D1*
X23514D1*
X23817Y62399D1*
X24000Y62521D1*
X24060Y62704D1*
Y62825D1*
X24000Y63007D1*
X23817Y63128D1*
X23514Y63190D1*
X23332D1*
X23028Y63128D1*
X22846Y63007D1*
X22786Y62825D1*
Y62704D1*
X23028Y63128D2*
X23817Y62399D1*
X23495Y66849D2*
Y67395D1*
X23433Y67578D1*
X23373Y67639D1*
X23252Y67700D1*
X23130D1*
X23009Y67639D1*
X22947Y67578D1*
X22887Y67395D1*
Y66849D1*
X24163D1*
X23495Y67274D2*
X24163Y67700D1*
X22887Y68092D2*
X24163Y68943D1*
X22887D2*
X24163Y68092D1*
X23131Y69335D2*
X23070Y69457D1*
X22889Y69640D1*
X24163D1*
X24541Y61751D2*
Y61145D1*
X25087Y61085D1*
X25027Y61145D1*
X24965Y61327D1*
Y61509D1*
X25027Y61691D1*
X25147Y61813D1*
X25330Y61874D1*
X25450D1*
X25633Y61813D1*
X25755Y61691D1*
X25815Y61509D1*
Y61327D1*
X25755Y61145D1*
X25693Y61085D1*
X25573Y61023D1*
X24541Y62631D2*
X24601Y62448D1*
X24784Y62326D1*
X25087Y62266D1*
X25269D1*
X25573Y62326D1*
X25755Y62448D1*
X25815Y62631D1*
Y62751D1*
X25755Y62934D1*
X25573Y63055D1*
X25269Y63116D1*
X25087D1*
X24784Y63055D1*
X24601Y62934D1*
X24541Y62751D1*
Y62631D1*
X24784Y63055D2*
X25573Y62326D1*
X25050Y66891D2*
Y67437D1*
X24988Y67620D1*
X24928Y67681D1*
X24807Y67742D1*
X24685D1*
X24564Y67681D1*
X24503Y67620D1*
X24442Y67437D1*
Y66891D1*
X25718D1*
X25050Y67316D2*
X25718Y67742D1*
X24442Y68134D2*
X25718Y68985D1*
X24442D2*
X25718Y68134D1*
X24747Y69439D2*
X24687D1*
X24564Y69499D1*
X24504Y69559D1*
X24444Y69681D1*
Y69924D1*
X24504Y70045D1*
X24564Y70105D1*
X24687Y70167D1*
X24807D1*
X24929Y70105D1*
X25111Y69985D1*
X25718Y69377D1*
Y70228D1*
X26311Y61739D2*
Y61133D1*
X26857Y61073D1*
X26797Y61133D1*
X26735Y61315D1*
Y61497D1*
X26797Y61679D1*
X26917Y61801D1*
X27100Y61862D1*
X27221D1*
X27403Y61801D1*
X27525Y61679D1*
X27586Y61497D1*
Y61315D1*
X27525Y61133D1*
X27463Y61073D1*
X27343Y61011D1*
X26311Y62619D2*
X26371Y62436D1*
X26554Y62314D1*
X26857Y62254D1*
X27040D1*
X27343Y62314D1*
X27525Y62436D1*
X27586Y62619D1*
Y62739D1*
X27525Y62922D1*
X27343Y63043D1*
X27040Y63104D1*
X26857D1*
X26554Y63043D1*
X26371Y62922D1*
X26311Y62739D1*
Y62619D1*
X26554Y63043D2*
X27343Y62314D1*
X26770Y66841D2*
Y67387D1*
X26709Y67570D1*
X26648Y67631D1*
X26527Y67692D1*
X26405D1*
X26285Y67631D1*
X26223Y67570D1*
X26162Y67387D1*
Y66841D1*
X27439D1*
X26770Y67266D2*
X27439Y67692D1*
X26162Y68084D2*
X27439Y68935D1*
X26162D2*
X27439Y68084D1*
X26164Y69449D2*
Y70116D1*
X26650Y69752D1*
Y69935D1*
X26710Y70055D1*
X26770Y70116D1*
X26953Y70178D1*
X27074D1*
X27256Y70116D1*
X27378Y69995D1*
X27439Y69813D1*
Y69630D1*
X27378Y69449D1*
X27316Y69389D1*
X27196Y69327D1*
X21654Y72069D2*
X22565D1*
X22748Y72130D1*
X22869Y72252D1*
X22930Y72434D1*
Y72555D1*
X22869Y72738D1*
X22748Y72860D1*
X22565Y72920D1*
X21654D1*
X21899Y73312D2*
X21837Y73434D1*
X21656Y73617D1*
X22930D1*
X21656Y74374D2*
X21716Y74192D1*
X21899Y74069D1*
X22202Y74009D1*
X22384D1*
X22688Y74069D1*
X22870Y74192D1*
X22930Y74374D1*
Y74495D1*
X22870Y74677D1*
X22688Y74798D1*
X22384Y74860D1*
X22202D1*
X21899Y74798D1*
X21716Y74677D1*
X21656Y74495D1*
Y74374D1*
X21899Y74798D2*
X22688Y74069D1*
X21899Y75252D2*
X21837Y75374D1*
X21656Y75557D1*
X22930D1*
X27673Y86878D2*
Y85967D1*
X27733Y85785D1*
X27855Y85664D1*
X28038Y85602D1*
X28158D1*
X28341Y85664D1*
X28463Y85785D1*
X28523Y85967D1*
Y86878D1*
X28915Y86634D2*
X29038Y86696D1*
X29220Y86877D1*
Y85602D1*
X29977Y86877D2*
X29795Y86817D1*
X29673Y86634D1*
X29612Y86331D1*
Y86148D1*
X29673Y85845D1*
X29795Y85663D1*
X29977Y85602D1*
X30098D1*
X30280Y85663D1*
X30401Y85845D1*
X30463Y86148D1*
Y86331D1*
X30401Y86634D1*
X30280Y86817D1*
X30098Y86877D1*
X29977D1*
X30401Y86634D2*
X29673Y85845D1*
X30917Y86574D2*
Y86634D1*
X30977Y86756D1*
X31038Y86817D1*
X31160Y86877D1*
X31403D1*
X31523Y86817D1*
X31584Y86756D1*
X31645Y86634D1*
Y86513D1*
X31584Y86391D1*
X31463Y86210D1*
X30855Y85602D1*
X31706D1*
X58629Y21241D2*
D94*
X58581Y21338D1*
X58483Y21436D1*
X58386Y21484D1*
X58192D1*
X58094Y21436D1*
X57998Y21338D1*
X57948Y21241D1*
X57900Y21095D1*
Y20852D1*
X57948Y20707D1*
X57998Y20609D1*
X58094Y20512D1*
X58192Y20463D1*
X58386D1*
X58483Y20512D1*
X58581Y20609D1*
X58629Y20707D1*
Y20852D1*
X58386D1*
X59623Y21484D2*
Y20463D1*
X58943Y21484D1*
Y20463D1*
X59937Y21484D2*
Y20463D1*
X60277D1*
X60423Y20512D1*
X60521Y20609D1*
X60569Y20707D1*
X60617Y20852D1*
Y21095D1*
X60569Y21241D1*
X60521Y21338D1*
X60423Y21436D1*
X60277Y21484D1*
X59937D1*
X58400Y23998D2*
X58837D1*
X58983Y24047D1*
X59032Y24095D1*
X59081Y24192D1*
Y24290D1*
X59032Y24386D1*
X58983Y24436D1*
X58837Y24484D1*
X58400D1*
Y23463D1*
X58740Y23998D2*
X59081Y23463D1*
X59394Y24484D2*
X60075Y23463D1*
Y24484D2*
X59394Y23463D1*
X60486Y24483D2*
X61020D1*
X60729Y24094D1*
X60875D1*
X60971Y24046D1*
X61020Y23998D1*
X61069Y23852D1*
Y23755D1*
X61020Y23609D1*
X60923Y23511D1*
X60777Y23463D1*
X60631D1*
X60486Y23511D1*
X60438Y23561D1*
X60389Y23657D1*
X58400Y25948D2*
X58837D1*
X58983Y25997D1*
X59032Y26045D1*
X59081Y26142D1*
Y26240D1*
X59032Y26336D1*
X58983Y26386D1*
X58837Y26434D1*
X58400D1*
Y25413D1*
X58740Y25948D2*
X59081Y25413D1*
X59394Y26434D2*
X60075Y25413D1*
Y26434D2*
X59394Y25413D1*
X60438Y26190D2*
Y26238D1*
X60486Y26336D1*
X60535Y26384D1*
X60632Y26433D1*
X60827D1*
X60923Y26384D1*
X60971Y26336D1*
X61021Y26238D1*
Y26142D1*
X60971Y26044D1*
X60875Y25899D1*
X60389Y25413D1*
X61069D1*
X58400Y27848D2*
X58837D1*
X58983Y27897D1*
X59032Y27945D1*
X59081Y28042D1*
Y28140D1*
X59032Y28236D1*
X58983Y28286D1*
X58837Y28334D1*
X58400D1*
Y27313D1*
X58740Y27848D2*
X59081Y27313D1*
X59394Y28334D2*
X60075Y27313D1*
Y28334D2*
X59394Y27313D1*
X60389Y28138D2*
X60486Y28188D1*
X60632Y28333D1*
Y27313D1*
X58433Y31983D2*
X57948D1*
X57899Y31546D1*
X57948Y31594D1*
X58094Y31644D1*
X58239D1*
X58385Y31594D1*
X58482Y31498D1*
X58531Y31352D1*
Y31255D1*
X58482Y31109D1*
X58385Y31011D1*
X58239Y30963D1*
X58094D1*
X57948Y31011D1*
X57899Y31061D1*
X57850Y31157D1*
X58844Y31984D2*
X59233Y30963D1*
X59621Y31984D1*
X91433Y32283D2*
X90948D1*
X90899Y31846D1*
X90948Y31894D1*
X91094Y31944D1*
X91239D1*
X91385Y31894D1*
X91482Y31798D1*
X91531Y31652D1*
Y31555D1*
X91482Y31409D1*
X91385Y31311D1*
X91239Y31263D1*
X91094D1*
X90948Y31311D1*
X90899Y31361D1*
X90850Y31457D1*
X91844Y32284D2*
X92233Y31263D1*
X92621Y32284D1*
X89929Y21291D2*
X89881Y21388D1*
X89783Y21486D1*
X89686Y21534D1*
X89492D1*
X89394Y21486D1*
X89298Y21388D1*
X89248Y21291D1*
X89200Y21145D1*
Y20902D1*
X89248Y20757D1*
X89298Y20659D1*
X89394Y20562D1*
X89492Y20513D1*
X89686D1*
X89783Y20562D1*
X89881Y20659D1*
X89929Y20757D1*
Y20902D1*
X89686D1*
X90923Y21534D2*
Y20513D1*
X90243Y21534D1*
Y20513D1*
X91237Y21534D2*
Y20513D1*
X91577D1*
X91723Y20562D1*
X91821Y20659D1*
X91869Y20757D1*
X91917Y20902D1*
Y21145D1*
X91869Y21291D1*
X91821Y21388D1*
X91723Y21486D1*
X91577Y21534D1*
X91237D1*
X89000Y24198D2*
X89437D1*
X89583Y24247D1*
X89632Y24295D1*
X89681Y24392D1*
Y24490D1*
X89632Y24586D1*
X89583Y24636D1*
X89437Y24684D1*
X89000D1*
Y23663D1*
X89340Y24198D2*
X89681Y23663D1*
X89994Y24684D2*
X90675Y23663D1*
Y24684D2*
X89994Y23663D1*
X91086Y24683D2*
X91620D1*
X91329Y24294D1*
X91475D1*
X91571Y24246D1*
X91620Y24198D1*
X91669Y24052D1*
Y23955D1*
X91620Y23809D1*
X91523Y23711D1*
X91377Y23663D1*
X91231D1*
X91086Y23711D1*
X91038Y23761D1*
X90989Y23857D1*
X89000Y26148D2*
X89437D1*
X89583Y26197D1*
X89632Y26245D1*
X89681Y26342D1*
Y26440D1*
X89632Y26536D1*
X89583Y26586D1*
X89437Y26634D1*
X89000D1*
Y25613D1*
X89340Y26148D2*
X89681Y25613D1*
X89994Y26634D2*
X90675Y25613D1*
Y26634D2*
X89994Y25613D1*
X91038Y26390D2*
Y26438D1*
X91086Y26536D1*
X91135Y26584D1*
X91232Y26633D1*
X91427D1*
X91523Y26584D1*
X91571Y26536D1*
X91621Y26438D1*
Y26342D1*
X91571Y26244D1*
X91475Y26099D1*
X90989Y25613D1*
X91669D1*
X89150Y28098D2*
X89587D1*
X89733Y28147D1*
X89782Y28195D1*
X89831Y28292D1*
Y28390D1*
X89782Y28486D1*
X89733Y28536D1*
X89587Y28584D1*
X89150D1*
Y27563D1*
X89490Y28098D2*
X89831Y27563D1*
X90144Y28584D2*
X90825Y27563D1*
Y28584D2*
X90144Y27563D1*
X91139Y28388D2*
X91236Y28438D1*
X91382Y28583D1*
Y27563D1*
X39579Y20941D2*
X39531Y21038D1*
X39433Y21136D1*
X39336Y21184D1*
X39142D1*
X39044Y21136D1*
X38948Y21038D1*
X38898Y20941D1*
X38850Y20795D1*
Y20552D1*
X38898Y20407D1*
X38948Y20309D1*
X39044Y20212D1*
X39142Y20163D1*
X39336D1*
X39433Y20212D1*
X39531Y20309D1*
X39579Y20407D1*
Y20552D1*
X39336D1*
X40573Y21184D2*
Y20163D1*
X39893Y21184D1*
Y20163D1*
X40887Y21184D2*
Y20163D1*
X41227D1*
X41373Y20212D1*
X41471Y20309D1*
X41519Y20407D1*
X41567Y20552D1*
Y20795D1*
X41519Y20941D1*
X41471Y21038D1*
X41373Y21136D1*
X41227Y21184D1*
X40887D1*
X38450Y23698D2*
X38887D1*
X39033Y23747D1*
X39082Y23795D1*
X39131Y23892D1*
Y23990D1*
X39082Y24086D1*
X39033Y24136D1*
X38887Y24184D1*
X38450D1*
Y23163D1*
X38790Y23698D2*
X39131Y23163D1*
X39444Y24184D2*
X40125Y23163D1*
Y24184D2*
X39444Y23163D1*
X40536Y24183D2*
X41070D1*
X40779Y23794D1*
X40925D1*
X41021Y23746D1*
X41070Y23698D1*
X41119Y23552D1*
Y23455D1*
X41070Y23309D1*
X40973Y23211D1*
X40827Y23163D1*
X40681D1*
X40536Y23211D1*
X40488Y23261D1*
X40439Y23357D1*
X38450Y25448D2*
X38887D1*
X39033Y25497D1*
X39082Y25545D1*
X39131Y25642D1*
Y25740D1*
X39082Y25836D1*
X39033Y25886D1*
X38887Y25934D1*
X38450D1*
Y24913D1*
X38790Y25448D2*
X39131Y24913D1*
X39444Y25934D2*
X40125Y24913D1*
Y25934D2*
X39444Y24913D1*
X40488Y25690D2*
Y25738D1*
X40536Y25836D1*
X40585Y25884D1*
X40682Y25933D1*
X40877D1*
X40973Y25884D1*
X41021Y25836D1*
X41071Y25738D1*
Y25642D1*
X41021Y25544D1*
X40925Y25399D1*
X40439Y24913D1*
X41119D1*
X39100Y27798D2*
X39537D1*
X39683Y27847D1*
X39732Y27895D1*
X39781Y27992D1*
Y28090D1*
X39732Y28186D1*
X39683Y28236D1*
X39537Y28284D1*
X39100D1*
Y27263D1*
X39440Y27798D2*
X39781Y27263D1*
X40094Y28284D2*
X40775Y27263D1*
Y28284D2*
X40094Y27263D1*
X41089Y28088D2*
X41186Y28138D1*
X41332Y28283D1*
Y27263D1*
X41583Y31833D2*
X41098D1*
X41049Y31396D1*
X41098Y31444D1*
X41244Y31494D1*
X41389D1*
X41535Y31444D1*
X41632Y31348D1*
X41681Y31202D1*
Y31105D1*
X41632Y30959D1*
X41535Y30861D1*
X41389Y30813D1*
X41244D1*
X41098Y30861D1*
X41049Y30911D1*
X41000Y31007D1*
X41994Y31834D2*
X42383Y30813D1*
X42771Y31834D1*
X28252Y10178D2*
Y9741D1*
X28301Y9595D1*
X28349Y9546D1*
X28446Y9498D1*
X28544D1*
X28640Y9546D1*
X28690Y9595D1*
X28738Y9741D1*
Y10178D1*
X27717D1*
X28252Y9838D2*
X27717Y9498D1*
X28738Y9184D2*
X27717Y8503D1*
X28738D2*
X27717Y9184D1*
X28542Y8190D2*
X28592Y8092D1*
X28737Y7946D1*
X27717D1*
X30856Y9215D2*
Y9700D1*
X30419Y9749D1*
X30468Y9700D1*
X30517Y9554D1*
Y9409D1*
X30468Y9263D1*
X30371Y9166D1*
X30225Y9117D1*
X30129D1*
X29983Y9166D1*
X29885Y9263D1*
X29837Y9409D1*
Y9554D1*
X29885Y9700D1*
X29934Y9749D1*
X30031Y9798D1*
X30857Y8804D2*
X29837Y8415D1*
X30857Y8026D1*
X8550Y36134D2*
Y35113D1*
X8988D1*
X9134Y35162D1*
X9182Y35211D1*
X9231Y35307D1*
Y35453D1*
X9182Y35551D1*
X9134Y35599D1*
X8988Y35648D1*
X9134Y35697D1*
X9182Y35745D1*
X9231Y35842D1*
Y35940D1*
X9182Y36036D1*
X9134Y36086D1*
X8988Y36134D1*
X8550D1*
Y35648D2*
X8988D1*
X9981Y36060D2*
Y35185D1*
X9544Y35622D2*
X10419D1*
X8900Y23534D2*
Y22513D1*
X9483D1*
X10428Y23534D2*
X9797D1*
Y22513D1*
X10428D1*
X9797Y23048D2*
X10185D1*
X10741Y23534D2*
Y22513D1*
X11082D1*
X11228Y22562D1*
X11325Y22659D1*
X11374Y22757D1*
X11422Y22902D1*
Y23145D1*
X11374Y23291D1*
X11325Y23388D1*
X11228Y23486D1*
X11082Y23534D1*
X10741D1*
X12173Y23460D2*
Y22585D1*
X11736Y23022D2*
X12611D1*
X58629Y71241D2*
X58581Y71338D1*
X58483Y71436D1*
X58386Y71484D1*
X58192D1*
X58094Y71436D1*
X57998Y71338D1*
X57948Y71241D1*
X57900Y71095D1*
Y70852D1*
X57948Y70707D1*
X57998Y70609D1*
X58094Y70512D1*
X58192Y70463D1*
X58386D1*
X58483Y70512D1*
X58581Y70609D1*
X58629Y70707D1*
Y70852D1*
X58386D1*
X59623Y71484D2*
Y70463D1*
X58943Y71484D1*
Y70463D1*
X59937Y71484D2*
Y70463D1*
X60277D1*
X60423Y70512D1*
X60521Y70609D1*
X60569Y70707D1*
X60617Y70852D1*
Y71095D1*
X60569Y71241D1*
X60521Y71338D1*
X60423Y71436D1*
X60277Y71484D1*
X59937D1*
X58400Y73998D2*
X58837D1*
X58983Y74047D1*
X59032Y74095D1*
X59081Y74192D1*
Y74290D1*
X59032Y74386D1*
X58983Y74436D1*
X58837Y74484D1*
X58400D1*
Y73463D1*
X58740Y73998D2*
X59081Y73463D1*
X59394Y74484D2*
X60075Y73463D1*
Y74484D2*
X59394Y73463D1*
X60486Y74483D2*
X61020D1*
X60729Y74094D1*
X60875D1*
X60971Y74046D1*
X61020Y73998D1*
X61069Y73852D1*
Y73755D1*
X61020Y73609D1*
X60923Y73511D1*
X60777Y73463D1*
X60631D1*
X60486Y73511D1*
X60438Y73561D1*
X60389Y73657D1*
X58400Y75948D2*
X58837D1*
X58983Y75997D1*
X59032Y76045D1*
X59081Y76142D1*
Y76240D1*
X59032Y76336D1*
X58983Y76386D1*
X58837Y76434D1*
X58400D1*
Y75413D1*
X58740Y75948D2*
X59081Y75413D1*
X59394Y76434D2*
X60075Y75413D1*
Y76434D2*
X59394Y75413D1*
X60438Y76190D2*
Y76238D1*
X60486Y76336D1*
X60535Y76384D1*
X60632Y76433D1*
X60827D1*
X60923Y76384D1*
X60971Y76336D1*
X61021Y76238D1*
Y76142D1*
X60971Y76044D1*
X60875Y75899D1*
X60389Y75413D1*
X61069D1*
X58400Y77848D2*
X58837D1*
X58983Y77897D1*
X59032Y77945D1*
X59081Y78042D1*
Y78140D1*
X59032Y78236D1*
X58983Y78286D1*
X58837Y78334D1*
X58400D1*
Y77313D1*
X58740Y77848D2*
X59081Y77313D1*
X59394Y78334D2*
X60075Y77313D1*
Y78334D2*
X59394Y77313D1*
X60389Y78138D2*
X60486Y78188D1*
X60632Y78333D1*
Y77313D1*
X58433Y81983D2*
X57948D1*
X57899Y81546D1*
X57948Y81594D1*
X58094Y81644D1*
X58239D1*
X58385Y81594D1*
X58482Y81498D1*
X58531Y81352D1*
Y81255D1*
X58482Y81109D1*
X58385Y81011D1*
X58239Y80963D1*
X58094D1*
X57948Y81011D1*
X57899Y81061D1*
X57850Y81157D1*
X58844Y81984D2*
X59233Y80963D1*
X59621Y81984D1*
X91433Y82283D2*
X90948D1*
X90899Y81846D1*
X90948Y81894D1*
X91094Y81944D1*
X91239D1*
X91385Y81894D1*
X91482Y81798D1*
X91531Y81652D1*
Y81555D1*
X91482Y81409D1*
X91385Y81311D1*
X91239Y81263D1*
X91094D1*
X90948Y81311D1*
X90899Y81361D1*
X90850Y81457D1*
X91844Y82284D2*
X92233Y81263D1*
X92621Y82284D1*
X89929Y71291D2*
X89881Y71388D1*
X89783Y71486D1*
X89686Y71534D1*
X89492D1*
X89394Y71486D1*
X89298Y71388D1*
X89248Y71291D1*
X89200Y71145D1*
Y70902D1*
X89248Y70757D1*
X89298Y70659D1*
X89394Y70562D1*
X89492Y70513D1*
X89686D1*
X89783Y70562D1*
X89881Y70659D1*
X89929Y70757D1*
Y70902D1*
X89686D1*
X90923Y71534D2*
Y70513D1*
X90243Y71534D1*
Y70513D1*
X91237Y71534D2*
Y70513D1*
X91577D1*
X91723Y70562D1*
X91821Y70659D1*
X91869Y70757D1*
X91917Y70902D1*
Y71145D1*
X91869Y71291D1*
X91821Y71388D1*
X91723Y71486D1*
X91577Y71534D1*
X91237D1*
X89000Y74198D2*
X89437D1*
X89583Y74247D1*
X89632Y74295D1*
X89681Y74392D1*
Y74490D1*
X89632Y74586D1*
X89583Y74636D1*
X89437Y74684D1*
X89000D1*
Y73663D1*
X89340Y74198D2*
X89681Y73663D1*
X89994Y74684D2*
X90675Y73663D1*
Y74684D2*
X89994Y73663D1*
X91086Y74683D2*
X91620D1*
X91329Y74294D1*
X91475D1*
X91571Y74246D1*
X91620Y74198D1*
X91669Y74052D1*
Y73955D1*
X91620Y73809D1*
X91523Y73711D1*
X91377Y73663D1*
X91231D1*
X91086Y73711D1*
X91038Y73761D1*
X90989Y73857D1*
X89000Y76148D2*
X89437D1*
X89583Y76197D1*
X89632Y76245D1*
X89681Y76342D1*
Y76440D1*
X89632Y76536D1*
X89583Y76586D1*
X89437Y76634D1*
X89000D1*
Y75613D1*
X89340Y76148D2*
X89681Y75613D1*
X89994Y76634D2*
X90675Y75613D1*
Y76634D2*
X89994Y75613D1*
X91038Y76390D2*
Y76438D1*
X91086Y76536D1*
X91135Y76584D1*
X91232Y76633D1*
X91427D1*
X91523Y76584D1*
X91571Y76536D1*
X91621Y76438D1*
Y76342D1*
X91571Y76244D1*
X91475Y76099D1*
X90989Y75613D1*
X91669D1*
X89150Y78098D2*
X89587D1*
X89733Y78147D1*
X89782Y78195D1*
X89831Y78292D1*
Y78390D1*
X89782Y78486D1*
X89733Y78536D1*
X89587Y78584D1*
X89150D1*
Y77563D1*
X89490Y78098D2*
X89831Y77563D1*
X90144Y78584D2*
X90825Y77563D1*
Y78584D2*
X90144Y77563D1*
X91139Y78388D2*
X91236Y78438D1*
X91382Y78583D1*
Y77563D1*
X8629Y71241D2*
X8581Y71338D1*
X8483Y71436D1*
X8386Y71484D1*
X8192D1*
X8094Y71436D1*
X7998Y71338D1*
X7948Y71241D1*
X7900Y71095D1*
Y70852D1*
X7948Y70707D1*
X7998Y70609D1*
X8094Y70512D1*
X8192Y70463D1*
X8386D1*
X8483Y70512D1*
X8581Y70609D1*
X8629Y70707D1*
Y70852D1*
X8386D1*
X9623Y71484D2*
Y70463D1*
X8943Y71484D1*
Y70463D1*
X9937Y71484D2*
Y70463D1*
X10277D1*
X10423Y70512D1*
X10521Y70609D1*
X10569Y70707D1*
X10617Y70852D1*
Y71095D1*
X10569Y71241D1*
X10521Y71338D1*
X10423Y71436D1*
X10277Y71484D1*
X9937D1*
X8400Y73998D2*
X8837D1*
X8983Y74047D1*
X9032Y74095D1*
X9081Y74192D1*
Y74290D1*
X9032Y74386D1*
X8983Y74436D1*
X8837Y74484D1*
X8400D1*
Y73463D1*
X8740Y73998D2*
X9081Y73463D1*
X9394Y74484D2*
X10075Y73463D1*
Y74484D2*
X9394Y73463D1*
X10486Y74483D2*
X11020D1*
X10729Y74094D1*
X10875D1*
X10971Y74046D1*
X11020Y73998D1*
X11069Y73852D1*
Y73755D1*
X11020Y73609D1*
X10923Y73511D1*
X10777Y73463D1*
X10631D1*
X10486Y73511D1*
X10438Y73561D1*
X10389Y73657D1*
X8400Y75948D2*
X8837D1*
X8983Y75997D1*
X9032Y76045D1*
X9081Y76142D1*
Y76240D1*
X9032Y76336D1*
X8983Y76386D1*
X8837Y76434D1*
X8400D1*
Y75413D1*
X8740Y75948D2*
X9081Y75413D1*
X9394Y76434D2*
X10075Y75413D1*
Y76434D2*
X9394Y75413D1*
X10438Y76190D2*
Y76238D1*
X10486Y76336D1*
X10535Y76384D1*
X10632Y76433D1*
X10827D1*
X10923Y76384D1*
X10971Y76336D1*
X11021Y76238D1*
Y76142D1*
X10971Y76044D1*
X10875Y75899D1*
X10389Y75413D1*
X11069D1*
X8400Y77848D2*
X8837D1*
X8983Y77897D1*
X9032Y77945D1*
X9081Y78042D1*
Y78140D1*
X9032Y78236D1*
X8983Y78286D1*
X8837Y78334D1*
X8400D1*
Y77313D1*
X8740Y77848D2*
X9081Y77313D1*
X9394Y78334D2*
X10075Y77313D1*
Y78334D2*
X9394Y77313D1*
X10389Y78138D2*
X10486Y78188D1*
X10632Y78333D1*
Y77313D1*
X8433Y81983D2*
X7948D1*
X7899Y81546D1*
X7948Y81594D1*
X8094Y81644D1*
X8239D1*
X8385Y81594D1*
X8482Y81498D1*
X8531Y81352D1*
Y81255D1*
X8482Y81109D1*
X8385Y81011D1*
X8239Y80963D1*
X8094D1*
X7948Y81011D1*
X7899Y81061D1*
X7850Y81157D1*
X8844Y81984D2*
X9233Y80963D1*
X9621Y81984D1*
X41433Y82283D2*
X40948D1*
X40899Y81846D1*
X40948Y81894D1*
X41094Y81944D1*
X41239D1*
X41385Y81894D1*
X41482Y81798D1*
X41531Y81652D1*
Y81555D1*
X41482Y81409D1*
X41385Y81311D1*
X41239Y81263D1*
X41094D1*
X40948Y81311D1*
X40899Y81361D1*
X40850Y81457D1*
X41844Y82284D2*
X42233Y81263D1*
X42621Y82284D1*
X39929Y71291D2*
X39881Y71388D1*
X39783Y71486D1*
X39686Y71534D1*
X39492D1*
X39394Y71486D1*
X39298Y71388D1*
X39248Y71291D1*
X39200Y71145D1*
Y70902D1*
X39248Y70757D1*
X39298Y70659D1*
X39394Y70562D1*
X39492Y70513D1*
X39686D1*
X39783Y70562D1*
X39881Y70659D1*
X39929Y70757D1*
Y70902D1*
X39686D1*
X40923Y71534D2*
Y70513D1*
X40243Y71534D1*
Y70513D1*
X41237Y71534D2*
Y70513D1*
X41577D1*
X41723Y70562D1*
X41821Y70659D1*
X41869Y70757D1*
X41917Y70902D1*
Y71145D1*
X41869Y71291D1*
X41821Y71388D1*
X41723Y71486D1*
X41577Y71534D1*
X41237D1*
X39000Y74198D2*
X39437D1*
X39583Y74247D1*
X39632Y74295D1*
X39681Y74392D1*
Y74490D1*
X39632Y74586D1*
X39583Y74636D1*
X39437Y74684D1*
X39000D1*
Y73663D1*
X39340Y74198D2*
X39681Y73663D1*
X39994Y74684D2*
X40675Y73663D1*
Y74684D2*
X39994Y73663D1*
X41086Y74683D2*
X41620D1*
X41329Y74294D1*
X41475D1*
X41571Y74246D1*
X41620Y74198D1*
X41669Y74052D1*
Y73955D1*
X41620Y73809D1*
X41523Y73711D1*
X41377Y73663D1*
X41231D1*
X41086Y73711D1*
X41038Y73761D1*
X40989Y73857D1*
X39000Y76148D2*
X39437D1*
X39583Y76197D1*
X39632Y76245D1*
X39681Y76342D1*
Y76440D1*
X39632Y76536D1*
X39583Y76586D1*
X39437Y76634D1*
X39000D1*
Y75613D1*
X39340Y76148D2*
X39681Y75613D1*
X39994Y76634D2*
X40675Y75613D1*
Y76634D2*
X39994Y75613D1*
X41038Y76390D2*
Y76438D1*
X41086Y76536D1*
X41135Y76584D1*
X41232Y76633D1*
X41427D1*
X41523Y76584D1*
X41571Y76536D1*
X41621Y76438D1*
Y76342D1*
X41571Y76244D1*
X41475Y76099D1*
X40989Y75613D1*
X41669D1*
X39150Y78098D2*
X39587D1*
X39733Y78147D1*
X39782Y78195D1*
X39831Y78292D1*
Y78390D1*
X39782Y78486D1*
X39733Y78536D1*
X39587Y78584D1*
X39150D1*
Y77563D1*
X39490Y78098D2*
X39831Y77563D1*
X40144Y78584D2*
X40825Y77563D1*
Y78584D2*
X40144Y77563D1*
X41139Y78388D2*
X41236Y78438D1*
X41382Y78583D1*
Y77563D1*
M02*
